<?xml version="1.0" standalone="no"?>
<!DOCTYPE svg PUBLIC "-//W3C//DTD SVG 1.1//EN" "http://www.w3.org/Graphics/SVG/1.1/DTD/svg11.dtd" >
<svg xmlns="http://www.w3.org/2000/svg" xmlns:xlink="http://www.w3.org/1999/xlink" version="1.1">
<metadata>
Created by FontForge 20201107 at Wed Aug 31 14:42:26 2022
 By 
Copyright (c) 2022 by www.fontiran.com All rights reserved.
</metadata>
<defs>
<font id="AnjomanMax-Medium" horiz-adv-x="600" >
  <font-face 
    font-family="Anjoman Max Medium"
    font-weight="500"
    font-stretch="normal"
    units-per-em="1000"
    panose-1="0 0 0 0 0 0 0 0 0 0"
    ascent="800"
    descent="-200"
    x-height="532"
    cap-height="710"
    bbox="-218 -607 1514 1070"
    underline-thickness="61"
    underline-position="-393"
    unicode-range="U+0020-FEFC"
  />
<missing-glyph horiz-adv-x="785" 
d="M644 -500h-498v1570h498v-1570zM523 -392v52h-160l110 74h50v52h-261v-52h110l-110 -74v-52h261zM523 -178v177h-261v-177h261zM523 93v178h-157v-88h53v36h52v-74h-157v126h-52v-178h261zM523 305v157h-52v-103h-209v-54h261zM419 395v110h104v52h-261v-52h104v-58h-104
v-52h157zM523 599v53h-104v110h-157v-163h261zM523 803v52h-104v58h104v52h-259v-52h102v-58h-104v-52h261zM314 -53h157v-73h-157v73zM314 709h52v-57h-52v57z" />
    <glyph glyph-name="uniFDF2" unicode="&#x627;&#xfedf;&#xfee0;&#xfeea;" horiz-adv-x="1412" arabic-form="isolated" 
d="M567.5 499.5q-23.5 20.5 -23.5 55.5q0 23 4.5 56t5.5 42l52 -10l-10 -62q-2 -17 7.5 -26t26.5 -9q23 0 45 13v69h48v-54q0 -16 10 -22t30 -6q24 0 39 12q0 43 -9 92l54 15q10 -62 10 -105q0 -38 -25.5 -59.5t-67.5 -21.5q-40 0 -61 27q-29 -27 -74 -27q-38 0 -61.5 20.5z
M121.5 310.5q50.5 60.5 160.5 97.5l-8 68l88 26l25 -256q4 -43 10 -68.5t24 -41t52 -15.5h34q65 0 104 5.5t64 20.5l-10 245l88 17l3 -208q1 -38 28.5 -59t77.5 -21h26q108 0 163 31l-25 477l97 17l9 -501q1 -30 -13.5 -57t-42.5 -45q-35 -21 -86 -32t-102 -11
q-76 0 -117 18t-52 56q-26 -41 -78 -57.5t-134 -16.5h-36q-50 0 -85 23t-47 73l-1 -2q-9 -25 -44.5 -35t-93.5 -10q-55 0 -92 26t-37 78q0 97 50.5 157.5zM211 159q46 0 103 19l-17 141q-75 -18 -110.5 -59t-39.5 -85q26 -16 64 -16zM727 860l-4 -169h-46l-7 159zM1336 689
l6 -689l-81 -11l-21 683z" />
    <glyph glyph-name="uniFDFC" unicode="&#x631;&#xfef3;&#xfe8e;&#x644;&#x621;" horiz-adv-x="1586" arabic-form="isolated" 
d="M147 -177.5q-58 48.5 -58 145.5q0 22 7.5 77t19.5 128l17 107l76 -16q-38 -228 -38 -280q0 -47 46 -67.5t118 -20.5q141 0 206 46l-27 730l96 17l14 -766q1 -48 -45.5 -82t-114 -50.5t-129.5 -16.5q-130 0 -188 48.5zM806 689l4 -474q0 -47 27.5 -70.5t75.5 -23.5h32
q102 0 158.5 6t91.5 24l-21 224l93 16q10 -164 10 -246q0 -30 -13.5 -57.5t-41.5 -44.5q-39 -22 -101.5 -32.5t-171.5 -10.5h-24q-69 0 -111 20.5t-64 67t-25 126.5l-15 458zM790 -109h315v-103h-315v103zM1432 22l-36 287l96 20q12 -117 17 -178.5t5 -103.5
q0 -94 -67 -176.5t-205 -148.5l-60 93q208 94 250 207z" />
    <glyph glyph-name="uni06440622" unicode="&#xfedf;&#xfe82;" horiz-adv-x="496" arabic-form="isolated" 
d="M225 115q84 26 114 53l-26 526l97 16l11 -537q2 -97 -108.5 -150t-259.5 -69l-16 121q104 14 188 40zM174 499q45 -148 45 -335l-79 -18q0 69 -10.5 153t-35.5 162zM68 600q-32 4 -40 4q-19 0 -27.5 -8.5t-16.5 -37.5l-66 17q18 64 41 87.5t67 23.5q20 0 55 -5
q60 -8 109 -8h52l-17 -82h-45q-51 0 -112 9z" />
    <glyph glyph-name="uni06440622.fina" unicode="&#xfee0;&#xfe82;" horiz-adv-x="580" arabic-form="final" 
d="M434 16q-39 16 -55 55q-48 -49 -137 -78t-189 -39l-16 121q104 14 188 40t114 53l-26 526l97 16l11 -511q1 -33 14 -49.5t39.5 -22.5t75.5 -6h30q3 0 5.5 -9t2.5 -21v-60q0 -12 -2.5 -21.5t-5.5 -9.5h-36q-71 0 -110 16zM174 499q45 -148 45 -335l-79 -18q0 69 -10.5 153
t-35.5 162zM68 591q-32 4 -40 4q-19 0 -27.5 -8.5t-16.5 -37.5l-66 17q18 64 41 87.5t67 23.5q20 0 55 -5q60 -8 109 -8h52l-17 -82h-45q-51 0 -112 9z" />
    <glyph glyph-name="uni06440623" unicode="&#xfedf;&#xfe84;" horiz-adv-x="496" arabic-form="isolated" 
d="M225 115q84 26 114 53l-26 526l97 16l11 -537q2 -97 -108.5 -150t-259.5 -69l-16 121q104 14 188 40zM174 499q45 -148 45 -335l-79 -18q0 69 -10.5 153t-35.5 162zM-44 590l76 21q-24 47 -24 80t25.5 51.5t69.5 18.5q29 0 47 -6v-53q-33 6 -59 6q-25 0 -38 -7
q0 -15 8.5 -36t21.5 -39l115 32v-56l-242 -68v56z" />
    <glyph glyph-name="uni06440623.fina" unicode="&#xfee0;&#xfe84;" horiz-adv-x="580" arabic-form="final" 
d="M434 16q-39 16 -55 55q-48 -49 -137 -78t-189 -39l-16 121q104 14 188 40t114 53l-26 526l97 16l11 -511q1 -33 14 -49.5t39.5 -22.5t75.5 -6h30q3 0 5.5 -9t2.5 -21v-60q0 -12 -2.5 -21.5t-5.5 -9.5h-36q-71 0 -110 16zM174 499q45 -148 45 -335l-79 -18q0 69 -10.5 153
t-35.5 162zM-44 592l76 21q-24 47 -24 80t25.5 51.5t69.5 18.5q29 0 47 -6v-53q-33 6 -59 6q-25 0 -38 -7q0 -15 8.5 -36t21.5 -39l115 32v-56l-242 -68v56z" />
    <glyph glyph-name="uni06440625" unicode="&#xfedf;&#xfe88;" horiz-adv-x="496" arabic-form="isolated" 
d="M225 115q84 26 114 53l-26 526l97 16l11 -537q2 -97 -108.5 -150t-259.5 -69l-16 121q104 14 188 40zM92 675q127 -201 127 -511l-79 -18q0 109 -26 238t-94 229zM86 -235l76 21q-24 47 -24 80t25.5 51.5t69.5 18.5q29 0 47 -6v-53q-33 6 -59 6q-25 0 -38 -7
q0 -15 8.5 -36t21.5 -39l115 32v-56l-242 -68v56z" />
    <glyph glyph-name="uni06440625.fina" unicode="&#xfee0;&#xfe88;" horiz-adv-x="580" arabic-form="final" 
d="M434 16q-39 16 -55 55q-48 -49 -137 -78t-189 -39l-16 121q104 14 188 40t114 53l-26 526l97 16l11 -511q1 -33 14 -49.5t39.5 -22.5t75.5 -6h30q3 0 5.5 -9t2.5 -21v-60q0 -12 -2.5 -21.5t-5.5 -9.5h-36q-71 0 -110 16zM92 675q127 -201 127 -511l-79 -18q0 109 -26 238
t-94 229zM86 -241l76 21q-24 47 -24 80t25.5 51.5t69.5 18.5q29 0 47 -6v-53q-33 6 -59 6q-25 0 -38 -7q0 -15 8.5 -36t21.5 -39l115 32v-56l-242 -68v56z" />
    <glyph glyph-name="uni06440627" unicode="&#xfedf;&#xfe8e;" horiz-adv-x="496" arabic-form="isolated" 
d="M225 115q84 26 114 53l-26 526l97 16l11 -537q2 -97 -108.5 -150t-259.5 -69l-16 121q104 14 188 40zM92 675q127 -201 127 -511l-79 -18q0 109 -26 238t-94 229z" />
    <glyph glyph-name="uni06440627.fina" unicode="&#xfee0;&#xfe8e;" horiz-adv-x="580" arabic-form="final" 
d="M434 16q-39 16 -55 55q-48 -49 -137 -78t-189 -39l-16 121q104 14 188 40t114 53l-26 526l97 16l11 -511q1 -33 14 -49.5t39.5 -22.5t75.5 -6h30q3 0 5.5 -9t2.5 -21v-60q0 -12 -2.5 -21.5t-5.5 -9.5h-36q-71 0 -110 16zM92 675q127 -201 127 -511l-79 -18q0 109 -26 238
t-94 229z" />
    <glyph glyph-name="uni06440671" unicode="&#xfedf;&#xfb51;" horiz-adv-x="496" 
d="M225 115q84 26 114 53l-26 526l97 16l11 -537q2 -97 -108.5 -150t-259.5 -69l-16 121q104 14 188 40zM174 499q45 -148 45 -335l-79 -18q0 69 -10.5 153t-35.5 162zM5 557q-24 10 -24 38v30q-13 -5 -27.5 -23t-26.5 -41l-39 23q13 35 47 69.5t78 31.5v-57q0 -8 5.5 -11.5
t10.5 -3.5q31 42 61 71t63 29q37 0 54 -21t17 -65q0 -16 -2 -25t-8 -15q-16 -18 -53.5 -29t-81.5 -11q-50 0 -74 10zM130 604.5q26 3.5 53 11.5q0 24 -7 34.5t-26 10.5q-17 0 -37 -15.5t-46 -45.5q37 1 63 4.5z" />
    <glyph glyph-name="uni06440671.fina" unicode="&#xfee0;&#xfb51;" horiz-adv-x="580" 
d="M434 16q-39 16 -55 55q-48 -49 -137 -78t-189 -39l-16 121q104 14 188 40t114 53l-26 526l97 16l11 -511q1 -33 14 -49.5t39.5 -22.5t75.5 -6h30q3 0 5.5 -9t2.5 -21v-60q0 -12 -2.5 -21.5t-5.5 -9.5h-36q-71 0 -110 16zM174 499q45 -148 45 -335l-79 -18q0 69 -10.5 153
t-35.5 162zM5 551q-24 10 -24 38v30q-13 -5 -27.5 -23t-26.5 -41l-39 23q13 35 47 69.5t78 31.5v-57q0 -8 5.5 -11.5t10.5 -3.5q31 42 61 71t63 29q37 0 54 -21t17 -65q0 -16 -2 -25t-8 -15q-16 -18 -53.5 -29t-81.5 -11q-50 0 -74 10zM130 598.5q26 3.5 53 11.5
q0 24 -7 34.5t-26 10.5q-17 0 -37 -15.5t-46 -45.5q37 1 63 4.5z" />
    <glyph glyph-name="uni066E.init" unicode="&#x66e;" horiz-adv-x="338" 
d="M-5.5 9.5q-2.5 9.5 -2.5 21.5v60q0 12 2.5 21t5.5 9q128 0 184 31l-20 223l93 16q10 -164 10 -246q0 -30 -14 -57.5t-42 -44.5q-74 -43 -211 -43q-3 0 -5.5 9.5z" />
    <glyph glyph-name="uni066E.medi" unicode="&#x66e;" horiz-adv-x="359" 
d="M-5.5 9.5q-2.5 9.5 -2.5 21.5v60q0 12 2.5 21t5.5 9q47 0 81.5 6.5t64.5 22.5l-21 191l93 10l11 -205q42 -25 130 -25q4 0 6 -8.5t2 -21.5v-60q0 -13 -2 -22t-6 -9q-80 0 -119.5 16t-52.5 50q-19 -35 -63.5 -50.5t-123.5 -15.5q-3 0 -5.5 9.5z" />
    <glyph glyph-name="uni066E.fina" unicode="&#x66e;" horiz-adv-x="903" 
d="M225.5 10.5q-72.5 15.5 -113.5 57t-41 116.5q0 21 7 69t23 138l75 -15q-22 -132 -22 -171q0 -35 22.5 -54t75 -27t148.5 -8q192 0 294 33l-15 173l89 10l11 -187q17 -14 46.5 -19t77.5 -5q3 0 5.5 -9t2.5 -21v-60q0 -12 -2.5 -21.5t-5.5 -9.5q-78 0 -124 17.5t-58 47.5
q-23 -28 -74 -42q-46 -12 -110.5 -20t-131.5 -8q-107 0 -179.5 15.5z" />
    <glyph glyph-name="uni066F.fina" unicode="&#x66f;" horiz-adv-x="792" 
d="M798 112.5q2 -8.5 2 -21.5v-60q0 -13 -2 -22t-6 -9h-109q-3 -71 -15 -107t-39 -59q-43 -41 -129.5 -60t-182.5 -19q-129 0 -187.5 48.5t-58.5 145.5q0 20 7 68.5t17 112.5l21 131l75 -16q-37 -222 -37 -280q0 -47 46 -67.5t117 -20.5q87 0 153.5 11t124.5 37q4 25 6 84
q-50 -10 -111 -10q-50 0 -76.5 8t-46.5 35q-14 19 -18.5 32t-4.5 37q0 60 18 118t57 97t99 39q78 0 119 -71.5t47 -172.5h108q4 0 6 -8.5zM506 101q35 0 56.5 2t39.5 7q0 78 -24 116.5t-68 38.5q-39 0 -63 -42t-24 -111q33 -11 83 -11z" />
    <glyph glyph-name="uni0695.fina" unicode="&#x695;" horiz-adv-x="391" 
d="M292 12q-27 12 -45 34q0 -93 -67 -175.5t-206 -148.5l-59 93q209 95 249 207l-35 287l96 20l8 -79l6 -59q4 -37 32.5 -53.5t79.5 -16.5h40q3 0 5.5 -9t2.5 -21v-60q0 -12 -2.5 -21.5t-5.5 -9.5h-40q-32 0 -59 12zM-9 -464.5q-20 41.5 -48 85.5l47 23q42 -71 62 -129
q20 59 66 129l43 -31q-51 -75 -82 -165l-50 -6q-18 52 -38 93.5z" />
    <glyph glyph-name="uni06A1.init" unicode="&#x6a1;" horiz-adv-x="464" 
d="M-5.5 9.5q-2.5 9.5 -2.5 21.5v60q0 12 2.5 21t5.5 9q147 0 211.5 3.5t93.5 13.5q2 17 4 62q-43 -10 -111 -10q-50 0 -76.5 8t-46.5 35q-13 18 -18 31.5t-5 37.5q0 60 18 118t57 97t99 39q57 0 94.5 -40t55 -102.5t17.5 -131.5q0 -85 -6 -133.5t-22 -76t-46 -42.5
q-39 -19 -99.5 -24.5t-219.5 -5.5q-3 0 -5.5 9.5zM214 291q59 0 96 9q0 77 -24.5 116t-67.5 39q-39 0 -63.5 -42t-24.5 -110q31 -12 84 -12z" />
    <glyph glyph-name="uni06A1.medi" unicode="&#x6a1;" horiz-adv-x="462" 
d="M-5.5 9.5q-2.5 9.5 -2.5 21.5v60q0 12 2.5 21t5.5 9h58q27 0 67 7q-26 17 -45.5 43.5t-19.5 53.5q0 31 29 82t72 89.5t85 38.5q41 0 78.5 -30.5t60 -81.5t22.5 -110q0 -27 -13.5 -45.5t-50.5 -39.5q46 -7 79 -7h40q3 0 5.5 -9t2.5 -21v-60q0 -12 -2.5 -21.5t-5.5 -9.5
h-67q-51 0 -89 10.5t-75 40.5q-30 -27 -71.5 -39t-100.5 -12h-59q-3 0 -5.5 9.5zM171.5 185q27.5 -24 67.5 -42l81 58q0 49 -22 89.5t-57 40.5q-20 0 -42.5 -18t-38.5 -42.5t-16 -40.5q0 -21 27.5 -45z" />
    <glyph glyph-name="uni06A1.fina" unicode="&#x6a1;" horiz-adv-x="958" 
d="M225.5 10.5q-72.5 15.5 -113.5 57t-41 116.5q0 21 7 69t23 138l75 -15q-22 -132 -22 -171q0 -35 22.5 -54t75 -27t148.5 -8q93 0 139.5 2t82.5 8q-27 19 -46.5 45.5t-19.5 53.5q0 31 28 82t71 89.5t87 38.5t81 -30.5t58.5 -81.5t21.5 -110q0 -27 -13.5 -45.5t-50.5 -40.5
q39 -6 79 -6h40q4 0 6 -8.5t2 -21.5v-60q0 -13 -2 -22t-6 -9h-67q-51 0 -89 10.5t-74 40.5q-20 -18 -44 -26q-90 -30 -279 -30q-107 0 -179.5 15.5zM667.5 185q27.5 -24 67.5 -42l81 58q0 49 -22 89.5t-57 40.5q-20 0 -42.5 -18t-38.5 -42.5t-16 -40.5q0 -21 27.5 -45z" />
    <glyph glyph-name="uni06AA.init" unicode="&#x6aa;" horiz-adv-x="859" 
d="M-5.5 9.5q-2.5 9.5 -2.5 21.5v60q0 12 2.5 21t5.5 9h407q119 0 194 15.5t102 42.5q-9 46 -60.5 65.5t-150.5 19.5q-196 0 -267.5 3.5t-98 17.5t-26.5 51q0 65 47.5 128t122 104t151.5 44l13 -107q-57 -3 -107.5 -21t-86 -45.5t-49.5 -56.5q22 -6 74 -7.5t167 -1.5
q119 0 195.5 -17.5t118 -63.5t41.5 -128q0 -42 -47 -80t-137.5 -61t-215.5 -23h-387q-3 0 -5.5 9.5z" />
    <glyph glyph-name="uni06AA.medi" unicode="&#x6aa;" horiz-adv-x="922" 
d="M788.5 22.5q-35.5 22.5 -47.5 62.5q-48 -39 -139 -62t-215 -23h-387q-3 0 -5.5 9.5t-2.5 21.5v60q0 12 2.5 21t5.5 9h407q119 0 194 15.5t102 42.5q-9 46 -60.5 65.5t-150.5 19.5q-196 0 -267.5 3.5t-98 17.5t-26.5 51q0 65 47.5 128t122 104t151.5 44l13 -107
q-57 -3 -107.5 -21t-86 -45.5t-49.5 -56.5q22 -6 74 -7.5t167 -1.5q119 0 195.5 -17.5t118 -63.5t41.5 -128v-4q11 -21 32.5 -30t60.5 -9h42q3 0 5.5 -9t2.5 -21v-60q0 -12 -2.5 -21.5t-5.5 -9.5h-31q-67 0 -102.5 22.5z" />
    <glyph glyph-name="uni06AA.fina" unicode="&#x6aa;" horiz-adv-x="1052" 
d="M919 22.5q-35 22.5 -47 61.5q-49 -40 -140 -64.5t-215 -24.5q-152 0 -376 13l-70 121q142 -8 232.5 -10.5t233.5 -2.5q119 0 194.5 17.5t101.5 45.5q-9 46 -60.5 65.5t-150.5 19.5q-196 0 -267.5 3.5t-98 17.5t-26.5 51q0 65 47 128t122 104t152 44l13 -107
q-57 -3 -107 -21t-85.5 -45.5t-50.5 -56.5q22 -6 74.5 -7.5t166.5 -1.5q119 0 195.5 -17.5t118 -63.5t41.5 -128v-4q11 -21 33 -30t61 -9h41q3 0 5.5 -9t2.5 -21v-60q0 -12 -2.5 -21.5t-5.5 -9.5h-31q-67 0 -102 22.5z" />
    <glyph glyph-name="uni06B5.init" unicode="&#x6b5;" horiz-adv-x="341" 
d="M-5.5 9.5q-2.5 9.5 -2.5 21.5v60q0 12 2.5 21t5.5 9q61 0 107 6.5t79 25.5l-24 541l96 16l9 -565q1 -79 -76 -112t-191 -33q-3 0 -5.5 9.5zM148 875.5q-20 41.5 -48 85.5l47 23q42 -71 62 -129q20 59 66 129l43 -31q-51 -75 -82 -165l-50 -6q-18 52 -38 93.5z" />
    <glyph glyph-name="uni06B5.medi" unicode="&#x6b5;" horiz-adv-x="373" 
d="M-5.5 9.5q-2.5 9.5 -2.5 21.5v60q0 12 2.5 21t5.5 9q60 0 93.5 5.5t54.5 23.5l-22 544l97 16l6 -509q1 -38 29.5 -59t80.5 -21h34q3 0 5.5 -9t2.5 -21v-60q0 -12 -2.5 -21.5t-5.5 -9.5q-85 0 -127.5 18t-53.5 55q-44 -73 -192 -73q-3 0 -5.5 9.5zM143 875.5
q-20 41.5 -48 85.5l47 23q42 -71 62 -129q20 59 66 129l43 -31q-51 -75 -82 -165l-50 -6q-18 52 -38 93.5z" />
    <glyph glyph-name="uni06B5.fina" unicode="&#x6b5;" horiz-adv-x="731" 
d="M633.5 12q-27.5 12 -45.5 34l2 -123q1 -48 -45 -81.5t-112 -50.5t-124 -17q-124 0 -181 48.5t-57 145.5q0 20 7 68.5t17 112.5l21 131l75 -16q-38 -228 -38 -280q0 -47 45 -67.5t111 -20.5q132 0 198 46l-27 752l96 16l9 -530q9 -37 31 -48t64 -11h51q3 0 5.5 -9t2.5 -21
v-60q0 -12 -2.5 -21.5t-5.5 -9.5h-36q-34 0 -61.5 12zM138 470.5q-20 41.5 -48 85.5l47 23q42 -71 62 -129q20 59 66 129l43 -31q-51 -75 -82 -165l-50 -6q-18 52 -38 93.5z" />
    <glyph glyph-name="uni06C2.fina" unicode="&#x6c2;" horiz-adv-x="507" 
d="M387.5 20q-34.5 20 -47.5 61l-8 -11q-15 -22 -47 -30t-85 -8q-55 0 -92 26t-37 78q0 97 50.5 157.5t160.5 97.5l-8 68l88 25l25 -256q4 -41 10 -62t23.5 -33t52.5 -12h34q3 0 5 -9t2 -21v-60q0 -13 -2 -22t-5 -9h-36q-49 0 -83.5 20zM211 142q46 0 103 19l-17 141
q-75 -18 -110 -59t-40 -86q28 -15 64 -15zM190 628l76 21q-24 47 -24 80t25.5 51.5t69.5 18.5q29 0 47 -6v-53q-33 6 -59 6q-25 0 -38 -7q0 -15 8.5 -36t21.5 -39l115 32v-56l-242 -68v56z" />
    <glyph glyph-name="uni06C3.fina" unicode="&#x6c3;" horiz-adv-x="507" 
d="M387.5 20q-34.5 20 -47.5 61l-8 -11q-15 -22 -47 -30t-85 -8q-55 0 -92 26t-37 78q0 97 50.5 157.5t160.5 97.5l-8 68l88 25l25 -256q4 -41 10 -62t23.5 -33t52.5 -12h34q3 0 5 -9t2 -21v-60q0 -13 -2 -22t-5 -9h-36q-49 0 -83.5 20zM211 142q46 0 103 19l-17 141
q-75 -18 -110 -59t-40 -86q28 -15 64 -15zM170 651l63 79l84 -66l-64 -79zM373 730l83 -66l-63 -79l-84 66z" />
    <glyph glyph-name="uni06CE.init" unicode="&#x6ce;" horiz-adv-x="338" 
d="M-5.5 9.5q-2.5 9.5 -2.5 21.5v60q0 12 2.5 21t5.5 9q128 0 184 31l-20 223l93 16q10 -164 10 -246q0 -30 -14 -57.5t-42 -44.5q-74 -43 -211 -43q-3 0 -5.5 9.5zM-43 -182l63 79l84 -66l-64 -79zM160 -103l83 -66l-63 -79l-84 66zM137 578.5q-20 41.5 -48 85.5l47 23
q42 -71 62 -129q20 59 66 129l43 -31q-51 -75 -82 -165l-50 -6q-18 52 -38 93.5z" />
    <glyph glyph-name="uni06CE.medi" unicode="&#x6ce;" horiz-adv-x="359" 
d="M-5.5 9.5q-2.5 9.5 -2.5 21.5v60q0 12 2.5 21t5.5 9q47 0 81.5 6.5t64.5 22.5l-21 191l93 10l11 -205q42 -25 130 -25q4 0 6 -8.5t2 -21.5v-60q0 -13 -2 -22t-6 -9q-80 0 -119.5 16t-52.5 50q-19 -35 -63.5 -50.5t-123.5 -15.5q-3 0 -5.5 9.5zM14 -182l63 79l84 -66
l-64 -79zM217 -103l83 -66l-63 -79l-84 66zM103 540.5q-20 41.5 -48 85.5l47 23q42 -71 62 -129q20 59 66 129l43 -31q-51 -75 -82 -165l-50 -6q-18 52 -38 93.5z" />
    <glyph glyph-name="uni06CE.fina" unicode="&#x6ce;" horiz-adv-x="697" 
d="M129.5 -203q-58.5 48 -58.5 146q0 35 25 183l20 128l75 -15q-37 -222 -37 -280q0 -47 46 -68t117 -21q94 0 156.5 13t101.5 47q2 14 2 19q0 24 -16.5 34.5t-50 13.5t-103.5 3l24 121h266q3 0 5.5 -9t2.5 -21v-60q0 -12 -2.5 -21.5t-5.5 -9.5h-41q3 -15 3 -31
q0 -112 -97.5 -166t-244.5 -54q-129 0 -187.5 48zM172 444.5q-20 41.5 -48 85.5l47 23q42 -71 62 -129q20 59 66 129l43 -31q-51 -75 -82 -165l-50 -6q-18 52 -38 93.5z" />
    <glyph glyph-name="uni06D5.fina" unicode="&#x6d5;" horiz-adv-x="507" 
d="M387.5 20q-34.5 20 -47.5 61l-8 -11q-15 -22 -47 -30t-85 -8q-55 0 -92 26t-37 78q0 97 50.5 157.5t160.5 97.5l-8 68l88 25l25 -256q4 -41 10 -62t23.5 -33t52.5 -12h34q3 0 5 -9t2 -21v-60q0 -13 -2 -22t-5 -9h-36q-49 0 -83.5 20zM211 142q46 0 103 19l-17 141
q-75 -18 -110 -59t-40 -86q28 -15 64 -15z" />
    <glyph glyph-name="uni0671.fina" unicode="&#x671;" horiz-adv-x="300" arabic-form="final" 
d="M166.5 20.5q-42.5 20.5 -64.5 67t-27 126.5l-14 295l97 16l4 -310q1 -47 28 -70.5t75 -23.5h35q3 0 5.5 -9t2.5 -21v-60q0 -12 -2.5 -21.5t-5.5 -9.5h-23q-68 0 -110.5 20.5zM34 581q-24 10 -24 38v30q-13 -5 -27.5 -23t-26.5 -41l-39 23q13 35 47 69.5t78 31.5v-57
q0 -8 5.5 -11.5t10.5 -3.5q31 42 61 71t63 29q37 0 54 -21t17 -65q0 -16 -2 -25t-8 -15q-16 -18 -53.5 -29t-81.5 -11q-50 0 -74 10zM159 628.5q26 3.5 53 11.5q0 24 -7 34.5t-26 10.5q-17 0 -37 -15.5t-46 -45.5q37 1 63 4.5z" />
    <glyph glyph-name="uni067E.fina" unicode="&#x67e;" horiz-adv-x="903" arabic-form="final" 
d="M225.5 10.5q-72.5 15.5 -113.5 57t-41 116.5q0 21 7 69t23 138l75 -15q-22 -132 -22 -171q0 -35 22.5 -54t75 -27t148.5 -8q192 0 294 33l-15 173l89 10l11 -187q17 -14 46.5 -19t77.5 -5q3 0 5.5 -9t2.5 -21v-60q0 -12 -2.5 -21.5t-5.5 -9.5q-78 0 -124 17.5t-58 47.5
q-23 -28 -74 -42q-46 -12 -110.5 -20t-131.5 -8q-107 0 -179.5 15.5zM272 -177l59 72l77 -61l-59 -72zM402 -231l77 -60l-59 -73l-77 61zM461 -105l77 -61l-59 -72l-77 61z" />
    <glyph glyph-name="uni067E.init" unicode="&#x67e;" horiz-adv-x="338" arabic-form="initial" 
d="M-5.5 9.5q-2.5 9.5 -2.5 21.5v60q0 12 2.5 21t5.5 9q128 0 184 31l-20 223l93 16q10 -164 10 -246q0 -30 -14 -57.5t-42 -44.5q-74 -43 -211 -43q-3 0 -5.5 9.5zM-33 -175l59 72l77 -61l-59 -72zM97 -229l77 -60l-59 -73l-77 61zM156 -103l77 -61l-59 -72l-77 61z" />
    <glyph glyph-name="uni067E.medi" unicode="&#x67e;" horiz-adv-x="359" arabic-form="medial" 
d="M-5.5 9.5q-2.5 9.5 -2.5 21.5v60q0 12 2.5 21t5.5 9q47 0 81.5 6.5t64.5 22.5l-21 191l93 10l11 -205q42 -25 130 -25q4 0 6 -8.5t2 -21.5v-60q0 -13 -2 -22t-6 -9q-80 0 -119.5 16t-52.5 50q-19 -35 -63.5 -50.5t-123.5 -15.5q-3 0 -5.5 9.5zM24 -175l59 72l77 -61
l-59 -72zM154 -229l77 -60l-59 -73l-77 61zM213 -103l77 -61l-59 -72l-77 61z" />
    <glyph glyph-name="uni0679.fina" unicode="&#x679;" horiz-adv-x="903" arabic-form="final" 
d="M225.5 10.5q-72.5 15.5 -113.5 57t-41 116.5q0 21 7 69t23 138l75 -15q-22 -132 -22 -171q0 -35 22.5 -54t75 -27t148.5 -8q192 0 294 33l-15 173l89 10l11 -187q17 -14 46.5 -19t77.5 -5q3 0 5.5 -9t2.5 -21v-60q0 -12 -2.5 -21.5t-5.5 -9.5q-78 0 -124 17.5t-58 47.5
q-23 -28 -74 -42q-46 -12 -110.5 -20t-131.5 -8q-107 0 -179.5 15.5zM310 436l34 1l8 12q5 8 7 20.5t2 42.5q0 36 -3 126l48 11v-119q0 -8 -2 -20q42 46 77 46q38 0 58.5 -24t20.5 -70q0 -37 -36 -58t-101 -21h-103zM438 439q51 0 79 19q-1 23 -11.5 34t-28.5 11
q-28 0 -79 -64h40z" />
    <glyph glyph-name="uni0679.init" unicode="&#x679;" horiz-adv-x="338" arabic-form="initial" 
d="M-5.5 9.5q-2.5 9.5 -2.5 21.5v60q0 12 2.5 21t5.5 9q128 0 184 31l-20 223l93 16q10 -164 10 -246q0 -30 -14 -57.5t-42 -44.5q-74 -43 -211 -43q-3 0 -5.5 9.5zM73 538l34 1l8 12q5 8 7 20.5t2 42.5q0 36 -3 126l48 11v-119q0 -8 -2 -20q42 46 77 46q38 0 58.5 -24
t20.5 -70q0 -37 -36 -58t-101 -21h-103zM201 541q51 0 79 19q-1 23 -11.5 34t-28.5 11q-28 0 -79 -64h40z" />
    <glyph glyph-name="uni0679.medi" unicode="&#x679;" horiz-adv-x="359" arabic-form="medial" 
d="M-5.5 9.5q-2.5 9.5 -2.5 21.5v60q0 12 2.5 21t5.5 9q47 0 81.5 6.5t64.5 22.5l-21 191l93 10l11 -205q42 -25 130 -25q4 0 6 -8.5t2 -21.5v-60q0 -13 -2 -22t-6 -9q-80 0 -119.5 16t-52.5 50q-19 -35 -63.5 -50.5t-123.5 -15.5q-3 0 -5.5 9.5zM39 500l34 1l8 12
q5 8 7 20.5t2 42.5q0 36 -3 126l48 11v-119q0 -8 -2 -20q42 46 77 46q38 0 58.5 -24t20.5 -70q0 -37 -36 -58t-101 -21h-103zM167 503q51 0 79 19q-1 23 -11.5 34t-28.5 11q-28 0 -79 -64h40z" />
    <glyph glyph-name="uni06A4.fina" unicode="&#x6a4;" horiz-adv-x="958" arabic-form="final" 
d="M225.5 10.5q-72.5 15.5 -113.5 57t-41 116.5q0 21 7 69t23 138l75 -15q-22 -132 -22 -171q0 -35 22.5 -54t75 -27t148.5 -8q93 0 139.5 2t82.5 8q-27 19 -46.5 45.5t-19.5 53.5q0 31 28 82t71 89.5t87 38.5t81 -30.5t58.5 -81.5t21.5 -110q0 -27 -13.5 -45.5t-50.5 -40.5
q39 -6 79 -6h40q4 0 6 -8.5t2 -21.5v-60q0 -13 -2 -22t-6 -9h-67q-51 0 -89 10.5t-74 40.5q-20 -18 -44 -26q-90 -30 -279 -30q-107 0 -179.5 15.5zM667.5 185q27.5 -24 67.5 -42l81 58q0 49 -22 89.5t-57 40.5q-20 0 -42.5 -18t-38.5 -42.5t-16 -40.5q0 -21 27.5 -45z
M603 576l59 72l77 -61l-59 -72zM718 783l77 -60l-59 -72l-76 60zM792 648l77 -61l-59 -72l-77 61z" />
    <glyph glyph-name="uni06A4.init" unicode="&#x6a4;" horiz-adv-x="464" arabic-form="initial" 
d="M-5.5 9.5q-2.5 9.5 -2.5 21.5v60q0 12 2.5 21t5.5 9q147 0 211.5 3.5t93.5 13.5q2 17 4 62q-43 -10 -111 -10q-50 0 -76.5 8t-46.5 35q-13 18 -18 31.5t-5 37.5q0 60 18 118t57 97t99 39q57 0 94.5 -40t55 -102.5t17.5 -131.5q0 -85 -6 -133.5t-22 -76t-46 -42.5
q-39 -19 -99.5 -24.5t-219.5 -5.5q-3 0 -5.5 9.5zM214 291q59 0 96 9q0 77 -24.5 116t-67.5 39q-39 0 -63.5 -42t-24.5 -110q31 -12 84 -12zM82 703l59 72l77 -61l-59 -72zM197 910l77 -60l-59 -72l-76 60zM271 775l77 -61l-59 -72l-77 61z" />
    <glyph glyph-name="uni06A4.medi" unicode="&#x6a4;" horiz-adv-x="462" arabic-form="medial" 
d="M-5.5 9.5q-2.5 9.5 -2.5 21.5v60q0 12 2.5 21t5.5 9h58q27 0 67 7q-26 17 -45.5 43.5t-19.5 53.5q0 31 29 82t72 89.5t85 38.5q41 0 78.5 -30.5t60 -81.5t22.5 -110q0 -27 -13.5 -45.5t-50.5 -39.5q46 -7 79 -7h40q3 0 5.5 -9t2.5 -21v-60q0 -12 -2.5 -21.5t-5.5 -9.5
h-67q-51 0 -89 10.5t-75 40.5q-30 -27 -71.5 -39t-100.5 -12h-59q-3 0 -5.5 9.5zM171.5 185q27.5 -24 67.5 -42l81 58q0 49 -22 89.5t-57 40.5q-20 0 -42.5 -18t-38.5 -42.5t-16 -40.5q0 -21 27.5 -45zM108 576l59 72l77 -61l-59 -72zM223 783l77 -60l-59 -72l-76 60z
M297 648l77 -61l-59 -72l-77 61z" />
    <glyph glyph-name="uni0686.fina" unicode="&#x686;" horiz-adv-x="724" arabic-form="final" 
d="M543 18.5q-43 18.5 -67 57.5t-41 110q-120 -41 -193 -103t-86 -144q0 -91 62 -135t166 -44q99 0 217 30l-6 -120q-106 -30 -214 -30q-144 0 -229.5 63.5t-85.5 196.5q0 118 79 219t248 163q-35 11 -106 41q-29 12 -55 22t-37 10q-26 0 -38.5 -16t-18.5 -49l-72 14
q12 77 41.5 119.5t84.5 42.5q30 0 66.5 -13t96.5 -40q72 -33 125.5 -51.5t106.5 -20.5l-10 -118q-34 -7 -73 -17q16 -50 44.5 -67.5t88.5 -17.5h87q4 0 6 -8.5t2 -21.5v-60q0 -13 -2 -22t-6 -9h-63q-75 0 -118 18.5zM311 28l58 -46l-45 -55l-58 46zM366 -69l59 -46l-45 -56
l-58 47zM414 28l58 -46l-44 -55l-59 46z" />
    <glyph glyph-name="uni0686.init" unicode="&#x686;" horiz-adv-x="700" arabic-form="initial" 
d="M-5.5 9.5q-2.5 9.5 -2.5 21.5v60q0 12 2.5 21t5.5 9h35q62 0 124 14.5t135 44.5q12 5 58 25q57 26 84 34q-47 13 -128 48q-34 14 -64.5 25t-41.5 11q-27 0 -39 -15.5t-19 -48.5l-72 13q12 77 41.5 120t85.5 43q27 0 60.5 -11.5t92.5 -37.5q82 -36 146 -56t131 -20
l-23 -119q-59 -3 -109 -24t-118 -60l-34 -19q-74 -42 -148 -65t-167 -23h-30q-3 0 -5.5 9.5zM193 -175l59 72l77 -61l-59 -72zM323 -229l77 -60l-59 -73l-77 61zM382 -103l77 -61l-59 -72l-77 61z" />
    <glyph glyph-name="uni0686.medi" unicode="&#x686;" horiz-adv-x="704" arabic-form="medial" 
d="M-5.5 9.5q-2.5 9.5 -2.5 21.5v60q0 12 2.5 21t5.5 9h35q62 0 124 14.5t135 44.5q25 10 69 30q45 22 76 32q-44 12 -133 47q-34 13 -63.5 23.5t-40.5 10.5q-27 0 -39 -15.5t-19 -48.5l-72 13q12 77 41.5 120t85.5 43q27 0 60.5 -11t92.5 -36q85 -35 147.5 -54t129.5 -19
l-23 -113q-41 -2 -78.5 -15.5t-80.5 -37.5q20 -18 67.5 -23t132.5 -5h57q4 0 6 -8.5t2 -21.5v-60q0 -13 -2 -22t-6 -9h-123q-72 0 -127 26t-68 86l-41 -24q-74 -42 -148 -65t-167 -23h-30q-3 0 -5.5 9.5zM193 -175l59 72l77 -61l-59 -72zM323 -229l77 -60l-59 -73l-77 61z
M382 -103l77 -61l-59 -72l-77 61z" />
    <glyph glyph-name="uni0688.fina" unicode="&#x688;" horiz-adv-x="591" arabic-form="final" 
d="M93.5 15.5q-32.5 30.5 -32.5 108.5q0 16 2 42l1 25l75 -5v-22q0 -28 5.5 -39.5t20.5 -15t52 -3.5q49 0 98.5 12t78.5 31l-77 303l91 49l57 -283q10 -49 21 -68t32 -24t73 -5q4 0 6 -8.5t2 -21.5v-60q0 -13 -2 -22t-6 -9h-25q-107 0 -130 78q-8 -20 -16.5 -30t-21.5 -16
q-32 -19 -88.5 -33t-106.5 -14q-77 0 -109.5 30.5zM203 645l34 1l8 12q5 8 7 20.5t2 42.5q0 36 -3 126l48 11v-119q0 -8 -2 -20q42 46 77 46q38 0 58.5 -24t20.5 -70q0 -37 -36 -58t-101 -21h-103zM331 648q51 0 79 19q-1 23 -11.5 34t-28.5 11q-28 0 -79 -64h40z" />
    <glyph glyph-name="uni0698.fina" unicode="&#x698;" horiz-adv-x="391" arabic-form="final" 
d="M292 12q-27 12 -45 34q0 -93 -67 -175.5t-206 -148.5l-59 93q209 95 249 207l-35 287l96 20l8 -79l6 -59q4 -37 32.5 -53.5t79.5 -16.5h40q3 0 5.5 -9t2.5 -21v-60q0 -12 -2.5 -21.5t-5.5 -9.5h-40q-32 0 -59 12zM31 496l59 72l77 -61l-59 -72zM146 703l77 -60l-59 -72
l-76 60zM220 568l77 -61l-59 -72l-77 61z" />
    <glyph glyph-name="uni0691.fina" unicode="&#x691;" horiz-adv-x="391" arabic-form="final" 
d="M292 12q-27 12 -45 34q0 -93 -67 -175.5t-206 -148.5l-59 93q209 95 249 207l-35 287l96 20l8 -79l6 -59q4 -37 32.5 -53.5t79.5 -16.5h40q3 0 5.5 -9t2.5 -21v-60q0 -12 -2.5 -21.5t-5.5 -9.5h-40q-32 0 -59 12zM39 484l34 1l8 12q5 8 7 20.5t2 42.5q0 36 -3 126l48 11
v-119q0 -8 -2 -20q42 46 77 46q38 0 58.5 -24t20.5 -70q0 -37 -36 -58t-101 -21h-103zM167 487q51 0 79 19q-1 23 -11.5 34t-28.5 11q-28 0 -79 -64h40z" />
    <glyph glyph-name="uni06A9.fina" unicode="&#x6a9;" horiz-adv-x="896" arabic-form="final" 
d="M733 57q-39 -33 -120.5 -47.5t-207.5 -14.5q-107 0 -179.5 15.5t-113.5 57t-41 116.5q0 21 7 69t23 138l75 -15q-22 -132 -22 -171q0 -35 22.5 -54t75 -27t148.5 -8q194 0 273 31q-13 114 -63.5 193t-161.5 147l11 88q160 77 347 135l13 -101q-118 -33 -239 -87
q95 -80 137 -170t48 -187q8 -24 27.5 -34t54.5 -10h49q3 0 5.5 -9t2.5 -21v-60q0 -12 -2.5 -21.5t-5.5 -9.5h-39q-95 0 -124 57z" />
    <glyph glyph-name="uni06A9.init" unicode="&#x6a9;" horiz-adv-x="425" arabic-form="initial" 
d="M-5.5 9.5q-2.5 9.5 -2.5 21.5v60q0 12 2.5 21t5.5 9q81 0 143 7t96 20q-12 113 -63 192t-162 147l11 88q164 79 347 135l13 -101q-116 -33 -238 -87q104 -88 145 -188t41 -207q0 -70 -85.5 -98.5t-247.5 -28.5q-3 0 -5.5 9.5z" />
    <glyph glyph-name="uni06A9.medi" unicode="&#x6a9;" horiz-adv-x="463" arabic-form="medial" 
d="M299 57q-36 -31 -111.5 -44t-187.5 -13q-3 0 -5.5 9.5t-2.5 21.5v60q0 12 2.5 21t5.5 9q81 0 143 7t96 20q-12 113 -63 192t-162 147l11 88q164 79 347 135l13 -101q-116 -33 -238 -87q172 -147 185 -358q9 -24 28 -33.5t54 -9.5h49q3 0 5.5 -9t2.5 -21v-60
q0 -12 -2.5 -21.5t-5.5 -9.5h-40q-95 0 -124 57z" />
    <glyph glyph-name="uni06AF.fina" unicode="&#x6af;" horiz-adv-x="896" arabic-form="final" 
d="M733 57q-39 -33 -120.5 -47.5t-207.5 -14.5q-107 0 -179.5 15.5t-113.5 57t-41 116.5q0 21 7 69t23 138l75 -15q-22 -132 -22 -171q0 -35 22.5 -54t75 -27t148.5 -8q194 0 273 31q-13 114 -63.5 193t-161.5 147l11 88q160 77 347 135l13 -101q-118 -33 -239 -87
q95 -80 137 -170t48 -187q8 -24 27.5 -34t54.5 -10h49q3 0 5.5 -9t2.5 -21v-60q0 -12 -2.5 -21.5t-5.5 -9.5h-39q-95 0 -124 57zM469 673l165 77l7 -46l-176 -79z" />
    <glyph glyph-name="uni06AF.init" unicode="&#x6af;" horiz-adv-x="424" arabic-form="initial" 
d="M-5.5 9.5q-2.5 9.5 -2.5 21.5v60q0 12 2.5 21t5.5 9q81 0 143 7t96 20q-12 113 -63 192t-162 147l11 88q164 79 347 135l13 -101q-116 -33 -238 -87q104 -88 145 -188t41 -207q0 -70 -85.5 -98.5t-247.5 -28.5q-3 0 -5.5 9.5zM36 673l165 77l7 -46l-176 -79z" />
    <glyph glyph-name="uni06AF.medi" unicode="&#x6af;" horiz-adv-x="463" arabic-form="medial" 
d="M299 57q-36 -31 -111.5 -44t-187.5 -13q-3 0 -5.5 9.5t-2.5 21.5v60q0 12 2.5 21t5.5 9q81 0 143 7t96 20q-12 113 -63 192t-162 147l11 88q164 79 347 135l13 -101q-116 -33 -238 -87q172 -147 185 -358q9 -24 28 -33.5t54 -9.5h49q3 0 5.5 -9t2.5 -21v-60
q0 -12 -2.5 -21.5t-5.5 -9.5h-40q-95 0 -124 57zM36 673l165 77l7 -46l-176 -79z" />
    <glyph glyph-name="uni06BA.fina" unicode="&#x6ba;" horiz-adv-x="783" arabic-form="final" 
d="M624 56q5 -88 5 -133q0 -49 -47.5 -82.5t-119.5 -50t-145 -16.5q-128 0 -187 47.5t-59 142.5q0 31 9.5 95t35.5 221l75 -16q-38 -228 -38 -280q0 -48 45.5 -68t118.5 -20q159 0 229 46l-38 378l93 19l15 -140q4 -36 20.5 -52.5t44 -21t81.5 -4.5h21q3 0 5.5 -9t2.5 -21
v-60q0 -12 -2.5 -21.5t-5.5 -9.5h-19q-103 0 -140 56z" />
    <glyph glyph-name="uni06C0.fina" unicode="&#x6c0;" horiz-adv-x="507" arabic-form="final" 
d="M387.5 20q-34.5 20 -47.5 61l-8 -11q-15 -22 -47 -30t-85 -8q-55 0 -92 26t-37 78q0 97 50.5 157.5t160.5 97.5l-8 68l88 25l25 -256q4 -41 10 -62t23.5 -33t52.5 -12h34q3 0 5 -9t2 -21v-60q0 -13 -2 -22t-5 -9h-36q-49 0 -83.5 20zM211 142q46 0 103 19l-17 141
q-75 -18 -110 -59t-40 -86q28 -15 64 -15zM301.5 662q39.5 10 55.5 29q0 17 -15 23.5t-48 12.5q-34 6 -51.5 14t-17.5 28q0 28 15.5 69.5t41.5 72.5t58 31q24 0 42.5 -14t38.5 -44l-33 -31q-24 27 -48 27t-41 -26.5t-24 -61.5q48 -4 75 -12t41 -26.5t14 -54.5
q0 -54 -55 -85.5t-150 -31.5l6 70q56 0 95.5 10z" />
    <glyph glyph-name="uni06C1.fina" unicode="&#x6c1;" horiz-adv-x="519" arabic-form="final" 
d="M153 252.5q80 79.5 229 96.5l12 -127q5 -44 12 -64.5t22.5 -28.5t48.5 -8h42q3 0 5.5 -9t2.5 -21v-60q0 -12 -2.5 -21.5t-5.5 -9.5h-42q-152 0 -158 154l-7 66q-61 -18 -103.5 -69.5t-47.5 -131.5l-90 32q2 122 82 201.5z" />
    <glyph glyph-name="uni06C1.init" unicode="&#x6c1;" horiz-adv-x="339" arabic-form="initial" 
d="M66.5 -297q-20.5 23 -20.5 64q0 45 22.5 100t55.5 96l44 -46q-22 -28 -36.5 -52.5t-21.5 -49.5q8 2 12 2q28 0 48.5 -20t20.5 -50q0 -28 -20 -47.5t-49 -19.5q-35 0 -55.5 23zM-8 91q0 12 2.5 21t5.5 9q128 0 184 31l-20 223l93 16q10 -164 10 -246q0 -30 -14 -57.5
t-42 -44.5q-74 -43 -211 -43q-3 0 -5.5 9.5t-2.5 21.5v60z" />
    <glyph glyph-name="uni06C1.medi" unicode="&#x6c1;" horiz-adv-x="484" arabic-form="medial" 
d="M187.5 -156q-60.5 65 -59.5 191q-40 -35 -128 -35q-3 0 -5.5 9.5t-2.5 21.5v60q0 12 2.5 21t5.5 9q54 1 80 12.5t36 40.5t14 91l88 10q-15 -122 -15 -207q0 -58 16 -90.5t52 -47.5q-10 9 -10 36q4 72 51.5 113.5t125.5 41.5h46q3 0 5.5 -9t2.5 -21v-60q0 -12 -2.5 -21.5
t-5.5 -9.5q-58 0 -89 -5.5t-44.5 -19t-13.5 -37.5q0 -21 12 -31.5t34 -10.5v-117q-135 0 -195.5 65z" />
    <glyph glyph-name="uni06BE.fina" unicode="&#x6be;" horiz-adv-x="590" arabic-form="final" 
d="M239 -161q-49 60 -70 161h-97l36 121h77q12 67 41.5 127.5t70 98t84.5 37.5h67l5 -263h137q4 0 6 -8.5t2 -21.5v-60q0 -13 -2 -22t-6 -9q-99 0 -128 5q16 -9 24.5 -31t8.5 -48v-54q0 -38 -27 -63q-19 -17 -34 -23.5t-39 -6.5q-107 0 -156 60zM416 -123v49q0 87 -95 87
h-70q13 -147 165 -136zM316 106q39 0 60 -8l-5 199q-29 -5 -53.5 -38t-40.5 -76.5t-20 -76.5h59z" />
    <glyph glyph-name="uni06BE.init" unicode="&#x6be;" horiz-adv-x="624" arabic-form="initial" 
d="M197 11q-70 -11 -197 -11q-3 0 -5.5 9.5t-2.5 21.5v60q0 12 2.5 21t5.5 9h87q20 0 38 -3q-22 17 -34 38.5t-12 44.5q0 36 21 81t57 87l-47 23l41 90l272 -121q139 -62 139 -187q0 -56 -30 -117q-13 -30 -38 -48q-25 -17 -41 -17q-8 0 -17 3l-146 56q-23 -29 -93 -40z
M195 194q23 -14 67 -24l54 127l-88 40q-56 -68 -56 -107q0 -22 23 -36zM456 94q22 35 22 73q0 32 -20 56.5t-69 44.5l-53 -126z" />
    <glyph glyph-name="uni06BE.medi" unicode="&#x6be;" horiz-adv-x="651" arabic-form="medial" 
d="M574.5 9.5q-30.5 9.5 -51.5 30.5q-11 -18 -29 -31q-25 -17 -41 -17q-8 0 -17 3l-146 56q-23 -29 -93 -40t-197 -11q-3 0 -5.5 9.5t-2.5 21.5v60q0 12 2.5 21t5.5 9h87q20 0 38 -3q-22 17 -34 38.5t-12 44.5q0 36 21 81t57 87l-47 23l41 90l272 -121q139 -62 139 -187
q0 -15 -3 -32q13 -11 34.5 -16t57.5 -5q3 0 5.5 -9t2.5 -21v-60q0 -12 -2.5 -21.5t-5.5 -9.5q-46 0 -76.5 9.5zM195 194q23 -14 67 -24l54 127l-88 40q-56 -68 -56 -107q0 -22 23 -36zM456 94q22 35 22 73q0 32 -20 56.5t-69 44.5l-53 -126z" />
    <glyph glyph-name="uni06D2.fina" unicode="&#x6d2;" horiz-adv-x="691" arabic-form="final" 
d="M71 -142q0 66 45.5 126.5t132 98.5t203.5 38h239q3 0 5.5 -9t2.5 -21v-60q0 -12 -2.5 -21.5t-5.5 -9.5h-239q-146 0 -218 -29t-80 -86q30 -34 76 -43.5t135 -9.5q81 0 239 10q12 0 38 2l-27 -121q-159 -12 -275 -12q-269 0 -269 147z" />
    <glyph glyph-name="uni06D3.fina" unicode="&#x6d3;" horiz-adv-x="691" arabic-form="final" 
d="M71 -142q0 66 45.5 126.5t132 98.5t203.5 38h239q3 0 5.5 -9t2.5 -21v-60q0 -12 -2.5 -21.5t-5.5 -9.5h-239q-146 0 -218 -29t-80 -86q30 -34 76 -43.5t135 -9.5q81 0 239 10q12 0 38 2l-27 -121q-159 -12 -275 -12q-269 0 -269 147zM229 244l76 21q-24 47 -24 80
t25.5 51.5t69.5 18.5q29 0 47 -6v-53q-33 6 -59 6q-25 0 -38 -7q0 -15 8.5 -36t21.5 -39l115 32v-56l-242 -68v56z" />
    <glyph glyph-name="uni06C7.fina" unicode="&#x6c7;" horiz-adv-x="475" arabic-form="final" 
d="M302 8q-36 -8 -96 -8q-51 0 -77.5 8t-46.5 35q-13 19 -18 32.5t-5 36.5q0 60 18.5 118t57.5 97t99 39q78 0 119 -72t46 -173h76q3 0 5.5 -9t2.5 -21v-60q0 -12 -2.5 -21.5t-5.5 -9.5h-87q-25 -89 -97.5 -160.5t-187.5 -117.5l-60 93q210 75 259 193zM222 101q59 0 96 9
q0 77 -24.5 116t-67.5 39q-39 0 -63.5 -42t-24.5 -110q31 -12 84 -12zM117 504l94 25q-18 4 -18 29q0 15 8.5 41.5t28 47.5t48.5 21q36 0 58.5 -32t22.5 -75q0 -30 -14 -42t-49 -21l-179 -50v56zM274 549q22 0 40 6q0 32 -9.5 48t-27.5 16q-17 0 -26.5 -18t-11.5 -47
q13 -5 35 -5z" />
    <glyph glyph-name="uni06C6.fina" unicode="&#x6c6;" horiz-adv-x="475" arabic-form="final" 
d="M302 8q-36 -8 -96 -8q-51 0 -77.5 8t-46.5 35q-13 19 -18 32.5t-5 36.5q0 60 18.5 118t57.5 97t99 39q78 0 119 -72t46 -173h76q3 0 5.5 -9t2.5 -21v-60q0 -12 -2.5 -21.5t-5.5 -9.5h-87q-25 -89 -97.5 -160.5t-187.5 -117.5l-60 93q210 75 259 193zM222 101q59 0 96 9
q0 77 -24.5 116t-67.5 39q-39 0 -63.5 -42t-24.5 -110q31 -12 84 -12zM173 558.5q-20 41.5 -48 85.5l47 23q42 -71 62 -129q20 59 66 129l43 -31q-51 -75 -82 -165l-50 -6q-18 52 -38 93.5z" />
    <glyph glyph-name="uni06CC.fina" unicode="&#x6cc;" horiz-adv-x="697" arabic-form="final" 
d="M129.5 -203q-58.5 48 -58.5 146q0 35 25 183l20 128l75 -15q-37 -222 -37 -280q0 -47 46 -68t117 -21q94 0 156.5 13t101.5 47q2 14 2 19q0 24 -16.5 34.5t-50 13.5t-103.5 3l24 121h266q3 0 5.5 -9t2.5 -21v-60q0 -12 -2.5 -21.5t-5.5 -9.5h-41q3 -15 3 -31
q0 -112 -97.5 -166t-244.5 -54q-129 0 -187.5 48z" />
    <glyph glyph-name="uni06CC.init" unicode="&#x6cc;" horiz-adv-x="338" arabic-form="initial" 
d="M-5.5 9.5q-2.5 9.5 -2.5 21.5v60q0 12 2.5 21t5.5 9q128 0 184 31l-20 223l93 16q10 -164 10 -246q0 -30 -14 -57.5t-42 -44.5q-74 -43 -211 -43q-3 0 -5.5 9.5zM-43 -182l63 79l84 -66l-64 -79zM160 -103l83 -66l-63 -79l-84 66z" />
    <glyph glyph-name="uni06CC.medi" unicode="&#x6cc;" horiz-adv-x="359" arabic-form="medial" 
d="M-5.5 9.5q-2.5 9.5 -2.5 21.5v60q0 12 2.5 21t5.5 9q47 0 81.5 6.5t64.5 22.5l-21 191l93 10l11 -205q42 -25 130 -25q4 0 6 -8.5t2 -21.5v-60q0 -13 -2 -22t-6 -9q-80 0 -119.5 16t-52.5 50q-19 -35 -63.5 -50.5t-123.5 -15.5q-3 0 -5.5 9.5zM14 -182l63 79l84 -66
l-64 -79zM217 -103l83 -66l-63 -79l-84 66z" />
    <glyph glyph-name="uni06260631.fina" unicode="&#xfc64;" horiz-adv-x="721" arabic-form="final" 
d="M239 140q4 -49 4 -93q0 -94 -67 -176.5t-206 -148.5l-59 93q209 95 249 207l-35 287l96 20l5 -45q4 -36 35 -47.5t103 -11.5q80 0 133 25l-3 90l87 10l1 -126q1 -42 14 -64t42 -30.5t83 -8.5q3 0 5.5 -9t2.5 -21v-60q0 -12 -2.5 -21.5t-5.5 -9.5q-68 0 -110.5 13.5
t-67 45.5t-34.5 89q-58 -44 -145 -44t-125 36zM411 494l76 21q-24 47 -24 80t25.5 51.5t69.5 18.5q29 0 47 -6v-53q-33 6 -59 6q-25 0 -38 -7q0 -15 8.5 -36t21.5 -39l115 32v-56l-242 -68v56z" />
    <glyph glyph-name="uni06260649.fina" unicode="&#xfc68;" horiz-adv-x="939" arabic-form="final" 
d="M129.5 -202.5q-58.5 48.5 -58.5 146.5q0 19 7 67t17 112l21 132l75 -16q-37 -222 -37 -280q0 -47 46 -67.5t117 -20.5q92 0 154.5 13t100.5 46q8 21 8 39q0 45 -43 51l-20 2q-64 7 -93.5 13t-47 21.5t-17.5 47.5q0 67 39 134t97.5 110t112.5 43q49 0 80 -18.5t48.5 -45
t39.5 -72.5q21 -45 38 -71.5t47.5 -44.5t77.5 -18q3 0 5 -9t2 -21v-60q0 -13 -2 -22t-5 -9q-67 0 -109.5 24.5t-65 59t-46.5 88.5q-18 39 -30.5 60.5t-31.5 36t-47 14.5q-32 0 -68 -20t-63 -51.5t-34 -65.5q80 -7 123 -19t67.5 -46t24.5 -103q0 -118 -97 -173.5t-245 -55.5
q-129 0 -187.5 48.5zM485 549l76 21q-24 47 -24 80t25.5 51.5t69.5 18.5q29 0 47 -6v-53q-33 6 -59 6q-25 0 -38 -7q0 -15 8.5 -36t21.5 -39l115 32v-56l-242 -68v56z" />
    <glyph glyph-name="uni06280631.fina" unicode="&#xfc6a;" horiz-adv-x="721" arabic-form="final" 
d="M239 140q4 -49 4 -93q0 -94 -67 -176.5t-206 -148.5l-59 93q209 95 249 207l-35 287l96 20l5 -45q4 -36 35 -47.5t103 -11.5q80 0 133 25l-3 90l87 10l1 -126q1 -42 14 -64t42 -30.5t83 -8.5q3 0 5.5 -9t2.5 -21v-60q0 -12 -2.5 -21.5t-5.5 -9.5q-68 0 -110.5 13.5
t-67 45.5t-34.5 89q-58 -44 -145 -44t-125 36zM337 -161l67 82l87 -69l-67 -82z" />
    <glyph glyph-name="uni06280632.fina" unicode="&#xfc6b;" horiz-adv-x="725" arabic-form="final" 
d="M87 504l66 82l88 -69l-67 -82zM164 22l-35 287l96 20l5 -45q4 -36 35 -47.5t103 -11.5q80 0 133 25l-3 90l87 10l1 -126q1 -42 14 -64t42 -30.5t83 -8.5q3 0 5.5 -9t2.5 -21v-60q0 -12 -2.5 -21.5t-5.5 -9.5q-68 0 -110.5 13.5t-67 45.5t-34.5 89q-58 -44 -145 -44
t-125 36q4 -49 4 -93q0 -94 -67 -176.5t-206 -148.5l-59 93q209 95 249 207zM408 -71l87 -69l-67 -82l-87 69z" />
    <glyph glyph-name="uni06280646.fina" unicode="&#xfc6d;" horiz-adv-x="1102" arabic-form="final" 
d="M991.5 13.5q-42.5 13.5 -67 45.5t-34.5 89q-58 -44 -145 -44q-91 0 -127 38q11 -141 11 -219q0 -49 -47.5 -82.5t-119.5 -50t-145 -16.5q-128 0 -187 47.5t-59 142.5q0 31 9.5 95t35.5 221l75 -16q-38 -228 -38 -280q0 -48 45.5 -68t118.5 -20q159 0 229 46l-38 378
l93 19l1 -10l5 -45q4 -36 35 -47.5t103 -11.5q80 0 133 25l-3 90l87 10l1 -126q1 -42 14 -64t42 -30.5t83 -8.5q3 0 5.5 -9t2.5 -21v-60q0 -12 -2.5 -21.5t-5.5 -9.5q-68 0 -110.5 13.5zM330 527l88 -69l-67 -82l-87 69zM787 -66l87 -69l-67 -82l-87 69z" />
    <glyph glyph-name="uni06280649.fina" unicode="&#xfc6e;" horiz-adv-x="939" arabic-form="final" 
d="M129.5 -202.5q-58.5 48.5 -58.5 146.5q0 19 7 67t17 112l21 132l75 -16q-37 -222 -37 -280q0 -47 46 -67.5t117 -20.5q92 0 154.5 13t100.5 46q8 21 8 39q0 45 -43 51l-20 2q-64 7 -93.5 13t-47 21.5t-17.5 47.5q0 67 39 134t97.5 110t112.5 43q49 0 80 -18.5t48.5 -45
t39.5 -72.5q21 -45 38 -71.5t47.5 -44.5t77.5 -18q3 0 5 -9t2 -21v-60q0 -13 -2 -22t-5 -9q-67 0 -109.5 24.5t-65 59t-46.5 88.5q-18 39 -30.5 60.5t-31.5 36t-47 14.5q-32 0 -68 -20t-63 -51.5t-34 -65.5q80 -7 123 -19t67.5 -46t24.5 -103q0 -118 -97 -173.5t-245 -55.5
q-129 0 -187.5 48.5zM770 -177l67 82l87 -69l-67 -82z" />
    <glyph glyph-name="uni062A0631.fina" unicode="&#xfc70;" horiz-adv-x="721" arabic-form="final" 
d="M239 140q4 -49 4 -93q0 -94 -67 -176.5t-206 -148.5l-59 93q209 95 249 207l-35 287l96 20l5 -45q4 -36 35 -47.5t103 -11.5q80 0 133 25l-3 90l87 10l1 -126q1 -42 14 -64t42 -30.5t83 -8.5q3 0 5.5 -9t2.5 -21v-60q0 -12 -2.5 -21.5t-5.5 -9.5q-68 0 -110.5 13.5
t-67 45.5t-34.5 89q-58 -44 -145 -44t-125 36zM391 517l63 79l84 -66l-64 -79zM594 596l83 -66l-63 -79l-84 66z" />
    <glyph glyph-name="uni062B0631.fina" unicode="&#xfc76;" horiz-adv-x="721" arabic-form="final" 
d="M239 140q4 -49 4 -93q0 -94 -67 -176.5t-206 -148.5l-59 93q209 95 249 207l-35 287l96 20l5 -45q4 -36 35 -47.5t103 -11.5q80 0 133 25l-3 90l87 10l1 -126q1 -42 14 -64t42 -30.5t83 -8.5q3 0 5.5 -9t2.5 -21v-60q0 -12 -2.5 -21.5t-5.5 -9.5q-68 0 -110.5 13.5
t-67 45.5t-34.5 89q-58 -44 -145 -44t-125 36zM401 512l59 72l77 -61l-59 -72zM516 719l77 -60l-59 -72l-76 60zM590 584l77 -61l-59 -72l-77 61z" />
    <glyph glyph-name="uni062B0649.fina" unicode="&#xfc7a;" horiz-adv-x="939" arabic-form="final" 
d="M129.5 -202.5q-58.5 48.5 -58.5 146.5q0 19 7 67t17 112l21 132l75 -16q-37 -222 -37 -280q0 -47 46 -67.5t117 -20.5q92 0 154.5 13t100.5 46q8 21 8 39q0 45 -43 51l-20 2q-64 7 -93.5 13t-47 21.5t-17.5 47.5q0 67 39 134t97.5 110t112.5 43q49 0 80 -18.5t48.5 -45
t39.5 -72.5q21 -45 38 -71.5t47.5 -44.5t77.5 -18q3 0 5 -9t2 -21v-60q0 -13 -2 -22t-5 -9q-67 0 -109.5 24.5t-65 59t-46.5 88.5q-18 39 -30.5 60.5t-31.5 36t-47 14.5q-32 0 -68 -20t-63 -51.5t-34 -65.5q80 -7 123 -19t67.5 -46t24.5 -103q0 -118 -97 -173.5t-245 -55.5
q-129 0 -187.5 48.5zM475 567l59 72l77 -61l-59 -72zM590 774l77 -60l-59 -72l-76 60zM664 639l77 -61l-59 -72l-77 61z" />
    <glyph glyph-name="uni06460631.fina" unicode="&#xfc8a;" horiz-adv-x="721" arabic-form="final" 
d="M239 140q4 -49 4 -93q0 -94 -67 -176.5t-206 -148.5l-59 93q209 95 249 207l-35 287l96 20l5 -45q4 -36 35 -47.5t103 -11.5q80 0 133 25l-3 90l87 10l1 -126q1 -42 14 -64t42 -30.5t83 -8.5q3 0 5.5 -9t2.5 -21v-60q0 -12 -2.5 -21.5t-5.5 -9.5q-68 0 -110.5 13.5
t-67 45.5t-34.5 89q-58 -44 -145 -44t-125 36zM457 520l67 82l87 -69l-67 -82z" />
    <glyph glyph-name="uni064A0631.fina" unicode="&#xfc91;" horiz-adv-x="721" arabic-form="final" 
d="M239 140q4 -49 4 -93q0 -94 -67 -176.5t-206 -148.5l-59 93q209 95 249 207l-35 287l96 20l5 -45q4 -36 35 -47.5t103 -11.5q80 0 133 25l-3 90l87 10l1 -126q1 -42 14 -64t42 -30.5t83 -8.5q3 0 5.5 -9t2.5 -21v-60q0 -12 -2.5 -21.5t-5.5 -9.5q-68 0 -110.5 13.5
t-67 45.5t-34.5 89q-58 -44 -145 -44t-125 36zM271 -166l63 79l84 -66l-64 -79zM474 -87l83 -66l-63 -79l-84 66z" />
    <glyph glyph-name="uni064A0649.fina" unicode="&#xfc95;" horiz-adv-x="939" arabic-form="final" 
d="M129.5 -202.5q-58.5 48.5 -58.5 146.5q0 19 7 67t17 112l21 132l75 -16q-37 -222 -37 -280q0 -47 46 -67.5t117 -20.5q92 0 154.5 13t100.5 46q8 21 8 39q0 45 -43 51l-20 2q-64 7 -93.5 13t-47 21.5t-17.5 47.5q0 67 39 134t97.5 110t112.5 43q49 0 80 -18.5t48.5 -45
t39.5 -72.5q21 -45 38 -71.5t47.5 -44.5t77.5 -18q3 0 5 -9t2 -21v-60q0 -13 -2 -22t-5 -9q-67 0 -109.5 24.5t-65 59t-46.5 88.5q-18 39 -30.5 60.5t-31.5 36t-47 14.5q-32 0 -68 -20t-63 -51.5t-34 -65.5q80 -7 123 -19t67.5 -46t24.5 -103q0 -118 -97 -173.5t-245 -55.5
q-129 0 -187.5 48.5zM704 -182l63 79l84 -66l-64 -79zM907 -103l83 -66l-63 -79l-84 66z" />
    <glyph glyph-name="uni06330649" unicode="&#xfcfb;" horiz-adv-x="1382" arabic-form="isolated" 
d="M129.5 -202.5q-58.5 48.5 -58.5 146.5q0 19 7 67t17 112l21 132l75 -16q-37 -222 -37 -280q0 -47 46 -67.5t117 -20.5q92 0 154.5 13t100.5 46q8 24 8 39q0 45 -43 51l-20 2q-64 7 -93.5 13t-47 21.5t-17.5 47.5q0 67 39 134t97.5 110t112.5 43q50 0 82 -19.5t49.5 -48.5
t35.5 -75q18 -43 32.5 -68t40 -42t64.5 -17q55 0 86 15l-7 196l85 3l5 -200q17 -14 55 -14q59 0 92 17l-20 237l92 16q10 -173 10 -253q0 -69 -46.5 -103.5t-108.5 -34.5q-93 0 -118 55q-16 -31 -51 -43t-74 -12q-59 0 -96 23.5t-56.5 56.5t-41.5 87q-16 40 -28.5 63t-32 38
t-48.5 15q-32 0 -68 -20t-63 -51.5t-34 -65.5q80 -7 123 -19t67.5 -46t24.5 -103q0 -118 -97 -173.5t-245 -55.5q-129 0 -187.5 48.5z" />
    <glyph glyph-name="uni06340649" unicode="&#xfcfd;" horiz-adv-x="1382" arabic-form="isolated" 
d="M129.5 -202.5q-58.5 48.5 -58.5 146.5q0 19 7 67t17 112l21 132l75 -16q-37 -222 -37 -280q0 -47 46 -67.5t117 -20.5q92 0 154.5 13t100.5 46q8 24 8 39q0 45 -43 51l-20 2q-64 7 -93.5 13t-47 21.5t-17.5 47.5q0 67 39 134t97.5 110t112.5 43q50 0 82 -19.5t49.5 -48.5
t35.5 -75q18 -43 32.5 -68t40 -42t64.5 -17q55 0 86 15l-7 196l85 3l5 -200q17 -14 55 -14q59 0 92 17l-20 237l92 16q10 -173 10 -253q0 -69 -46.5 -103.5t-108.5 -34.5q-93 0 -118 55q-16 -31 -51 -43t-74 -12q-59 0 -96 23.5t-56.5 56.5t-41.5 87q-16 40 -28.5 63t-32 38
t-48.5 15q-32 0 -68 -20t-63 -51.5t-34 -65.5q80 -7 123 -19t67.5 -46t24.5 -103q0 -118 -97 -173.5t-245 -55.5q-129 0 -187.5 48.5zM881 499l59 72l77 -61l-59 -72zM996 706l77 -60l-59 -72l-76 60zM1070 571l77 -61l-59 -72l-77 61z" />
    <glyph glyph-name="uni06350649" unicode="&#xfd05;" horiz-adv-x="1362" arabic-form="isolated" 
d="M129.5 -203.5q-58.5 48.5 -58.5 146.5q0 19 7 67t17 112l21 132l75 -16q-37 -222 -37 -279q0 -48 46 -68.5t117 -20.5q92 0 154.5 13t100.5 46q8 24 8 39q0 46 -43 52q-77 7 -108 12.5t-50.5 21.5t-19.5 49q0 68 39 135t97.5 110t112.5 43q50 0 82 -19t49 -47t35 -74
l21 -46q70 90 150 157t154 67q96 0 144 -60.5t48 -178.5q0 -30 -7 -56.5t-21 -42.5q-40 -42 -129.5 -66.5t-216.5 -24.5q-60 0 -98 24t-58.5 57.5t-42.5 86.5q-17 41 -29.5 63t-31.5 37t-48 15q-32 0 -68 -20t-63 -52t-34 -66q80 -7 123 -19t67.5 -46t24.5 -102
q0 -119 -97 -174.5t-245 -55.5q-129 0 -187.5 48.5zM911 121q86 0 157 9t137 33q2 73 -23 118t-81 45q-52 0 -120.5 -49.5t-139.5 -133.5q28 -22 70 -22z" />
    <glyph glyph-name="uni06360649" unicode="&#xfd07;" horiz-adv-x="1362" arabic-form="isolated" 
d="M129.5 -203.5q-58.5 48.5 -58.5 146.5q0 19 7 67t17 112l21 132l75 -16q-37 -222 -37 -279q0 -48 46 -68.5t117 -20.5q92 0 154.5 13t100.5 46q8 24 8 39q0 46 -43 52q-77 7 -108 12.5t-50.5 21.5t-19.5 49q0 68 39 135t97.5 110t112.5 43q50 0 82 -19t49 -47t35 -74
l21 -46q70 90 150 157t154 67q96 0 144 -60.5t48 -178.5q0 -30 -7 -56.5t-21 -42.5q-40 -42 -129.5 -66.5t-216.5 -24.5q-60 0 -98 24t-58.5 57.5t-42.5 86.5q-17 41 -29.5 63t-31.5 37t-48 15q-32 0 -68 -20t-63 -52t-34 -66q80 -7 123 -19t67.5 -46t24.5 -102
q0 -119 -97 -174.5t-245 -55.5q-129 0 -187.5 48.5zM911 121q86 0 157 9t137 33q2 73 -23 118t-81 45q-52 0 -120.5 -49.5t-139.5 -133.5q28 -22 70 -22zM870 576l67 82l87 -69l-67 -82z" />
    <glyph glyph-name="uni06330649.fina" unicode="&#xfd17;" horiz-adv-x="1446" arabic-form="final" 
d="M1333 16q-31 16 -44 46q-21 -31 -57 -46.5t-77 -15.5q-93 0 -118 55q-16 -31 -51 -43t-74 -12q-59 0 -96 23.5t-56.5 56.5t-41.5 87q-16 40 -28.5 63t-32 38t-48.5 15q-32 0 -68 -20t-63 -51.5t-34 -65.5q80 -7 123 -19t67.5 -46t24.5 -103q0 -118 -97 -173.5t-245 -55.5
q-129 0 -187.5 48.5t-58.5 146.5q0 19 7 67t17 112l21 132l75 -16q-37 -222 -37 -280q0 -47 46 -67.5t117 -20.5q92 0 154.5 13t100.5 46q8 24 8 39q0 45 -43 51l-20 2q-64 7 -93.5 13t-47 21.5t-17.5 47.5q0 67 39 134t97.5 110t112.5 43q50 0 82 -19.5t49.5 -48.5
t35.5 -75q18 -43 32.5 -68t40 -42t64.5 -17q55 0 86 15l-7 196l85 3l5 -200q17 -14 55 -14q59 0 92 17l-20 237l92 16l13 -195q2 -41 21 -58t70 -17h42q3 0 5.5 -9t2.5 -21v-60q0 -12 -2.5 -21.5t-5.5 -9.5h-42q-40 0 -71 16z" />
    <glyph glyph-name="uni06340649.fina" unicode="&#xfd19;" horiz-adv-x="1446" arabic-form="final" 
d="M1333 16q-31 16 -44 46q-21 -31 -57 -46.5t-77 -15.5q-93 0 -118 55q-16 -31 -51 -43t-74 -12q-59 0 -96 23.5t-56.5 56.5t-41.5 87q-16 40 -28.5 63t-32 38t-48.5 15q-32 0 -68 -20t-63 -51.5t-34 -65.5q80 -7 123 -19t67.5 -46t24.5 -103q0 -118 -97 -173.5t-245 -55.5
q-129 0 -187.5 48.5t-58.5 146.5q0 19 7 67t17 112l21 132l75 -16q-37 -222 -37 -280q0 -47 46 -67.5t117 -20.5q92 0 154.5 13t100.5 46q8 24 8 39q0 45 -43 51l-20 2q-64 7 -93.5 13t-47 21.5t-17.5 47.5q0 67 39 134t97.5 110t112.5 43q50 0 82 -19.5t49.5 -48.5
t35.5 -75q18 -43 32.5 -68t40 -42t64.5 -17q55 0 86 15l-7 196l85 3l5 -200q17 -14 55 -14q59 0 92 17l-20 237l92 16l13 -195q2 -41 21 -58t70 -17h42q3 0 5.5 -9t2.5 -21v-60q0 -12 -2.5 -21.5t-5.5 -9.5h-42q-40 0 -71 16zM881 499l59 72l77 -61l-59 -72zM996 706l77 -60
l-59 -72l-76 60zM1070 571l77 -61l-59 -72l-77 61z" />
    <glyph glyph-name="uni06350649.fina" unicode="&#xfd21;" horiz-adv-x="1389" arabic-form="final" 
d="M1295 16q-35 16 -57 54q-47 -33 -128.5 -51.5t-192.5 -18.5q-60 0 -98 24t-58.5 57.5t-42.5 86.5q-17 41 -29.5 63t-31.5 37t-48 15q-32 0 -68 -20t-63 -52t-34 -66q80 -7 123 -19t67.5 -46t24.5 -102q0 -119 -97 -174.5t-245 -55.5q-129 0 -187.5 48.5t-58.5 146.5
q0 19 7 67t17 112l21 132l75 -16q-37 -222 -37 -279q0 -48 46 -68.5t117 -20.5q92 0 154.5 13t100.5 46q8 24 8 39q0 46 -43 52q-77 7 -108 12.5t-50.5 21.5t-19.5 49q0 68 39 135t97.5 110t112.5 43q50 0 82 -19t49 -47t35 -74l21 -46q70 90 150 157t154 67q96 0 144 -60.5
t48 -178.5q0 -19 -3 -37q11 -17 35 -24.5t66 -7.5q3 0 5.5 -9t2.5 -21v-60q0 -12 -2.5 -21.5t-5.5 -9.5q-59 0 -94 16zM911 121q86 0 157 9t137 33q2 73 -23 118t-81 45q-52 0 -120.5 -49.5t-139.5 -133.5q28 -22 70 -22z" />
    <glyph glyph-name="uni06360649.fina" unicode="&#xfd23;" horiz-adv-x="1389" arabic-form="final" 
d="M1295 16q-35 16 -57 54q-47 -33 -128.5 -51.5t-192.5 -18.5q-60 0 -98 24t-58.5 57.5t-42.5 86.5q-17 41 -29.5 63t-31.5 37t-48 15q-32 0 -68 -20t-63 -52t-34 -66q80 -7 123 -19t67.5 -46t24.5 -102q0 -119 -97 -174.5t-245 -55.5q-129 0 -187.5 48.5t-58.5 146.5
q0 19 7 67t17 112l21 132l75 -16q-37 -222 -37 -279q0 -48 46 -68.5t117 -20.5q92 0 154.5 13t100.5 46q8 24 8 39q0 46 -43 52q-77 7 -108 12.5t-50.5 21.5t-19.5 49q0 68 39 135t97.5 110t112.5 43q50 0 82 -19t49 -47t35 -74l21 -46q70 90 150 157t154 67q96 0 144 -60.5
t48 -178.5q0 -19 -3 -37q11 -17 35 -24.5t66 -7.5q3 0 5.5 -9t2.5 -21v-60q0 -12 -2.5 -21.5t-5.5 -9.5q-59 0 -94 16zM911 121q86 0 157 9t137 33q2 73 -23 118t-81 45q-52 0 -120.5 -49.5t-139.5 -133.5q28 -22 70 -22zM871 576l67 82l87 -69l-67 -82z" />
    <glyph glyph-name="uni0622.fina" unicode="&#x622;" horiz-adv-x="300" arabic-form="final" 
d="M166.5 20.5q-42.5 20.5 -64.5 67t-27 126.5l-14 295l97 16l4 -310q1 -47 28 -70.5t75 -23.5h35q3 0 5.5 -9t2.5 -21v-60q0 -12 -2.5 -21.5t-5.5 -9.5h-23q-68 0 -110.5 20.5zM98 624q-32 4 -40 4q-19 0 -27.5 -8.5t-16.5 -37.5l-66 17q18 64 41 87.5t67 23.5q20 0 55 -5
q60 -8 109 -8h52l-17 -82h-45q-51 0 -112 9z" />
    <glyph glyph-name="uni0623.fina" unicode="&#x623;" horiz-adv-x="300" arabic-form="final" 
d="M166.5 20.5q-42.5 20.5 -64.5 67t-27 126.5l-14 295l97 16l4 -310q1 -47 28 -70.5t75 -23.5h35q3 0 5.5 -9t2.5 -21v-60q0 -12 -2.5 -21.5t-5.5 -9.5h-23q-68 0 -110.5 20.5zM-14 614l76 21q-24 47 -24 80t25.5 51.5t69.5 18.5q29 0 47 -6v-53q-33 6 -59 6q-25 0 -38 -7
q0 -15 8.5 -36t21.5 -39l115 32v-56l-242 -68v56z" />
    <glyph glyph-name="uni0624.fina" unicode="&#x624;" horiz-adv-x="475" arabic-form="final" 
d="M302 8q-36 -8 -96 -8q-51 0 -77.5 8t-46.5 35q-13 19 -18 32.5t-5 36.5q0 60 18.5 118t57.5 97t99 39q78 0 119 -72t46 -173h76q3 0 5.5 -9t2.5 -21v-60q0 -12 -2.5 -21.5t-5.5 -9.5h-87q-25 -89 -97.5 -160.5t-187.5 -117.5l-60 93q210 75 259 193zM222 101q59 0 96 9
q0 77 -24.5 116t-67.5 39q-39 0 -63.5 -42t-24.5 -110q31 -12 84 -12zM111 512l76 21q-24 47 -24 80t25.5 51.5t69.5 18.5q29 0 47 -6v-53q-33 6 -59 6q-25 0 -38 -7q0 -15 8.5 -36t21.5 -39l115 32v-56l-242 -68v56z" />
    <glyph glyph-name="uni0625.fina" unicode="&#x625;" horiz-adv-x="300" arabic-form="final" 
d="M166 19.5q-42 19.5 -64 66.5t-25 128l-16 480l96 16l4 -495q1 -47 28.5 -70.5t75.5 -23.5h35q3 0 5.5 -9t2.5 -21v-60q0 -12 -2.5 -21.5t-5.5 -9.5h-24q-68 0 -110 19.5zM7 -252l76 21q-24 47 -24 80t25.5 51.5t69.5 18.5q29 0 47 -6v-53q-33 6 -59 6q-25 0 -38 -7
q0 -15 8.5 -36t21.5 -39l115 32v-56l-242 -68v56z" />
    <glyph glyph-name="uni0626.fina" unicode="&#x626;" horiz-adv-x="697" arabic-form="final" 
d="M129.5 -203q-58.5 48 -58.5 146q0 35 25 183l20 128l75 -15q-37 -222 -37 -280q0 -47 46 -68t117 -21q94 0 156.5 13t101.5 47q2 14 2 19q0 24 -16.5 34.5t-50 13.5t-103.5 3l24 121h266q3 0 5.5 -9t2.5 -21v-60q0 -12 -2.5 -21.5t-5.5 -9.5h-41q3 -15 3 -31
q0 -112 -97.5 -166t-244.5 -54q-129 0 -187.5 48zM110 398l76 21q-24 47 -24 80t25.5 51.5t69.5 18.5q29 0 47 -6v-53q-33 6 -59 6q-25 0 -38 -7q0 -15 8.5 -36t21.5 -39l115 32v-56l-242 -68v56z" />
    <glyph glyph-name="uni0626.init" unicode="&#x626;" horiz-adv-x="338" arabic-form="initial" 
d="M-5.5 9.5q-2.5 9.5 -2.5 21.5v60q0 12 2.5 21t5.5 9q128 0 184 31l-20 223l93 16q10 -164 10 -246q0 -30 -14 -57.5t-42 -44.5q-74 -43 -211 -43q-3 0 -5.5 9.5zM75 532l76 21q-24 47 -24 80t25.5 51.5t69.5 18.5q29 0 47 -6v-53q-33 6 -59 6q-25 0 -38 -7q0 -15 8.5 -36
t21.5 -39l115 32v-56l-242 -68v56z" />
    <glyph glyph-name="uni0626.medi" unicode="&#x626;" horiz-adv-x="359" arabic-form="medial" 
d="M-5.5 9.5q-2.5 9.5 -2.5 21.5v60q0 12 2.5 21t5.5 9q47 0 81.5 6.5t64.5 22.5l-21 191l93 10l11 -205q42 -25 130 -25q4 0 6 -8.5t2 -21.5v-60q0 -13 -2 -22t-6 -9q-80 0 -119.5 16t-52.5 50q-19 -35 -63.5 -50.5t-123.5 -15.5q-3 0 -5.5 9.5zM41 494l76 21
q-24 47 -24 80t25.5 51.5t69.5 18.5q29 0 47 -6v-53q-33 6 -59 6q-25 0 -38 -7q0 -15 8.5 -36t21.5 -39l115 32v-56l-242 -68v56z" />
    <glyph glyph-name="uni0627.fina" unicode="&#x627;" horiz-adv-x="300" arabic-form="final" 
d="M166 19.5q-42 19.5 -64 66.5t-25 128l-16 480l96 16l4 -495q1 -47 28.5 -70.5t75.5 -23.5h35q3 0 5.5 -9t2.5 -21v-60q0 -12 -2.5 -21.5t-5.5 -9.5h-24q-68 0 -110 19.5z" />
    <glyph glyph-name="uni0628.fina" unicode="&#x628;" horiz-adv-x="903" arabic-form="final" 
d="M225.5 10.5q-72.5 15.5 -113.5 57t-41 116.5q0 21 7 69t23 138l75 -15q-22 -132 -22 -171q0 -35 22.5 -54t75 -27t148.5 -8q192 0 294 33l-15 173l89 10l11 -187q17 -14 46.5 -19t77.5 -5q3 0 5.5 -9t2.5 -21v-60q0 -12 -2.5 -21.5t-5.5 -9.5q-78 0 -124 17.5t-58 47.5
q-23 -28 -74 -42q-46 -12 -110.5 -20t-131.5 -8q-107 0 -179.5 15.5zM328 -179l67 82l87 -69l-67 -82z" />
    <glyph glyph-name="uni0628.init" unicode="&#x628;" horiz-adv-x="338" arabic-form="initial" 
d="M-5.5 9.5q-2.5 9.5 -2.5 21.5v60q0 12 2.5 21t5.5 9q128 0 184 31l-20 223l93 16q10 -164 10 -246q0 -30 -14 -57.5t-42 -44.5q-74 -43 -211 -43q-3 0 -5.5 9.5zM23 -177l67 82l87 -69l-67 -82z" />
    <glyph glyph-name="uni0628.medi" unicode="&#x628;" horiz-adv-x="359" arabic-form="medial" 
d="M-5.5 9.5q-2.5 9.5 -2.5 21.5v60q0 12 2.5 21t5.5 9q47 0 81.5 6.5t64.5 22.5l-21 191l93 10l11 -205q42 -25 130 -25q4 0 6 -8.5t2 -21.5v-60q0 -13 -2 -22t-6 -9q-80 0 -119.5 16t-52.5 50q-19 -35 -63.5 -50.5t-123.5 -15.5q-3 0 -5.5 9.5zM80 -177l67 82l87 -69
l-67 -82z" />
    <glyph glyph-name="uni0629.fina" unicode="&#x629;" horiz-adv-x="507" arabic-form="final" 
d="M387.5 20q-34.5 20 -47.5 61l-8 -11q-15 -22 -47 -30t-85 -8q-55 0 -92 26t-37 78q0 97 50.5 157.5t160.5 97.5l-8 68l88 25l25 -256q4 -41 10 -62t23.5 -33t52.5 -12h34q3 0 5 -9t2 -21v-60q0 -13 -2 -22t-5 -9h-36q-49 0 -83.5 20zM211 142q46 0 103 19l-17 141
q-75 -18 -110 -59t-40 -86q28 -15 64 -15zM170 651l63 79l84 -66l-64 -79zM373 730l83 -66l-63 -79l-84 66z" />
    <glyph glyph-name="uni062A.fina" unicode="&#x62a;" horiz-adv-x="903" arabic-form="final" 
d="M225.5 10.5q-72.5 15.5 -113.5 57t-41 116.5q0 21 7 69t23 138l75 -15q-22 -132 -22 -171q0 -35 22.5 -54t75 -27t148.5 -8q192 0 294 33l-15 173l89 10l11 -187q17 -14 46.5 -19t77.5 -5q3 0 5.5 -9t2.5 -21v-60q0 -12 -2.5 -21.5t-5.5 -9.5q-78 0 -124 17.5t-58 47.5
q-23 -28 -74 -42q-46 -12 -110.5 -20t-131.5 -8q-107 0 -179.5 15.5zM292 453l63 79l84 -66l-64 -79zM495 532l83 -66l-63 -79l-84 66z" />
    <glyph glyph-name="uni062A.init" unicode="&#x62a;" horiz-adv-x="338" arabic-form="initial" 
d="M-5.5 9.5q-2.5 9.5 -2.5 21.5v60q0 12 2.5 21t5.5 9q128 0 184 31l-20 223l93 16q10 -164 10 -246q0 -30 -14 -57.5t-42 -44.5q-74 -43 -211 -43q-3 0 -5.5 9.5zM55 555l63 79l84 -66l-64 -79zM258 634l83 -66l-63 -79l-84 66z" />
    <glyph glyph-name="uni062A.medi" unicode="&#x62a;" horiz-adv-x="359" arabic-form="medial" 
d="M-5.5 9.5q-2.5 9.5 -2.5 21.5v60q0 12 2.5 21t5.5 9q47 0 81.5 6.5t64.5 22.5l-21 191l93 10l11 -205q42 -25 130 -25q4 0 6 -8.5t2 -21.5v-60q0 -13 -2 -22t-6 -9q-80 0 -119.5 16t-52.5 50q-19 -35 -63.5 -50.5t-123.5 -15.5q-3 0 -5.5 9.5zM21 517l63 79l84 -66
l-64 -79zM224 596l83 -66l-63 -79l-84 66z" />
    <glyph glyph-name="uni062B.fina" unicode="&#x62b;" horiz-adv-x="903" arabic-form="final" 
d="M225.5 10.5q-72.5 15.5 -113.5 57t-41 116.5q0 21 7 69t23 138l75 -15q-22 -132 -22 -171q0 -35 22.5 -54t75 -27t148.5 -8q192 0 294 33l-15 173l89 10l11 -187q17 -14 46.5 -19t77.5 -5q3 0 5.5 -9t2.5 -21v-60q0 -12 -2.5 -21.5t-5.5 -9.5q-78 0 -124 17.5t-58 47.5
q-23 -28 -74 -42q-46 -12 -110.5 -20t-131.5 -8q-107 0 -179.5 15.5zM302 448l59 72l77 -61l-59 -72zM417 655l77 -60l-59 -72l-76 60zM491 520l77 -61l-59 -72l-77 61z" />
    <glyph glyph-name="uni062B.init" unicode="&#x62b;" horiz-adv-x="338" arabic-form="initial" 
d="M-5.5 9.5q-2.5 9.5 -2.5 21.5v60q0 12 2.5 21t5.5 9q128 0 184 31l-20 223l93 16q10 -164 10 -246q0 -30 -14 -57.5t-42 -44.5q-74 -43 -211 -43q-3 0 -5.5 9.5zM65 550l59 72l77 -61l-59 -72zM180 757l77 -60l-59 -72l-76 60zM254 622l77 -61l-59 -72l-77 61z" />
    <glyph glyph-name="uni062B.medi" unicode="&#x62b;" horiz-adv-x="359" arabic-form="medial" 
d="M-5.5 9.5q-2.5 9.5 -2.5 21.5v60q0 12 2.5 21t5.5 9q47 0 81.5 6.5t64.5 22.5l-21 191l93 10l11 -205q42 -25 130 -25q4 0 6 -8.5t2 -21.5v-60q0 -13 -2 -22t-6 -9q-80 0 -119.5 16t-52.5 50q-19 -35 -63.5 -50.5t-123.5 -15.5q-3 0 -5.5 9.5zM31 512l59 72l77 -61
l-59 -72zM146 719l77 -60l-59 -72l-76 60zM220 584l77 -61l-59 -72l-77 61z" />
    <glyph glyph-name="uni062C.fina" unicode="&#x62c;" horiz-adv-x="724" arabic-form="final" 
d="M543 18.5q-43 18.5 -67 57.5t-41 110q-120 -41 -193 -103t-86 -144q0 -91 62 -135t166 -44q99 0 217 30l-6 -120q-106 -30 -214 -30q-144 0 -229.5 63.5t-85.5 196.5q0 118 79 219t248 163q-35 11 -106 41q-29 12 -55 22t-37 10q-26 0 -38.5 -16t-18.5 -49l-72 14
q12 77 41.5 119.5t84.5 42.5q30 0 66.5 -13t96.5 -40q72 -33 125.5 -51.5t106.5 -20.5l-10 -118q-34 -7 -73 -17q16 -50 44.5 -67.5t88.5 -17.5h87q4 0 6 -8.5t2 -21.5v-60q0 -13 -2 -22t-6 -9h-63q-75 0 -118 18.5zM350 29l87 -69l-67 -82l-87 69z" />
    <glyph glyph-name="uni062C.init" unicode="&#x62c;" horiz-adv-x="700" arabic-form="initial" 
d="M-5.5 9.5q-2.5 9.5 -2.5 21.5v60q0 12 2.5 21t5.5 9h35q62 0 124 14.5t135 44.5q12 5 58 25q57 26 84 34q-47 13 -128 48q-34 14 -64.5 25t-41.5 11q-27 0 -39 -15.5t-19 -48.5l-72 13q12 77 41.5 120t85.5 43q27 0 60.5 -11.5t92.5 -37.5q82 -36 146 -56t131 -20
l-23 -119q-59 -3 -109 -24t-118 -60l-34 -19q-74 -42 -148 -65t-167 -23h-30q-3 0 -5.5 9.5zM249 -177l67 82l87 -69l-67 -82z" />
    <glyph glyph-name="uni062C.medi" unicode="&#x62c;" horiz-adv-x="704" arabic-form="medial" 
d="M-5.5 9.5q-2.5 9.5 -2.5 21.5v60q0 12 2.5 21t5.5 9h35q62 0 124 14.5t135 44.5q25 10 69 30q45 22 76 32q-44 12 -133 47q-34 13 -63.5 23.5t-40.5 10.5q-27 0 -39 -15.5t-19 -48.5l-72 13q12 77 41.5 120t85.5 43q27 0 60.5 -11t92.5 -36q85 -35 147.5 -54t129.5 -19
l-23 -113q-41 -2 -78.5 -15.5t-80.5 -37.5q20 -18 67.5 -23t132.5 -5h57q4 0 6 -8.5t2 -21.5v-60q0 -13 -2 -22t-6 -9h-123q-72 0 -127 26t-68 86l-41 -24q-74 -42 -148 -65t-167 -23h-30q-3 0 -5.5 9.5zM249 -177l67 82l87 -69l-67 -82z" />
    <glyph glyph-name="uni062D.fina" unicode="&#x62d;" horiz-adv-x="724" arabic-form="final" 
d="M543 18.5q-43 18.5 -67 57.5t-41 110q-120 -41 -193 -103t-86 -144q0 -91 62 -135t166 -44q99 0 217 30l-6 -120q-106 -30 -214 -30q-144 0 -229.5 63.5t-85.5 196.5q0 118 79 219t248 163q-35 11 -106 41q-29 12 -55 22t-37 10q-26 0 -38.5 -16t-18.5 -49l-72 14
q12 77 41.5 119.5t84.5 42.5q30 0 66.5 -13t96.5 -40q72 -33 125.5 -51.5t106.5 -20.5l-10 -118q-34 -7 -73 -17q16 -50 44.5 -67.5t88.5 -17.5h87q4 0 6 -8.5t2 -21.5v-60q0 -13 -2 -22t-6 -9h-63q-75 0 -118 18.5z" />
    <glyph glyph-name="uni062D.init" unicode="&#x62d;" horiz-adv-x="700" arabic-form="initial" 
d="M-5.5 9.5q-2.5 9.5 -2.5 21.5v60q0 12 2.5 21t5.5 9h35q62 0 124 14.5t135 44.5q12 5 58 25q57 26 84 34q-47 13 -128 48q-34 14 -64.5 25t-41.5 11q-27 0 -39 -15.5t-19 -48.5l-72 13q12 77 41.5 120t85.5 43q27 0 60.5 -11.5t92.5 -37.5q82 -36 146 -56t131 -20
l-23 -119q-59 -3 -109 -24t-118 -60l-34 -19q-74 -42 -148 -65t-167 -23h-30q-3 0 -5.5 9.5z" />
    <glyph glyph-name="uni062D.medi" unicode="&#x62d;" horiz-adv-x="704" arabic-form="medial" 
d="M-5.5 9.5q-2.5 9.5 -2.5 21.5v60q0 12 2.5 21t5.5 9h35q62 0 124 14.5t135 44.5q25 10 69 30q45 22 76 32q-44 12 -133 47q-34 13 -63.5 23.5t-40.5 10.5q-27 0 -39 -15.5t-19 -48.5l-72 13q12 77 41.5 120t85.5 43q27 0 60.5 -11t92.5 -36q85 -35 147.5 -54t129.5 -19
l-23 -113q-41 -2 -78.5 -15.5t-80.5 -37.5q20 -18 67.5 -23t132.5 -5h57q4 0 6 -8.5t2 -21.5v-60q0 -13 -2 -22t-6 -9h-123q-72 0 -127 26t-68 86l-41 -24q-74 -42 -148 -65t-167 -23h-30q-3 0 -5.5 9.5z" />
    <glyph glyph-name="uni062E.fina" unicode="&#x62e;" horiz-adv-x="724" arabic-form="final" 
d="M543 18.5q-43 18.5 -67 57.5t-41 110q-120 -41 -193 -103t-86 -144q0 -91 62 -135t166 -44q99 0 217 30l-6 -120q-106 -30 -214 -30q-144 0 -229.5 63.5t-85.5 196.5q0 118 79 219t248 163q-35 11 -106 41q-29 12 -55 22t-37 10q-26 0 -38.5 -16t-18.5 -49l-72 14
q12 77 41.5 119.5t84.5 42.5q30 0 66.5 -13t96.5 -40q72 -33 125.5 -51.5t106.5 -20.5l-10 -118q-34 -7 -73 -17q16 -50 44.5 -67.5t88.5 -17.5h87q4 0 6 -8.5t2 -21.5v-60q0 -13 -2 -22t-6 -9h-63q-75 0 -118 18.5zM198 599l67 82l87 -69l-67 -82z" />
    <glyph glyph-name="uni062E.init" unicode="&#x62e;" horiz-adv-x="700" arabic-form="initial" 
d="M-5.5 9.5q-2.5 9.5 -2.5 21.5v60q0 12 2.5 21t5.5 9h35q62 0 124 14.5t135 44.5q12 5 58 25q57 26 84 34q-47 13 -128 48q-34 14 -64.5 25t-41.5 11q-27 0 -39 -15.5t-19 -48.5l-72 13q12 77 41.5 120t85.5 43q27 0 60.5 -11.5t92.5 -37.5q82 -36 146 -56t131 -20
l-23 -119q-59 -3 -109 -24t-118 -60l-34 -19q-74 -42 -148 -65t-167 -23h-30q-3 0 -5.5 9.5zM204 568l67 82l87 -69l-67 -82z" />
    <glyph glyph-name="uni062E.medi" unicode="&#x62e;" horiz-adv-x="704" arabic-form="medial" 
d="M-5.5 9.5q-2.5 9.5 -2.5 21.5v60q0 12 2.5 21t5.5 9h35q62 0 124 14.5t135 44.5q25 10 69 30q45 22 76 32q-44 12 -133 47q-34 13 -63.5 23.5t-40.5 10.5q-27 0 -39 -15.5t-19 -48.5l-72 13q12 77 41.5 120t85.5 43q27 0 60.5 -11t92.5 -36q85 -35 147.5 -54t129.5 -19
l-23 -113q-41 -2 -78.5 -15.5t-80.5 -37.5q20 -18 67.5 -23t132.5 -5h57q4 0 6 -8.5t2 -21.5v-60q0 -13 -2 -22t-6 -9h-123q-72 0 -127 26t-68 86l-41 -24q-74 -42 -148 -65t-167 -23h-30q-3 0 -5.5 9.5zM204 568l67 82l87 -69l-67 -82z" />
    <glyph glyph-name="uni062F.fina" unicode="&#x62f;" horiz-adv-x="591" arabic-form="final" 
d="M93.5 15.5q-32.5 30.5 -32.5 108.5q0 16 2 42l1 25l75 -5v-22q0 -28 5.5 -39.5t20.5 -15t52 -3.5q49 0 98.5 12t78.5 31l-77 303l91 49l57 -283q10 -49 21 -68t32 -24t73 -5q4 0 6 -8.5t2 -21.5v-60q0 -13 -2 -22t-6 -9h-25q-107 0 -130 78q-8 -20 -16.5 -30t-21.5 -16
q-32 -19 -88.5 -33t-106.5 -14q-77 0 -109.5 30.5z" />
    <glyph glyph-name="uni0630.fina" unicode="&#x630;" horiz-adv-x="591" arabic-form="final" 
d="M93.5 15.5q-32.5 30.5 -32.5 108.5q0 16 2 42l1 25l75 -5v-22q0 -28 5.5 -39.5t20.5 -15t52 -3.5q49 0 98.5 12t78.5 31l-77 303l91 49l57 -283q10 -49 21 -68t32 -24t73 -5q4 0 6 -8.5t2 -21.5v-60q0 -13 -2 -22t-6 -9h-25q-107 0 -130 78q-8 -20 -16.5 -30t-21.5 -16
q-32 -19 -88.5 -33t-106.5 -14q-77 0 -109.5 30.5zM251 665l67 82l87 -69l-67 -82z" />
    <glyph glyph-name="uni0631.fina" unicode="&#x631;" horiz-adv-x="391" arabic-form="final" 
d="M292 12q-27 12 -45 34q0 -93 -67 -175.5t-206 -148.5l-59 93q209 95 249 207l-35 287l96 20l8 -79l6 -59q4 -37 32.5 -53.5t79.5 -16.5h40q3 0 5.5 -9t2.5 -21v-60q0 -12 -2.5 -21.5t-5.5 -9.5h-40q-32 0 -59 12z" />
    <glyph glyph-name="uni0632.fina" unicode="&#x632;" horiz-adv-x="391" arabic-form="final" 
d="M292 12q-27 12 -45 34q0 -93 -67 -175.5t-206 -148.5l-59 93q209 95 249 207l-35 287l96 20l8 -79l6 -59q4 -37 32.5 -53.5t79.5 -16.5h40q3 0 5.5 -9t2.5 -21v-60q0 -12 -2.5 -21.5t-5.5 -9.5h-40q-32 0 -59 12zM87 504l67 82l87 -69l-67 -82z" />
    <glyph glyph-name="uni0633.fina" unicode="&#x633;" horiz-adv-x="1241" arabic-form="final" 
d="M1127.5 16q-30.5 16 -43.5 46q-21 -31 -57.5 -46.5t-77.5 -15.5q-36 0 -64.5 13.5t-40.5 41.5q-14 -31 -48.5 -43t-71.5 -12q-36 0 -60.5 9t-39.5 31q5 -82 5 -117q0 -49 -47.5 -82.5t-119.5 -50t-145 -16.5q-129 0 -187.5 48.5t-58.5 145.5q0 20 7 68.5t17 112.5l21 131
l75 -16q-37 -222 -37 -280q0 -47 46 -67.5t117 -20.5q78 0 135 10.5t94 35.5l-38 378l93 19l14 -153q3 -36 23.5 -50.5t63.5 -14.5q60 0 92 16l-8 195l85 3l4 -198q18 -16 56 -16q61 0 92 18l-21 236l93 16l13 -195q2 -41 21 -58t70 -17h42q3 0 5.5 -9t2.5 -21v-60
q0 -12 -2.5 -21.5t-5.5 -9.5h-42q-41 0 -71.5 16z" />
    <glyph glyph-name="uni0633.init" unicode="&#x633;" horiz-adv-x="732" arabic-form="initial" 
d="M-5.5 9.5q-2.5 9.5 -2.5 21.5v60q0 12 2.5 21t5.5 9q75 0 124 22l1 152h85l-3 -119q-1 -55 62 -55q48 0 80 16l-4 195l86 3v-198q18 -16 55 -16q60 0 93 18l-21 236l93 16q10 -180 10 -253q0 -69 -47 -103.5t-109 -34.5q-43 0 -73.5 13t-43.5 42q-13 -30 -46 -42.5
t-63 -12.5q-38 0 -67.5 14t-44.5 42q-22 -30 -66.5 -43t-100.5 -13q-3 0 -5.5 9.5z" />
    <glyph glyph-name="uni0633.medi" unicode="&#x633;" horiz-adv-x="796" arabic-form="medial" 
d="M683.5 16q-30.5 16 -44.5 46q-21 -31 -57 -46.5t-77 -15.5q-43 0 -73.5 13t-43.5 42q-13 -30 -46 -42.5t-63 -12.5q-38 0 -67.5 14t-44.5 42q-22 -30 -66.5 -43t-100.5 -13q-3 0 -5.5 9.5t-2.5 21.5v60q0 12 2.5 21t5.5 9q75 0 124 22l1 152h85l-3 -119q-1 -55 62 -55
q48 0 80 16l-4 195l86 3v-198q18 -16 55 -16q60 0 93 18l-21 236l93 16l12 -195q2 -41 21 -58t70 -17h42q4 0 6 -8.5t2 -21.5v-60q0 -13 -2 -22t-6 -9h-42q-40 0 -70.5 16z" />
    <glyph glyph-name="uni0634.fina" unicode="&#x634;" horiz-adv-x="1241" arabic-form="final" 
d="M1127.5 16q-30.5 16 -43.5 46q-21 -31 -57.5 -46.5t-77.5 -15.5q-36 0 -64.5 13.5t-40.5 41.5q-14 -31 -48.5 -43t-71.5 -12q-36 0 -60.5 9t-39.5 31q5 -82 5 -117q0 -49 -47.5 -82.5t-119.5 -50t-145 -16.5q-129 0 -187.5 48.5t-58.5 145.5q0 20 7 68.5t17 112.5l21 131
l75 -16q-37 -222 -37 -280q0 -47 46 -67.5t117 -20.5q78 0 135 10.5t94 35.5l-38 378l93 19l14 -153q3 -36 23.5 -50.5t63.5 -14.5q60 0 92 16l-8 195l85 3l4 -198q18 -16 56 -16q61 0 92 18l-21 236l93 16l13 -195q2 -41 21 -58t70 -17h42q3 0 5.5 -9t2.5 -21v-60
q0 -12 -2.5 -21.5t-5.5 -9.5h-42q-41 0 -71.5 16zM676 499l59 72l77 -61l-59 -72zM791 706l77 -60l-59 -72l-76 60zM865 571l77 -61l-59 -72l-77 61z" />
    <glyph glyph-name="uni0634.init" unicode="&#x634;" horiz-adv-x="732" arabic-form="initial" 
d="M-5.5 9.5q-2.5 9.5 -2.5 21.5v60q0 12 2.5 21t5.5 9q75 0 124 22l1 152h85l-3 -119q-1 -55 62 -55q48 0 80 16l-4 195l86 3v-198q18 -16 55 -16q60 0 93 18l-21 236l93 16q10 -180 10 -253q0 -69 -47 -103.5t-109 -34.5q-43 0 -73.5 13t-43.5 42q-13 -30 -46 -42.5
t-63 -12.5q-38 0 -67.5 14t-44.5 42q-22 -30 -66.5 -43t-100.5 -13q-3 0 -5.5 9.5zM232 493l59 72l77 -61l-59 -72zM347 700l77 -60l-59 -72l-76 60zM421 565l77 -61l-59 -72l-77 61z" />
    <glyph glyph-name="uni0634.medi" unicode="&#x634;" horiz-adv-x="796" arabic-form="medial" 
d="M683.5 16q-30.5 16 -44.5 46q-21 -31 -57 -46.5t-77 -15.5q-43 0 -73.5 13t-43.5 42q-13 -30 -46 -42.5t-63 -12.5q-38 0 -67.5 14t-44.5 42q-22 -30 -66.5 -43t-100.5 -13q-3 0 -5.5 9.5t-2.5 21.5v60q0 12 2.5 21t5.5 9q75 0 124 22l1 152h85l-3 -119q-1 -55 62 -55
q48 0 80 16l-4 195l86 3v-198q18 -16 55 -16q60 0 93 18l-21 236l93 16l12 -195q2 -41 21 -58t70 -17h42q4 0 6 -8.5t2 -21.5v-60q0 -13 -2 -22t-6 -9h-42q-40 0 -70.5 16zM232 493l59 72l77 -61l-59 -72zM347 700l77 -60l-59 -72l-76 60zM421 565l77 -61l-59 -72l-77 61z
" />
    <glyph glyph-name="uni0635.fina" unicode="&#x635;" horiz-adv-x="1301" arabic-form="final" 
d="M1207 16q-35 16 -57 54q-47 -33 -126.5 -51.5t-184.5 -18.5q-136 0 -214 32q4 -57 4 -109q0 -49 -47.5 -82.5t-119.5 -50t-145 -16.5q-128 0 -187 47.5t-59 142.5q0 31 9.5 95t35.5 221l75 -16q-38 -228 -38 -280q0 -48 45.5 -68t118.5 -20q159 0 229 46l-38 378l93 19
l17 -194q21 -8 34 -9q32 50 91 118.5t131.5 121.5t136.5 53q192 0 192 -239q0 -18 -3 -38q12 -17 35.5 -24t65.5 -7q3 0 5.5 -9t2.5 -21v-60q0 -12 -2.5 -21.5t-5.5 -9.5q-59 0 -94 16zM834 121q79 0 148.5 9t135.5 33q3 76 -22 119.5t-82 43.5q-54 0 -127 -54.5
t-148 -145.5q43 -5 95 -5z" />
    <glyph glyph-name="uni0635.init" unicode="&#x635;" horiz-adv-x="873" arabic-form="initial" 
d="M-5.5 9.5q-2.5 9.5 -2.5 21.5v60q0 12 2.5 21t5.5 9q44 0 72 3.5t56 16.5l-3 166h85l-4 -155q6 -5 19 -9.5t25 -6.5q32 50 91 118.5t131.5 121.5t136.5 53q192 0 192 -239q0 -70 -28 -99q-39 -42 -126.5 -66.5t-208.5 -24.5q-80 0 -151 13.5t-108 47.5q-26 -32 -76 -46.5
t-103 -14.5q-3 0 -5.5 9.5zM432 121q79 0 148.5 9t135.5 33q3 76 -22 119.5t-82 43.5q-54 0 -127 -54.5t-148 -145.5q48 -5 95 -5z" />
    <glyph glyph-name="uni0635.medi" unicode="&#x635;" horiz-adv-x="899" arabic-form="medial" 
d="M805 15.5q-35 15.5 -57 53.5q-46 -32 -126 -50.5t-184 -18.5q-80 0 -151 13.5t-108 47.5q-26 -32 -76 -46.5t-103 -14.5q-3 0 -5.5 9.5t-2.5 21.5v60q0 12 2.5 21t5.5 9q44 0 72 3.5t56 16.5l-3 166h85l-4 -155q6 -5 19 -9.5t25 -6.5q32 50 91 118.5t131.5 121.5
t136.5 53q192 0 192 -239q0 -18 -3 -38q12 -17 35.5 -24t65.5 -7q3 0 5.5 -9t2.5 -21v-60q0 -12 -2.5 -21.5t-5.5 -9.5q-59 0 -94 15.5zM432 121q79 0 148.5 9t135.5 33q3 76 -22 119.5t-82 43.5q-54 0 -127 -54.5t-148 -145.5q48 -5 95 -5z" />
    <glyph glyph-name="uni0636.fina" unicode="&#x636;" horiz-adv-x="1301" arabic-form="final" 
d="M1207 16q-35 16 -57 54q-47 -33 -126.5 -51.5t-184.5 -18.5q-136 0 -214 32q4 -57 4 -109q0 -49 -47.5 -82.5t-119.5 -50t-145 -16.5q-128 0 -187 47.5t-59 142.5q0 31 9.5 95t35.5 221l75 -16q-38 -228 -38 -280q0 -48 45.5 -68t118.5 -20q159 0 229 46l-38 378l93 19
l17 -194q21 -8 34 -9q32 50 91 118.5t131.5 121.5t136.5 53q192 0 192 -239q0 -18 -3 -38q12 -17 35.5 -24t65.5 -7q3 0 5.5 -9t2.5 -21v-60q0 -12 -2.5 -21.5t-5.5 -9.5q-59 0 -94 16zM834 121q79 0 148.5 9t135.5 33q3 76 -22 119.5t-82 43.5q-54 0 -127 -54.5
t-148 -145.5q43 -5 95 -5zM782 576l67 82l87 -69l-67 -82z" />
    <glyph glyph-name="uni0636.init" unicode="&#x636;" horiz-adv-x="873" arabic-form="initial" 
d="M-5.5 9.5q-2.5 9.5 -2.5 21.5v60q0 12 2.5 21t5.5 9q44 0 72 3.5t56 16.5l-3 166h85l-4 -155q6 -5 19 -9.5t25 -6.5q32 50 91 118.5t131.5 121.5t136.5 53q192 0 192 -239q0 -70 -28 -99q-39 -42 -126.5 -66.5t-208.5 -24.5q-80 0 -151 13.5t-108 47.5q-26 -32 -76 -46.5
t-103 -14.5q-3 0 -5.5 9.5zM432 121q79 0 148.5 9t135.5 33q3 76 -22 119.5t-82 43.5q-54 0 -127 -54.5t-148 -145.5q48 -5 95 -5zM381 576l67 82l87 -69l-67 -82z" />
    <glyph glyph-name="uni0636.medi" unicode="&#x636;" horiz-adv-x="899" arabic-form="medial" 
d="M805 15.5q-35 15.5 -57 53.5q-46 -32 -126 -50.5t-184 -18.5q-80 0 -151 13.5t-108 47.5q-26 -32 -76 -46.5t-103 -14.5q-3 0 -5.5 9.5t-2.5 21.5v60q0 12 2.5 21t5.5 9q44 0 72 3.5t56 16.5l-3 166h85l-4 -155q6 -5 19 -9.5t25 -6.5q32 50 91 118.5t131.5 121.5
t136.5 53q192 0 192 -239q0 -18 -3 -38q12 -17 35.5 -24t65.5 -7q3 0 5.5 -9t2.5 -21v-60q0 -12 -2.5 -21.5t-5.5 -9.5q-59 0 -94 15.5zM432 121q79 0 148.5 9t135.5 33q3 76 -22 119.5t-82 43.5q-54 0 -127 -54.5t-148 -145.5q48 -5 95 -5zM381 576l67 82l87 -69l-67 -82z
" />
    <glyph glyph-name="uni0637.fina" unicode="&#x637;" horiz-adv-x="810" arabic-form="final" 
d="M715.5 16q-35.5 16 -57.5 54q-46 -32 -126 -51t-185 -19h-260l-24 121h91q24 31 34 48q7 12 10.5 34.5t3.5 73.5q0 47 -1 78l-8 339l96 16l3 -327v-31q0 -46 -6 -64q59 62 119.5 101.5t113.5 39.5q96 0 144 -60.5t48 -178.5q0 -12 -2 -36q11 -17 34.5 -25t66.5 -8
q3 0 5.5 -9t2.5 -21v-60q0 -12 -2.5 -21.5t-5.5 -9.5q-59 0 -94.5 16zM342 121q79 0 148.5 9t135.5 33q3 76 -22 119.5t-82 43.5q-54 0 -127 -55.5t-149 -149.5h96z" />
    <glyph glyph-name="uni0637.init" unicode="&#x637;" horiz-adv-x="720" arabic-form="initial" 
d="M91 121q24 31 34 48q7 12 10.5 34.5t3.5 73.5q0 47 -1 78l-8 339l96 16l3 -327v-31q0 -46 -6 -64q59 62 119.5 101.5t113.5 39.5q96 0 144 -60.5t48 -178.5q0 -70 -28 -99q-39 -42 -127 -66.5t-209 -24.5h-284q-3 0 -5.5 9.5t-2.5 21.5v60q0 12 2.5 21t5.5 9h91zM279 121
q79 0 148.5 9t135.5 33q3 76 -22 119.5t-82 43.5q-54 0 -127 -55.5t-149 -149.5h96z" />
    <glyph glyph-name="uni0637.medi" unicode="&#x637;" horiz-adv-x="747" arabic-form="medial" 
d="M652.5 16q-35.5 16 -57.5 54q-46 -32 -126 -51t-185 -19h-284q-3 0 -5.5 9.5t-2.5 21.5v60q0 12 2.5 21t5.5 9h91q24 31 34 48q7 12 10.5 34.5t3.5 73.5q0 47 -1 78l-8 339l96 16l3 -327v-31q0 -46 -6 -64q59 62 119.5 101.5t113.5 39.5q96 0 144 -60.5t48 -178.5
q0 -12 -2 -36q11 -17 34.5 -25t66.5 -8q3 0 5.5 -9t2.5 -21v-60q0 -12 -2.5 -21.5t-5.5 -9.5q-59 0 -94.5 16zM279 121q79 0 148.5 9t135.5 33q3 76 -22 119.5t-82 43.5q-54 0 -127 -55.5t-149 -149.5h96z" />
    <glyph glyph-name="uni0638.fina" unicode="&#x638;" horiz-adv-x="810" arabic-form="final" 
d="M715.5 16q-35.5 16 -57.5 54q-46 -32 -126 -51t-185 -19h-260l-24 121h91q24 31 34 48q7 12 10.5 34.5t3.5 73.5q0 47 -1 78l-8 339l96 16l3 -327v-31q0 -46 -6 -64q59 62 119.5 101.5t113.5 39.5q96 0 144 -60.5t48 -178.5q0 -12 -2 -36q11 -17 34.5 -25t66.5 -8
q3 0 5.5 -9t2.5 -21v-60q0 -12 -2.5 -21.5t-5.5 -9.5q-59 0 -94.5 16zM342 121q79 0 148.5 9t135.5 33q3 76 -22 119.5t-82 43.5q-54 0 -127 -55.5t-149 -149.5h96zM454 607l67 82l87 -69l-67 -82z" />
    <glyph glyph-name="uni0638.init" unicode="&#x638;" horiz-adv-x="720" arabic-form="initial" 
d="M91 121q24 31 34 48q7 12 10.5 34.5t3.5 73.5q0 47 -1 78l-8 339l96 16l3 -327v-31q0 -46 -6 -64q59 62 119.5 101.5t113.5 39.5q96 0 144 -60.5t48 -178.5q0 -70 -28 -99q-39 -42 -127 -66.5t-209 -24.5h-284q-3 0 -5.5 9.5t-2.5 21.5v60q0 12 2.5 21t5.5 9h91zM279 121
q79 0 148.5 9t135.5 33q3 76 -22 119.5t-82 43.5q-54 0 -127 -55.5t-149 -149.5h96zM391 607l67 82l87 -69l-67 -82z" />
    <glyph glyph-name="uni0638.medi" unicode="&#x638;" horiz-adv-x="747" arabic-form="medial" 
d="M652.5 16q-35.5 16 -57.5 54q-46 -32 -126 -51t-185 -19h-284q-3 0 -5.5 9.5t-2.5 21.5v60q0 12 2.5 21t5.5 9h91q24 31 34 48q7 12 10.5 34.5t3.5 73.5q0 47 -1 78l-8 339l96 16l3 -327v-31q0 -46 -6 -64q59 62 119.5 101.5t113.5 39.5q96 0 144 -60.5t48 -178.5
q0 -12 -2 -36q11 -17 34.5 -25t66.5 -8q3 0 5.5 -9t2.5 -21v-60q0 -12 -2.5 -21.5t-5.5 -9.5q-59 0 -94.5 16zM279 121q79 0 148.5 9t135.5 33q3 76 -22 119.5t-82 43.5q-54 0 -127 -55.5t-149 -149.5h96zM391 607l67 82l87 -69l-67 -82z" />
    <glyph glyph-name="uni0639.fina" unicode="&#x639;" horiz-adv-x="623" arabic-form="final" 
d="M155 -296q-84 64 -84 199q0 72 43.5 147.5t125.5 120.5q-39 63 -64.5 100.5t-34 45.5t-16.5 7l-26 -4l5 98q119 22 263 22q86 0 129 -19.5t43 -66.5v-29q0 -28 -38 -86t-73 -85q4 -3 17 -12.5t31 -15t40 -5.5h107q3 0 5.5 -9t2.5 -21v-60q0 -12 -2.5 -21.5t-5.5 -9.5
h-123q-68 0 -105 27t-64 70q-137 -53 -170 -162q0 -91 60 -132.5t156 -41.5q92 0 194 29l-6 -121q-103 -29 -193 -29q-133 0 -217 64zM251.5 300q16.5 -22 41.5 -59l39 -56q32 15 71.5 58t47.5 75q-7 8 -33.5 12t-63.5 4q-85 0 -127 -7q8 -5 24.5 -27z" />
    <glyph glyph-name="uni0639.init" unicode="&#x639;" horiz-adv-x="531" arabic-form="initial" 
d="M-5.5 9.5q-2.5 9.5 -2.5 21.5v60q0 12 2.5 21t5.5 9h134q-32 61 -32 123q0 69 49 108.5t128 39.5q45 0 113 -18l-23 -95q-50 10 -98 10q-24 0 -46.5 -6.5t-37.5 -18.5q0 -70 36 -139q112 16 233 44v-112q-98 -26 -149 -37t-106.5 -15.5t-149.5 -4.5h-51q-3 0 -5.5 9.5z
" />
    <glyph glyph-name="uni0639.medi" unicode="&#x639;" horiz-adv-x="545" arabic-form="medial" 
d="M-5.5 9.5q-2.5 9.5 -2.5 21.5v60q0 12 2.5 21t5.5 9h125q42 0 68 7q-41 64 -67.5 103t-35.5 47.5t-17 6.5l-25 -4l5 99q124 22 263 22q85 0 128.5 -20t43.5 -67v-28q0 -25 -33 -77t-66 -82q23 -7 62 -7h94q3 0 5.5 -9t2.5 -21v-60q0 -12 -2.5 -21.5t-5.5 -9.5h-111
q-59 0 -95 15.5t-57 43.5q-25 -27 -63 -43t-97 -16h-122q-3 0 -5.5 9.5zM203.5 257.5q18.5 -24.5 77.5 -111.5q33 16 72 59t46 76q-13 14 -96 14q-86 0 -128 -7q10 -6 28.5 -30.5z" />
    <glyph glyph-name="uni063A.fina" unicode="&#x63a;" horiz-adv-x="623" arabic-form="final" 
d="M155 -296q-84 64 -84 199q0 72 43.5 147.5t125.5 120.5q-39 63 -64.5 100.5t-34 45.5t-16.5 7l-26 -4l5 98q119 22 263 22q86 0 129 -19.5t43 -66.5v-29q0 -28 -38 -86t-73 -85q4 -3 17 -12.5t31 -15t40 -5.5h107q3 0 5.5 -9t2.5 -21v-60q0 -12 -2.5 -21.5t-5.5 -9.5
h-123q-68 0 -105 27t-64 70q-137 -53 -170 -162q0 -91 60 -132.5t156 -41.5q92 0 194 29l-6 -121q-103 -29 -193 -29q-133 0 -217 64zM251.5 300q16.5 -22 41.5 -59l39 -56q32 15 71.5 58t47.5 75q-7 8 -33.5 12t-63.5 4q-85 0 -127 -7q8 -5 24.5 -27zM240 598l67 82l87 -69
l-67 -82z" />
    <glyph glyph-name="uni063A.init" unicode="&#x63a;" horiz-adv-x="531" arabic-form="initial" 
d="M-5.5 9.5q-2.5 9.5 -2.5 21.5v60q0 12 2.5 21t5.5 9h134q-32 61 -32 123q0 69 49 108.5t128 39.5q45 0 113 -18l-23 -95q-50 10 -98 10q-24 0 -46.5 -6.5t-37.5 -18.5q0 -70 36 -139q112 16 233 44v-112q-98 -26 -149 -37t-106.5 -15.5t-149.5 -4.5h-51q-3 0 -5.5 9.5z
M155 547l67 82l87 -69l-67 -82z" />
    <glyph glyph-name="uni063A.medi" unicode="&#x63a;" horiz-adv-x="545" arabic-form="medial" 
d="M-5.5 9.5q-2.5 9.5 -2.5 21.5v60q0 12 2.5 21t5.5 9h125q42 0 68 7q-41 64 -67.5 103t-35.5 47.5t-17 6.5l-25 -4l5 99q124 22 263 22q85 0 128.5 -20t43.5 -67v-28q0 -25 -33 -77t-66 -82q23 -7 62 -7h94q3 0 5.5 -9t2.5 -21v-60q0 -12 -2.5 -21.5t-5.5 -9.5h-111
q-59 0 -95 15.5t-57 43.5q-25 -27 -63 -43t-97 -16h-122q-3 0 -5.5 9.5zM203.5 257.5q18.5 -24.5 77.5 -111.5q33 16 72 59t46 76q-13 14 -96 14q-86 0 -128 -7q10 -6 28.5 -30.5zM189 560l67 82l87 -69l-67 -82z" />
    <glyph glyph-name="uni0641.fina" unicode="&#x641;" horiz-adv-x="958" arabic-form="final" 
d="M225.5 10.5q-72.5 15.5 -113.5 57t-41 116.5q0 21 7 69t23 138l75 -15q-22 -132 -22 -171q0 -35 22.5 -54t75 -27t148.5 -8q93 0 139.5 2t82.5 8q-27 19 -46.5 45.5t-19.5 53.5q0 31 28 82t71 89.5t87 38.5t81 -30.5t58.5 -81.5t21.5 -110q0 -27 -13.5 -45.5t-50.5 -40.5
q39 -6 79 -6h40q4 0 6 -8.5t2 -21.5v-60q0 -13 -2 -22t-6 -9h-67q-51 0 -89 10.5t-74 40.5q-20 -18 -44 -26q-90 -30 -279 -30q-107 0 -179.5 15.5zM667.5 185q27.5 -24 67.5 -42l81 58q0 49 -22 89.5t-57 40.5q-20 0 -42.5 -18t-38.5 -42.5t-16 -40.5q0 -21 27.5 -45z
M659 584l67 82l87 -69l-67 -82z" />
    <glyph glyph-name="uni0641.init" unicode="&#x641;" horiz-adv-x="464" arabic-form="initial" 
d="M-5.5 9.5q-2.5 9.5 -2.5 21.5v60q0 12 2.5 21t5.5 9q147 0 211.5 3.5t93.5 13.5q2 17 4 62q-43 -10 -111 -10q-50 0 -76.5 8t-46.5 35q-13 18 -18 31.5t-5 37.5q0 60 18 118t57 97t99 39q57 0 94.5 -40t55 -102.5t17.5 -131.5q0 -85 -6 -133.5t-22 -76t-46 -42.5
q-39 -19 -99.5 -24.5t-219.5 -5.5q-3 0 -5.5 9.5zM214 291q59 0 96 9q0 77 -24.5 116t-67.5 39q-39 0 -63.5 -42t-24.5 -110q31 -12 84 -12zM138 711l67 82l87 -69l-67 -82z" />
    <glyph glyph-name="uni0641.medi" unicode="&#x641;" horiz-adv-x="462" arabic-form="medial" 
d="M-5.5 9.5q-2.5 9.5 -2.5 21.5v60q0 12 2.5 21t5.5 9h58q27 0 67 7q-26 17 -45.5 43.5t-19.5 53.5q0 31 29 82t72 89.5t85 38.5q41 0 78.5 -30.5t60 -81.5t22.5 -110q0 -27 -13.5 -45.5t-50.5 -39.5q46 -7 79 -7h40q3 0 5.5 -9t2.5 -21v-60q0 -12 -2.5 -21.5t-5.5 -9.5
h-67q-51 0 -89 10.5t-75 40.5q-30 -27 -71.5 -39t-100.5 -12h-59q-3 0 -5.5 9.5zM171.5 185q27.5 -24 67.5 -42l81 58q0 49 -22 89.5t-57 40.5q-20 0 -42.5 -18t-38.5 -42.5t-16 -40.5q0 -21 27.5 -45zM164 584l67 82l87 -69l-67 -82z" />
    <glyph glyph-name="uni0642.fina" unicode="&#x642;" horiz-adv-x="792" arabic-form="final" 
d="M798 112.5q2 -8.5 2 -21.5v-60q0 -13 -2 -22t-6 -9h-109q-3 -71 -15 -107t-39 -59q-43 -41 -129.5 -60t-182.5 -19q-129 0 -187.5 48.5t-58.5 145.5q0 20 7 68.5t17 112.5l21 131l75 -16q-37 -222 -37 -280q0 -47 46 -67.5t117 -20.5q87 0 153.5 11t124.5 37q4 25 6 84
q-50 -10 -111 -10q-50 0 -76.5 8t-46.5 35q-14 19 -18.5 32t-4.5 37q0 60 18 118t57 97t99 39q78 0 119 -71.5t47 -172.5h108q4 0 6 -8.5zM506 101q35 0 56.5 2t39.5 7q0 78 -24 116.5t-68 38.5q-39 0 -63 -42t-24 -111q33 -11 83 -11zM364 518l63 79l84 -66l-64 -79z
M567 597l83 -66l-63 -79l-84 66z" />
    <glyph glyph-name="uni0642.init" unicode="&#x642;" horiz-adv-x="464" arabic-form="initial" 
d="M-5.5 9.5q-2.5 9.5 -2.5 21.5v60q0 12 2.5 21t5.5 9q147 0 211.5 3.5t93.5 13.5q2 17 4 62q-43 -10 -111 -10q-50 0 -76.5 8t-46.5 35q-13 18 -18 31.5t-5 37.5q0 60 18 118t57 97t99 39q57 0 94.5 -40t55 -102.5t17.5 -131.5q0 -85 -6 -133.5t-22 -76t-46 -42.5
q-39 -19 -99.5 -24.5t-219.5 -5.5q-3 0 -5.5 9.5zM214 291q59 0 96 9q0 77 -24.5 116t-67.5 39q-39 0 -63.5 -42t-24.5 -110q31 -12 84 -12zM72 708l63 79l84 -66l-64 -79zM275 787l83 -66l-63 -79l-84 66z" />
    <glyph glyph-name="uni0642.medi" unicode="&#x642;" horiz-adv-x="462" arabic-form="medial" 
d="M-5.5 9.5q-2.5 9.5 -2.5 21.5v60q0 12 2.5 21t5.5 9h58q27 0 67 7q-26 17 -45.5 43.5t-19.5 53.5q0 31 29 82t72 89.5t85 38.5q41 0 78.5 -30.5t60 -81.5t22.5 -110q0 -27 -13.5 -45.5t-50.5 -39.5q46 -7 79 -7h40q3 0 5.5 -9t2.5 -21v-60q0 -12 -2.5 -21.5t-5.5 -9.5
h-67q-51 0 -89 10.5t-75 40.5q-30 -27 -71.5 -39t-100.5 -12h-59q-3 0 -5.5 9.5zM171.5 185q27.5 -24 67.5 -42l81 58q0 49 -22 89.5t-57 40.5q-20 0 -42.5 -18t-38.5 -42.5t-16 -40.5q0 -21 27.5 -45zM98 581l63 79l84 -66l-64 -79zM301 660l83 -66l-63 -79l-84 66z" />
    <glyph glyph-name="uni0643.fina" unicode="&#x643;" horiz-adv-x="882" arabic-form="final" 
d="M225.5 10.5q-72.5 15.5 -113.5 57t-41 116.5q0 21 7 69t23 138l75 -15q-22 -132 -22 -171q0 -35 22.5 -54t75 -27t148.5 -8q161 0 257 33l-23 543l96 18l11 -495q1 -48 28 -71t81 -23h32q3 0 5.5 -9t2.5 -21v-60q0 -12 -2.5 -21.5t-5.5 -9.5h-21q-129 0 -160 81
q-9 -44 -101.5 -65t-194.5 -21q-107 0 -179.5 15.5zM310 378q56 0 95.5 10t55.5 29q0 17 -15 23.5t-48 12.5q-34 6 -51.5 14t-17.5 28q0 28 15.5 69.5t41.5 72.5t58 31q24 0 42.5 -14t38.5 -44l-33 -31q-24 27 -48 27t-41 -26.5t-24 -61.5q48 -4 75 -12t41 -26.5t14 -54.5
q0 -54 -55 -85.5t-150 -31.5z" />
    <glyph glyph-name="uni0643.init" unicode="&#x643;" horiz-adv-x="424" arabic-form="initial" 
d="M-5.5 9.5q-2.5 9.5 -2.5 21.5v60q0 12 2.5 21t5.5 9q81 0 143 7t96 20q-12 113 -63 192t-162 147l11 88q164 79 347 135l13 -101q-116 -33 -238 -87q104 -88 145 -188t41 -207q0 -70 -85.5 -98.5t-247.5 -28.5q-3 0 -5.5 9.5z" />
    <glyph glyph-name="uni0643.medi" unicode="&#x643;" horiz-adv-x="463" arabic-form="medial" 
d="M299 57q-36 -31 -111.5 -44t-187.5 -13q-3 0 -5.5 9.5t-2.5 21.5v60q0 12 2.5 21t5.5 9q81 0 143 7t96 20q-12 113 -63 192t-162 147l11 88q164 79 347 135l13 -101q-116 -33 -238 -87q172 -147 185 -358q9 -24 28 -33.5t54 -9.5h49q3 0 5.5 -9t2.5 -21v-60
q0 -12 -2.5 -21.5t-5.5 -9.5h-40q-95 0 -124 57z" />
    <glyph glyph-name="uni0644.fina" unicode="&#x644;" horiz-adv-x="731" arabic-form="final" 
d="M633.5 12q-27.5 12 -45.5 34l2 -123q1 -48 -45 -81.5t-112 -50.5t-124 -17q-124 0 -181 48.5t-57 145.5q0 20 7 68.5t17 112.5l21 131l75 -16q-38 -228 -38 -280q0 -47 45 -67.5t111 -20.5q132 0 198 46l-27 752l96 16l9 -530q9 -37 31 -48t64 -11h51q3 0 5.5 -9t2.5 -21
v-60q0 -12 -2.5 -21.5t-5.5 -9.5h-36q-34 0 -61.5 12z" />
    <glyph glyph-name="uni0644.init" unicode="&#x644;" horiz-adv-x="341" arabic-form="initial" 
d="M-5.5 9.5q-2.5 9.5 -2.5 21.5v60q0 12 2.5 21t5.5 9q61 0 107 6.5t79 25.5l-24 541l96 16l9 -565q1 -79 -76 -112t-191 -33q-3 0 -5.5 9.5z" />
    <glyph glyph-name="uni0644.medi" unicode="&#x644;" horiz-adv-x="373" arabic-form="medial" 
d="M-5.5 9.5q-2.5 9.5 -2.5 21.5v60q0 12 2.5 21t5.5 9q60 0 93.5 5.5t54.5 23.5l-22 544l97 16l6 -509q1 -38 29.5 -59t80.5 -21h34q3 0 5.5 -9t2.5 -21v-60q0 -12 -2.5 -21.5t-5.5 -9.5q-85 0 -127.5 18t-53.5 55q-44 -73 -192 -73q-3 0 -5.5 9.5z" />
    <glyph glyph-name="uni0645.fina" unicode="&#x645;" arabic-form="final" 
d="M510.5 14q-36.5 14 -56.5 45q-3 -20 -9 -38q-7 -26 -41 -50q-24 -19 -46 -19q-12 0 -24 6l-183 83q-1 -13 -1 -44q0 -120 27 -309l-99 -17q-18 175 -18 281q0 113 26 167q56 111 110.5 169.5t117.5 58.5q54 0 90.5 -41t49.5 -109q13 -41 43.5 -58.5t102.5 -17.5
q3 0 5.5 -9t2.5 -21v-60q0 -12 -2.5 -21.5t-5.5 -9.5q-53 0 -89.5 14zM362 63q13 25 13 72q0 50 -19 80.5t-53 30.5q-30 0 -52 -24.5t-55 -84.5z" />
    <glyph glyph-name="uni0645.init" unicode="&#x645;" horiz-adv-x="507" arabic-form="initial" 
d="M22 0h-22q-3 0 -5.5 9.5t-2.5 21.5v60q0 12 2.5 21t5.5 9h35q28 0 42 4t23 15.5t20 38.5q28 64 53.5 100t55.5 52t70 16q68 0 107.5 -61.5t39.5 -156.5q0 -53 -15 -108q-7 -26 -41 -50q-25 -19 -45 -19q-12 0 -26 6l-180 79q-37 -37 -117 -37zM348 60q6 13 9.5 32.5
t3.5 39.5q0 50 -19 80.5t-53 30.5q-30 0 -51 -22.5t-55 -87.5z" />
    <glyph glyph-name="uni0645.medi" unicode="&#x645;" horiz-adv-x="586" arabic-form="medial" 
d="M22 0h-22q-3 0 -5.5 9.5t-2.5 21.5v60q0 12 2.5 21t5.5 9h35q28 0 42 4t23 15.5t20 38.5q28 64 53.5 100t55.5 52t70 16q55 0 92.5 -42t49.5 -112q14 -39 44 -55.5t101 -16.5q3 0 5.5 -9t2.5 -21v-60q0 -12 -2.5 -21.5t-5.5 -9.5q-54 0 -90 14t-56 46l-9 -39
q-7 -26 -41 -50q-25 -19 -45 -19q-12 0 -26 6l-180 79q-37 -37 -117 -37zM348 60q6 13 9.5 32.5t3.5 39.5q0 50 -19 80.5t-53 30.5q-30 0 -51 -22.5t-55 -87.5z" />
    <glyph glyph-name="uni0646.fina" unicode="&#x646;" horiz-adv-x="783" arabic-form="final" 
d="M624 56q5 -88 5 -133q0 -49 -47.5 -82.5t-119.5 -50t-145 -16.5q-128 0 -187 47.5t-59 142.5q0 31 9.5 95t35.5 221l75 -16q-38 -228 -38 -280q0 -48 45.5 -68t118.5 -20q159 0 229 46l-38 378l93 19l15 -140q4 -36 20.5 -52.5t44 -21t81.5 -4.5h21q3 0 5.5 -9t2.5 -21
v-60q0 -12 -2.5 -21.5t-5.5 -9.5h-19q-103 0 -140 56zM264 445l67 82l87 -69l-67 -82z" />
    <glyph glyph-name="uni0646.init" unicode="&#x646;" horiz-adv-x="338" arabic-form="initial" 
d="M-5.5 9.5q-2.5 9.5 -2.5 21.5v60q0 12 2.5 21t5.5 9q128 0 184 31l-20 223l93 16q10 -164 10 -246q0 -30 -14 -57.5t-42 -44.5q-74 -43 -211 -43q-3 0 -5.5 9.5zM121 558l67 82l87 -69l-67 -82z" />
    <glyph glyph-name="uni0646.medi" unicode="&#x646;" horiz-adv-x="359" arabic-form="medial" 
d="M-5.5 9.5q-2.5 9.5 -2.5 21.5v60q0 12 2.5 21t5.5 9q47 0 81.5 6.5t64.5 22.5l-21 191l93 10l11 -205q42 -25 130 -25q4 0 6 -8.5t2 -21.5v-60q0 -13 -2 -22t-6 -9q-80 0 -119.5 16t-52.5 50q-19 -35 -63.5 -50.5t-123.5 -15.5q-3 0 -5.5 9.5zM87 520l67 82l87 -69
l-67 -82z" />
    <glyph glyph-name="uni0647.fina" unicode="&#x647;" horiz-adv-x="507" arabic-form="final" 
d="M387.5 20q-34.5 20 -47.5 61l-8 -11q-15 -22 -47 -30t-85 -8q-55 0 -92 26t-37 78q0 97 50.5 157.5t160.5 97.5l-8 68l88 25l25 -256q4 -41 10 -62t23.5 -33t52.5 -12h34q3 0 5 -9t2 -21v-60q0 -13 -2 -22t-5 -9h-36q-49 0 -83.5 20zM211 142q46 0 103 19l-17 141
q-75 -18 -110 -59t-40 -86q28 -15 64 -15z" />
    <glyph glyph-name="uni0647.init" unicode="&#x647;" horiz-adv-x="624" arabic-form="initial" 
d="M197 11q-70 -11 -197 -11q-3 0 -5.5 9.5t-2.5 21.5v60q0 12 2.5 21t5.5 9h87q20 0 38 -3q-22 17 -34 38.5t-12 44.5q0 36 21 81t57 87l-47 23l41 90l272 -121q139 -62 139 -187q0 -56 -30 -117q-13 -30 -38 -48q-25 -17 -41 -17q-8 0 -17 3l-146 56q-23 -29 -93 -40z
M195 194q23 -14 67 -24l54 127l-88 40q-56 -68 -56 -107q0 -22 23 -36zM456 94q22 35 22 73q0 32 -20 56.5t-69 44.5l-53 -126z" />
    <glyph glyph-name="uni0647.medi" unicode="&#x647;" horiz-adv-x="498" arabic-form="medial" 
d="M146.5 -161.5q-48.5 59.5 -69.5 161.5h-77q-3 0 -5.5 9.5t-2.5 21.5v60q0 12 2.5 21t5.5 9h87q12 70 43.5 132t77 99.5t97.5 37.5h50l5 -269h138q3 0 5.5 -9t2.5 -21v-60q0 -12 -2.5 -21.5t-5.5 -9.5q-99 0 -129 5q17 -9 25.5 -31t8.5 -48v-54q0 -38 -28 -63
q-19 -17 -34 -23.5t-39 -6.5q-107 0 -155.5 59.5zM206.5 -89.5q41.5 -32.5 116.5 -27.5v49q0 36 -22 59t-73 23h-69q6 -71 47.5 -103.5zM223 110q46 0 60 -6l-4 182q-29 -3 -53.5 -33.5t-40.5 -71t-21 -71.5h59z" />
    <glyph glyph-name="uni0648.fina" unicode="&#x648;" horiz-adv-x="475" arabic-form="final" 
d="M302 8q-36 -8 -96 -8q-51 0 -77.5 8t-46.5 35q-13 19 -18 32.5t-5 36.5q0 60 18.5 118t57.5 97t99 39q78 0 119 -72t46 -173h76q3 0 5.5 -9t2.5 -21v-60q0 -12 -2.5 -21.5t-5.5 -9.5h-87q-25 -89 -97.5 -160.5t-187.5 -117.5l-60 93q210 75 259 193zM222 101q59 0 96 9
q0 77 -24.5 116t-67.5 39q-39 0 -63.5 -42t-24.5 -110q31 -12 84 -12z" />
    <glyph glyph-name="uni0649.fina" unicode="&#x649;" horiz-adv-x="697" arabic-form="final" 
d="M129.5 -203q-58.5 48 -58.5 146q0 35 25 183l20 128l75 -15q-37 -222 -37 -280q0 -47 46 -68t117 -21q94 0 156.5 13t101.5 47q2 14 2 19q0 24 -16.5 34.5t-50 13.5t-103.5 3l24 121h266q3 0 5.5 -9t2.5 -21v-60q0 -12 -2.5 -21.5t-5.5 -9.5h-41q3 -15 3 -31
q0 -112 -97.5 -166t-244.5 -54q-129 0 -187.5 48z" />
    <glyph glyph-name="uni064A.fina" unicode="&#x64a;" horiz-adv-x="697" arabic-form="final" 
d="M129.5 -203q-58.5 48 -58.5 146q0 35 25 183l20 128l75 -15q-37 -222 -37 -280q0 -47 46 -68t117 -21q94 0 156.5 13t101.5 47q2 14 2 19q0 24 -16.5 34.5t-50 13.5t-103.5 3l24 121h266q3 0 5.5 -9t2.5 -21v-60q0 -12 -2.5 -21.5t-5.5 -9.5h-41q3 -15 3 -31
q0 -112 -97.5 -166t-244.5 -54q-129 0 -187.5 48zM174 -433l63 79l84 -66l-64 -79zM377 -354l83 -66l-63 -79l-84 66z" />
    <glyph glyph-name="uni064A.init" unicode="&#x64a;" horiz-adv-x="338" arabic-form="initial" 
d="M-5.5 9.5q-2.5 9.5 -2.5 21.5v60q0 12 2.5 21t5.5 9q128 0 184 31l-20 223l93 16q10 -164 10 -246q0 -30 -14 -57.5t-42 -44.5q-74 -43 -211 -43q-3 0 -5.5 9.5zM-43 -182l63 79l84 -66l-64 -79zM160 -103l83 -66l-63 -79l-84 66z" />
    <glyph glyph-name="uni064A.medi" unicode="&#x64a;" horiz-adv-x="359" arabic-form="medial" 
d="M-5.5 9.5q-2.5 9.5 -2.5 21.5v60q0 12 2.5 21t5.5 9q47 0 81.5 6.5t64.5 22.5l-21 191l93 10l11 -205q42 -25 130 -25q4 0 6 -8.5t2 -21.5v-60q0 -13 -2 -22t-6 -9q-80 0 -119.5 16t-52.5 50q-19 -35 -63.5 -50.5t-123.5 -15.5q-3 0 -5.5 9.5zM14 -182l63 79l84 -66
l-64 -79zM217 -103l83 -66l-63 -79l-84 66z" />
    <glyph glyph-name=".notdef" horiz-adv-x="785" 
d="M644 -500h-498v1570h498v-1570zM523 -392v52h-160l110 74h50v52h-261v-52h110l-110 -74v-52h261zM523 -178v177h-261v-177h261zM523 93v178h-157v-88h53v36h52v-74h-157v126h-52v-178h261zM523 305v157h-52v-103h-209v-54h261zM419 395v110h104v52h-261v-52h104v-58h-104
v-52h157zM523 599v53h-104v110h-157v-163h261zM523 803v52h-104v58h104v52h-259v-52h102v-58h-104v-52h261zM314 -53h157v-73h-157v73zM314 709h52v-57h-52v57z" />
    <glyph glyph-name=".null" horiz-adv-x="0" 
 />
    <glyph glyph-name="nonmarkingreturn" horiz-adv-x="333" 
 />
    <glyph glyph-name="space" unicode=" " horiz-adv-x="240" 
 />
    <glyph glyph-name="exclam" unicode="!" horiz-adv-x="295" 
d="M188 222l-82 -13l-19 499l96 23zM95.5 118.5q21.5 21.5 52.5 21.5t52.5 -21.5t21.5 -53.5q0 -31 -21.5 -52.5t-52.5 -21.5t-52.5 21.5t-21.5 52.5q0 32 21.5 53.5z" />
    <glyph glyph-name="quotedbl" unicode="&#x22;" horiz-adv-x="497" 
d="M115 444l-22 186l-4 110h107l-4 -110l-22 -186h-55zM407 740l-4 -110l-22 -186h-55l-23 186l-3 110h107z" />
    <glyph glyph-name="numbersign" unicode="#" horiz-adv-x="548" 
d="M125 219h-85v72h94l19 151h-91v74h100l24 193h66l-24 -193h138l26 193h66l-25 -193h88v-74h-96l-18 -151h92v-72h-101l-27 -217h-67l26 217h-137l-26 -217h-68zM338 291l19 151h-137l-18 -151h136z" />
    <glyph glyph-name="dollar" unicode="$" horiz-adv-x="554" 
d="M242 -116v109q-49 5 -99.5 26t-88.5 55l50 77q84 -69 164 -69q54 0 82.5 26t28.5 75q0 35 -19.5 61.5t-57.5 50.5q-42 23 -73 38q-88 42 -126 101q-23 34 -23 85q0 75 43.5 125t118.5 62v111h76v-109q48 -6 86.5 -26.5t71.5 -56.5l-58 -65q-32 30 -60.5 44.5t-67.5 14.5
q-47 0 -74 -24.5t-27 -69.5q0 -31 20 -54.5t59 -44.5q23 -13 77 -40q73 -34 108 -80.5t35 -113.5q0 -79 -44.5 -131t-125.5 -65v-112h-76z" />
    <glyph glyph-name="percent" unicode="%" horiz-adv-x="897" 
d="M80 370.5q-43 60.5 -43 160.5t43 159t119 59q77 0 120 -60t43 -158q0 -99 -43.5 -160t-119.5 -61t-119 60.5zM135 415q21 -43 64 -43t64 44.5t21 114.5q0 72 -21 114.5t-64 42.5t-64 -42.5t-21 -114.5q0 -73 21 -116zM609 727h73l-390 -738h-73zM581 369q43 59 119 59
t119 -60t43 -158q0 -99 -43 -160t-119 -61q-77 0 -119.5 60.5t-42.5 160.5t43 159zM635.5 94.5q21.5 -43.5 64.5 -43.5t63.5 44.5t20.5 114.5q0 71 -21 114t-63 43q-43 0 -64.5 -42.5t-21.5 -114.5t21.5 -115.5z" />
    <glyph glyph-name="ampersand" unicode="&#x26;" horiz-adv-x="689" 
d="M143 15q-51 25 -79.5 70t-28.5 103q0 62 35 109t104 96q-48 96 -48 160q0 49 22.5 88.5t62.5 62t89 22.5q70 0 110.5 -39.5t40.5 -106.5q0 -42 -20 -76t-51.5 -62t-86.5 -68q31 -47 76 -95t94 -87q67 87 97 198h101q-45 -147 -122 -248q76 -47 129 -61l-27 -90
q-76 19 -168 79q-99 -80 -215 -80q-64 0 -115 25zM177.5 108.5q36.5 -33.5 94.5 -33.5q62 0 122 50q-95 81 -173 193q-39 -28 -59.5 -58t-20.5 -65q0 -53 36.5 -86.5zM250 439q58 39 86.5 69.5t28.5 70.5q0 34 -17 53.5t-47 19.5q-36 0 -59.5 -27t-23.5 -71q0 -49 32 -115z
" />
    <glyph glyph-name="quotesingle" unicode="'" horiz-adv-x="286" 
d="M115 444l-22 186l-4 110h107l-4 -110l-22 -186h-55z" />
    <glyph glyph-name="parenleft" unicode="(" horiz-adv-x="350" 
d="M122 47.5q-37 121.5 -37 259.5t37 258.5t109 237.5l74 -36q-63 -105 -95.5 -222t-32.5 -238t32.5 -238t95.5 -222l-74 -35q-72 114 -109 235.5z" />
    <glyph glyph-name="parenright" unicode=")" horiz-adv-x="350" 
d="M141.5 68q32.5 117 32.5 239t-32.5 239t-95.5 221l74 36q72 -116 109 -237t37 -259q0 -139 -37 -260.5t-109 -234.5l-74 35q63 104 95.5 221z" />
    <glyph glyph-name="asterisk" unicode="*" horiz-adv-x="476" 
d="M93 403l60 97l-102 43l26 82l108 -28l9 113h87l8 -113l108 27l28 -82l-104 -42l59 -97l-70 -52l-73 88l-72 -87z" />
    <glyph glyph-name="plus" unicode="+" horiz-adv-x="528" 
d="M233 200h-183v79h183v182h79v-182h182v-79h-182v-183h-79v183z" />
    <glyph glyph-name="comma" unicode="," horiz-adv-x="291" 
d="M131 -52q26 31 25 68h-9q-30 0 -51 18t-21 50q0 31 22 50.5t53 19.5q40 0 61.5 -30.5t21.5 -84.5q0 -72 -39.5 -124.5t-112.5 -78.5l-24 61q48 20 74 51z" />
    <glyph glyph-name="hyphen" unicode="-" horiz-adv-x="347" 
d="M45 227v81h258v-81h-258z" />
    <glyph glyph-name="period" unicode="." horiz-adv-x="322" 
d="M107 12.5q-22 21.5 -22 54.5q0 32 22 54t54 22t53.5 -22t21.5 -54t-21.5 -54t-53.5 -22t-54 21.5z" />
    <glyph glyph-name="slash" unicode="/" horiz-adv-x="377" 
d="M15 -169l264 947h76l-264 -947h-76z" />
    <glyph glyph-name="zero" unicode="0" horiz-adv-x="559" 
d="M107.5 83q-59.5 96 -59.5 268q0 170 59.5 265t172.5 95t172 -94.5t59 -265.5q0 -172 -59.5 -268t-171.5 -96q-113 0 -172.5 96zM187.5 145q30.5 -73 92.5 -73t92 72t30 207q0 275 -122 275q-62 0 -92.5 -71.5t-30.5 -203.5q0 -133 30.5 -206z" />
    <glyph glyph-name="one" unicode="1" horiz-adv-x="558" 
d="M84 88h157v488h-128v66q50 10 86 23t69 33h86v-610h139v-88h-409v88z" />
    <glyph glyph-name="two" unicode="2" horiz-adv-x="558" 
d="M278 315q44 55 64.5 98.5t20.5 83.5q0 60 -32 94t-89 34q-37 0 -71 -20t-69 -59l-62 62q51 54 101.5 78.5t115.5 24.5q98 0 156.5 -56.5t58.5 -151.5q0 -84 -75 -191q-59 -84 -188 -225q88 5 120 5h178v-92h-463v61q157 157 234 254z" />
    <glyph glyph-name="three" unicode="3" horiz-adv-x="559" 
d="M162.5 96.5q39.5 -20.5 89.5 -20.5q61 0 97.5 31t36.5 86q0 73 -54 102.5t-155 29.5v79q88 0 137 27.5t49 91.5q0 48 -29 75t-80 27q-38 0 -71.5 -16.5t-71.5 -50.5l-56 64q45 44 94.5 66.5t108.5 22.5q99 0 159.5 -47.5t60.5 -131.5q0 -56 -32.5 -97t-93.5 -65v-4
q67 -16 108 -63t41 -116q0 -61 -32 -106.5t-86.5 -69.5t-120.5 -24q-73 0 -132 25t-99 70l53 72q39 -37 78.5 -57.5z" />
    <glyph glyph-name="four" unicode="4" horiz-adv-x="560" 
d="M331 186h-309v73l281 439h134v-428h90v-84h-90v-186h-106v186zM331 270v177q0 90 4 146h-2q-11 -25 -41 -76l-17 -31l-140 -216h196z" />
    <glyph glyph-name="five" unicode="5" horiz-adv-x="558" 
d="M132.5 11.5q-59.5 24.5 -101.5 67.5l52 72q73 -75 166 -75q63 0 102 40t39 106q0 68 -36 106t-99 38q-32 0 -55.5 -9t-58.5 -30l-55 35l22 336h362v-93h-264l-17 -187q26 13 48.5 19.5t49.5 6.5q101 0 159 -57.5t58 -161.5q0 -70 -32 -124t-87 -84t-122 -30
q-71 0 -130.5 24.5z" />
    <glyph glyph-name="six" unicode="6" horiz-adv-x="559" 
d="M85 531q32 86 93 133t145 47q106 0 178 -74l-60 -68q-23 25 -52 39t-60 14q-82 0 -125.5 -72.5t-43.5 -200.5q29 36 71.5 58.5t82.5 22.5q97 0 148.5 -55t51.5 -157q0 -67 -27.5 -120t-76.5 -82t-110 -29q-76 0 -132 42t-85.5 119.5t-29.5 181.5q0 115 32 201zM204 119.5
q35 -50.5 95 -50.5q49 0 80 40t31 109q0 66 -30.5 99.5t-86.5 33.5q-36 0 -70.5 -21.5t-61.5 -62.5q8 -97 43 -147.5z" />
    <glyph glyph-name="seven" unicode="7" horiz-adv-x="558" 
d="M242 328.5q44 136.5 145 277.5h-336v92h460v-66q-79 -100 -121.5 -189.5t-61 -191t-24.5 -251.5h-115q9 192 53 328.5z" />
    <glyph glyph-name="eight" unicode="8" horiz-adv-x="559" 
d="M162 11q-53 24 -83.5 67.5t-30.5 99.5q0 59 34 107t94 78v5q-97 68 -97 162q0 53 26.5 94t73.5 64t106 23q91 0 146 -50.5t55 -133.5q0 -46 -26 -89.5t-70 -74.5v-5q62 -34 92.5 -77.5t30.5 -104.5q0 -55 -30.5 -98t-83.5 -67t-118 -24q-66 0 -119 24zM186.5 99
q38.5 -36 96.5 -36q56 0 89 31t33 86q0 38 -18.5 63.5t-48.5 42t-87 40.5l-20 8q-83 -61 -83 -143q0 -56 38.5 -92zM217 449.5q36 -30.5 110 -58.5q64 59 64 128q0 53 -29.5 84t-79.5 31q-45 0 -73 -28t-28 -76q0 -50 36 -80.5z" />
    <glyph glyph-name="nine" unicode="9" horiz-adv-x="559" 
d="M73 600q28 52 77 81.5t109 29.5q77 0 133 -41t85.5 -117.5t29.5 -181.5q0 -117 -32 -203.5t-93 -133.5t-146 -47q-54 0 -99.5 19.5t-79.5 53.5l61 69q22 -25 52 -39.5t60 -14.5q83 0 126.5 73.5t43.5 203.5q-23 -35 -68 -58t-87 -23q-96 0 -148 55.5t-52 156.5
q0 65 28 117zM179.5 383.5q30.5 -33.5 86.5 -33.5q37 0 73.5 22t58.5 63q-9 96 -45 144t-93 48q-49 0 -80 -39t-31 -105t30.5 -99.5z" />
    <glyph glyph-name="colon" unicode=":" horiz-adv-x="308" 
d="M99 12.5q-22 21.5 -22 53.5t22 54t54 22t53.5 -22t21.5 -54t-21.5 -53.5t-53.5 -21.5t-54 21.5zM99 364q22 22 54 22t53.5 -22t21.5 -54t-22 -54t-53 -22q-32 0 -54 22t-22 54t22 54z" />
    <glyph glyph-name="semicolon" unicode=";" horiz-adv-x="302" 
d="M130.5 -56q25.5 30 24.5 67h-8q-31 0 -51.5 18t-20.5 49t21 49.5t53 18.5q39 0 60.5 -29.5t21.5 -83.5q0 -71 -38.5 -122t-110.5 -77l-24 61q47 19 72.5 49zM98 364q22 22 54 22t53.5 -22t21.5 -54t-22 -54t-53 -22t-53.5 22t-22.5 54t22 54z" />
    <glyph glyph-name="less" unicode="&#x3c;" horiz-adv-x="554" 
d="M517 133l-478 186v85l478 185v-94l-216 -76l-148 -54v-7l148 -55l216 -76v-94z" />
    <glyph glyph-name="equal" unicode="=" horiz-adv-x="498" 
d="M50 285v79h389v-79h-389zM50 183h389v-79h-389v79z" />
    <glyph glyph-name="greater" unicode="&#x3e;" horiz-adv-x="554" 
d="M39 133v94l216 76l148 55v7l-148 54l-216 76v94l478 -185v-85z" />
    <glyph glyph-name="question" unicode="?" horiz-adv-x="479" 
d="M172 255q0 83 67 161q45 54 63 82t18 61q0 44 -26.5 69.5t-69.5 25.5q-62 0 -116 -59l-62 57q81 92 192 92q87 0 138 -46.5t51 -130.5q0 -42 -19.5 -79.5t-62.5 -85.5q-37 -42 -55.5 -78t-18.5 -77q0 -12 1 -19h-98q-2 18 -2 27zM174 119q20 21 50 21q31 0 51 -21t20 -53
q0 -30 -20.5 -51.5t-50.5 -21.5t-50 21.5t-20 51.5q0 32 20 53z" />
    <glyph glyph-name="at" unicode="@" horiz-adv-x="947" 
d="M298 -144q-71 25 -124 75q-56 52 -86.5 126t-30.5 169q0 107 36.5 198.5t103.5 158.5q64 65 148.5 99.5t178.5 34.5q84 0 152 -26t116 -76q48 -49 73.5 -117.5t25.5 -150.5q0 -67 -20 -122.5t-55 -94.5q-33 -35 -73 -54.5t-80 -19.5q-47 0 -77.5 21.5t-36.5 61.5h-6
q-29 -34 -64.5 -53.5t-67.5 -19.5q-61 0 -97 42t-36 113q0 46 15.5 92.5t42.5 81.5q31 39 70 60t84 21q28 0 48.5 -12.5t35.5 -40.5h5l14 45h69l-45 -224q-8 -32 -8 -52q0 -67 66 -67q27 0 53 15.5t46 44.5q45 61 45 159q0 65 -19 121t-56 96q-83 88 -230 88
q-73 0 -141.5 -30t-121.5 -85q-57 -57 -87.5 -135t-30.5 -169q0 -78 24.5 -140.5t70.5 -105.5q43 -42 102.5 -63.5t128.5 -21.5q45 0 90 12t82 33l25 -61q-92 -52 -205 -52q-82 0 -153 25zM381.5 159q18.5 -24 53.5 -24q42 0 93 61l30 166q-13 22 -28.5 32.5t-37.5 10.5
q-29 0 -53 -16t-42 -44q-16 -25 -25 -56.5t-9 -60.5q0 -45 18.5 -69z" />
    <glyph glyph-name="A" unicode="A" horiz-adv-x="620" 
d="M239 710h135l233 -710h-119l-61 204h-245l-60 -204h-116zM405 290l-65 216q-14 52 -34 116h-4q-18 -72 -32 -116l-66 -216h201z" />
    <glyph glyph-name="B" unicode="B" horiz-adv-x="652" 
d="M96 710h224q117 0 183.5 -41t66.5 -132q0 -55 -28.5 -98t-76.5 -58v-4q70 -14 107 -58.5t37 -111.5q0 -103 -75 -155t-198 -52h-240v710zM323 86q174 0 174 127q0 60 -43 88.5t-131 28.5h-113v-244h113zM305 412q153 0 153 109q0 55 -35.5 79.5t-113.5 24.5h-99v-213h95z
" />
    <glyph glyph-name="C" unicode="C" horiz-adv-x="631" 
d="M207 34q-72 47 -110.5 129.5t-38.5 186.5q0 108 40 193t113.5 132.5t169.5 47.5q59 0 110.5 -22.5t89.5 -60.5l-58 -75q-66 63 -139 63q-66 0 -113 -36t-71 -98t-24 -140q0 -122 54 -197.5t151 -75.5q45 0 82 18.5t74 58.5l59 -70q-87 -101 -220 -101q-97 0 -169 47z" />
    <glyph glyph-name="D" unicode="D" horiz-adv-x="683" 
d="M96 0v710h186q168 0 256 -89.5t88 -259.5q0 -173 -88 -267t-250 -94h-192zM274 88q116 0 175.5 69.5t59.5 203.5q0 130 -59 195.5t-176 65.5h-64v-534h64z" />
    <glyph glyph-name="E" unicode="E" horiz-adv-x="586" 
d="M95 710h424v-92h-310v-202h262v-92h-262v-232h320v-92h-434v710z" />
    <glyph glyph-name="F" unicode="F" horiz-adv-x="554" 
d="M96 710h424v-92h-310v-224h264v-92h-264v-298h-114v706z" />
    <glyph glyph-name="G" unicode="G" horiz-adv-x="685" 
d="M212 33.5q-75 46.5 -114.5 130t-39.5 192.5q0 106 41.5 189.5t117 130.5t175.5 47q125 0 211 -86l-60 -72q-34 33 -68.5 48t-78.5 15q-70 0 -119.5 -35t-75 -96t-25.5 -137q0 -129 57.5 -204t167.5 -75q32 0 61.5 10t49.5 26v174h-140v89h243v-310q-37 -38 -97 -60.5
t-128 -22.5q-103 0 -178 46.5z" />
    <glyph glyph-name="H" unicode="H" horiz-adv-x="723" 
d="M96 710h114v-289h304v289h114v-710h-114v326h-304v-326h-114v710z" />
    <glyph glyph-name="I" unicode="I" horiz-adv-x="304" 
d="M96 0v710h114v-710h-114z" />
    <glyph glyph-name="J" unicode="J" horiz-adv-x="538" 
d="M33 101l80 58q40 -78 114 -78q54 0 80.5 35t26.5 112v482h114v-493q0 -101 -49 -163q-53 -67 -159 -67q-142 0 -207 114z" />
    <glyph glyph-name="K" unicode="K" horiz-adv-x="650" 
d="M96 0v710h114v-337h1l273 337h125l-221 -271l258 -439h-125l-201 349l-110 -133v-216h-114z" />
    <glyph glyph-name="L" unicode="L" horiz-adv-x="546" 
d="M96 0v710h114v-618h302v-92h-416z" />
    <glyph glyph-name="M" unicode="M" horiz-adv-x="810" 
d="M96 710h134l153 -428q19 -53 24 -71h1l8 24q5 16 17 48l148 427h135v-710h-106v349q0 59 10 179l3 48h-3l-179 -504h-71l-180 504h-5q13 -154 13 -227v-349h-102v710z" />
    <glyph glyph-name="N" unicode="N" horiz-adv-x="716" 
d="M96 0v716h119l214 -391l97 -184q-13 122 -13 245v330h109v-716h-120l-201 369l-110 205q8 -74 10.5 -123.5t2.5 -117.5v-333h-108z" />
    <glyph glyph-name="O" unicode="O" horiz-adv-x="737" 
d="M202 35q-70 48 -107 132.5t-37 193.5q0 106 36.5 188t106.5 128t168 46q97 0 167.5 -46t107.5 -128t37 -188q0 -110 -37 -195t-107.5 -132t-167.5 -47t-167 48zM198.5 216.5q22.5 -63.5 66.5 -99.5t104 -36q62 0 106 36.5t66.5 100t22.5 143.5q0 77 -23 138t-67 95.5
t-105 34.5q-91 0 -142 -75t-51 -193q0 -81 22.5 -144.5z" />
    <glyph glyph-name="P" unicode="P" horiz-adv-x="633" 
d="M96 710h218q273 0 273 -213q0 -108 -73.5 -165t-195.5 -57h-108v-275h-114v710zM308 362q84 0 125 33.5t41 101.5q0 66 -41 96t-130 30h-93v-261h98z" />
    <glyph glyph-name="Q" unicode="Q" horiz-adv-x="737" 
d="M428 -134q-72 46 -109 125q-82 12 -141 62t-89.5 129.5t-30.5 178.5q0 106 36.5 188t106.5 128t168 46q97 0 167.5 -46t107.5 -128t37 -188q0 -145 -63.5 -243.5t-177.5 -123.5q25 -42 68 -63.5t100 -21.5q40 0 75 11l21 -81q-19 -8 -48.5 -13.5t-60.5 -5.5
q-95 0 -167 46zM198.5 216.5q22.5 -63.5 66.5 -99.5t104 -36q62 0 106 36.5t66.5 100t22.5 143.5q0 77 -23 138t-67 95.5t-105 34.5q-91 0 -142 -75t-51 -193q0 -81 22.5 -144.5z" />
    <glyph glyph-name="R" unicode="R" horiz-adv-x="642" 
d="M96 710h235q125 0 192 -50t67 -156q0 -76 -38.5 -126t-113.5 -71l174 -307h-128l-158 289h-116v-289h-114v710zM318 377q77 0 118 32.5t41 94.5q0 63 -38.5 91t-120.5 28h-108v-246h108z" />
    <glyph glyph-name="S" unicode="S" horiz-adv-x="595" 
d="M163 13q-66 26 -115 74l65 78q41 -41 90.5 -63.5t99.5 -22.5q63 0 97.5 27.5t34.5 75.5q0 33 -11.5 53t-32.5 33t-58 28l-37 16l-74 31q-68 28 -105.5 75t-37.5 113q0 56 31.5 100t85 68t117.5 24q61 0 117.5 -22.5t97.5 -63.5l-57 -70q-37 32 -75.5 47.5t-82.5 15.5
q-55 0 -87 -24.5t-32 -67.5q0 -39 25.5 -63t78.5 -46q5 -2 14.5 -6t25.5 -10l70 -30q73 -29 109 -74t36 -117q0 -61 -33.5 -108t-91 -72t-127.5 -25q-72 0 -138 26z" />
    <glyph glyph-name="T" unicode="T" horiz-adv-x="597" 
d="M242 0v618h-209v92h533v-92h-209v-618h-115z" />
    <glyph glyph-name="U" unicode="U" horiz-adv-x="714" 
d="M92 305v405h115v-412q0 -217 152 -217q155 0 155 217v412h110v-405q0 -318 -265 -318q-267 0 -267 318z" />
    <glyph glyph-name="V" unicode="V" horiz-adv-x="584" 
d="M123 710l98 -339q12 -37 26.5 -89t21.5 -77q17 -65 27 -96q17 58 22 79q24 91 50 175l99 347h116l-221 -710h-137l-222 710h120z" />
    <glyph glyph-name="W" unicode="W" horiz-adv-x="875" 
d="M26 710h117l63 -348q6 -26 14.5 -80.5t13.5 -82.5l14 -90q3 13 31 137l25 114l86 350h102l85 -348q11 -44 37 -161l21 -92h1q26 170 42 255l62 346h109l-139 -710h-142l-76 324q-26 110 -53 239h-1q-29 -138 -54 -239l-74 -324h-141z" />
    <glyph glyph-name="X" unicode="X" horiz-adv-x="587" 
d="M223 366l-189 344h126l87 -164l54 -110h1q34 77 49 107l82 167h121l-189 -350l202 -360h-127l-92 174q-47 90 -59 118h-1q-14 -37 -56 -118l-90 -174h-121z" />
    <glyph glyph-name="Y" unicode="Y" horiz-adv-x="545" 
d="M216 270l-214 440h121l83 -184q17 -37 32 -76q30 -70 36 -82h1q18 35 42 98l26 60l83 184h118l-214 -440v-270h-114v270z" />
    <glyph glyph-name="Z" unicode="Z" horiz-adv-x="593" 
d="M49 65l357 553h-325v92h465v-65l-358 -553h361v-92h-500v65z" />
    <glyph glyph-name="bracketleft" unicode="[" horiz-adv-x="345" 
d="M101 -160v936h205v-60h-122v-817h122v-59h-205z" />
    <glyph glyph-name="backslash" unicode="\" horiz-adv-x="381" 
d="M8 764h76l300 -935h-76z" />
    <glyph glyph-name="bracketright" unicode="]" horiz-adv-x="345" 
d="M41 -160v59h122v817h-122v60h205v-936h-205z" />
    <glyph glyph-name="asciicircum" unicode="^" horiz-adv-x="554" 
d="M64 302l166 423h95l166 -423h-94l-62 172l-54 148h-6l-54 -148l-62 -172h-95z" />
    <glyph glyph-name="underscore" unicode="_" horiz-adv-x="546" 
d="M14 -135v66h520v-66h-520z" />
    <glyph glyph-name="grave" unicode="`" 
 />
    <glyph glyph-name="a" unicode="a" horiz-adv-x="563" 
d="M99.5 28.5q-42.5 41.5 -42.5 110.5q0 87 74.5 134t242.5 66q-1 60 -25.5 90t-76.5 30q-67 0 -153 -54l-40 72q107 69 215 69q96 0 145 -56.5t49 -168.5v-321h-92l-9 61l-1 -1q-89 -73 -173 -73q-71 0 -113.5 41.5zM188 91.5q22 -19.5 61 -19.5q33 0 62.5 14.5t62.5 46.5
l1 138q-99 -13 -154 -39t-55 -84q0 -37 22 -56.5z" />
    <glyph glyph-name="b" unicode="b" horiz-adv-x="623" 
d="M85 771h114v-200l-3 -95q79 70 159 70q104 0 157.5 -74.5t53.5 -197.5q0 -80 -28.5 -145.5t-80.5 -103.5t-119 -38q-37 0 -77.5 18.5t-74.5 50.5h-1l-9 -56h-91v771zM314 77q62 0 98 53.5t36 141.5q0 183 -123 183q-62 0 -126 -64v-265q57 -49 115 -49z" />
    <glyph glyph-name="c" unicode="c" horiz-adv-x="506" 
d="M170.5 22q-57.5 35 -89 98t-31.5 143q0 83 33.5 147t94 100t137.5 36q85 0 152 -59l-54 -71q-25 22 -47 32t-46 10q-71 0 -112.5 -54.5t-41.5 -140.5q0 -54 19 -96.5t53 -67t78 -24.5q57 0 115 49l45 -73q-35 -32 -79.5 -48t-91.5 -16q-77 0 -134.5 35z" />
    <glyph glyph-name="d" unicode="d" horiz-adv-x="617" 
d="M109.5 62q-58.5 75 -58.5 205q0 77 30 141t82 101t116 37q43 0 75.5 -14.5t68.5 -46.5l-5 107v179h114v-771h-93l-9 59q-36 -33 -78 -52.5t-81 -19.5q-103 0 -161.5 75zM202.5 125.5q33.5 -49.5 96.5 -49.5q33 0 62 15.5t57 49.5v266q-52 49 -116 49q-37 0 -67.5 -23.5
t-48 -66.5t-17.5 -97q0 -94 33.5 -143.5z" />
    <glyph glyph-name="e" unicode="e" horiz-adv-x="554" 
d="M174 22.5q-59 35.5 -91.5 99t-32.5 145.5q0 77 31.5 141t87 101t124.5 37q105 0 161.5 -68.5t56.5 -181.5q0 -37 -4 -56h-347q7 -80 50.5 -124.5t114.5 -44.5q33 0 63.5 9.5t64.5 29.5l37 -68q-85 -55 -180 -55q-77 0 -136 35.5zM413 314q1 72 -29 109.5t-88 37.5
q-57 0 -93 -40.5t-44 -106.5h254z" />
    <glyph glyph-name="f" unicode="f" horiz-adv-x="344" 
d="M106 446h-72v81l72 5v67q0 90 43.5 137.5t127.5 47.5q47 0 94 -18l-22 -81q-28 12 -58 12q-71 0 -71 -97v-68h107v-86h-107v-446h-114v446z" />
    <glyph glyph-name="g" unicode="g" horiz-adv-x="567" 
d="M110.5 -196.5q-62.5 35.5 -62.5 102.5q0 32 20 62.5t58 54.5v4q-23 14 -36 36t-13 49q0 29 17.5 56t42.5 43v6q-31 23 -51.5 59.5t-20.5 80.5q0 55 27 98t74.5 66.5t106.5 23.5q47 0 79 -13h189v-80h-107q18 -17 29 -43t11 -56q0 -55 -26.5 -96t-72 -62.5t-102.5 -21.5
q-33 0 -74 17q-15 -12 -22.5 -25.5t-7.5 -33.5q0 -51 91 -51h97q97 0 145 -31t48 -97q0 -57 -39.5 -99t-104 -63.5t-137.5 -21.5q-96 0 -158.5 35.5zM181.5 -139q38.5 -22 105.5 -22q63 0 108 26.5t45 68.5q0 33 -23.5 47t-76.5 14h-78q-43 0 -71 7q-21 -17 -34.5 -37.5
t-13.5 -41.5q0 -40 38.5 -62zM201.5 273.5q28.5 -31.5 71.5 -31.5q45 0 72.5 31.5t27.5 83.5q0 51 -27.5 82t-72.5 31t-72.5 -30.5t-27.5 -82.5t28.5 -83.5z" />
    <glyph glyph-name="h" unicode="h" horiz-adv-x="608" 
d="M85 771h114v-200l-5 -107q44 39 85.5 60.5t90.5 21.5q162 0 162 -209v-337h-114v322q0 69 -20.5 99.5t-64.5 30.5q-35 0 -63.5 -16.5t-70.5 -55.5v-380h-114v771z" />
    <glyph glyph-name="i" unicode="i" horiz-adv-x="283" 
d="M86 533h114v-533h-114v533zM91 750.5q20 18.5 52 18.5t52.5 -18.5t20.5 -47.5q0 -30 -20.5 -48t-52.5 -18q-31 0 -51.5 18t-20.5 48q0 29 20 47.5z" />
    <glyph glyph-name="j" unicode="j" horiz-adv-x="287" 
d="M-42 -207l20 79q27 -7 47 -7q34 0 49 23.5t15 78.5v565h113v-564q0 -95 -40 -142t-121 -47q-46 0 -83 14zM93.5 750.5q20.5 18.5 52.5 18.5t52 -18.5t20 -47.5t-20 -47.5t-52 -18.5t-52.5 18t-20.5 48q0 29 20.5 47.5z" />
    <glyph glyph-name="k" unicode="k" horiz-adv-x="565" 
d="M85 771h112v-495l211 256h121l-179 -213l201 -319h-121l-144 243l-89 -104v-139h-112v771z" />
    <glyph glyph-name="l" unicode="l" horiz-adv-x="294" 
d="M112.5 25.5q-27.5 34.5 -27.5 104.5v641h114v-647q0 -45 29 -45q10 0 18 2l13 -81q-16 -9 -60 -9q-59 0 -86.5 34.5z" />
    <glyph glyph-name="m" unicode="m" horiz-adv-x="920" 
d="M84 533h93l10 -75q44 43 84.5 65.5t90.5 22.5q104 0 140 -94q45 46 87.5 70t92.5 24q157 0 157 -209v-337h-113v322q0 68 -20 99t-59 31q-32 0 -61.5 -17.5t-66.5 -54.5v-380h-113v322q0 68 -20 99t-59 31q-31 0 -61.5 -17.5t-67.5 -54.5v-380h-114v533z" />
    <glyph glyph-name="n" unicode="n" horiz-adv-x="611" 
d="M85 533h93l10 -72h2q44 41 86.5 63t92.5 22q82 0 122 -52.5t40 -156.5v-337h-113v322q0 69 -21 99.5t-65 30.5q-35 0 -64 -16.5t-69 -55.5v-380h-114v533z" />
    <glyph glyph-name="o" unicode="o" horiz-adv-x="601" 
d="M171.5 22.5q-57.5 35.5 -89.5 99t-32 143.5q0 81 32 145t89.5 100t129.5 36q73 0 130 -36t89.5 -100t32.5 -145q0 -80 -32.5 -143.5t-90 -99t-129.5 -35.5t-129.5 35.5zM203 128q37 -52 98 -52q62 0 99 51t37 138q0 88 -37 140t-99 52q-61 0 -98 -52.5t-37 -139.5
q0 -85 37 -137z" />
    <glyph glyph-name="p" unicode="p" horiz-adv-x="617" 
d="M85 533h94l9 -59l1 -1q39 35 82.5 54t84.5 19q101 0 155.5 -71t54.5 -199q0 -81 -29 -147t-81 -104t-118 -38q-71 0 -142 59l3 -90v-168h-114v745zM314 77q60 0 97 52t37 143q0 184 -123 184q-30 0 -60 -15.5t-66 -49.5v-265q58 -49 115 -49z" />
    <glyph glyph-name="q" unicode="q" horiz-adv-x="617" 
d="M418 -35l5 91q-33 -33 -72.5 -51t-79.5 -18q-103 0 -161.5 74.5t-58.5 202.5q0 79 30 143.5t82 101.5t116 37q44 0 80 -15.5t72 -49.5l11 52h90v-745h-114v177zM202.5 125.5q33.5 -48.5 96.5 -48.5q33 0 62 16t57 50v264q-53 49 -116 49q-37 0 -67.5 -24t-48 -67
t-17.5 -99q0 -92 33.5 -140.5z" />
    <glyph glyph-name="r" unicode="r" horiz-adv-x="403" 
d="M85 533h94l8 -97q28 52 70.5 81t86.5 29q38 0 58 -11l-19 -95q-24 8 -54 8q-39 0 -73.5 -30t-56.5 -85v-333h-114v533z" />
    <glyph glyph-name="s" unicode="s" horiz-adv-x="471" 
d="M126 6q-53 19 -93 53l52 70q39 -30 74 -45.5t76 -15.5q43 0 68 19.5t25 53.5q0 33 -21.5 50.5t-69.5 32.5q-44 16 -70 29q-109 48 -109 137q0 70 53 113t137 43q48 0 92 -16.5t80 -44.5l-50 -68q-33 24 -61.5 36t-57.5 12q-40 0 -62.5 -19t-22.5 -51q0 -25 18 -41.5
t50 -29.5q8 -4 15.5 -6.5t12.5 -4.5q53 -20 75 -36q51 -23 74.5 -52.5t23.5 -76.5q0 -73 -56.5 -117t-147.5 -44q-52 0 -105 19z" />
    <glyph glyph-name="t" unicode="t" horiz-adv-x="392" 
d="M105 172v274h-78v81l83 5l14 147h95v-146h138v-87h-138v-273q0 -51 19.5 -75.5t58.5 -24.5q27 0 57 12l18 -78q-49 -20 -104 -20q-163 0 -163 185z" />
    <glyph glyph-name="u" unicode="u" horiz-adv-x="607" 
d="M119.5 39q-39.5 52 -39.5 156v338h113v-322q0 -69 21 -100t65 -31q36 0 65 18t66 59v376h113v-533h-92l-11 77q-40 -45 -83 -67.5t-95 -22.5q-83 0 -122.5 52z" />
    <glyph glyph-name="v" unicode="v" horiz-adv-x="537" 
d="M19 532h116l88 -285q8 -30 26 -87q18 -58 23 -77q6 24 30 99l19 64l90 286h109l-182 -532h-134z" />
    <glyph glyph-name="w" unicode="w" horiz-adv-x="812" 
d="M31 532h114l69 -288q3 -11 14 -71q13 -64 18 -84l36 155l75 288h105l76 -288q12 -43 37 -155h1q5 20 15 68q9 49 19 87l66 288h106l-136 -532h-137l-67 261l-20 86l-15 69q-10 -38 -17 -75l-19 -81l-66 -260h-133z" />
    <glyph glyph-name="x" unicode="x" horiz-adv-x="518" 
d="M191 280l-157 252h120l63 -104l26 -45l26 -47q11 19 32 64l14 28l54 104h118l-157 -265l168 -267h-121l-69 114l-24 40l-33 55q-3 -6 -24 -47l-26 -50l-63 -112h-116z" />
    <glyph glyph-name="y" unicode="y" horiz-adv-x="536" 
d="M48 -205l20 84q28 -7 39 -7q77 0 111 101l11 37l-210 527h114l97 -269q3 -8 6.5 -19.5t9.5 -27.5q7 -21 19.5 -57.5t15.5 -50.5h1l22 78q17 55 22 77l84 268h110l-195 -560q-37 -99 -86 -144.5t-125 -45.5q-42 0 -66 9z" />
    <glyph glyph-name="z" unicode="z" horiz-adv-x="482" 
d="M40 56l264 390h-236v86h376v-57l-265 -389h273v-86h-412v56z" />
    <glyph glyph-name="braceleft" unicode="{" horiz-adv-x="346" 
d="M152 -127.5q-30 32.5 -30 113.5q0 27 2 58.5t3 43.5q5 53 5 100q0 40 -24 62t-70 24v67q45 1 69.5 23.5t24.5 61.5q0 26 -5 103q-5 52 -5 99q0 82 30 115t100 33h55v-60h-25q-40 0 -55 -20t-15 -73q0 -37 3 -91q1 -22 2 -48t1 -52q0 -57 -17 -84.5t-55 -36.5v-7
q38 -9 55 -36.5t17 -84.5q0 -25 -1 -50.5t-2 -47.5q-3 -54 -3 -93q0 -53 15 -73t55 -20h25v-59h-55q-70 0 -100 32.5z" />
    <glyph glyph-name="bar" unicode="|" horiz-adv-x="270" 
d="M99 -266v1090h75v-1090h-75z" />
    <glyph glyph-name="braceright" unicode="}" horiz-adv-x="346" 
d="M43 -101h25q40 0 55 20t15 73q0 39 -3 93q-1 22 -2 47.5t-1 50.5q0 56 17 84t55 37v7q-38 9 -55 36.5t-17 84.5q0 26 1 52t2 48q3 54 3 91q0 53 -15 73t-55 20h-25v60h54q71 0 101 -33t30 -115q0 -47 -5 -99q-5 -77 -5 -103q0 -39 24.5 -61.5t70.5 -23.5v-67
q-46 -1 -70.5 -23t-24.5 -63q0 -27 2 -58t3 -43q5 -55 5 -101q0 -80 -30 -113t-101 -33h-54v59z" />
    <glyph glyph-name="asciitilde" unicode="~" horiz-adv-x="555" 
d="M319.5 282.5q-24.5 11.5 -51.5 32.5q-6 4 -24 17.5t-33.5 20.5t-29.5 7q-47 0 -83 -65l-59 44q63 101 144 101q29 0 52.5 -11t53.5 -32q30 -24 47.5 -34.5t38.5 -10.5q48 0 83 64l59 -45q-61 -100 -144 -100q-29 0 -53.5 11.5z" />
    <glyph glyph-name="uni00A0" unicode="&#xa0;" horiz-adv-x="471" 
 />
    <glyph glyph-name="exclamdown" unicode="&#xa1;" horiz-adv-x="303" 
d="M122 382l82 13l19 -499l-96 -22zM109.5 591.5q21.5 21.5 52.5 21.5t52.5 -21t21.5 -53q0 -31 -21 -52.5t-53 -21.5q-31 0 -52.5 21.5t-21.5 52.5t21.5 52.5z" />
    <glyph glyph-name="cent" unicode="&#xa2;" horiz-adv-x="554" 
d="M206 229q32 -45 87 -59v337q-55 -15 -87 -60t-32 -108q0 -65 32 -110zM84.5 440q16.5 46 48.5 80q59 66 160 82v112h64v-109q82 -4 140 -60l-52 -70q-40 35 -88 40v-351q56 4 103 45l46 -70q-65 -58 -149 -66v-109h-64v110q-50 5 -92 25.5t-71 54.5q-62 71 -62 185
q0 55 16.5 101z" />
    <glyph glyph-name="sterling" unicode="&#xa3;" horiz-adv-x="554" 
d="M58 2v68q53 27 85 76t32 112q0 13 -3 28.5t-4 21.5h-109v67l72 4h18q-14 46 -20 70t-6 51q0 47 15.5 85.5t44.5 65.5q58 56 153 56q54 0 96 -20.5t77 -61.5l-62 -62q-42 53 -102 53q-52 0 -82.5 -31.5t-30.5 -89.5q0 -26 5.5 -52.5t15.5 -63.5h169v-71h-154q5 -28 5 -52
q0 -47 -14 -82t-47 -69v-8h299v-95h-453z" />
    <glyph glyph-name="currency" unicode="&#xa4;" horiz-adv-x="555" 
d="M29 164l69 70q-39 53 -39 124q0 75 38 125l-68 71l57 58l75 -77q50 36 118 36q31 0 61.5 -9t54.5 -27l75 77l57 -58l-69 -71q40 -50 40 -125q0 -70 -40 -124l69 -70l-57 -58l-75 76q-51 -36 -116 -36q-68 0 -118 36l-75 -76zM194 262q34 -38 85 -38q52 0 85 39.5t33 94.5
q0 58 -34 96t-84 38q-53 0 -86 -39t-33 -95q0 -58 34 -96z" />
    <glyph glyph-name="yen" unicode="&#xa5;" horiz-adv-x="556" 
d="M222 2v168h-174v58h174v71h-174v56h148l-171 339h115l74 -170q14 -32 20 -48l10 -24q22 -55 32 -75h7q7 15 33 76q5 12 9.5 23t8.5 20l12 28l73 170h114l-173 -339h148v-56h-174v-71h174v-58h-174v-168h-112z" />
    <glyph glyph-name="brokenbar" unicode="&#xa6;" horiz-adv-x="270" 
d="M99 335v489h75v-489h-75zM99 233h75v-499h-75v499z" />
    <glyph glyph-name="section" unicode="&#xa7;" horiz-adv-x="554" 
d="M151.5 -53q-50.5 20 -85.5 60l65 57q55 -55 128 -55q40 0 63 19t23 49q0 24 -19.5 43t-49 34t-85.5 40q-142 59 -142 177q0 82 90 140q-32 37 -32 90q0 66 47 107t126 41q95 0 175 -62l-50 -69q-60 49 -119 49q-38 0 -58.5 -16t-20.5 -46q0 -22 21 -41.5t50.5 -34.5
t85.5 -41q73 -33 108 -73.5t35 -101.5q0 -47 -22.5 -80.5t-71.5 -61.5q17 -21 24.5 -42t7.5 -47q0 -70 -52.5 -112.5t-133.5 -42.5q-57 0 -107.5 20zM161.5 325.5q18.5 -22.5 54.5 -41.5l67 -31q63 -28 73 -34q30 15 43.5 35t13.5 50t-18.5 53.5t-54.5 42.5q-29 16 -69 33
q-41 17 -70 33q-30 -17 -44 -38.5t-14 -49.5q0 -30 18.5 -52.5z" />
    <glyph glyph-name="dieresis" unicode="&#xa8;" 
 />
    <glyph glyph-name="copyright" unicode="&#xa9;" horiz-adv-x="814" 
d="M272.5 17.5q-64.5 25.5 -112.5 72.5q-51 50 -78 116.5t-27 147.5t27.5 148t77.5 114q48 46 112.5 71t135.5 25t135 -25t113 -71q50 -47 77 -114.5t27 -147.5t-27 -147t-77 -117q-50 -47 -114 -72.5t-134 -25.5q-71 0 -135.5 25.5zM131 227q23 -58 66 -100q41 -42 95 -65
t116 -23q61 0 115.5 23t95.5 65q43 43 65.5 100.5t22.5 126.5q0 68 -22.5 126t-65.5 101q-40 41 -94.5 63t-116.5 22t-116 -22t-95 -63q-43 -43 -66 -101t-23 -126q0 -69 23 -127zM234 437.5q16 38.5 46 65.5q29 27 64.5 41.5t75.5 14.5q43 0 74.5 -16t61.5 -45l-43 -47
q-22 22 -42 31.5t-45 9.5q-58 0 -92.5 -39t-34.5 -99q0 -67 33.5 -107t89.5 -40q29 0 53 11t49 32l37 -52q-35 -28 -68 -42.5t-75 -14.5q-86 0 -143 57q-57 59 -57 156q0 45 16 83.5z" />
    <glyph glyph-name="ordfeminine" unicode="&#xaa;" horiz-adv-x="562" 
d="M99.5 32.5q-42.5 41.5 -42.5 110.5q0 84 75 130.5t242 65.5q-1 60 -25.5 90t-76.5 30q-67 0 -153 -54l-40 72q107 69 215 69q96 0 145 -56.5t49 -168.5v-317h-92l-9 61l-1 -1q-89 -73 -173 -73q-71 0 -113.5 41.5zM188 95.5q22 -19.5 61 -19.5q33 0 62.5 14.5t62.5 46.5
l1 134q-98 -13 -153.5 -38.5t-55.5 -80.5q0 -37 22 -56.5z" />
    <glyph glyph-name="guillemotleft" unicode="&#xab;" horiz-adv-x="534" 
d="M101.5 72q-13.5 66 -13.5 134q0 69 14 136t46 147l77 -36q-49 -135 -49 -247q0 -117 49 -246l-79 -34q-31 80 -44.5 146zM305.5 343q13.5 67 45.5 146l77 -36q-50 -137 -50 -247q0 -116 50 -246l-79 -34q-31 78 -44 144t-13 136t13.5 137z" />
    <glyph glyph-name="logicalnot" unicode="&#xac;" horiz-adv-x="554" 
d="M432 110v208h-393v82h478v-290h-85z" />
    <glyph glyph-name="uni00AD" unicode="&#xad;" horiz-adv-x="347" 
d="M45 227v81h258v-81h-258z" />
    <glyph glyph-name="registered" unicode="&#xae;" horiz-adv-x="476" 
d="M133 370.5q-47 28.5 -74.5 77.5t-27.5 109t27.5 109t75 77t104.5 28q59 0 106.5 -28t74.5 -77t27 -109q0 -61 -27.5 -110.5t-75 -77t-105.5 -27.5t-105 28.5zM97 466q21 -40 57.5 -62.5t83.5 -22.5t84.5 22.5t59 62.5t21.5 91q0 50 -21.5 90t-59 62.5t-84.5 22.5
q-46 0 -83 -22.5t-58 -62.5t-21 -90q0 -51 21 -91zM159 665h86q39 0 61 -17t22 -51q0 -20 -11 -36t-30 -22l47 -87h-49l-36 72h-45v-72h-45v213zM234 557q45 0 45 38q0 36 -44 36h-31v-74h30z" />
    <glyph glyph-name="macron" unicode="&#xaf;" 
 />
    <glyph glyph-name="degree" unicode="&#xb0;" horiz-adv-x="374" 
d="M88 490q-43 41 -43 103q0 63 43 106q42 40 101 40q28 0 54 -10.5t46 -29.5q42 -42 42 -106q0 -61 -42 -103q-20 -19 -46 -29.5t-54 -10.5q-59 0 -101 40zM130 530.5q23 -24.5 59 -24.5q35 0 57.5 24.5t22.5 62.5q0 40 -22.5 64.5t-57.5 24.5q-36 0 -59 -24.5t-23 -64.5
q0 -38 23 -62.5z" />
    <glyph glyph-name="plusminus" unicode="&#xb1;" horiz-adv-x="555" 
d="M50 70v79h444v-79h-444zM50 444h183v182h79v-182h182v-79h-182v-183h-79v183h-183v79z" />
    <glyph glyph-name="uni00B2" unicode="&#xb2;" horiz-adv-x="558" 
d="M189 210q52 54 89 101q44 54 64.5 97.5t20.5 83.5q0 60 -32 94t-89 34q-37 0 -71 -20t-69 -59l-62 62q51 54 101.5 78.5t115.5 24.5q98 0 156.5 -56.5t58.5 -150.5q0 -84 -75 -192q-57 -80 -188 -216q88 5 120 5h178v-92h-463v61q93 91 145 145z" />
    <glyph glyph-name="uni00B3" unicode="&#xb3;" horiz-adv-x="559" 
d="M161.5 99.5q39.5 -20.5 90.5 -20.5q61 0 98 31t37 83q0 71 -54.5 99.5t-155.5 28.5v79q88 0 136.5 27t48.5 92q0 48 -28.5 75t-79.5 27q-38 0 -71.5 -16.5t-71.5 -50.5l-56 68q45 41 94.5 63t108.5 22q99 0 159.5 -47.5t60.5 -131.5q0 -56 -32.5 -97t-93.5 -65v-4
q67 -16 108 -62.5t41 -112.5q0 -59 -32 -103.5t-86.5 -68.5t-120.5 -24q-73 0 -132 25t-99 70l53 71q38 -37 77.5 -57.5z" />
    <glyph glyph-name="acute" unicode="&#xb4;" 
 />
    <glyph glyph-name="paragraph" unicode="&#xb6;" horiz-adv-x="640" 
d="M423 -82v797h112v-797h-112zM123 663q68 52 189 52h46v-475h-36q-60 0 -110.5 15t-85.5 44q-80 64 -80 181q0 125 77 183z" />
    <glyph glyph-name="periodcentered" unicode="&#xb7;" horiz-adv-x="302" 
d="M96 291.5q-23 22.5 -23 56.5t22.5 57t56.5 23t56.5 -23t22.5 -57q0 -33 -23 -56t-56 -23t-56 22.5z" />
    <glyph glyph-name="cedilla" unicode="&#xb8;" 
 />
    <glyph glyph-name="uni00B9" unicode="&#xb9;" horiz-adv-x="558" 
d="M84 92h157v479h-128v67q49 10 85.5 23t69.5 32h86v-601h139v-88h-409v88z" />
    <glyph glyph-name="ordmasculine" unicode="&#xba;" horiz-adv-x="601" 
d="M172 26.5q-57 35.5 -89.5 98.5t-32.5 142q0 80 32 144t89.5 99.5t129.5 35.5q73 0 130 -36t89.5 -99.5t32.5 -143.5q0 -79 -32.5 -142t-90 -98.5t-129.5 -35.5t-129 35.5zM203 130.5q37 -51.5 98 -51.5q62 0 99 51t37 137q0 87 -37 139t-99 52q-61 0 -98 -52.5
t-37 -138.5q0 -85 37 -136.5z" />
    <glyph glyph-name="guillemotright" unicode="&#xbb;" horiz-adv-x="534" 
d="M359 206q0 114 -50 247l78 36q32 -79 45.5 -146t13.5 -137q0 -69 -13.5 -135t-44.5 -145l-79 34q50 132 50 246zM157 206q0 111 -51 247l78 36q32 -79 45 -146.5t13 -136.5q0 -70 -13 -136t-44 -144l-79 34q51 133 51 246z" />
    <glyph glyph-name="onequarter" unicode="&#xbc;" horiz-adv-x="558" 
 />
    <glyph glyph-name="onehalf" unicode="&#xbd;" horiz-adv-x="558" 
 />
    <glyph glyph-name="threequarters" unicode="&#xbe;" horiz-adv-x="559" 
 />
    <glyph glyph-name="questiondown" unicode="&#xbf;" horiz-adv-x="477" 
d="M302 275q0 -83 -67 -161q-45 -54 -63 -82t-18 -61q0 -44 26.5 -69.5t69.5 -25.5q62 0 116 59l62 -57q-81 -92 -192 -92q-87 0 -138.5 46.5t-51.5 130.5q0 42 20 79t63 86q37 42 55.5 78t18.5 77q0 12 -1 19h98q2 -18 2 -27zM199 516q20 21 51 21q30 0 50 -21.5t20 -51.5
q0 -32 -20 -53t-50 -21q-31 0 -51 21t-20 53q0 31 20 52z" />
    <glyph glyph-name="Agrave" unicode="&#xc0;" 
 />
    <glyph glyph-name="Aacute" unicode="&#xc1;" 
 />
    <glyph glyph-name="Acircumflex" unicode="&#xc2;" 
 />
    <glyph glyph-name="Atilde" unicode="&#xc3;" 
 />
    <glyph glyph-name="Adieresis" unicode="&#xc4;" 
 />
    <glyph glyph-name="Aring" unicode="&#xc5;" 
 />
    <glyph glyph-name="AE" unicode="&#xc6;" 
 />
    <glyph glyph-name="Ccedilla" unicode="&#xc7;" 
 />
    <glyph glyph-name="Egrave" unicode="&#xc8;" 
 />
    <glyph glyph-name="Eacute" unicode="&#xc9;" 
 />
    <glyph glyph-name="Ecircumflex" unicode="&#xca;" 
 />
    <glyph glyph-name="Edieresis" unicode="&#xcb;" 
 />
    <glyph glyph-name="Igrave" unicode="&#xcc;" 
 />
    <glyph glyph-name="Iacute" unicode="&#xcd;" 
 />
    <glyph glyph-name="Icircumflex" unicode="&#xce;" 
 />
    <glyph glyph-name="Idieresis" unicode="&#xcf;" 
 />
    <glyph glyph-name="Eth" unicode="&#xd0;" 
 />
    <glyph glyph-name="Ntilde" unicode="&#xd1;" 
 />
    <glyph glyph-name="Ograve" unicode="&#xd2;" 
 />
    <glyph glyph-name="Oacute" unicode="&#xd3;" 
 />
    <glyph glyph-name="Ocircumflex" unicode="&#xd4;" 
 />
    <glyph glyph-name="Otilde" unicode="&#xd5;" 
 />
    <glyph glyph-name="Odieresis" unicode="&#xd6;" 
 />
    <glyph glyph-name="multiply" unicode="&#xd7;" horiz-adv-x="470" 
d="M50 110l129 129l-129 130l56 55l129 -129l129 129l56 -55l-129 -130l129 -130l-56 -54l-129 128l-130 -129z" />
    <glyph glyph-name="Oslash" unicode="&#xd8;" 
 />
    <glyph glyph-name="Ugrave" unicode="&#xd9;" 
 />
    <glyph glyph-name="Uacute" unicode="&#xda;" 
 />
    <glyph glyph-name="Ucircumflex" unicode="&#xdb;" 
 />
    <glyph glyph-name="Udieresis" unicode="&#xdc;" 
 />
    <glyph glyph-name="Yacute" unicode="&#xdd;" 
 />
    <glyph glyph-name="Thorn" unicode="&#xde;" 
 />
    <glyph glyph-name="germandbls" unicode="&#xdf;" 
 />
    <glyph glyph-name="agrave" unicode="&#xe0;" 
 />
    <glyph glyph-name="aacute" unicode="&#xe1;" 
 />
    <glyph glyph-name="acircumflex" unicode="&#xe2;" 
 />
    <glyph glyph-name="atilde" unicode="&#xe3;" 
 />
    <glyph glyph-name="adieresis" unicode="&#xe4;" 
 />
    <glyph glyph-name="aring" unicode="&#xe5;" 
 />
    <glyph glyph-name="ae" unicode="&#xe6;" 
 />
    <glyph glyph-name="ccedilla" unicode="&#xe7;" 
 />
    <glyph glyph-name="egrave" unicode="&#xe8;" 
 />
    <glyph glyph-name="eacute" unicode="&#xe9;" 
 />
    <glyph glyph-name="ecircumflex" unicode="&#xea;" 
 />
    <glyph glyph-name="edieresis" unicode="&#xeb;" 
 />
    <glyph glyph-name="igrave" unicode="&#xec;" 
 />
    <glyph glyph-name="iacute" unicode="&#xed;" 
 />
    <glyph glyph-name="icircumflex" unicode="&#xee;" 
 />
    <glyph glyph-name="idieresis" unicode="&#xef;" 
 />
    <glyph glyph-name="eth" unicode="&#xf0;" 
 />
    <glyph glyph-name="ntilde" unicode="&#xf1;" 
 />
    <glyph glyph-name="ograve" unicode="&#xf2;" 
 />
    <glyph glyph-name="oacute" unicode="&#xf3;" 
 />
    <glyph glyph-name="ocircumflex" unicode="&#xf4;" 
 />
    <glyph glyph-name="otilde" unicode="&#xf5;" 
 />
    <glyph glyph-name="odieresis" unicode="&#xf6;" 
 />
    <glyph glyph-name="divide" unicode="&#xf7;" horiz-adv-x="544" 
d="M50 200v79h444v-79h-444zM232 112.5q17 17.5 43 17.5t43.5 -17.5t17.5 -43.5q0 -25 -17.5 -42.5t-43.5 -17.5q-25 0 -42.5 17t-17.5 43t17 43.5zM232 452.5q17 17.5 43 17.5t43.5 -17.5t17.5 -43.5t-17.5 -43.5t-43.5 -17.5q-25 0 -42.5 17.5t-17.5 43.5t17 43.5z" />
    <glyph glyph-name="oslash" unicode="&#xf8;" 
 />
    <glyph glyph-name="ugrave" unicode="&#xf9;" 
 />
    <glyph glyph-name="uacute" unicode="&#xfa;" 
 />
    <glyph glyph-name="ucircumflex" unicode="&#xfb;" 
 />
    <glyph glyph-name="udieresis" unicode="&#xfc;" 
 />
    <glyph glyph-name="yacute" unicode="&#xfd;" 
 />
    <glyph glyph-name="thorn" unicode="&#xfe;" 
 />
    <glyph glyph-name="ydieresis" unicode="&#xff;" 
 />
    <glyph glyph-name="OE" unicode="&#x152;" 
 />
    <glyph glyph-name="oe" unicode="&#x153;" 
 />
    <glyph glyph-name="Scaron" unicode="&#x160;" 
 />
    <glyph glyph-name="scaron" unicode="&#x161;" 
 />
    <glyph glyph-name="Ydieresis" unicode="&#x178;" 
 />
    <glyph glyph-name="Zcaron" unicode="&#x17d;" 
 />
    <glyph glyph-name="zcaron" unicode="&#x17e;" 
 />
    <glyph glyph-name="florin" unicode="&#x192;" 
 />
    <glyph glyph-name="circumflex" unicode="&#x2c6;" 
 />
    <glyph glyph-name="tilde" unicode="&#x2dc;" 
 />
    <glyph glyph-name="uni03BC" unicode="&#x3bc;" 
 />
    <glyph glyph-name="uni060C" unicode="&#x60c;" horiz-adv-x="291" 
d="M87.5 17q-21.5 25 -21.5 69q0 48 24 106.5t60 103.5l48 -50q-49 -60 -63 -108q10 2 13 2q30 0 52 -21.5t22 -52.5t-21.5 -52.5t-52.5 -21.5q-39 0 -60.5 25z" />
    <glyph glyph-name="uni0615" unicode="&#x615;" horiz-adv-x="0" 
d="M-125 53l34 1l8 12q5 8 7 20.5t2 42.5q0 36 -3 126l48 11v-119q0 -8 -2 -20q42 46 77 46q38 0 58.5 -24t20.5 -70q0 -37 -36 -58t-101 -21h-103zM3 56q51 0 79 19q-1 23 -11.5 34t-28.5 11q-28 0 -79 -64h40z" />
    <glyph glyph-name="uni061B" unicode="&#x61b;" horiz-adv-x="273" 
d="M77 252q-22 25 -22 69q0 49 24 107.5t60 102.5l48 -50q-49 -60 -62 -107q8 2 12 2q30 0 52.5 -22t22.5 -53t-22 -52.5t-53 -21.5q-38 0 -60 25zM86 121q22 22 54 22t53.5 -22t21.5 -54t-21.5 -54t-53.5 -22t-54 21.5t-22 54.5q0 32 22 54z" />
    <glyph glyph-name="uni061F" unicode="&#x61f;" horiz-adv-x="537" 
d="M390 543q0 51 -31 79t-88 28q-53 0 -84.5 -29t-31.5 -75q0 -37 20.5 -63.5t72.5 -71.5q-2 2 28 -25q32 -29 46.5 -53t19 -49.5t4.5 -66.5l-75 -11q-1 35 -4 52t-15 35.5t-41 46.5q-18 18 -41 36q-33 28 -52 49t-32 52.5t-13 74.5q0 56 25 100.5t70 69.5t103 25
q91 0 142 -48.5t51 -132.5q0 -26 -4 -50l-72 -1q2 10 2 28zM253 122.5q22 22.5 55 22.5t54.5 -22.5t21.5 -55.5q0 -32 -22 -54t-54 -22q-33 0 -55 21.5t-22 54.5t22 55.5z" />
    <glyph glyph-name="uni0621" unicode="&#x621;" horiz-adv-x="548" 
d="M61 80l119 41q-27 49 -35.5 81t-8.5 71q0 55 49 88t119 33q31 0 71 -7l-18 -91q-35 8 -61 8q-54 0 -85 -20q0 -37 12 -67.5t37 -65.5l214 67l12 -93l-410 -135z" />
    <glyph glyph-name="uni0622" unicode="&#x622;" horiz-adv-x="232" 
d="M158 525l5 -525l-81 -11l-21 520zM98 624q-32 4 -40 4q-19 0 -27.5 -8.5t-16.5 -37.5l-66 17q18 64 41 87.5t67 23.5q20 0 55 -5q60 -8 109 -8h52l-17 -82h-45q-51 0 -112 9z" />
    <glyph glyph-name="uni0623" unicode="&#x623;" horiz-adv-x="232" 
d="M158 525l5 -525l-81 -11l-21 520zM-14 614l76 21q-24 47 -24 80t25.5 51.5t69.5 18.5q29 0 47 -6v-53q-33 6 -59 6q-25 0 -38 -7q0 -15 8.5 -36t21.5 -39l115 32v-56l-242 -68v56z" />
    <glyph glyph-name="uni0624" unicode="&#x624;" horiz-adv-x="462" 
d="M302 8q-36 -8 -96 -8q-51 0 -77.5 8t-46.5 35q-13 19 -18 32.5t-5 36.5q0 60 18.5 118t57.5 97t99 39q57 0 94.5 -40t54.5 -102.5t17 -131.5q0 -120 -77 -216.5t-220 -153.5l-60 93q210 75 259 193zM222 101q59 0 96 9q0 77 -24.5 116t-67.5 39q-39 0 -63.5 -42
t-24.5 -110q31 -12 84 -12zM111 512l76 21q-24 47 -24 80t25.5 51.5t69.5 18.5q29 0 47 -6v-53q-33 6 -59 6q-25 0 -38 -7q0 -15 8.5 -36t21.5 -39l115 32v-56l-242 -68v56z" />
    <glyph glyph-name="uni0625" unicode="&#x625;" horiz-adv-x="224" 
d="M158 710l5 -710l-81 -11l-21 705zM7 -252l76 21q-24 47 -24 80t25.5 51.5t69.5 18.5q29 0 47 -6v-53q-33 6 -59 6q-25 0 -38 -7q0 -15 8.5 -36t21.5 -39l115 32v-56l-242 -68v56z" />
    <glyph glyph-name="uni0626" unicode="&#x626;" horiz-adv-x="739" 
d="M129.5 -177.5q-58.5 48.5 -58.5 145.5q0 20 7 68.5t17 112.5l21 131l75 -16q-37 -222 -37 -280q0 -47 46 -67.5t117 -20.5q92 0 154.5 13t100.5 46q8 22 8 39q0 45 -43 51l-20 2q-64 7 -93.5 13t-47 21.5t-17.5 47.5q0 78 29 156t77 128.5t101 50.5q76 0 137 -98l-52 -56
q-45 45 -84 45q-47 0 -80.5 -53.5t-42.5 -130.5q81 -8 123.5 -20t67 -46t24.5 -102q0 -118 -97 -173.5t-245 -55.5q-129 0 -187.5 48.5zM110 431l76 21q-24 47 -24 80t25.5 51.5t69.5 18.5q29 0 47 -6v-53q-33 6 -59 6q-25 0 -38 -7q0 -15 8.5 -36t21.5 -39l115 32v-56
l-242 -68v56z" />
    <glyph glyph-name="uni0627" unicode="&#x627;" horiz-adv-x="224" 
d="M158 710l5 -710l-81 -11l-21 705z" />
    <glyph glyph-name="uni0628" unicode="&#x628;" horiz-adv-x="858" 
d="M225.5 10.5q-72.5 15.5 -113.5 57t-41 116.5q0 21 7 69t23 138l75 -15q-22 -132 -22 -171q0 -35 22.5 -54t75 -27t148.5 -8q208 0 303 33l-20 226l93 16q10 -146 10 -248q0 -37 -15.5 -63t-53.5 -42q-47 -20 -126.5 -31.5t-185.5 -11.5q-107 0 -179.5 15.5zM328 -179
l67 82l87 -69l-67 -82z" />
    <glyph glyph-name="uni0629" unicode="&#x629;" horiz-adv-x="470" 
d="M115.5 29.5q-44.5 34.5 -44.5 102.5q0 49 28.5 100.5t79.5 111.5l-43 30l54 83q109 -68 168.5 -154.5t59.5 -188.5q0 -39 -19 -66q-12 -18 -20 -26.5t-17 -11.5q-22 -9 -54 -12t-81 -3q-67 0 -111.5 34.5zM173.5 127.5q17.5 -11.5 59.5 -11.5q73 0 106 8q-4 47 -23.5 90
t-75.5 84q-32 -30 -58 -72.5t-26 -64.5t17.5 -33.5zM92 602l63 79l84 -66l-64 -79zM295 681l83 -66l-63 -79l-84 66z" />
    <glyph glyph-name="uni062A" unicode="&#x62a;" horiz-adv-x="858" 
d="M225.5 10.5q-72.5 15.5 -113.5 57t-41 116.5q0 21 7 69t23 138l75 -15q-22 -132 -22 -171q0 -35 22.5 -54t75 -27t148.5 -8q208 0 303 33l-20 226l93 16q10 -146 10 -248q0 -37 -15.5 -63t-53.5 -42q-47 -20 -126.5 -31.5t-185.5 -11.5q-107 0 -179.5 15.5zM292 453
l63 79l84 -66l-64 -79zM495 532l83 -66l-63 -79l-84 66z" />
    <glyph glyph-name="uni062B" unicode="&#x62b;" horiz-adv-x="858" 
d="M225.5 10.5q-72.5 15.5 -113.5 57t-41 116.5q0 21 7 69t23 138l75 -15q-22 -132 -22 -171q0 -35 22.5 -54t75 -27t148.5 -8q208 0 303 33l-20 226l93 16q10 -146 10 -248q0 -37 -15.5 -63t-53.5 -42q-47 -20 -126.5 -31.5t-185.5 -11.5q-107 0 -179.5 15.5zM302 448
l59 72l77 -61l-59 -72zM417 655l77 -60l-59 -72l-76 60zM491 520l77 -61l-59 -72l-77 61z" />
    <glyph glyph-name="uni062C" unicode="&#x62c;" horiz-adv-x="652" 
d="M151.5 -296.5q-85.5 63.5 -85.5 196.5q0 118 79 219t248 163q-35 11 -106 41q-29 12 -55 22t-37 10q-26 0 -38.5 -16t-18.5 -49l-72 14q12 77 41.5 119.5t84.5 42.5q30 0 66.5 -13t96.5 -40q72 -33 125.5 -51.5t106.5 -20.5l-10 -118q-177 -35 -291 -107t-130 -177
q0 -91 62 -135t166 -44q99 0 217 30l-6 -120q-106 -30 -214 -30q-144 0 -229.5 63.5zM365 37l87 -69l-67 -82l-87 69z" />
    <glyph glyph-name="uni062D" unicode="&#x62d;" horiz-adv-x="652" 
d="M151.5 -296.5q-85.5 63.5 -85.5 196.5q0 118 79 219t248 163q-35 11 -106 41q-29 12 -55 22t-37 10q-26 0 -38.5 -16t-18.5 -49l-72 14q12 77 41.5 119.5t84.5 42.5q30 0 66.5 -13t96.5 -40q72 -33 125.5 -51.5t106.5 -20.5l-10 -118q-177 -35 -291 -107t-130 -177
q0 -91 62 -135t166 -44q99 0 217 30l-6 -120q-106 -30 -214 -30q-144 0 -229.5 63.5z" />
    <glyph glyph-name="uni062E" unicode="&#x62e;" horiz-adv-x="652" 
d="M151.5 -296.5q-85.5 63.5 -85.5 196.5q0 118 79 219t248 163q-35 11 -106 41q-29 12 -55 22t-37 10q-26 0 -38.5 -16t-18.5 -49l-72 14q12 77 41.5 119.5t84.5 42.5q30 0 66.5 -13t96.5 -40q72 -33 125.5 -51.5t106.5 -20.5l-10 -118q-177 -35 -291 -107t-130 -177
q0 -91 62 -135t166 -44q99 0 217 30l-6 -120q-106 -30 -214 -30q-144 0 -229.5 63.5zM198 599l67 82l87 -69l-67 -82z" />
    <glyph glyph-name="uni062F" unicode="&#x62f;" horiz-adv-x="541" 
d="M134 174q0 -28 7 -39.5t27.5 -15t70.5 -3.5q43 0 92.5 7.5t75.5 19.5q-14 131 -175 281l62 80q103 -100 149.5 -195t46.5 -177q0 -71 -72.5 -104t-181.5 -33q-70 0 -108 13t-54.5 43.5t-16.5 87.5q0 26 3 62l74 -5v-22z" />
    <glyph glyph-name="uni0630" unicode="&#x630;" horiz-adv-x="541" 
d="M134 174q0 -28 7 -39.5t27.5 -15t70.5 -3.5q43 0 92.5 7.5t75.5 19.5q-14 131 -175 281l62 80q103 -100 149.5 -195t46.5 -177q0 -71 -72.5 -104t-181.5 -33q-70 0 -108 13t-54.5 43.5t-16.5 87.5q0 26 3 62l74 -5v-22zM181 673l67 82l87 -69l-67 -82z" />
    <glyph glyph-name="uni0631" unicode="&#x631;" horiz-adv-x="319" 
d="M164 22l-35 287l96 20q12 -117 17 -178.5t5 -103.5q0 -94 -67 -176.5t-206 -148.5l-59 93q209 95 249 207z" />
    <glyph glyph-name="uni0632" unicode="&#x632;" horiz-adv-x="319" 
d="M164 22l-35 287l96 20q12 -117 17 -178.5t5 -103.5q0 -94 -67 -176.5t-206 -148.5l-59 93q209 95 249 207zM87 504l67 82l87 -69l-67 -82z" />
    <glyph glyph-name="uni0633" unicode="&#x633;" horiz-adv-x="1177" 
d="M129.5 -177.5q-58.5 48.5 -58.5 145.5q0 20 7 68.5t17 112.5l21 131l75 -16q-37 -222 -37 -280q0 -47 46 -67.5t117 -20.5q78 0 135 10.5t94 35.5l-38 378l93 19l14 -153q3 -36 23.5 -50.5t63.5 -14.5q60 0 92 16l-8 195l85 3l4 -198q18 -16 56 -16q61 0 92 18l-21 236
l93 16q9 -176 10 -253q0 -69 -46.5 -103.5t-109.5 -34.5q-36 0 -64.5 13.5t-40.5 41.5q-14 -31 -48.5 -43t-71.5 -12q-36 0 -60.5 9t-39.5 31q5 -82 5 -117q0 -49 -47.5 -82.5t-119.5 -50t-145 -16.5q-129 0 -187.5 48.5z" />
    <glyph glyph-name="uni0634" unicode="&#x634;" horiz-adv-x="1177" 
d="M129.5 -177.5q-58.5 48.5 -58.5 145.5q0 20 7 68.5t17 112.5l21 131l75 -16q-37 -222 -37 -280q0 -47 46 -67.5t117 -20.5q78 0 135 10.5t94 35.5l-38 378l93 19l14 -153q3 -36 23.5 -50.5t63.5 -14.5q60 0 92 16l-8 195l85 3l4 -198q18 -16 56 -16q61 0 92 18l-21 236
l93 16q9 -176 10 -253q0 -69 -46.5 -103.5t-109.5 -34.5q-36 0 -64.5 13.5t-40.5 41.5q-14 -31 -48.5 -43t-71.5 -12q-36 0 -60.5 9t-39.5 31q5 -82 5 -117q0 -49 -47.5 -82.5t-119.5 -50t-145 -16.5q-129 0 -187.5 48.5zM676 499l59 72l77 -61l-59 -72zM791 706l77 -60
l-59 -72l-76 60zM865 571l77 -61l-59 -72l-77 61z" />
    <glyph glyph-name="uni0635" unicode="&#x635;" horiz-adv-x="1274" 
d="M625 32q4 -57 4 -109q0 -49 -47.5 -82.5t-119.5 -50t-145 -16.5q-128 0 -187 47.5t-59 142.5q0 31 9.5 95t35.5 221l75 -16q-38 -228 -38 -280q0 -48 45.5 -68t118.5 -20q159 0 229 46l-38 378l93 19l17 -194q21 -8 34 -9q32 50 91 118.5t131.5 121.5t136.5 53
q192 0 192 -239q0 -70 -28 -99q-40 -42 -127.5 -66.5t-208.5 -24.5q-136 0 -214 32zM834 121q79 0 148.5 9t135.5 33q3 76 -22 119.5t-82 43.5q-54 0 -127 -54.5t-148 -145.5q43 -5 95 -5z" />
    <glyph glyph-name="uni0636" unicode="&#x636;" horiz-adv-x="1274" 
d="M625 32q4 -57 4 -109q0 -49 -47.5 -82.5t-119.5 -50t-145 -16.5q-128 0 -187 47.5t-59 142.5q0 31 9.5 95t35.5 221l75 -16q-38 -228 -38 -280q0 -48 45.5 -68t118.5 -20q159 0 229 46l-38 378l93 19l17 -194q21 -8 34 -9q32 50 91 118.5t131.5 121.5t136.5 53
q192 0 192 -239q0 -70 -28 -99q-40 -42 -127.5 -66.5t-208.5 -24.5q-136 0 -214 32zM834 121q79 0 148.5 9t135.5 33q3 76 -22 119.5t-82 43.5q-54 0 -127 -54.5t-148 -145.5q43 -5 95 -5zM782 576l67 82l87 -69l-67 -82z" />
    <glyph glyph-name="uni0637" unicode="&#x637;" horiz-adv-x="783" 
d="M63 121h91q24 31 34 48q7 12 10.5 34.5t3.5 73.5q0 47 -1 78l-8 339l96 16l3 -327v-31q0 -46 -6 -64q59 62 119.5 101.5t113.5 39.5q96 0 144 -60.5t48 -178.5q0 -70 -28 -99q-39 -42 -127 -66.5t-209 -24.5h-260zM342 121q79 0 148.5 9t135.5 33q3 76 -22 119.5
t-82 43.5q-54 0 -127 -55.5t-149 -149.5h96z" />
    <glyph glyph-name="uni0638" unicode="&#x638;" horiz-adv-x="783" 
d="M63 121h91q24 31 34 48q7 12 10.5 34.5t3.5 73.5q0 47 -1 78l-8 339l96 16l3 -327v-31q0 -46 -6 -64q59 62 119.5 101.5t113.5 39.5q96 0 144 -60.5t48 -178.5q0 -70 -28 -99q-39 -42 -127 -66.5t-209 -24.5h-260zM342 121q79 0 148.5 9t135.5 33q3 76 -22 119.5
t-82 43.5q-54 0 -127 -55.5t-149 -149.5h96zM454 607l67 82l87 -69l-67 -82z" />
    <glyph glyph-name="uni0639" unicode="&#x639;" horiz-adv-x="523" 
d="M132.5 -296q-83.5 64 -83.5 199q0 64 27 125t82 109q-30 36 -48 87t-18 100q0 68 49 107.5t128 39.5q49 0 112 -17l-23 -96q-50 10 -98 10q-53 0 -84 -25q0 -37 15.5 -78.5t43.5 -76.5l214 67v-113l-133 -43q-78 -25 -119 -66t-59 -98q0 -91 60 -132.5t156 -41.5
q93 0 194 29l-6 -121q-101 -29 -193 -29q-133 0 -216.5 64z" />
    <glyph glyph-name="uni063A" unicode="&#x63a;" horiz-adv-x="523" 
d="M132.5 -296q-83.5 64 -83.5 199q0 64 27 125t82 109q-30 36 -48 87t-18 100q0 68 49 107.5t128 39.5q49 0 112 -17l-23 -96q-50 10 -98 10q-53 0 -84 -25q0 -37 15.5 -78.5t43.5 -76.5l214 67v-113l-133 -43q-78 -25 -119 -66t-59 -98q0 -91 60 -132.5t156 -41.5
q93 0 194 29l-6 -121q-101 -29 -193 -29q-133 0 -216.5 64zM144 626l67 82l87 -69l-67 -82z" />
    <glyph glyph-name="uni0640" unicode="&#x640;" horiz-adv-x="216" 
d="M-5.5 9.5q-2.5 9.5 -2.5 21.5v60q0 12 2.5 21t5.5 9h216q3 0 5.5 -9t2.5 -21v-60q0 -12 -2.5 -21.5t-5.5 -9.5h-216q-3 0 -5.5 9.5z" />
    <glyph glyph-name="uni0641" unicode="&#x641;" horiz-adv-x="907" 
d="M225.5 10.5q-72.5 15.5 -113.5 57t-41 116.5q0 21 7 69t23 138l75 -15q-22 -132 -22 -171q0 -35 22.5 -54t75 -27t148.5 -8q285 0 348 22q3 16 5 62q-44 -10 -111 -10q-51 0 -77.5 8t-46.5 35q-13 19 -18 32.5t-5 36.5q0 60 18.5 118t57.5 97t99 39q57 0 94.5 -40
t54.5 -102.5t17 -131.5q0 -85 -6 -133.5t-21.5 -76t-45.5 -42.5q-41 -19 -117.5 -27t-240.5 -8q-107 0 -179.5 15.5zM658 291q59 0 96 9q0 77 -24.5 116t-67.5 39q-39 0 -63.5 -42t-24.5 -110q31 -12 84 -12zM582 711l67 82l87 -69l-67 -82z" />
    <glyph glyph-name="uni0642" unicode="&#x642;" horiz-adv-x="756" 
d="M129.5 -177.5q-58.5 48.5 -58.5 145.5q0 20 7 68.5t17 112.5l21 131l75 -16q-37 -222 -37 -280q0 -47 46 -67.5t117 -20.5q87 0 153.5 11t124.5 37q4 25 6 84q-50 -10 -111 -10q-50 0 -76.5 8t-46.5 35q-14 19 -18.5 32t-4.5 37q0 60 18 118t57 97t99 39q57 0 94.5 -40
t55 -102.5t17.5 -131.5q0 -85 -4.5 -133t-16.5 -76.5t-35 -47.5q-43 -41 -129.5 -60t-182.5 -19q-129 0 -187.5 48.5zM506 120q35 0 56.5 2t39.5 7q0 78 -24 116.5t-68 38.5q-39 0 -63 -42t-24 -111q33 -11 83 -11zM364 536l63 79l84 -66l-64 -79zM567 615l83 -66l-63 -79
l-84 66z" />
    <glyph glyph-name="uni0643" unicode="&#x643;" horiz-adv-x="817" 
d="M78 253q7 48 23 138l75 -15q-22 -132 -22 -171q0 -35 22.5 -54t75 -27t148.5 -8q169 0 262 34l-33 542l95 18q3 -60 10.5 -289.5t7.5 -278.5q0 -37 -15 -62.5t-53 -41.5q-46 -20 -115 -31.5t-154 -11.5q-107 0 -179.5 15.5t-113.5 57t-41 116.5q0 21 7 69zM310 378
q56 0 95.5 10t55.5 29q0 17 -15 23.5t-48 12.5q-34 6 -51.5 14t-17.5 28q0 28 15.5 69.5t41.5 72.5t58 31q24 0 42.5 -14t38.5 -44l-33 -31q-24 27 -48 27t-41 -26.5t-24 -61.5q48 -4 75 -12t41 -26.5t14 -54.5q0 -54 -55 -85.5t-150 -31.5z" />
    <glyph glyph-name="uni0644" unicode="&#x644;" horiz-adv-x="664" 
d="M128 -177.5q-57 48.5 -57 145.5q0 20 7 68.5t17 112.5l21 131l75 -16q-38 -228 -38 -280q0 -47 45 -67.5t111 -20.5q132 0 198 46l-27 752l96 16l14 -787q1 -48 -45 -81.5t-112 -50.5t-124 -17q-124 0 -181 48.5z" />
    <glyph glyph-name="uni0645" unicode="&#x645;" horiz-adv-x="521" 
d="M60 -18q0 113 26 167q56 111 110.5 169.5t117.5 58.5q67 0 106.5 -61.5t39.5 -156.5q0 -58 -15 -108q-7 -26 -41 -50q-24 -19 -46 -19q-12 0 -24 6l-183 83q-1 -13 -1 -44q0 -120 27 -309l-99 -17q-18 175 -18 281zM362 93q13 25 13 72q0 50 -19 80.5t-53 30.5
q-30 0 -52 -24.5t-55 -84.5z" />
    <glyph glyph-name="uni0646" unicode="&#x646;" horiz-adv-x="697" 
d="M130 -178.5q-59 47.5 -59 142.5q0 31 9.5 95t35.5 221l75 -16q-38 -228 -38 -280q0 -48 45.5 -68t118.5 -20q159 0 229 46l-38 378l93 19q28 -301 28 -416q0 -49 -47.5 -82.5t-119.5 -50t-145 -16.5q-128 0 -187 47.5zM264 445l67 82l87 -69l-67 -82z" />
    <glyph glyph-name="uni0647" unicode="&#x647;" horiz-adv-x="470" 
d="M115.5 29.5q-44.5 34.5 -44.5 102.5q0 49 28.5 100.5t79.5 111.5l-43 30l54 83q109 -68 168.5 -154.5t59.5 -188.5q0 -39 -19 -66q-12 -18 -20 -26.5t-17 -11.5q-22 -9 -54 -12t-81 -3q-67 0 -111.5 34.5zM173.5 127.5q17.5 -11.5 59.5 -11.5q73 0 106 8q-4 47 -23.5 90
t-75.5 84q-32 -30 -58 -72.5t-26 -64.5t17.5 -33.5z" />
    <glyph glyph-name="uni0648" unicode="&#x648;" horiz-adv-x="462" 
d="M302 8q-36 -8 -96 -8q-51 0 -77.5 8t-46.5 35q-13 19 -18 32.5t-5 36.5q0 60 18.5 118t57.5 97t99 39q57 0 94.5 -40t54.5 -102.5t17 -131.5q0 -120 -77 -216.5t-220 -153.5l-60 93q210 75 259 193zM222 101q59 0 96 9q0 77 -24.5 116t-67.5 39q-39 0 -63.5 -42
t-24.5 -110q31 -12 84 -12z" />
    <glyph glyph-name="uni0649" unicode="&#x649;" horiz-adv-x="739" 
d="M129.5 -177.5q-58.5 48.5 -58.5 145.5q0 20 7 68.5t17 112.5l21 131l75 -16q-37 -222 -37 -280q0 -47 46 -67.5t117 -20.5q92 0 154.5 13t100.5 46q8 22 8 39q0 45 -43 51l-20 2q-64 7 -93.5 13t-47 21.5t-17.5 47.5q0 78 29 156t77 128.5t101 50.5q76 0 137 -98l-52 -56
q-45 45 -84 45q-47 0 -80.5 -53.5t-42.5 -130.5q81 -8 123.5 -20t67 -46t24.5 -102q0 -118 -97 -173.5t-245 -55.5q-129 0 -187.5 48.5z" />
    <glyph glyph-name="uni064A" unicode="&#x64a;" horiz-adv-x="739" 
d="M129.5 -177.5q-58.5 48.5 -58.5 145.5q0 20 7 68.5t17 112.5l21 131l75 -16q-37 -222 -37 -280q0 -47 46 -67.5t117 -20.5q92 0 154.5 13t100.5 46q8 22 8 39q0 45 -43 51l-20 2q-64 7 -93.5 13t-47 21.5t-17.5 47.5q0 78 29 156t77 128.5t101 50.5q76 0 137 -98l-52 -56
q-45 45 -84 45q-47 0 -80.5 -53.5t-42.5 -130.5q81 -8 123.5 -20t67 -46t24.5 -102q0 -118 -97 -173.5t-245 -55.5q-129 0 -187.5 48.5zM174 -408l63 79l84 -66l-64 -79zM377 -329l83 -66l-63 -79l-84 66z" />
    <glyph glyph-name="uni064B" unicode="&#x64b;" horiz-adv-x="0" 
d="M-117 56l242 68v-56l-242 -68v56zM-117 163l242 68v-56l-242 -68v56z" />
    <glyph glyph-name="uni064C" unicode="&#x64c;" horiz-adv-x="0" 
d="M-117 48q-16 32 -16 62q0 17 6.5 43t15.5 58l47 -15q-20 -61 -20 -86q0 -19 14 -41l47 12q-18 4 -18 29q0 15 8.5 41.5t28 47.5t48.5 21q36 0 58.5 -32t22.5 -75q0 -30 -14 -42t-49 -21l-179 -50v48zM40 101q22 0 40 6q0 32 -9.5 48t-27.5 16q-17 0 -26.5 -18t-11.5 -47
q13 -5 35 -5z" />
    <glyph glyph-name="uni064D" unicode="&#x64d;" horiz-adv-x="0" 
d="M-117 -40l242 68v-56l-242 -68v56zM-117 -146l242 68v-56l-242 -68v56z" />
    <glyph glyph-name="uni064E" unicode="&#x64e;" horiz-adv-x="0" 
d="M-117 56l242 68v-56l-242 -68v56z" />
    <glyph glyph-name="uni064F" unicode="&#x64f;" horiz-adv-x="0" 
d="M-117 56l94 25q-18 4 -18 29q0 15 8.5 41.5t28 47.5t48.5 21q36 0 58.5 -32t22.5 -75q0 -30 -14 -42t-49 -21l-179 -50v56zM40 101q22 0 40 6q0 32 -9.5 48t-27.5 16q-17 0 -26.5 -18t-11.5 -47q13 -5 35 -5z" />
    <glyph glyph-name="uni0650" unicode="&#x650;" horiz-adv-x="0" 
d="M-117 -40l242 68v-56l-242 -68v56z" />
    <glyph glyph-name="uni0651" unicode="&#x651;" horiz-adv-x="0" 
d="M-83 61q0 -19 20 -19q10 0 22.5 5.5t21.5 14.5v53l38 7v-43q0 -19 20 -19q11 0 24 6t19 12q0 30 -8 72l43 20q8 -40 8 -83q0 -36 -26.5 -57.5t-61.5 -21.5q-23 0 -34 15q-13 -15 -33.5 -25t-41.5 -10q-24 0 -38.5 13t-14.5 37t5 59l41 8q-4 -30 -4 -44z" />
    <glyph glyph-name="uni0652" unicode="&#x652;" horiz-adv-x="0" 
d="M-81 98q0 33 23.5 55.5t58.5 22.5q25 0 45 -14.5t30 -41.5q4 -12 4 -28q0 -27 -14 -47t-42 -29l-33 -10q-12 -4 -24 -4q-31 0 -41 36l82 26q24 8 24 27q0 32 -28 32q-15 0 -25 -7.5t-10 -19.5q0 -8 2 -12l-47 -15q-5 17 -5 29z" />
    <glyph glyph-name="uni0653" unicode="&#x653;" horiz-adv-x="0" 
d="M-11 53q-32 4 -40 4q-19 0 -27.5 -8.5t-16.5 -37.5l-66 17q18 64 41 87.5t67 23.5q20 0 55 -5q60 -8 109 -8h52l-17 -82h-45q-51 0 -112 9z" />
    <glyph glyph-name="uni0654" unicode="&#x654;" horiz-adv-x="0" 
d="M-123 55l76 21q-24 47 -24 80t25.5 51.5t69.5 18.5q29 0 47 -6v-53q-33 6 -59 6q-25 0 -38 -7q0 -15 8.5 -36t21.5 -39l115 32v-56l-242 -68v56z" />
    <glyph glyph-name="uni0655" unicode="&#x655;" horiz-adv-x="0" 
d="M-117 -116l76 21q-24 47 -24 80t25.5 51.5t69.5 18.5q29 0 47 -6v-53q-33 6 -59 6q-25 0 -38 -7q0 -15 8.5 -36t21.5 -39l115 32v-56l-242 -68v56z" />
    <glyph glyph-name="uni0656" unicode="&#x656;" horiz-adv-x="0" 
d="M-23 -1l47 8l-4 -139h-37z" />
    <glyph glyph-name="uni0658" unicode="&#x658;" horiz-adv-x="0" 
d="M-83.5 14.5q-27.5 19.5 -27.5 53.5q0 12 11 69l9 46h49q-6 -26 -12 -60.5t-6 -44.5q0 -14 12 -20.5t40 -6.5q42 0 64 13l-12 133l54 10l7 -139q2 -33 -30 -53t-86 -20q-45 0 -72.5 19.5z" />
    <glyph glyph-name="uni065A" unicode="&#x65a;" horiz-adv-x="0" 
d="M-61 93.5q-20 41.5 -48 85.5l47 23q42 -71 62 -129q20 59 66 129l43 -31q-51 -75 -82 -165l-50 -6q-18 52 -38 93.5z" />
    <glyph glyph-name="uni0660" unicode="&#x660;" horiz-adv-x="320" 
d="M60 203l87 106l113 -90l-87 -106z" />
    <glyph glyph-name="uni0661" unicode="&#x661;" horiz-adv-x="256" 
d="M195 0l-82 -7q0 182 -15.5 358t-47.5 309l94 20q51 -258 51 -680z" />
    <glyph glyph-name="uni0662" unicode="&#x662;" horiz-adv-x="516" 
d="M230 344q-26 7 -47 20q12 -156 12 -364l-82 -7q0 182 -15.5 358t-47.5 309l94 20q9 -42 27 -149l4 -22q5 -27 26.5 -38.5t68.5 -11.5q80 0 112 24l-20 182l90 15l10 -197q3 -74 -49.5 -110t-132.5 -36q-24 0 -50 7z" />
    <glyph glyph-name="uni0663" unicode="&#x663;" horiz-adv-x="679" 
d="M184 362q11 -161 11 -362l-82 -7q0 182 -15.5 358t-47.5 309l94 20l8 -42l5 -28l18 -101q6 -27 26 -38.5t53 -11.5q35 0 71 15l-6 184l84 7l4 -197q23 -9 54 -9q58 0 84 24l-20 182l90 15l10 -197q2 -46 -21 -79t-59.5 -50t-73.5 -17q-75 0 -101 33q-19 -18 -49 -25.5
t-58 -7.5q-47 0 -79 25z" />
    <glyph glyph-name="uni0664" unicode="&#x664;" horiz-adv-x="482" 
d="M103 47q-56 47 -56 128q0 60 32 109.5t99 82.5q-60 22 -90.5 61.5t-30.5 100.5q0 81 58.5 116t147.5 35q48 0 101 -10l1 -103q-56 8 -100 8q-80 0 -121 -35q2 -67 42.5 -97.5t140.5 -31.5v-90q-136 -23 -198 -118q10 -44 41.5 -63t95.5 -19q39 0 74 3.5t83 11.5l-5 -118
q-47 -10 -82 -14t-76 -4q-101 0 -157 47z" />
    <glyph glyph-name="uni0665" unicode="&#x665;" horiz-adv-x="614" 
d="M70 169q0 72 37.5 163t92.5 154.5t103 63.5q60 0 116 -63t91 -156t35 -175q0 -72 -63 -115t-180 -43q-232 0 -232 171zM190.5 135.5q36.5 -16.5 115.5 -16.5q111 0 163 32q-1 56 -29.5 125t-67.5 117.5t-66 48.5q-22 0 -59 -43.5t-65 -102.5t-28 -103q0 -41 36.5 -57.5z
" />
    <glyph glyph-name="uni0666" unicode="&#x666;" horiz-adv-x="507" 
d="M327.5 179.5q-7.5 90.5 -7.5 198.5l1 142q-30 -5 -111 -5q-75 0 -155 15l-8 119q96 -15 189 -15q113 0 170 5v-59q0 -190 7.5 -315t33.5 -257l-90 -25q-22 106 -29.5 196.5z" />
    <glyph glyph-name="uni0667" unicode="&#x667;" horiz-adv-x="586" 
d="M227.5 208.5q-22.5 103.5 -68.5 213t-113 200.5l75 58q63 -89 109.5 -202t61.5 -230q20 129 66.5 239t111.5 193l70 -66q-69 -90 -116.5 -200.5t-70.5 -212t-23 -170.5v-31l-80 -7v35q0 77 -22.5 180.5z" />
    <glyph glyph-name="uni0668" unicode="&#x668;" horiz-adv-x="586" 
d="M358.5 464.5q22.5 -103.5 68.5 -213t113 -200.5l-75 -58q-63 89 -109.5 202t-61.5 230q-20 -129 -66.5 -239t-111.5 -193l-70 66q69 90 116.5 200.5t70.5 212t23 170.5v31l80 7v-35q0 -77 22.5 -180.5z" />
    <glyph glyph-name="uni0669" unicode="&#x669;" horiz-adv-x="538" 
d="M363 133q-5 77 -5 129v13q-70 -17 -122 -17q-64 0 -100.5 10t-55.5 38q-20 31 -20 71q0 68 17 137t58.5 117.5t110.5 48.5q98 0 146 -81.5t48 -210.5q0 -211 27 -380l-90 -25q-9 73 -14 150zM239 380q68 0 119 12q0 95 -26.5 138.5t-85.5 43.5q-55 0 -81.5 -47.5
t-26.5 -134.5q33 -12 101 -12z" />
    <glyph glyph-name="uni066A" unicode="&#x66a;" horiz-adv-x="756" 
d="M124 0l407 710h104l-407 -710h-104zM88 651.5q19 33.5 52 53t74 19.5t75 -19.5t53 -53t19 -74.5q0 -62 -42 -103.5t-105 -41.5q-62 0 -103.5 41.5t-41.5 103.5q0 41 19 74.5zM162 526.5q21 -20.5 52 -20.5q32 0 53 20.5t21 50.5q0 31 -21.5 51.5t-52.5 20.5
q-30 0 -51.5 -21t-21.5 -51t21 -50.5zM415 205.5q19 33.5 52 52.5t74 19t74.5 -19t53 -52.5t19.5 -74.5t-19.5 -74.5t-53 -52.5t-74.5 -19t-74 19t-52 52.5t-19 74.5t19 74.5zM489 80.5q21 -20.5 52 -20.5q32 0 53 20.5t21 50.5q0 31 -21.5 51.5t-52.5 20.5q-30 0 -51.5 -21
t-21.5 -51t21 -50.5z" />
    <glyph glyph-name="uni066B" unicode="&#x66b;" horiz-adv-x="310" 
d="M0 -216l232 394l78 -44l-233 -394z" />
    <glyph glyph-name="uni066C" unicode="&#x66c;" horiz-adv-x="300" 
d="M200.5 138q21.5 -25 21.5 -69q0 -48 -24 -106.5t-60 -103.5l-48 50q49 60 63 108q-10 -2 -13 -2q-30 0 -52 21.5t-22 52.5t21.5 52.5t52.5 21.5q39 0 60.5 -25z" />
    <glyph glyph-name="uni066D" unicode="&#x66d;" horiz-adv-x="581" 
d="M125 398l118 -40l-3 125h101l-3 -125l118 40l31 -92l-120 -38l74 -98l-79 -58l-72 102l-71 -102l-80 58l74 98l-119 38z" />
    <glyph glyph-name="uni066E" unicode="&#x66e;" horiz-adv-x="858" 
d="M225.5 10.5q-72.5 15.5 -113.5 57t-41 116.5q0 21 7 69t23 138l75 -15q-22 -132 -22 -171q0 -35 22.5 -54t75 -27t148.5 -8q208 0 303 33l-20 226l93 16q10 -146 10 -248q0 -37 -15.5 -63t-53.5 -42q-47 -20 -126.5 -31.5t-185.5 -11.5q-107 0 -179.5 15.5z" />
    <glyph glyph-name="uni066F" unicode="&#x66f;" horiz-adv-x="756" 
d="M129.5 -177.5q-58.5 48.5 -58.5 145.5q0 20 7 68.5t17 112.5l21 131l75 -16q-37 -222 -37 -280q0 -47 46 -67.5t117 -20.5q87 0 153.5 11t124.5 37q4 25 6 84q-50 -10 -111 -10q-50 0 -76.5 8t-46.5 35q-14 19 -18.5 32t-4.5 37q0 60 18 118t57 97t99 39q57 0 94.5 -40
t55 -102.5t17.5 -131.5q0 -85 -4.5 -133t-16.5 -76.5t-35 -47.5q-43 -41 -129.5 -60t-182.5 -19q-129 0 -187.5 48.5zM506 120q35 0 56.5 2t39.5 7q0 78 -24 116.5t-68 38.5q-39 0 -63 -42t-24 -111q33 -11 83 -11z" />
    <glyph glyph-name="uni0670" unicode="&#x670;" horiz-adv-x="0" 
d="M-23 131l47 8l-4 -139h-37z" />
    <glyph glyph-name="uni0671" unicode="&#x671;" horiz-adv-x="232" 
d="M158 525l5 -525l-81 -11l-21 520zM34 581q-24 10 -24 38v30q-13 -5 -27.5 -23t-26.5 -41l-39 23q13 35 47 69.5t78 31.5v-57q0 -8 5.5 -11.5t10.5 -3.5q31 42 61 71t63 29q37 0 54 -21t17 -65q0 -16 -2 -25t-8 -15q-16 -18 -53.5 -29t-81.5 -11q-50 0 -74 10zM159 628.5
q26 3.5 53 11.5q0 24 -7 34.5t-26 10.5q-17 0 -37 -15.5t-46 -45.5q37 1 63 4.5z" />
    <glyph glyph-name="uni0679" unicode="&#x679;" horiz-adv-x="858" 
d="M225.5 10.5q-72.5 15.5 -113.5 57t-41 116.5q0 21 7 69t23 138l75 -15q-22 -132 -22 -171q0 -35 22.5 -54t75 -27t148.5 -8q208 0 303 33l-20 226l93 16q10 -146 10 -248q0 -37 -15.5 -63t-53.5 -42q-47 -20 -126.5 -31.5t-185.5 -11.5q-107 0 -179.5 15.5zM310 436l34 1
l8 12q5 8 7 20.5t2 42.5q0 36 -3 126l48 11v-119q0 -8 -2 -20q42 46 77 46q38 0 58.5 -24t20.5 -70q0 -37 -36 -58t-101 -21h-103zM438 439q51 0 79 19q-1 23 -11.5 34t-28.5 11q-28 0 -79 -64h40z" />
    <glyph glyph-name="uni067E" unicode="&#x67e;" horiz-adv-x="858" 
d="M225.5 10.5q-72.5 15.5 -113.5 57t-41 116.5q0 21 7 69t23 138l75 -15q-22 -132 -22 -171q0 -35 22.5 -54t75 -27t148.5 -8q208 0 303 33l-20 226l93 16q10 -146 10 -248q0 -37 -15.5 -63t-53.5 -42q-47 -20 -126.5 -31.5t-185.5 -11.5q-107 0 -179.5 15.5zM272 -177
l59 72l77 -61l-59 -72zM402 -231l77 -60l-59 -73l-77 61zM461 -105l77 -61l-59 -72l-77 61z" />
    <glyph glyph-name="uni0686" unicode="&#x686;" horiz-adv-x="652" 
d="M151.5 -296.5q-85.5 63.5 -85.5 196.5q0 118 79 219t248 163q-35 11 -106 41q-29 12 -55 22t-37 10q-26 0 -38.5 -16t-18.5 -49l-72 14q12 77 41.5 119.5t84.5 42.5q30 0 66.5 -13t96.5 -40q72 -33 125.5 -51.5t106.5 -20.5l-10 -118q-177 -35 -291 -107t-130 -177
q0 -91 62 -135t166 -44q99 0 217 30l-6 -120q-106 -30 -214 -30q-144 0 -229.5 63.5zM328 53l65 -51l-50 -61l-64 51zM389 -54l65 -51l-50 -61l-64 51zM441 53l64 -51l-49 -61l-65 51z" />
    <glyph glyph-name="uni0688" unicode="&#x688;" horiz-adv-x="541" 
d="M134 174q0 -28 7 -39.5t27.5 -15t70.5 -3.5q43 0 92.5 7.5t75.5 19.5q-14 131 -175 281l62 80q103 -100 149.5 -195t46.5 -177q0 -71 -72.5 -104t-181.5 -33q-70 0 -108 13t-54.5 43.5t-16.5 87.5q0 26 3 62l74 -5v-22zM133 653l34 1l8 12q5 8 7 20.5t2 42.5q0 36 -3 126
l48 11v-119q0 -8 -2 -20q42 46 77 46q38 0 58.5 -24t20.5 -70q0 -37 -36 -58t-101 -21h-103zM261 656q51 0 79 19q-1 23 -11.5 34t-28.5 11q-28 0 -79 -64h40z" />
    <glyph glyph-name="uni0691" unicode="&#x691;" horiz-adv-x="319" 
d="M164 22l-35 287l96 20q12 -117 17 -178.5t5 -103.5q0 -94 -67 -176.5t-206 -148.5l-59 93q209 95 249 207zM39 484l34 1l8 12q5 8 7 20.5t2 42.5q0 36 -3 126l48 11v-119q0 -8 -2 -20q42 46 77 46q38 0 58.5 -24t20.5 -70q0 -37 -36 -58t-101 -21h-103zM167 487
q51 0 79 19q-1 23 -11.5 34t-28.5 11q-28 0 -79 -64h40z" />
    <glyph glyph-name="uni0695" unicode="&#x695;" horiz-adv-x="319" 
d="M164 22l-35 287l96 20q12 -117 17 -178.5t5 -103.5q0 -94 -67 -176.5t-206 -148.5l-59 93q209 95 249 207zM-9 -464.5q-20 41.5 -48 85.5l47 23q42 -71 62 -129q20 59 66 129l43 -31q-51 -75 -82 -165l-50 -6q-18 52 -38 93.5z" />
    <glyph glyph-name="uni0698" unicode="&#x698;" horiz-adv-x="319" 
d="M164 22l-35 287l96 20q12 -117 17 -178.5t5 -103.5q0 -94 -67 -176.5t-206 -148.5l-59 93q209 95 249 207zM31 496l59 72l77 -61l-59 -72zM146 703l77 -60l-59 -72l-76 60zM220 568l77 -61l-59 -72l-77 61z" />
    <glyph glyph-name="uni06A1" unicode="&#x6a1;" horiz-adv-x="907" 
d="M225.5 10.5q-72.5 15.5 -113.5 57t-41 116.5q0 21 7 69t23 138l75 -15q-22 -132 -22 -171q0 -35 22.5 -54t75 -27t148.5 -8q285 0 348 22q3 16 5 62q-44 -10 -111 -10q-51 0 -77.5 8t-46.5 35q-13 19 -18 32.5t-5 36.5q0 60 18.5 118t57.5 97t99 39q57 0 94.5 -40
t54.5 -102.5t17 -131.5q0 -85 -6 -133.5t-21.5 -76t-45.5 -42.5q-41 -19 -117.5 -27t-240.5 -8q-107 0 -179.5 15.5zM658 291q59 0 96 9q0 77 -24.5 116t-67.5 39q-39 0 -63.5 -42t-24.5 -110q31 -12 84 -12z" />
    <glyph glyph-name="uni06A4" unicode="&#x6a4;" horiz-adv-x="907" 
d="M225.5 10.5q-72.5 15.5 -113.5 57t-41 116.5q0 21 7 69t23 138l75 -15q-22 -132 -22 -171q0 -35 22.5 -54t75 -27t148.5 -8q285 0 348 22q3 16 5 62q-44 -10 -111 -10q-51 0 -77.5 8t-46.5 35q-13 19 -18 32.5t-5 36.5q0 60 18.5 118t57.5 97t99 39q57 0 94.5 -40
t54.5 -102.5t17 -131.5q0 -85 -6 -133.5t-21.5 -76t-45.5 -42.5q-41 -19 -117.5 -27t-240.5 -8q-107 0 -179.5 15.5zM658 291q59 0 96 9q0 77 -24.5 116t-67.5 39q-39 0 -63.5 -42t-24.5 -110q31 -12 84 -12zM526 703l59 72l77 -61l-59 -72zM641 910l77 -60l-59 -72l-76 60z
M715 775l77 -61l-59 -72l-77 61z" />
    <glyph glyph-name="uni06A9" unicode="&#x6a9;" horiz-adv-x="863" 
d="M225.5 10.5q-72.5 15.5 -113.5 57t-41 116.5q0 21 7 69t23 138l75 -15q-22 -132 -22 -171q0 -35 22.5 -54t75 -27t148.5 -8q194 0 273 31q-13 114 -63.5 193t-161.5 147l11 88q160 77 347 135l13 -101q-118 -33 -239 -87q105 -88 145.5 -188t40.5 -207
q0 -71 -90.5 -101.5t-270.5 -30.5q-107 0 -179.5 15.5z" />
    <glyph glyph-name="uni06AA" unicode="&#x6aa;" horiz-adv-x="989" 
d="M141 8l-70 121q142 -8 232.5 -10.5t233.5 -2.5q119 0 194.5 17.5t101.5 45.5q-9 46 -60.5 65.5t-150.5 19.5q-196 0 -267.5 3.5t-98 17.5t-26.5 51q0 65 47 128t122 104t152 44l13 -107q-57 -3 -107 -21t-85.5 -45.5t-50.5 -56.5q22 -6 74.5 -7.5t166.5 -1.5
q119 0 195.5 -17.5t118 -63.5t41.5 -128q0 -42 -47 -81t-138 -63.5t-215 -24.5q-152 0 -376 13z" />
    <glyph glyph-name="uni06AF" unicode="&#x6af;" horiz-adv-x="863" 
d="M225.5 10.5q-72.5 15.5 -113.5 57t-41 116.5q0 21 7 69t23 138l75 -15q-22 -132 -22 -171q0 -35 22.5 -54t75 -27t148.5 -8q194 0 273 31q-13 114 -63.5 193t-161.5 147l11 88q160 77 347 135l13 -101q-118 -33 -239 -87q105 -88 145.5 -188t40.5 -207
q0 -71 -90.5 -101.5t-270.5 -30.5q-107 0 -179.5 15.5zM469 673l165 77l7 -46l-176 -79z" />
    <glyph glyph-name="uni06B5" unicode="&#x6b5;" horiz-adv-x="664" 
d="M128 -177.5q-57 48.5 -57 145.5q0 20 7 68.5t17 112.5l21 131l75 -16q-38 -228 -38 -280q0 -47 45 -67.5t111 -20.5q132 0 198 46l-27 752l96 16l14 -787q1 -48 -45 -81.5t-112 -50.5t-124 -17q-124 0 -181 48.5zM138 470.5q-20 41.5 -48 85.5l47 23q42 -71 62 -129
q20 59 66 129l43 -31q-51 -75 -82 -165l-50 -6q-18 52 -38 93.5z" />
    <glyph glyph-name="uni06BA" unicode="&#x6ba;" horiz-adv-x="697" 
d="M130 -178.5q-59 47.5 -59 142.5q0 31 9.5 95t35.5 221l75 -16q-38 -228 -38 -280q0 -48 45.5 -68t118.5 -20q159 0 229 46l-38 378l93 19q28 -301 28 -416q0 -49 -47.5 -82.5t-119.5 -50t-145 -16.5q-128 0 -187 47.5z" />
    <glyph glyph-name="uni06BE" unicode="&#x6be;" horiz-adv-x="690" 
d="M165 99.5q46 13.5 78 27.5q-40 9 -66.5 33.5t-26.5 57.5q0 38 19.5 75.5t51.5 76.5l-47 22l42 91l271 -121q70 -31 102.5 -76.5t32.5 -110.5q0 -68 -25 -121q-11 -24 -41 -44q-24 -17 -41 -17q-9 0 -14 2l-152 59q-44 -40 -115.5 -64.5t-145.5 -30.5l-16 121
q47 6 93 19.5zM258 186.5q29 -15.5 76 -19.5l52 129l-95 41q-62 -67 -62 -109q0 -26 29 -41.5zM524 93q10 15 16 34t6 35q0 33 -21.5 59.5t-74.5 46.5l-53 -126z" />
    <glyph glyph-name="uni06C0" unicode="&#x6c0;" horiz-adv-x="470" 
d="M115.5 29.5q-44.5 34.5 -44.5 102.5q0 49 28.5 100.5t79.5 111.5l-43 30l54 83q109 -68 168.5 -154.5t59.5 -188.5q0 -39 -19 -66q-12 -18 -20 -26.5t-17 -11.5q-22 -9 -54 -12t-81 -3q-67 0 -111.5 34.5zM173.5 127.5q17.5 -11.5 59.5 -11.5q73 0 106 8q-4 47 -23.5 90
t-75.5 84q-32 -30 -58 -72.5t-26 -64.5t17.5 -33.5zM223.5 613q39.5 10 55.5 29q0 17 -15 23.5t-48 12.5q-34 6 -51.5 14t-17.5 28q0 28 15.5 69.5t41.5 72.5t58 31q24 0 42.5 -14t38.5 -44l-33 -31q-24 27 -48 27t-41 -26.5t-24 -61.5q48 -4 75 -12t41 -26.5t14 -54.5
q0 -54 -55 -85.5t-150 -31.5l6 70q56 0 95.5 10z" />
    <glyph glyph-name="uni06C1" unicode="&#x6c1;" horiz-adv-x="470" 
d="M115.5 29.5q-44.5 34.5 -44.5 102.5q0 49 28.5 100.5t79.5 111.5l-43 30l54 83q109 -68 168.5 -154.5t59.5 -188.5q0 -39 -19 -66q-12 -18 -20 -26.5t-17 -11.5q-22 -9 -54 -12t-81 -3q-67 0 -111.5 34.5zM173.5 127.5q17.5 -11.5 59.5 -11.5q73 0 106 8q-4 47 -23.5 90
t-75.5 84q-32 -30 -58 -72.5t-26 -64.5t17.5 -33.5z" />
    <glyph glyph-name="uni06C2" unicode="&#x6c2;" horiz-adv-x="470" 
d="M115.5 29.5q-44.5 34.5 -44.5 102.5q0 49 28.5 100.5t79.5 111.5l-43 30l54 83q109 -68 168.5 -154.5t59.5 -188.5q0 -39 -19 -66q-12 -18 -20 -26.5t-17 -11.5q-22 -9 -54 -12t-81 -3q-67 0 -111.5 34.5zM173.5 127.5q17.5 -11.5 59.5 -11.5q73 0 106 8q-4 47 -23.5 90
t-75.5 84q-32 -30 -58 -72.5t-26 -64.5t17.5 -33.5zM112 579l76 21q-24 47 -24 80t25.5 51.5t69.5 18.5q29 0 47 -6v-53q-33 6 -59 6q-25 0 -38 -7q0 -15 8.5 -36t21.5 -39l115 32v-56l-242 -68v56z" />
    <glyph glyph-name="uni06C3" unicode="&#x6c3;" horiz-adv-x="470" 
d="M115.5 29.5q-44.5 34.5 -44.5 102.5q0 49 28.5 100.5t79.5 111.5l-43 30l54 83q109 -68 168.5 -154.5t59.5 -188.5q0 -39 -19 -66q-12 -18 -20 -26.5t-17 -11.5q-22 -9 -54 -12t-81 -3q-67 0 -111.5 34.5zM173.5 127.5q17.5 -11.5 59.5 -11.5q73 0 106 8q-4 47 -23.5 90
t-75.5 84q-32 -30 -58 -72.5t-26 -64.5t17.5 -33.5zM92 602l63 79l84 -66l-64 -79zM295 681l83 -66l-63 -79l-84 66z" />
    <glyph glyph-name="uni06C6" unicode="&#x6c6;" horiz-adv-x="462" 
d="M302 8q-36 -8 -96 -8q-51 0 -77.5 8t-46.5 35q-13 19 -18 32.5t-5 36.5q0 60 18.5 118t57.5 97t99 39q57 0 94.5 -40t54.5 -102.5t17 -131.5q0 -120 -77 -216.5t-220 -153.5l-60 93q210 75 259 193zM222 101q59 0 96 9q0 77 -24.5 116t-67.5 39q-39 0 -63.5 -42
t-24.5 -110q31 -12 84 -12zM173 558.5q-20 41.5 -48 85.5l47 23q42 -71 62 -129q20 59 66 129l43 -31q-51 -75 -82 -165l-50 -6q-18 52 -38 93.5z" />
    <glyph glyph-name="uni06C7" unicode="&#x6c7;" horiz-adv-x="462" 
d="M302 8q-36 -8 -96 -8q-51 0 -77.5 8t-46.5 35q-13 19 -18 32.5t-5 36.5q0 60 18.5 118t57.5 97t99 39q57 0 94.5 -40t54.5 -102.5t17 -131.5q0 -120 -77 -216.5t-220 -153.5l-60 93q210 75 259 193zM222 101q59 0 96 9q0 77 -24.5 116t-67.5 39q-39 0 -63.5 -42
t-24.5 -110q31 -12 84 -12zM117 504l94 25q-18 4 -18 29q0 15 8.5 41.5t28 47.5t48.5 21q36 0 58.5 -32t22.5 -75q0 -30 -14 -42t-49 -21l-179 -50v56zM274 549q22 0 40 6q0 32 -9.5 48t-27.5 16q-17 0 -26.5 -18t-11.5 -47q13 -5 35 -5z" />
    <glyph glyph-name="uni06CC" unicode="&#x6cc;" horiz-adv-x="739" 
d="M129.5 -177.5q-58.5 48.5 -58.5 145.5q0 20 7 68.5t17 112.5l21 131l75 -16q-37 -222 -37 -280q0 -47 46 -67.5t117 -20.5q92 0 154.5 13t100.5 46q8 22 8 39q0 45 -43 51l-20 2q-64 7 -93.5 13t-47 21.5t-17.5 47.5q0 78 29 156t77 128.5t101 50.5q76 0 137 -98l-52 -56
q-45 45 -84 45q-47 0 -80.5 -53.5t-42.5 -130.5q81 -8 123.5 -20t67 -46t24.5 -102q0 -118 -97 -173.5t-245 -55.5q-129 0 -187.5 48.5z" />
    <glyph glyph-name="uni06CE" unicode="&#x6ce;" horiz-adv-x="739" 
d="M129.5 -177.5q-58.5 48.5 -58.5 145.5q0 20 7 68.5t17 112.5l21 131l75 -16q-37 -222 -37 -280q0 -47 46 -67.5t117 -20.5q92 0 154.5 13t100.5 46q8 22 8 39q0 45 -43 51l-20 2q-64 7 -93.5 13t-47 21.5t-17.5 47.5q0 78 29 156t77 128.5t101 50.5q76 0 137 -98l-52 -56
q-45 45 -84 45q-47 0 -80.5 -53.5t-42.5 -130.5q81 -8 123.5 -20t67 -46t24.5 -102q0 -118 -97 -173.5t-245 -55.5q-129 0 -187.5 48.5zM172 477.5q-20 41.5 -48 85.5l47 23q42 -71 62 -129q20 59 66 129l43 -31q-51 -75 -82 -165l-50 -6q-18 52 -38 93.5z" />
    <glyph glyph-name="uni06D2" unicode="&#x6d2;" horiz-adv-x="703" 
d="M139.5 36.5q-68.5 36.5 -68.5 110.5q0 55 37.5 127t89 124t90.5 52q38 0 71.5 -24t65.5 -73l-52 -57q-46 46 -84 46q-18 0 -48 -27t-55.5 -66t-31.5 -75q31 -33 77 -43t134 -10q65 0 207 9l69 4l-26 -121q-173 -13 -275 -13q-132 0 -200.5 36.5z" />
    <glyph glyph-name="uni06D3" unicode="&#x6d3;" horiz-adv-x="703" 
d="M139.5 36.5q-68.5 36.5 -68.5 110.5q0 55 37.5 127t89 124t90.5 52q38 0 71.5 -24t65.5 -73l-52 -57q-46 46 -84 46q-18 0 -48 -27t-55.5 -66t-31.5 -75q31 -33 77 -43t134 -10q65 0 207 9l69 4l-26 -121q-173 -13 -275 -13q-132 0 -200.5 36.5zM165 579l76 21
q-24 47 -24 80t25.5 51.5t69.5 18.5q29 0 47 -6v-53q-33 6 -59 6q-25 0 -38 -7q0 -15 8.5 -36t21.5 -39l115 32v-56l-242 -68v56z" />
    <glyph glyph-name="uni06D4" unicode="&#x6d4;" horiz-adv-x="420" 
d="M346 167l-24 -122h-247l23 122h248z" />
    <glyph glyph-name="uni06D5" unicode="&#x6d5;" horiz-adv-x="470" 
d="M115.5 29.5q-44.5 34.5 -44.5 102.5q0 49 28.5 100.5t79.5 111.5l-43 30l54 83q109 -68 168.5 -154.5t59.5 -188.5q0 -39 -19 -66q-12 -18 -20 -26.5t-17 -11.5q-22 -9 -54 -12t-81 -3q-67 0 -111.5 34.5zM173.5 127.5q17.5 -11.5 59.5 -11.5q73 0 106 8q-4 47 -23.5 90
t-75.5 84q-32 -30 -58 -72.5t-26 -64.5t17.5 -33.5z" />
    <glyph glyph-name="uni06F0" unicode="&#x6f0;" horiz-adv-x="485" 
d="M149.5 84q-41.5 24 -65.5 65.5t-24 92.5t24 93t65.5 66t92.5 24t93 -24t66 -66t24 -93t-24 -92.5t-66 -65.5t-93 -24t-92.5 24zM176.5 178.5q26.5 -25.5 65.5 -25.5q40 0 66 25.5t26 63.5t-27 64t-65 26t-65 -26t-27 -64t26.5 -63.5z" />
    <glyph glyph-name="uni06F1" unicode="&#x6f1;" horiz-adv-x="256" 
d="M195 0l-82 -7q0 182 -15.5 358t-47.5 309l94 20q51 -258 51 -680z" />
    <glyph glyph-name="uni06F2" unicode="&#x6f2;" horiz-adv-x="516" 
d="M230 344q-26 7 -47 20q12 -156 12 -364l-82 -7q0 182 -15.5 358t-47.5 309l94 20q9 -42 27 -149l4 -22q5 -27 26.5 -38.5t68.5 -11.5q80 0 112 24l-20 182l90 15l10 -197q3 -74 -49.5 -110t-132.5 -36q-24 0 -50 7z" />
    <glyph glyph-name="uni06F3" unicode="&#x6f3;" horiz-adv-x="679" 
d="M184 362q11 -161 11 -362l-82 -7q0 182 -15.5 358t-47.5 309l94 20l8 -42l5 -28l18 -101q6 -27 26 -38.5t53 -11.5q35 0 71 15l-6 184l84 7l4 -197q23 -9 54 -9q58 0 84 24l-20 182l90 15l10 -197q2 -46 -21 -79t-59.5 -50t-73.5 -17q-75 0 -101 33q-19 -18 -49 -25.5
t-58 -7.5q-47 0 -79 25z" />
    <glyph glyph-name="uni06F4" unicode="&#x6f4;" horiz-adv-x="622" 
d="M185 303q10 -136 10 -303l-82 -7q0 186 -15.5 336t-52.5 290l92 20q23 -101 37 -215q18 -15 39.5 -19.5t52.5 -3.5q-31 58 -31 137q0 69 48.5 105.5t121.5 36.5q44 0 107 -17l-23 -96q-54 10 -93 10q-19 0 -40 -4.5t-37 -12.5q0 -42 9 -82t25 -71q56 4 104.5 13.5
t105.5 26.5l5 -111q-114 -31 -171 -42t-118 -11q-52 0 -94 20z" />
    <glyph glyph-name="uni06F5" unicode="&#x6f5;" horiz-adv-x="610" 
d="M86 32q-40 37 -40 107q0 94 59 208t147 213q-12 12 -27 24q1 -1 -22 19l68 83q145 -121 219 -264t74 -290q0 -48 -22 -78.5t-55 -44.5t-68 -14q-40 0 -66.5 11.5t-43.5 42.5q-19 -26 -51.5 -40t-70.5 -14q-61 0 -101 37zM158.5 130q18.5 -14 48.5 -14q19 0 36.5 6
t28.5 17l-2 69l74 5l3 -82q21 -15 61 -15q52 0 71 24q-3 110 -43.5 198t-121.5 167q-85 -105 -129.5 -186.5t-44.5 -146.5q0 -28 18.5 -42z" />
    <glyph glyph-name="uni06F6" unicode="&#x6f6;" horiz-adv-x="552" 
d="M243 308q-70 22 -106.5 74t-36.5 126q0 50 22.5 89t63.5 61t93 22q49 0 112 -23l-21 -88q-51 10 -91 10q-31 0 -59 -10.5t-42 -31.5q0 -71 41 -106.5t142 -36.5l111 57l25 -100q-88 -39 -150.5 -86t-116.5 -112.5t-121 -169.5l-59 53q99 178 193 272z" />
    <glyph glyph-name="uni06F7" unicode="&#x6f7;" horiz-adv-x="586" 
d="M227.5 208.5q-22.5 103.5 -68.5 213t-113 200.5l75 58q63 -89 109.5 -202t61.5 -230q20 129 66.5 239t111.5 193l70 -66q-69 -90 -116.5 -200.5t-70.5 -212t-23 -170.5v-31l-80 -7v35q0 77 -22.5 180.5z" />
    <glyph glyph-name="uni06F8" unicode="&#x6f8;" horiz-adv-x="586" 
d="M358.5 464.5q22.5 -103.5 68.5 -213t113 -200.5l-75 -58q-63 89 -109.5 202t-61.5 230q-20 -129 -66.5 -239t-111.5 -193l-70 66q69 90 116.5 200.5t70.5 212t23 170.5v31l80 7v-35q0 -77 22.5 -180.5z" />
    <glyph glyph-name="uni06F9" unicode="&#x6f9;" horiz-adv-x="538" 
d="M363 133q-5 77 -5 129v13q-70 -17 -122 -17q-64 0 -100.5 10t-55.5 38q-20 31 -20 71q0 68 17 137t58.5 117.5t110.5 48.5q98 0 146 -81.5t48 -210.5q0 -211 27 -380l-90 -25q-9 73 -14 150zM239 380q68 0 119 12q0 95 -26.5 138.5t-85.5 43.5q-55 0 -81.5 -47.5
t-26.5 -134.5q33 -12 101 -12z" />
    <glyph glyph-name="uni0756" unicode="&#x756;" horiz-adv-x="858" 
d="M225.5 10.5q-72.5 15.5 -113.5 57t-41 116.5q0 21 7 69t23 138l75 -15q-22 -132 -22 -171q0 -35 22.5 -54t75 -27t148.5 -8q208 0 303 33l-20 226l93 16q10 -146 10 -248q0 -37 -15.5 -63t-53.5 -42q-47 -20 -126.5 -31.5t-185.5 -11.5q-107 0 -179.5 15.5zM374 476.5
q-20 41.5 -48 85.5l47 23q42 -71 62 -129q20 59 66 129l43 -31q-51 -75 -82 -165l-50 -6q-18 52 -38 93.5z" />
    <glyph glyph-name="uni0769" unicode="&#x769;" horiz-adv-x="697" 
d="M130 -178.5q-59 47.5 -59 142.5q0 31 9.5 95t35.5 221l75 -16q-38 -228 -38 -280q0 -48 45.5 -68t118.5 -20q159 0 229 46l-38 378l93 19q28 -301 28 -416q0 -49 -47.5 -82.5t-119.5 -50t-145 -16.5q-128 0 -187 47.5zM264 445l67 82l87 -69l-67 -82zM280 695.5
q-20 41.5 -48 85.5l47 23q42 -71 62 -129q20 59 66 129l43 -31q-51 -75 -82 -165l-50 -6q-18 52 -38 93.5z" />
    <glyph glyph-name="uni08A0" unicode="&#x8a0;" horiz-adv-x="858" 
d="M225.5 10.5q-72.5 15.5 -113.5 57t-41 116.5q0 21 7 69t23 138l75 -15q-22 -132 -22 -171q0 -35 22.5 -54t75 -27t148.5 -8q208 0 303 33l-20 226l93 16q10 -146 10 -248q0 -37 -15.5 -63t-53.5 -42q-47 -20 -126.5 -31.5t-185.5 -11.5q-107 0 -179.5 15.5zM344 -209.5
q-20 41.5 -48 85.5l47 23q42 -71 62 -129q20 59 66 129l43 -31q-51 -75 -82 -165l-50 -6q-18 52 -38 93.5z" />
    <glyph glyph-name="uni200B" unicode="&#x200b;" horiz-adv-x="0" 
 />
    <glyph glyph-name="uni200C" unicode="&#x200c;" horiz-adv-x="0" 
d="M2 679h34v-695h-34v695z" />
    <glyph glyph-name="uni200D" unicode="&#x200d;" horiz-adv-x="0" 
d="M-16 613l-75 -75l-22 23l88 88l-77 78l24 23l77 -77l81 82l23 -24l-81 -81l93 -93l-23 -24l-74 74v-623h-34v629z" />
    <glyph glyph-name="uni200E" unicode="&#x200e;" horiz-adv-x="0" 
d="M-18 659h175l-71 68l21 22l109 -107l-109 -107l-21 22l71 68h-141v-641h-34v675z" />
    <glyph glyph-name="uni200F" unicode="&#x200f;" horiz-adv-x="0" 
d="M-18 625h-141l71 -68l-21 -22l-109 107l109 107l21 -22l-71 -68h175v-675h-34v641z" />
    <glyph glyph-name="endash" unicode="&#x2013;" horiz-adv-x="522" 
d="M45 232v75h434v-75h-434z" />
    <glyph glyph-name="emdash" unicode="&#x2014;" horiz-adv-x="873" 
d="M45 232v75h784v-75h-784z" />
    <glyph glyph-name="quoteleft" unicode="&#x2018;" horiz-adv-x="290" 
d="M85 470.5q-20 28.5 -20 81.5q0 130 124 197l28 -51q-43 -25 -63.5 -55t-20.5 -73q3 1 10 1q27 0 46 -16.5t19 -44.5q0 -31 -18 -49.5t-47 -18.5q-38 0 -58 28.5z" />
    <glyph glyph-name="quoteright" unicode="&#x2019;" horiz-adv-x="290" 
d="M138 554.5q20 29.5 20 72.5q-2 -1 -8 -1q-28 0 -46.5 16.5t-18.5 44.5q0 32 18 51t47 19q37 0 57 -29t20 -82q0 -131 -125 -197l-27 51q43 25 63 54.5z" />
    <glyph glyph-name="quotesinglbase" unicode="&#x201a;" horiz-adv-x="297" 
d="M130.5 -59q26.5 32 25.5 72q-2 -1 -9 -1q-31 0 -52.5 19.5t-21.5 51.5t22 51.5t55 19.5q40 0 62.5 -31.5t22.5 -86.5q0 -74 -40.5 -128t-115.5 -81l-25 62q50 20 76.5 52z" />
    <glyph glyph-name="quotedblleft" unicode="&#x201c;" horiz-adv-x="498" 
d="M90 470.5q-20 28.5 -20 81.5q0 131 125 197l27 -51q-43 -25 -63.5 -55t-20.5 -73q3 1 10 1q27 0 46 -16.5t19 -44.5q0 -32 -18 -50t-47 -18q-38 0 -58 28.5zM395 749l27 -51q-43 -25 -63 -55t-20 -73q2 1 10 1q27 0 45.5 -16.5t18.5 -44.5q0 -32 -18 -50t-46 -18
q-38 0 -58.5 28.5t-20.5 81.5q0 131 125 197z" />
    <glyph glyph-name="quotedblright" unicode="&#x201d;" horiz-adv-x="499" 
d="M141 554.5q20 29.5 20 72.5q-2 -1 -8 -1q-27 0 -46 16.5t-19 44.5q0 32 18 51t47 19q37 0 57.5 -29t20.5 -82q0 -130 -125 -197l-28 51q43 25 63 54.5zM341 554.5q20 29.5 20 72.5q-2 -1 -8 -1q-27 0 -46 16.5t-19 44.5q0 32 18 51t47 19q37 0 57.5 -29t20.5 -82
q0 -130 -125 -197l-28 51q43 25 63 54.5z" />
    <glyph glyph-name="quotedblbase" unicode="&#x201e;" horiz-adv-x="291" 
d="M130.5 -59q26.5 32 25.5 72q-2 -1 -9 -1q-31 0 -52.5 19.5t-21.5 51.5t22 51.5t55 19.5q40 0 62.5 -31.5t22.5 -86.5q0 -74 -40.5 -128t-115.5 -81l-25 62q50 20 76.5 52z" />
    <glyph glyph-name="dagger" unicode="&#x2020;" horiz-adv-x="517" 
d="M214 -83l7 603l-164 -7v93l164 -8l-7 181h91l-7 -181l164 8v-93l-164 7l7 -603h-91z" />
    <glyph glyph-name="daggerdbl" unicode="&#x2021;" horiz-adv-x="517" 
d="M214 -83l7 179l-164 -6v92l164 -9l-7 174l7 176l-164 -10v93l164 -8l-7 181h91l-7 -181l164 8v-93l-164 10l7 -176l-7 -174l164 9v-92l-164 6l7 -179h-91z" />
    <glyph glyph-name="bullet" unicode="&#x2022;" horiz-adv-x="347" 
d="M87 191q-36 38 -36 94q0 28 9.5 52.5t26.5 42.5q38 36 87 36q24 0 47 -9.5t41 -26.5q16 -18 25.5 -42.5t9.5 -52.5q0 -56 -35 -94q-17 -18 -40 -27.5t-48 -9.5q-52 0 -87 37z" />
    <glyph glyph-name="ellipsis" unicode="&#x2026;" horiz-adv-x="657" 
d="M464.5 13q-22.5 22 -22.5 55q0 32 22.5 54t54.5 22t54 -22t22 -54q0 -33 -22 -55t-54 -22t-54.5 22zM87.5 122q22.5 22 54.5 22q33 0 54.5 -22t21.5 -55q0 -32 -22 -54t-54 -22t-54.5 21.5t-22.5 54.5t22.5 55zM275 122q22 22 55 22q32 0 54 -22t22 -55q0 -32 -22 -54
t-54 -22q-33 0 -55 21.5t-22 54.5t22 55z" />
    <glyph glyph-name="perthousand" unicode="&#x2030;" horiz-adv-x="1304" 
d="M609 727h73l-390 -738h-73zM80 652q43 59 119 59q77 0 120 -60t43 -158t-43.5 -159.5t-119.5 -61.5t-119 60.5t-43 160.5t43 159zM135.5 377.5q21.5 -43.5 63.5 -43.5q43 0 64 44t21 115t-21 114t-64 43t-64 -42.5t-21 -114.5t21.5 -115.5zM580.5 369q42.5 59 119.5 59
t120 -59.5t43 -158.5q0 -100 -43 -160.5t-120 -60.5t-119.5 60t-42.5 161q0 100 42.5 159zM636.5 94.5q21.5 -43.5 63.5 -43.5q43 0 64 44t21 115t-21.5 114t-63.5 43t-63.5 -43t-21.5 -114q0 -72 21.5 -115.5zM986.5 369q42.5 59 119.5 59t120 -59.5t43 -158.5
q0 -100 -43 -160.5t-120 -60.5t-119.5 60.5t-42.5 160.5t42.5 159zM1042.5 94.5q21.5 -43.5 63.5 -43.5q43 0 64 44t21 115q0 72 -21 114.5t-64 42.5q-42 0 -63.5 -43t-21.5 -114q0 -72 21.5 -115.5z" />
    <glyph glyph-name="guilsinglleft" unicode="&#x2039;" horiz-adv-x="302" 
d="M199 70l-147 163v83l147 163l43 -36l-126 -169l126 -169z" />
    <glyph glyph-name="guilsinglright" unicode="&#x203a;" horiz-adv-x="302" 
d="M105 70l-44 35l126 169l-126 169l44 36l146 -163v-83z" />
    <glyph glyph-name="fraction" unicode="&#x2044;" horiz-adv-x="102" 
d="M-184 -13l392 742h77l-392 -742h-77z" />
    <glyph glyph-name="Euro" unicode="&#x20ac;" horiz-adv-x="555" 
d="M184 60.5q-68 71.5 -88 190.5h-70v53l63 5q-1 10 -1 37t3 35h-65v54l70 6q20 125 92.5 196t182.5 71q45 0 88.5 -21.5t76.5 -61.5l-64 -62q-49 58 -106 58q-63 0 -103 -46.5t-54 -133.5h262v-60h-267q-2 -7 -2 -32v-24q0 -12 -1 -15h226v-59h-216q14 -85 53 -130t99 -45
q35 0 63 17t56 53l64 -58q-78 -99 -189 -99q-105 0 -173 71.5z" />
    <glyph glyph-name="trademark" unicode="&#x2122;" horiz-adv-x="715" 
d="M111 393v269h-104v66h282v-66h-105v-269h-73zM345 728h89l47 -118l29 -82h9l29 82l46 118h90v-335h-68v131l9 121h-10l-73 -200h-56l-73 200h-10l10 -121v-131h-68v335z" />
    <glyph glyph-name="arrowleft" unicode="&#x2190;" horiz-adv-x="675" 
d="M27 271v4l299 289l53 -62l-202 -184h452v-90h-452l202 -183l-53 -61z" />
    <glyph glyph-name="arrowup" unicode="&#x2191;" horiz-adv-x="674" 
d="M292 -25v451l-183 -202l-61 54l288 297h3l289 -297l-61 -54l-185 201v-450h-90z" />
    <glyph glyph-name="arrowright" unicode="&#x2192;" horiz-adv-x="673" 
d="M42 309h451l-202 184l54 61l297 -288v-3l-297 -290l-54 62l202 184h-451v90z" />
    <glyph glyph-name="arrowdown" unicode="&#x2193;" horiz-adv-x="674" 
d="M382 111l185 202l61 -53l-289 -298h-3l-288 298l61 53l183 -202v452h90v-452z" />
    <glyph glyph-name="partialdiff" unicode="&#x2202;" horiz-adv-x="595" 
d="M149.5 18q-45.5 27 -72 75t-26.5 107q0 71 28.5 125.5t81 85t122.5 30.5q43 0 83 -19.5t71 -55.5q3 6 4 14.5t1 24.5q0 233 -145 233q-66 0 -119 -51l-46 66q78 72 177 72q117 0 176.5 -83.5t59.5 -234.5q0 -115 -34 -210t-100.5 -150.5t-159.5 -55.5q-56 0 -101.5 27z
M183.5 113.5q32.5 -35.5 79.5 -35.5q64 0 108.5 52t60.5 153q-59 78 -137 78q-67 0 -105.5 -40.5t-38.5 -113.5q0 -58 32.5 -93.5z" />
    <glyph glyph-name="product" unicode="&#x220f;" horiz-adv-x="748" 
d="M97 -125v820h556v-820h-110v726h-338v-726h-108z" />
    <glyph glyph-name="summation" unicode="&#x2211;" horiz-adv-x="563" 
d="M30 -125v67l249 343l-237 345v65h482v-91h-348v-10l214 -308l-223 -309v-10h387v-92h-524z" />
    <glyph glyph-name="minus" unicode="&#x2212;" horiz-adv-x="544" 
d="M50 200v79h444v-79h-444z" />
    <glyph glyph-name="radical" unicode="&#x221a;" horiz-adv-x="621" 
d="M309 -92l-165 463l-80 -34l-19 51l154 65l118 -353q6 -15 16 -55l6 -25h10l8 42l7 39l186 794h73l-236 -987h-78z" />
    <glyph glyph-name="infinity" unicode="&#x221e;" horiz-adv-x="867" 
d="M509.5 179q-50.5 32 -103.5 100h-6q-43 -52 -88 -80t-97 -28q-46 0 -85 24.5t-62 65.5t-23 88q0 91 51.5 145t135.5 54q57 0 98.5 -28t83.5 -81h6q48 64 99.5 95t111.5 31q55 0 99 -26t68.5 -71t24.5 -101q0 -64 -24.5 -114t-69 -78t-103.5 -28q-66 0 -116.5 32z
M155.5 282q27.5 -29 70.5 -29q40 0 76 25.5t64 66.5q-76 103 -144 103q-44 0 -69 -27t-25 -69q0 -41 27.5 -70zM541 278.5q40 -31.5 86 -31.5q50 0 81 34t31 83q0 55 -32.5 87t-87.5 32q-42 0 -84 -27.5t-81 -81.5q47 -64 87 -95.5z" />
    <glyph glyph-name="integral" unicode="&#x222b;" horiz-adv-x="385" 
d="M58 -159l10 78q15 -3 35 -3q47 0 61.5 40.5t14.5 128.5q0 97 -22 260q-22 167 -22 265q0 126 37 189.5t131 63.5q28 0 50 -6l-12 -77q-13 3 -35 3q-45 0 -59.5 -42t-14.5 -128q0 -48 5 -98.5t15 -133.5l3 -28l3 -29q9 -83 13.5 -134t4.5 -101q0 -127 -36.5 -190.5
t-130.5 -63.5q-31 0 -51 6z" />
    <glyph glyph-name="approxequal" unicode="&#x2248;" horiz-adv-x="551" 
d="M319.5 400.5q-24.5 11.5 -51.5 32.5q-5 3 -23 17t-34 20.5t-30 6.5q-49 0 -83 -64l-59 44q63 101 144 101q29 0 52.5 -11t53.5 -32q32 -25 49 -35.5t37 -10.5q46 0 83 65l59 -45q-61 -100 -144 -100q-29 0 -53.5 11.5zM183 323q29 0 52.5 -11t53.5 -32q30 -24 47.5 -34.5
t38.5 -10.5q46 0 83 64l59 -45q-61 -99 -144 -99q-29 0 -53.5 11.5t-51.5 31.5q-6 4 -24 17.5t-33.5 20.5t-29.5 7q-47 0 -83 -65l-59 45q62 100 144 100z" />
    <glyph glyph-name="notequal" unicode="&#x2260;" horiz-adv-x="489" 
d="M381 364h58v-79h-118l-78 -102h196v-79h-256l-53 -69h-70l52 69h-62v79h122l77 102h-199v79h258l50 66h73z" />
    <glyph glyph-name="lessequal" unicode="&#x2264;" horiz-adv-x="554" 
d="M517 171l-478 161v97l478 162v-94l-213 -68l-151 -44v-7l151 -45l213 -69v-93zM39 83h478v-81h-478v81z" />
    <glyph glyph-name="greaterequal" unicode="&#x2265;" horiz-adv-x="554" 
d="M39 171v93l213 69l151 45v7l-151 44l-213 68v94l478 -162v-97zM39 83h478v-81h-478v81z" />
    <glyph glyph-name="uniFBB2" unicode="&#xfbb2;" horiz-adv-x="0" 
d="M-77 69l67 82l87 -69l-67 -82z" />
    <glyph glyph-name="uniFBB3" unicode="&#xfbb3;" horiz-adv-x="0" 
d="M-77 -67l67 82l87 -69l-67 -82z" />
    <glyph glyph-name="uniFBB4" unicode="&#xfbb4;" horiz-adv-x="0" 
d="M-143 66l63 79l84 -66l-64 -79zM60 145l83 -66l-63 -79l-84 66z" />
    <glyph glyph-name="uniFBB5" unicode="&#xfbb5;" horiz-adv-x="0" 
d="M-143 -79l63 79l84 -66l-64 -79zM60 0l83 -66l-63 -79l-84 66z" />
    <glyph glyph-name="uniFBB6" unicode="&#xfbb6;" horiz-adv-x="0" 
d="M-133 61l59 72l77 -61l-59 -72zM-18 268l77 -60l-59 -72l-76 60zM56 133l77 -61l-59 -72l-77 61z" />
    <glyph glyph-name="uniFBB9" unicode="&#xfbb9;" horiz-adv-x="0" 
d="M-133 -72l59 72l77 -61l-59 -72zM-3 -126l77 -60l-59 -73l-77 61zM56 0l77 -61l-59 -72l-77 61z" />
    <glyph glyph-name="uniFD3E" unicode="&#xfd3e;" horiz-adv-x="367" 
d="M118 -10q-26 105 -26 224q0 117 26 222.5t90 215.5l69 -54q-47 -73 -73.5 -177.5t-26.5 -206.5q0 -104 26.5 -209t73.5 -177l-69 -54q-64 111 -90 216z" />
    <glyph glyph-name="uniFD3F" unicode="&#xfd3f;" horiz-adv-x="367" 
d="M166 5q26 105 26 209q0 103 -26 207.5t-73 176.5l68 54q64 -110 90 -215.5t26 -222.5q0 -119 -26 -224t-90 -216l-68 54q47 72 73 177z" />
    <glyph glyph-name="uni0627.short" horiz-adv-x="232" 
d="M158 525l5 -525l-81 -11l-21 520z" />
    <glyph glyph-name="uni0627.fina.short" horiz-adv-x="300" 
d="M166.5 20.5q-42.5 20.5 -64.5 67t-27 126.5l-14 295l97 16l4 -310q1 -47 28 -70.5t75 -23.5h35q3 0 5.5 -9t2.5 -21v-60q0 -12 -2.5 -21.5t-5.5 -9.5h-23q-68 0 -110.5 20.5z" />
    <glyph glyph-name="uni0769.fina" horiz-adv-x="783" 
d="M624 56q5 -88 5 -133q0 -49 -47.5 -82.5t-119.5 -50t-145 -16.5q-128 0 -187 47.5t-59 142.5q0 31 9.5 95t35.5 221l75 -16q-38 -228 -38 -280q0 -48 45.5 -68t118.5 -20q159 0 229 46l-38 378l93 19l15 -140q4 -36 20.5 -52.5t44 -21t81.5 -4.5h21q3 0 5.5 -9t2.5 -21
v-60q0 -12 -2.5 -21.5t-5.5 -9.5h-19q-103 0 -140 56zM264 445l67 82l87 -69l-67 -82zM280 695.5q-20 41.5 -48 85.5l47 23q42 -71 62 -129q20 59 66 129l43 -31q-51 -75 -82 -165l-50 -6q-18 52 -38 93.5z" />
    <glyph glyph-name="uni06440627.fina.alt" horiz-adv-x="580" 
d="M434 16q-39 16 -55 55q-48 -49 -137 -78t-189 -39l-16 121q104 14 188 40t114 53l-26 526l97 16l11 -511q1 -33 14 -49.5t39.5 -22.5t75.5 -6h30q3 0 5.5 -9t2.5 -21v-60q0 -12 -2.5 -21.5t-5.5 -9.5h-36q-71 0 -110 16zM174 499q45 -148 45 -335l-79 -18q0 69 -10.5 153
t-35.5 162z" />
    <glyph glyph-name="uni06440627.alt" horiz-adv-x="496" 
d="M225 115q84 26 114 53l-26 526l97 16l11 -537q2 -97 -108.5 -150t-259.5 -69l-16 121q104 14 188 40zM174 499q45 -148 45 -335l-79 -18q0 69 -10.5 153t-35.5 162z" />
    <glyph glyph-name="uni06280698.fina" horiz-adv-x="725" 
d="M35 496l59 72l76 -61l-58 -72zM164 22l-35 287l96 20l5 -45q4 -36 35 -47.5t103 -11.5q80 0 133 25l-3 90l87 10l1 -126q1 -42 14 -64t42 -30.5t83 -8.5q3 0 5.5 -9t2.5 -21v-60q0 -12 -2.5 -21.5t-5.5 -9.5q-68 0 -110.5 13.5t-67 45.5t-34.5 89q-58 -44 -145 -44
t-125 36q4 -49 4 -93q0 -94 -67 -176.5t-206 -148.5l-59 93q209 95 249 207zM150 703l77 -60l-59 -72l-77 60zM224 568l76 -61l-58 -72l-77 61zM412 -71l87 -69l-66 -82l-88 69z" />
    <glyph glyph-name="uni067E0631.fina" horiz-adv-x="721" 
d="M239 140q4 -49 4 -93q0 -94 -67 -176.5t-206 -148.5l-59 93q209 95 249 207l-35 287l96 20l5 -45q4 -36 35 -47.5t103 -11.5q80 0 133 25l-3 90l87 10l1 -126q1 -42 14 -64t42 -30.5t83 -8.5q3 0 5.5 -9t2.5 -21v-60q0 -12 -2.5 -21.5t-5.5 -9.5q-68 0 -110.5 13.5
t-67 45.5t-34.5 89q-58 -44 -145 -44t-125 36zM281 -159l59 72l77 -61l-59 -72zM411 -213l77 -60l-59 -73l-77 61zM470 -87l77 -61l-59 -72l-77 61z" />
    <glyph glyph-name="uni067E0632.fina" horiz-adv-x="721" 
d="M82 504l67 82l87 -69l-66 -82zM160 22l-35 287l96 20l5 -45q4 -36 35 -47.5t103 -11.5q80 0 133 25l-3 90l87 10l1 -126q1 -42 14 -64t42 -30.5t83 -8.5q3 0 5.5 -9t2.5 -21v-60q0 -12 -2.5 -21.5t-5.5 -9.5q-68 0 -110.5 13.5t-67 45.5t-34.5 89q-58 -44 -145 -44
t-125 36q4 -49 4 -93q0 -94 -67 -176.5t-206 -148.5l-59 93q209 95 249 207zM340 -87l76 -60l-58 -73l-77 61zM410 -213l77 -60l-58 -72l-77 60zM470 -87l76 -60l-58 -73l-77 61z" />
    <glyph glyph-name="uni067E0698.fina" horiz-adv-x="721" 
d="M281 -159l59 72l76 -60l-58 -73zM160 22l-35 287l96 20l5 -45q4 -36 35 -47.5t103 -11.5q80 0 133 25l-3 90l87 10l1 -126q1 -42 14 -64t42 -30.5t83 -8.5q3 0 5.5 -9t2.5 -21v-60q0 -12 -2.5 -21.5t-5.5 -9.5q-68 0 -110.5 13.5t-67 45.5t-34.5 89q-58 -44 -145 -44
t-125 36q4 -49 4 -93q0 -94 -67 -176.5t-206 -148.5l-59 93q209 95 249 207zM85 568l77 -61l-59 -72l-76 61zM141 703l77 -60l-59 -72l-76 60zM215 568l77 -61l-59 -72l-76 61zM410 -213l77 -60l-58 -72l-77 60zM470 -87l76 -60l-58 -73l-77 61z" />
    <glyph glyph-name="uni067E0646.fina" horiz-adv-x="1102" 
d="M991.5 13.5q-42.5 13.5 -67 45.5t-34.5 89q-58 -44 -145 -44q-91 0 -127 38q11 -141 11 -219q0 -49 -47.5 -82.5t-119.5 -50t-145 -16.5q-128 0 -187 47.5t-59 142.5q0 31 9.5 95t35.5 221l75 -16q-38 -228 -38 -280q0 -48 45.5 -68t118.5 -20q159 0 229 46l-38 378
l93 19l1 -10l5 -45q4 -36 35 -47.5t103 -11.5q80 0 133 25l-3 90l87 10l1 -126q1 -42 14 -64t42 -30.5t83 -8.5q3 0 5.5 -9t2.5 -21v-60q0 -12 -2.5 -21.5t-5.5 -9.5q-68 0 -110.5 13.5zM330 527l88 -69l-67 -82l-87 69zM723 -81l77 -61l-59 -72l-76 61zM794 -207l77 -60
l-59 -73l-76 61zM853 -81l77 -61l-59 -72l-76 61z" />
    <glyph glyph-name="uni067E0649.fina" horiz-adv-x="939" 
d="M129.5 -202.5q-58.5 48.5 -58.5 146.5q0 19 7 67t17 112l21 132l75 -16q-37 -222 -37 -280q0 -47 46 -67.5t117 -20.5q92 0 154.5 13t100.5 46q8 21 8 39q0 45 -43 51l-20 2q-64 7 -93.5 13t-47 21.5t-17.5 47.5q0 67 39 134t97.5 110t112.5 43q49 0 80 -18.5t48.5 -45
t39.5 -72.5q21 -45 38 -71.5t47.5 -44.5t77.5 -18q3 0 5 -9t2 -21v-60q0 -13 -2 -22t-5 -9q-67 0 -109.5 24.5t-65 59t-46.5 88.5q-18 39 -30.5 60.5t-31.5 36t-47 14.5q-32 0 -68 -20t-63 -51.5t-34 -65.5q80 -7 123 -19t67.5 -46t24.5 -103q0 -118 -97 -173.5t-245 -55.5
q-129 0 -187.5 48.5zM714 -175l59 72l77 -61l-59 -72zM844 -229l77 -60l-59 -73l-77 61zM903 -103l77 -61l-59 -72l-77 61z" />
    <glyph glyph-name="uni062A0632.fina" horiz-adv-x="725" 
d="M87 504l66 82l88 -69l-67 -82zM164 22l-35 287l96 20l5 -45q4 -36 35 -47.5t103 -11.5q80 0 133 25l-3 90l87 10l1 -126q1 -42 14 -64t42 -30.5t83 -8.5q3 0 5.5 -9t2.5 -21v-60q0 -12 -2.5 -21.5t-5.5 -9.5q-68 0 -110.5 13.5t-67 45.5t-34.5 89q-58 -44 -145 -44
t-125 36q4 -49 4 -93q0 -94 -67 -176.5t-206 -148.5l-59 93q209 95 249 207zM454 596l84 -66l-64 -79l-84 66zM594 596l83 -66l-64 -79l-83 66z" />
    <glyph glyph-name="uni062A0698.fina" horiz-adv-x="725" 
d="M243 140q4 -49 4 -93q0 -94 -67 -176.5t-206 -148.5l-59 93q209 95 249 207l-35 287l96 20l5 -45q4 -36 35 -47.5t103 -11.5q80 0 133 25l-3 90l87 10l1 -126q1 -42 14 -64t42 -30.5t83 -8.5q3 0 5.5 -9t2.5 -21v-60q0 -12 -2.5 -21.5t-5.5 -9.5q-68 0 -110.5 13.5
t-67 45.5t-34.5 89q-58 -44 -145 -44t-125 36zM90 568l76 -61l-59 -72l-76 61zM145 703l77 -60l-58 -72l-77 60zM220 568l76 -61l-59 -72l-76 61zM454 596l84 -66l-64 -79l-84 66zM594 596l83 -66l-64 -79l-83 66z" />
    <glyph glyph-name="uni062A0646.fina" horiz-adv-x="1102" 
d="M991.5 13.5q-42.5 13.5 -67 45.5t-34.5 89q-58 -44 -145 -44q-91 0 -127 38q11 -141 11 -219q0 -49 -47.5 -82.5t-119.5 -50t-145 -16.5q-128 0 -187 47.5t-59 142.5q0 31 9.5 95t35.5 221l75 -16q-38 -228 -38 -280q0 -48 45.5 -68t118.5 -20q159 0 229 46l-38 378
l93 19l1 -10l5 -45q4 -36 35 -47.5t103 -11.5q80 0 133 25l-3 90l87 10l1 -126q1 -42 14 -64t42 -30.5t83 -8.5q3 0 5.5 -9t2.5 -21v-60q0 -12 -2.5 -21.5t-5.5 -9.5q-68 0 -110.5 13.5zM330 527l88 -69l-67 -82l-87 69zM830 613l83 -66l-64 -79l-83 66zM969 613l84 -66
l-64 -79l-84 66z" />
    <glyph glyph-name="uni062A0649.fina" horiz-adv-x="939" 
d="M129.5 -202.5q-58.5 48.5 -58.5 146.5q0 19 7 67t17 112l21 132l75 -16q-37 -222 -37 -280q0 -47 46 -67.5t117 -20.5q92 0 154.5 13t100.5 46q8 21 8 39q0 45 -43 51l-20 2q-64 7 -93.5 13t-47 21.5t-17.5 47.5q0 67 39 134t97.5 110t112.5 43q49 0 80 -18.5t48.5 -45
t39.5 -72.5q21 -45 38 -71.5t47.5 -44.5t77.5 -18q3 0 5 -9t2 -21v-60q0 -13 -2 -22t-5 -9q-67 0 -109.5 24.5t-65 59t-46.5 88.5q-18 39 -30.5 60.5t-31.5 36t-47 14.5q-32 0 -68 -20t-63 -51.5t-34 -65.5q80 -7 123 -19t67.5 -46t24.5 -103q0 -118 -97 -173.5t-245 -55.5
q-129 0 -187.5 48.5zM465 572l63 79l84 -66l-64 -79zM668 651l83 -66l-63 -79l-84 66z" />
    <glyph glyph-name="uni062B0632.fina" horiz-adv-x="725" 
d="M87 504l66 82l88 -69l-67 -82zM164 22l-35 287l96 20l5 -45q4 -36 35 -47.5t103 -11.5q80 0 133 25l-3 90l87 10l1 -126q1 -42 14 -64t42 -30.5t83 -8.5q3 0 5.5 -9t2.5 -21v-60q0 -12 -2.5 -21.5t-5.5 -9.5q-68 0 -110.5 13.5t-67 45.5t-34.5 89q-58 -44 -145 -44
t-125 36q4 -49 4 -93q0 -94 -67 -176.5t-206 -148.5l-59 93q209 95 249 207zM460 584l76 -61l-58 -72l-77 61zM516 719l77 -60l-59 -72l-77 60zM590 584l76 -61l-58 -72l-77 61z" />
    <glyph glyph-name="uni062B0698.fina" horiz-adv-x="725" 
d="M243 140q4 -49 4 -93q0 -94 -67 -176.5t-206 -148.5l-59 93q209 95 249 207l-35 287l96 20l5 -45q4 -36 35 -47.5t103 -11.5q80 0 133 25l-3 90l87 10l1 -126q1 -42 14 -64t42 -30.5t83 -8.5q3 0 5.5 -9t2.5 -21v-60q0 -12 -2.5 -21.5t-5.5 -9.5q-68 0 -110.5 13.5
t-67 45.5t-34.5 89q-58 -44 -145 -44t-125 36zM90 568l76 -61l-59 -72l-76 61zM145 703l77 -60l-58 -72l-77 60zM220 568l76 -61l-59 -72l-76 61zM460 584l76 -61l-58 -72l-77 61zM516 719l77 -60l-59 -72l-77 60zM590 584l76 -61l-58 -72l-77 61z" />
    <glyph glyph-name="uni062B0646.fina" horiz-adv-x="1102" 
d="M991.5 13.5q-42.5 13.5 -67 45.5t-34.5 89q-58 -44 -145 -44q-91 0 -127 38q11 -141 11 -219q0 -49 -47.5 -82.5t-119.5 -50t-145 -16.5q-128 0 -187 47.5t-59 142.5q0 31 9.5 95t35.5 221l75 -16q-38 -228 -38 -280q0 -48 45.5 -68t118.5 -20q159 0 229 46l-38 378
l93 19l1 -10l5 -45q4 -36 35 -47.5t103 -11.5q80 0 133 25l-3 90l87 10l1 -126q1 -42 14 -64t42 -30.5t83 -8.5q3 0 5.5 -9t2.5 -21v-60q0 -12 -2.5 -21.5t-5.5 -9.5q-68 0 -110.5 13.5zM330 527l88 -69l-67 -82l-87 69zM835 584l77 -61l-59 -72l-76 61zM891 719l77 -60
l-59 -72l-76 60zM965 584l77 -61l-59 -72l-76 61z" />
    <glyph glyph-name="uni06B50627.fina.alt" horiz-adv-x="580" 
d="M434 16q-39 16 -55 55q-48 -49 -137 -78t-189 -39l-16 121q104 14 188 40t114 53l-26 526l97 16l11 -511q1 -33 14 -49.5t39.5 -22.5t75.5 -6h30q3 0 5.5 -9t2.5 -21v-60q0 -12 -2.5 -21.5t-5.5 -9.5h-36q-71 0 -110 16zM92 675q127 -201 127 -511l-79 -18q0 109 -26 238
t-94 229zM304 871.5q-20 41.5 -48 85.5l47 23q42 -71 62 -129q20 59 66 129l43 -31q-51 -75 -82 -165l-50 -6q-18 52 -38 93.5z" />
    <glyph glyph-name="uni06B50627.alt" horiz-adv-x="496" 
d="M225 115q84 26 114 53l-26 526l97 16l11 -537q2 -97 -108.5 -150t-259.5 -69l-16 121q104 14 188 40zM92 675q127 -201 127 -511l-79 -18q0 109 -26 238t-94 229zM304 867.5q-20 41.5 -48 85.5l47 23q42 -71 62 -129q20 59 66 129l43 -31q-51 -75 -82 -165l-50 -6
q-18 52 -38 93.5z" />
    <glyph glyph-name="uni06460632.fina" horiz-adv-x="725" 
d="M87 504l66 82l88 -69l-67 -82zM164 22l-35 287l96 20l5 -45q4 -36 35 -47.5t103 -11.5q80 0 133 25l-3 90l87 10l1 -126q1 -42 14 -64t42 -30.5t83 -8.5q3 0 5.5 -9t2.5 -21v-60q0 -12 -2.5 -21.5t-5.5 -9.5q-68 0 -110.5 13.5t-67 45.5t-34.5 89q-58 -44 -145 -44
t-125 36q4 -49 4 -93q0 -94 -67 -176.5t-206 -148.5l-59 93q209 95 249 207zM524 602l87 -69l-67 -82l-87 69z" />
    <glyph glyph-name="uni06460698.fina" horiz-adv-x="725" 
d="M243 140q4 -49 4 -93q0 -94 -67 -176.5t-206 -148.5l-59 93q209 95 249 207l-35 287l96 20l5 -45q4 -36 35 -47.5t103 -11.5q80 0 133 25l-3 90l87 10l1 -126q1 -42 14 -64t42 -30.5t83 -8.5q3 0 5.5 -9t2.5 -21v-60q0 -12 -2.5 -21.5t-5.5 -9.5q-68 0 -110.5 13.5
t-67 45.5t-34.5 89q-58 -44 -145 -44t-125 36zM90 568l76 -61l-59 -72l-76 61zM145 703l77 -60l-58 -72l-77 60zM220 568l76 -61l-59 -72l-76 61zM524 602l87 -69l-67 -82l-87 69z" />
    <glyph glyph-name="uni06460646.fina" horiz-adv-x="1102" 
d="M991.5 13.5q-42.5 13.5 -67 45.5t-34.5 89q-58 -44 -145 -44q-91 0 -127 38q11 -141 11 -219q0 -49 -47.5 -82.5t-119.5 -50t-145 -16.5q-128 0 -187 47.5t-59 142.5q0 31 9.5 95t35.5 221l75 -16q-38 -228 -38 -280q0 -48 45.5 -68t118.5 -20q159 0 229 46l-38 378
l93 19l1 -10l5 -45q4 -36 35 -47.5t103 -11.5q80 0 133 25l-3 90l87 10l1 -126q1 -42 14 -64t42 -30.5t83 -8.5q3 0 5.5 -9t2.5 -21v-60q0 -12 -2.5 -21.5t-5.5 -9.5q-68 0 -110.5 13.5zM330 527l88 -69l-67 -82l-87 69zM899 602l87 -69l-67 -82l-87 69z" />
    <glyph glyph-name="uni06460649.fina" horiz-adv-x="939" 
d="M129.5 -202.5q-58.5 48.5 -58.5 146.5q0 19 7 67t17 112l21 132l75 -16q-37 -222 -37 -280q0 -47 46 -67.5t117 -20.5q92 0 154.5 13t100.5 46q8 21 8 39q0 45 -43 51l-20 2q-64 7 -93.5 13t-47 21.5t-17.5 47.5q0 67 39 134t97.5 110t112.5 43q49 0 80 -18.5t48.5 -45
t39.5 -72.5q21 -45 38 -71.5t47.5 -44.5t77.5 -18q3 0 5 -9t2 -21v-60q0 -13 -2 -22t-5 -9q-67 0 -109.5 24.5t-65 59t-46.5 88.5q-18 39 -30.5 60.5t-31.5 36t-47 14.5q-32 0 -68 -20t-63 -51.5t-34 -65.5q80 -7 123 -19t67.5 -46t24.5 -103q0 -118 -97 -173.5t-245 -55.5
q-129 0 -187.5 48.5zM531 575l67 82l87 -69l-67 -82z" />
    <glyph glyph-name="uni064A0632.fina" horiz-adv-x="725" 
d="M87 504l66 82l88 -69l-67 -82zM164 22l-35 287l96 20l5 -45q4 -36 35 -47.5t103 -11.5q80 0 133 25l-3 90l87 10l1 -126q1 -42 14 -64t42 -30.5t83 -8.5q3 0 5.5 -9t2.5 -21v-60q0 -12 -2.5 -21.5t-5.5 -9.5q-68 0 -110.5 13.5t-67 45.5t-34.5 89q-58 -44 -145 -44
t-125 36q4 -49 4 -93q0 -94 -67 -176.5t-206 -148.5l-59 93q209 95 249 207zM334 -87l83 -66l-63 -79l-84 67zM474 -87l83 -66l-64 -79l-83 67z" />
    <glyph glyph-name="uni064A0646.fina" horiz-adv-x="1102" 
d="M991.5 13.5q-42.5 13.5 -67 45.5t-34.5 89q-58 -44 -145 -44q-91 0 -127 38q11 -141 11 -219q0 -49 -47.5 -82.5t-119.5 -50t-145 -16.5q-128 0 -187 47.5t-59 142.5q0 31 9.5 95t35.5 221l75 -16q-38 -228 -38 -280q0 -48 45.5 -68t118.5 -20q159 0 229 46l-38 378
l93 19l1 -10l5 -45q4 -36 35 -47.5t103 -11.5q80 0 133 25l-3 90l87 10l1 -126q1 -42 14 -64t42 -30.5t83 -8.5q3 0 5.5 -9t2.5 -21v-60q0 -12 -2.5 -21.5t-5.5 -9.5q-68 0 -110.5 13.5zM330 527l88 -69l-67 -82l-87 69zM718 -81l83 -66l-64 -79l-83 66zM857 -81l84 -66
l-64 -79l-84 66z" />
    <glyph glyph-name="uni064A0698.fina" horiz-adv-x="725" 
d="M243 140q4 -49 4 -93q0 -94 -67 -176.5t-206 -148.5l-59 93q209 95 249 207l-35 287l96 20l5 -45q4 -36 35 -47.5t103 -11.5q80 0 133 25l-3 90l87 10l1 -126q1 -42 14 -64t42 -30.5t83 -8.5q3 0 5.5 -9t2.5 -21v-60q0 -12 -2.5 -21.5t-5.5 -9.5q-68 0 -110.5 13.5
t-67 45.5t-34.5 89q-58 -44 -145 -44t-125 36zM90 568l76 -61l-59 -72l-76 61zM145 703l77 -60l-58 -72l-77 60zM220 568l76 -61l-59 -72l-76 61zM334 -87l83 -66l-63 -79l-84 67zM474 -87l83 -66l-64 -79l-83 67z" />
    <glyph glyph-name="uni06260632.fina" horiz-adv-x="725" 
d="M87 504l66 82l88 -69l-67 -82zM164 22l-35 287l96 20l5 -45q4 -36 35 -47.5t103 -11.5q80 0 133 25l-3 90l87 10l1 -126q1 -42 14 -64t42 -30.5t83 -8.5q3 0 5.5 -9t2.5 -21v-60q0 -12 -2.5 -21.5t-5.5 -9.5q-68 0 -110.5 13.5t-67 45.5t-34.5 89q-58 -44 -145 -44
t-125 36q4 -49 4 -93q0 -94 -67 -176.5t-206 -148.5l-59 93q209 95 249 207zM411 494l76 21q-24 47 -24 80t25.5 51.5t69.5 18.5q29 0 47 -6v-53q-33 6 -59 6q-25 0 -38 -7q0 -15 8.5 -36t21.5 -39l115 32v-56l-242 -68v56z" />
    <glyph glyph-name="uni06260646.fina" horiz-adv-x="1102" 
d="M991.5 13.5q-42.5 13.5 -67 45.5t-34.5 89q-58 -44 -145 -44q-91 0 -127 38q11 -141 11 -219q0 -49 -47.5 -82.5t-119.5 -50t-145 -16.5q-128 0 -187 47.5t-59 142.5q0 31 9.5 95t35.5 221l75 -16q-38 -228 -38 -280q0 -48 45.5 -68t118.5 -20q159 0 229 46l-38 378
l93 19l1 -10l5 -45q4 -36 35 -47.5t103 -11.5q80 0 133 25l-3 90l87 10l1 -126q1 -42 14 -64t42 -30.5t83 -8.5q3 0 5.5 -9t2.5 -21v-60q0 -12 -2.5 -21.5t-5.5 -9.5q-68 0 -110.5 13.5zM330 527l88 -69l-67 -82l-87 69zM786 494l76 21q-24 47 -24 80t25.5 51.5t69.5 18.5
q29 0 47 -6v-53q-33 6 -59 6q-25 0 -38 -7q0 -15 8.5 -36t21.5 -39l115 32v-56l-242 -68v56z" />
    <glyph glyph-name="uni06F0.ss05" horiz-adv-x="682" 
d="M248.5 84q-41.5 24 -65.5 65.5t-24 92.5t24 93t65.5 66t92.5 24t93 -24t66 -66t24 -93t-24 -92.5t-66 -65.5t-93 -24t-92.5 24zM275.5 178.5q26.5 -25.5 65.5 -25.5q40 0 66 25.5t26 63.5t-27 64t-65 26t-65 -26t-27 -64t26.5 -63.5z" />
    <glyph glyph-name="uni06F1.ss05" horiz-adv-x="682" 
d="M413 0l-82 -7q0 182 -15.5 358t-47.5 309l94 20q51 -258 51 -680z" />
    <glyph glyph-name="uni06F2.ss05" horiz-adv-x="682" 
d="M315 344q-26 7 -47 20q12 -156 12 -364l-82 -7q0 182 -15.5 358t-47.5 309l94 20q9 -42 27 -149l4 -22q5 -27 26.5 -38.5t68.5 -11.5q80 0 112 24l-20 182l90 15l10 -197q3 -74 -49.5 -110t-132.5 -36q-24 0 -50 7z" />
    <glyph glyph-name="uni06F3.ss05" horiz-adv-x="682" 
d="M187 362q11 -161 11 -362l-82 -7q0 182 -15.5 358t-47.5 309l94 20l8 -42l5 -28l18 -101q6 -27 26 -38.5t53 -11.5q35 0 71 15l-6 184l84 7l4 -197q23 -9 54 -9q58 0 84 24l-20 182l90 15l10 -197q2 -46 -21 -79t-59.5 -50t-73.5 -17q-75 0 -101 33q-19 -18 -49 -25.5
t-58 -7.5q-47 0 -79 25z" />
    <glyph glyph-name="uni06F4.ss05" horiz-adv-x="682" 
d="M220 303q10 -136 10 -303l-82 -7q0 186 -15.5 336t-52.5 290l92 20q23 -101 37 -215q18 -15 39.5 -19.5t52.5 -3.5q-31 58 -31 137q0 69 48.5 105.5t121.5 36.5q44 0 107 -17l-23 -96q-54 10 -93 10q-19 0 -40 -4.5t-37 -12.5q0 -42 9 -82t25 -71q56 4 104.5 13.5
t105.5 26.5l5 -111q-114 -31 -171 -42t-118 -11q-52 0 -94 20z" />
    <glyph glyph-name="uni06F5.ss05" horiz-adv-x="682" 
d="M122 32q-40 37 -40 107q0 94 59 208t147 213q-12 12 -27 24q1 -1 -22 19l68 83q145 -121 219 -264t74 -290q0 -48 -22 -78.5t-55 -44.5t-68 -14q-40 0 -66.5 11.5t-43.5 42.5q-19 -26 -51.5 -40t-70.5 -14q-61 0 -101 37zM194.5 130q18.5 -14 48.5 -14q19 0 36.5 6
t28.5 17l-2 69l74 5l3 -82q21 -15 61 -15q52 0 71 24q-3 110 -43.5 198t-121.5 167q-85 -105 -129.5 -186.5t-44.5 -146.5q0 -28 18.5 -42z" />
    <glyph glyph-name="uni06F6.ss05" horiz-adv-x="682" 
d="M311 308q-70 22 -106.5 74t-36.5 126q0 50 22.5 89t63.5 61t93 22q49 0 112 -23l-21 -88q-51 10 -91 10q-31 0 -59 -10.5t-42 -31.5q0 -71 41 -106.5t142 -36.5l111 57l25 -100q-88 -39 -150.5 -86t-116.5 -112.5t-121 -169.5l-59 53q99 178 193 272z" />
    <glyph glyph-name="uni06F7.ss05" horiz-adv-x="682" 
d="M275.5 208.5q-22.5 103.5 -68.5 213t-113 200.5l75 58q63 -89 109.5 -202t61.5 -230q20 129 66.5 239t111.5 193l70 -66q-69 -90 -116.5 -200.5t-70.5 -212t-23 -170.5v-31l-80 -7v35q0 77 -22.5 180.5z" />
    <glyph glyph-name="uni06F8.ss05" horiz-adv-x="682" 
d="M406.5 464.5q22.5 -103.5 68.5 -213t113 -200.5l-75 -58q-63 89 -109.5 202t-61.5 230q-20 -129 -66.5 -239t-111.5 -193l-70 66q69 90 116.5 200.5t70.5 212t23 170.5v31l80 7v-35q0 -77 22.5 -180.5z" />
    <glyph glyph-name="uni06F9.ss05" horiz-adv-x="682" 
d="M441 133q-5 77 -5 129v13q-70 -17 -122 -17q-64 0 -100.5 10t-55.5 38q-20 31 -20 71q0 68 17 137t58.5 117.5t110.5 48.5q98 0 146 -81.5t48 -210.5q0 -211 27 -380l-90 -25q-9 73 -14 150zM317 380q68 0 119 12q0 95 -26.5 138.5t-85.5 43.5q-55 0 -81.5 -47.5
t-26.5 -134.5q33 -12 101 -12z" />
    <glyph glyph-name="uni06F4.urdu" 
d="M234.5 102q-27.5 55 -73.5 136q-56 98 -83 158.5t-27 113.5q0 75 38 122.5t101 47.5q89 0 125 -59q37 59 125 59q60 0 91 -42l-66 -87q-8 3 -20.5 5.5t-22.5 2.5q-34 -1 -51 -20t-17 -61v-71l-73 5v120q-14 15 -32.5 21t-43.5 6q-32 0 -51 -16.5t-19 -49.5
q0 -27 18 -64.5t59 -108.5q45 -77 74.5 -135.5t49.5 -120.5l-58 -71q-16 54 -43.5 109z" />
    <glyph glyph-name="uni06F7.urdu" horiz-adv-x="633" 
d="M216.5 343.5q51.5 123.5 55.5 270.5l80 8q-4 -156 -40.5 -273.5t-98.5 -218.5q149 21 330 21h44l-53 -120q-123 -2 -226 -10t-192 -29l-70 78q119 150 170.5 273.5z" />
    <glyph glyph-name="zero.dnom" horiz-adv-x="396" 
d="M79 47.5q-44 60.5 -44 162.5t44 161t120 59t120.5 -59.5t44.5 -160.5q0 -102 -44.5 -162.5t-120.5 -60.5t-120 60.5zM137.5 94.5q21.5 -41.5 61.5 -41.5t61 42t21 115t-21.5 114t-60.5 41q-40 0 -61.5 -41t-21.5 -114q0 -74 21.5 -115.5z" />
    <glyph glyph-name="dotmaster" horiz-adv-x="0" 
 />
    <glyph glyph-name="wasla-ar" horiz-adv-x="0" 
d="M-52 10q-24 10 -24 38v30q-13 -5 -27.5 -23t-26.5 -41l-39 23q13 35 47 69.5t78 31.5v-57q0 -8 5.5 -11.5t10.5 -3.5q31 42 61 71t63 29q37 0 54 -21t17 -65q0 -16 -2 -25t-8 -15q-16 -18 -53.5 -29t-81.5 -11q-50 0 -74 10zM73 57.5q26 3.5 53 11.5q0 24 -7 34.5
t-26 10.5q-17 0 -37 -15.5t-46 -45.5q37 1 63 4.5z" />
    <glyph glyph-name="gafsarkashabove-ar" horiz-adv-x="0" 
d="M-91 502l165 77l7 -46l-176 -79z" />
    <glyph glyph-name="hamzacenter-ar" horiz-adv-x="0" 
d="M-123 -37l76 21q-24 47 -24 80t25.5 51.5t69.5 18.5q29 0 47 -6v-53q-33 6 -59 6q-25 0 -38 -7q0 -15 8.5 -36t21.5 -39l115 32v-56l-242 -68v56z" />
    <glyph glyph-name="uni0654064F" horiz-adv-x="0" 
d="M-125 164l103 29q-19 0 -19 28q0 15 8.5 41t28 47t48.5 21q36 0 58.5 -31.5t22.5 -74.5q0 -31 -13.5 -42t-49.5 -21l-179 -50zM-123 -81l76 21q-24 46 -24 80q0 33 25.5 51.5t69.5 18.5q29 0 47 -6v-53q-33 6 -59 6q-25 0 -38 -7q0 -15 8.5 -36t21.5 -39l115 32v-56
l-242 -68v56zM40 212q22 0 40 6q0 30 -10.5 46.5t-28.5 16.5q-14 0 -24.5 -18t-11.5 -45q16 -6 35 -6z" />
    <glyph glyph-name="uni0654064C" horiz-adv-x="0" 
d="M-125 148l3 1q-11 25 -11 51q0 16 5 38.5t10 39t7 24.5l47 -16q-20 -61 -20 -86q0 -19 12 -37l50 14q-19 0 -19 28q0 15 8.5 41t28 47t48.5 21q36 0 58.5 -31.5t22.5 -74.5q0 -31 -13.5 -42t-49.5 -21l-179 -50zM-123 -97l76 21q-24 46 -24 80q0 33 25.5 51.5t69.5 18.5
q29 0 47 -6v-53q-33 6 -59 6q-25 0 -38 -7q0 -15 8.5 -36t21.5 -39l115 32v-56l-242 -68v56zM40 196q22 0 40 6q0 30 -10.5 46.5t-28.5 16.5q-14 0 -24.5 -18t-11.5 -45q16 -6 35 -6z" />
    <glyph glyph-name="uni0654064E" horiz-adv-x="0" 
d="M-123 55l76 21q-24 47 -24 80t25.5 51.5t69.5 18.5q29 0 47 -6v-53q-33 6 -59 6q-25 0 -38 -7q0 -15 8.5 -36t21.5 -39l115 32v-56l-242 -68v56zM-117 294l242 68v-56l-242 -68v56z" />
    <glyph glyph-name="uni0654064B" horiz-adv-x="0" 
d="M-123 -94l76 21q-24 47 -24 80t25.5 51.5t69.5 18.5q29 0 47 -6v-53q-33 6 -59 6q-25 0 -38 -7q0 -15 8.5 -36t21.5 -39l115 32v-56l-242 -68v56zM-117 145l242 68v-56l-242 -68v56zM-117 252l242 68v-56l-242 -68v56z" />
    <glyph glyph-name="uni06540652" horiz-adv-x="0" 
d="M-123 -106l76 21q-24 47 -24 80t25.5 51.5t69.5 18.5q29 0 47 -6v-53q-33 6 -59 6q-25 0 -38 -7q0 -15 8.5 -36t21.5 -39l115 32v-56l-242 -68v56zM-81 189q0 33 23.5 55.5t58.5 22.5q25 0 45 -14.5t30 -41.5q4 -12 4 -28q0 -27 -14 -47t-42 -29l-33 -10q-12 -4 -24 -4
q-31 0 -41 36l82 26q24 8 24 27q0 32 -28 32q-15 0 -25 -7.5t-10 -19.5q0 -8 2 -12l-47 -15q-5 17 -5 29z" />
    <glyph glyph-name="uni06550650" horiz-adv-x="0" 
d="M-117 43l76 21q-24 47 -24 80t25.5 51.5t69.5 18.5q29 0 47 -6v-53q-33 6 -59 6q-25 0 -38 -7q0 -15 8.5 -36t21.5 -39l115 32v-56l-242 -68v56zM-117 -61l242 68v-56l-242 -68v56z" />
    <glyph glyph-name="uni0655064D" horiz-adv-x="0" 
d="M-117 59l76 21q-24 47 -24 80t25.5 51.5t69.5 18.5q29 0 47 -6v-53q-33 6 -59 6q-25 0 -38 -7q0 -15 8.5 -36t21.5 -39l115 32v-56l-242 -68v56zM-117 -45l242 68v-56l-242 -68v56zM-117 -151l242 68v-56l-242 -68v56z" />
    <glyph glyph-name="uni0651064B" horiz-adv-x="0" 
d="M-83 75q0 -19 20 -19q10 0 22.5 5.5t21.5 14.5v53l38 7v-43q0 -19 20 -19q11 0 24 6t19 12q0 30 -8 72l43 20q8 -40 8 -83q0 -36 -26.5 -57.5t-61.5 -21.5q-23 0 -34 15q-13 -15 -33.5 -25t-41.5 -10q-24 0 -38.5 13t-14.5 37t5 59l41 8q-4 -30 -4 -44zM-117 216l242 68
v-56l-242 -68v56zM-117 323l242 68v-56l-242 -68v56z" />
    <glyph glyph-name="uni0651064C" horiz-adv-x="0" 
d="M-98 -81q0 -19 20 -19q10 0 22.5 5.5t21.5 14.5v53l38 7v-43q0 -19 20 -19q11 0 24 6t19 12q0 30 -8 72l43 20q8 -40 8 -83q0 -36 -26.5 -57.5t-61.5 -21.5q-23 0 -34 15q-13 -15 -33.5 -25t-41.5 -10q-24 0 -38.5 13t-14.5 37t5 59l41 8q-4 -30 -4 -44zM-132 51
q-16 32 -16 62q0 17 6.5 43t15.5 58l47 -15q-20 -61 -20 -86q0 -19 14 -41l47 12q-18 4 -18 29q0 15 8.5 41.5t28 47.5t48.5 21q36 0 58.5 -32t22.5 -75q0 -30 -14 -42t-49 -21l-179 -50v48zM25 104q22 0 40 6q0 32 -9.5 48t-27.5 16q-17 0 -26.5 -18t-11.5 -47q13 -5 35 -5
z" />
    <glyph glyph-name="uni0651064D" horiz-adv-x="0" 
d="M-83 61q0 -19 20 -19q10 0 22.5 5.5t21.5 14.5v53l38 7v-43q0 -19 20 -19q11 0 24 6t19 12q0 30 -8 72l43 20q8 -40 8 -83q0 -36 -26.5 -57.5t-61.5 -21.5q-23 0 -34 15q-13 -15 -33.5 -25t-41.5 -10q-24 0 -38.5 13t-14.5 37t5 59l41 8q-4 -30 -4 -44zM-118 -82l242 68
v-56l-242 -68v56zM-118 -188l242 68v-56l-242 -68v56z" />
    <glyph glyph-name="uni0651064E" horiz-adv-x="0" 
d="M-83 61q0 -19 20 -19q10 0 22.5 5.5t21.5 14.5v53l38 7v-43q0 -19 20 -19q11 0 24 6t19 12q0 30 -8 72l43 20q8 -40 8 -83q0 -36 -26.5 -57.5t-61.5 -21.5q-23 0 -34 15q-13 -15 -33.5 -25t-41.5 -10q-24 0 -38.5 13t-14.5 37t5 59l41 8q-4 -30 -4 -44zM-117 202l242 68
v-56l-242 -68v56z" />
    <glyph glyph-name="uni0651064F" horiz-adv-x="0" 
d="M-83 14q0 -19 20 -19q10 0 22.5 5.5t21.5 14.5v53l38 7v-43q0 -19 20 -19q11 0 24 6t19 12q0 30 -8 72l43 20q8 -40 8 -83q0 -36 -26.5 -57.5t-61.5 -21.5q-23 0 -34 15q-13 -15 -33.5 -25t-41.5 -10q-24 0 -38.5 13t-14.5 37t5 59l41 8q-4 -30 -4 -44zM-117 154l94 25
q-18 4 -18 29q0 15 8.5 41.5t28 47.5t48.5 21q36 0 58.5 -32t22.5 -75q0 -30 -14 -42t-49 -21l-179 -50v56zM40 199q22 0 40 6q0 32 -9.5 48t-27.5 16q-17 0 -26.5 -18t-11.5 -47q13 -5 35 -5z" />
    <glyph glyph-name="uni06510650" horiz-adv-x="0" 
d="M-83 61q0 -19 20 -19q10 0 22.5 5.5t21.5 14.5v53l38 7v-43q0 -19 20 -19q11 0 24 6t19 12q0 30 -8 72l43 20q8 -40 8 -83q0 -36 -26.5 -57.5t-61.5 -21.5q-23 0 -34 15q-13 -15 -33.5 -25t-41.5 -10q-24 0 -38.5 13t-14.5 37t5 59l41 8q-4 -30 -4 -44zM-117 -79l242 68
v-56l-242 -68v56z" />
    <glyph glyph-name="uni06510670" horiz-adv-x="0" 
d="M-83 61q0 -19 20 -19q10 0 22.5 5.5t21.5 14.5v53l38 7v-43q0 -19 20 -19q11 0 24 6t19 12q0 30 -8 72l43 20q8 -40 8 -83q0 -36 -26.5 -57.5t-61.5 -21.5q-23 0 -34 15q-13 -15 -33.5 -25t-41.5 -10q-24 0 -38.5 13t-14.5 37t5 59l41 8q-4 -30 -4 -44zM-24 293l47 8
l-4 -139h-37z" />
    <glyph glyph-name="vbelow-ar" horiz-adv-x="0" 
d="M-61 93.5q-20 41.5 -48 85.5l47 23q42 -71 62 -129q20 59 66 129l43 -31q-51 -75 -82 -165l-50 -6q-18 52 -38 93.5z" />
    <glyph glyph-name="dad-yeh2-ar" horiz-adv-x="1057" 
d="M71 -50q0 59 44.5 139.5t113.5 138t139 57.5q33 0 53.5 -12t29.5 -25.5t31 -50.5q73 94 155 163t157 69q96 0 144 -60.5t48 -178.5q0 -70 -28 -99q-41 -42 -130 -66.5t-219 -24.5q-59 0 -96 17t-56 40t-39 58q-16 29 -28.5 42.5t-32.5 13.5q-33 0 -75 -32t-77.5 -81
t-49.5 -96q10 -33 42 -49t76.5 -20.5t116.5 -4.5q65 0 205 9q49 2 72 4l-27 -122q-69 -5 -141 -8.5t-134 -3.5q-294 0 -294 183zM612 121q82 0 152 9t137 33q0 80 -23.5 121.5t-80.5 41.5q-52 0 -121.5 -50.5t-142.5 -135.5q30 -19 79 -19zM566 576l67 82l87 -69l-67 -82z
" />
    <glyph glyph-name="gafswash-ar" horiz-adv-x="990" 
d="M312 620.5q36 30.5 70 45.5l8 -51q-36 -17 -73 -51t-61 -72l-5 64q25 34 61 64.5zM303.5 118.5q90.5 -2.5 233.5 -2.5q119 0 194.5 17.5t101.5 45.5q-9 46 -60.5 65.5t-150.5 19.5q-196 0 -267.5 3.5t-98 17.5t-26.5 51q0 65 47 128t122 104t152 44l13 -107
q-57 -3 -107 -21t-85.5 -45.5t-50.5 -56.5q22 -6 74.5 -7.5t166.5 -1.5q119 0 195.5 -17.5t118 -63.5t41.5 -128q0 -42 -47 -81t-138 -63.5t-215 -24.5q-152 0 -376 13l-70 121q142 -8 232.5 -10.5z" />
    <glyph glyph-name="kafcheh" horiz-adv-x="0" 
d="M-11.5 77q39.5 10 55.5 29q0 17 -15 23.5t-48 12.5q-34 6 -51.5 14t-17.5 28q0 28 15.5 69.5t41.5 72.5t58 31q24 0 42.5 -14t38.5 -44l-33 -31q-24 27 -48 27t-41 -26.5t-24 -61.5q48 -4 75 -12t41 -26.5t14 -54.5q0 -54 -55 -85.5t-150 -31.5l6 70q56 0 95.5 10z" />
    <glyph glyph-name="sad-yeh2-ar" horiz-adv-x="1057" 
d="M71 -50q0 59 44.5 139.5t113.5 138t139 57.5q33 0 53.5 -12t29.5 -25.5t31 -50.5q73 94 155 163t157 69q96 0 144 -60.5t48 -178.5q0 -70 -28 -99q-41 -42 -130 -66.5t-219 -24.5q-59 0 -96 17t-56 40t-39 58q-16 29 -28.5 42.5t-32.5 13.5q-33 0 -75 -32t-77.5 -81
t-49.5 -96q10 -33 42 -49t76.5 -20.5t116.5 -4.5q65 0 205 9q49 2 72 4l-27 -122q-69 -5 -141 -8.5t-134 -3.5q-294 0 -294 183zM612 121q82 0 152 9t137 33q0 80 -23.5 121.5t-80.5 41.5q-52 0 -121.5 -50.5t-142.5 -135.5q30 -19 79 -19z" />
    <glyph glyph-name="seen-yeh2-ar" horiz-adv-x="1066" 
d="M71 -50q0 59 44.5 139.5t113.5 138t139 57.5q31 0 51 -11.5t32 -28t27 -44.5q21 -40 41.5 -60t59.5 -20q57 0 81 16l-4 195l85 3v-198q19 -16 56 -16q60 0 93 18l-21 236l93 16l2 -41q8 -138 8 -212q0 -69 -47 -103.5t-109 -34.5q-36 0 -64.5 13.5t-40.5 41.5
q-14 -30 -47.5 -42.5t-66.5 -12.5q-55 0 -90 16.5t-53 39.5t-36 58q-16 30 -28.5 43.5t-32.5 13.5q-33 0 -75 -32t-77.5 -81t-49.5 -96q10 -33 42 -49t76.5 -20.5t116.5 -4.5q65 0 205 9q49 2 72 4l-27 -122q-69 -5 -141 -8.5t-134 -3.5q-294 0 -294 183z" />
    <glyph glyph-name="sheen-yeh2-ar" horiz-adv-x="1066" 
d="M71 -50q0 59 44.5 139.5t113.5 138t139 57.5q31 0 51 -11.5t32 -28t27 -44.5q21 -40 41.5 -60t59.5 -20q57 0 81 16l-4 195l85 3v-198q19 -16 56 -16q60 0 93 18l-21 236l93 16l2 -41q8 -138 8 -212q0 -69 -47 -103.5t-109 -34.5q-36 0 -64.5 13.5t-40.5 41.5
q-14 -30 -47.5 -42.5t-66.5 -12.5q-55 0 -90 16.5t-53 39.5t-36 58q-16 30 -28.5 43.5t-32.5 13.5q-33 0 -75 -32t-77.5 -81t-49.5 -96q10 -33 42 -49t76.5 -20.5t116.5 -4.5q65 0 205 9q49 2 72 4l-27 -122q-69 -5 -141 -8.5t-134 -3.5q-294 0 -294 183zM543 493l59 72
l77 -61l-59 -72zM658 700l77 -60l-59 -72l-76 60zM732 565l77 -61l-59 -72l-77 61z" />
    <glyph glyph-name="ain-ar-k.fina" horiz-adv-x="664" 
d="M395 27q-37 27 -64 70q-137 -53 -170 -162q0 -91 60 -132.5t156 -41.5q92 0 194 29l-6 -121q-103 -29 -193 -29q-133 0 -217 64t-84 199q0 72 43.5 147.5t125.5 120.5q-39 63 -64.5 100.5t-34 45.5t-16.5 7l-26 -4l5 98q119 22 263 22q86 0 129 -19.5t43 -66.5v-29
q0 -28 -38 -86t-73 -85q4 -3 17 -12.5t31 -15t40 -5.5h148q3 0 5.5 -9t2.5 -21v-60q0 -12 -2.5 -21.5t-5.5 -9.5h-164q-68 0 -105 27zM251.5 300q16.5 -22 41.5 -59l39 -56q32 15 71.5 58t47.5 75q-7 8 -33.5 12t-63.5 4q-85 0 -127 -7q8 -5 24.5 -27z" />
    <glyph glyph-name="beh-yeh2-ar.fina" horiz-adv-x="603" 
d="M71 -50q0 59 44.5 139.5t113.5 138t139 57.5q44 0 65.5 -19.5t41.5 -58.5q15 -28 28.5 -45t37.5 -29t62 -12q3 0 5 -9t2 -21v-60q0 -13 -2 -22t-5 -9q-57 0 -93 17t-54.5 40t-37.5 58q-16 29 -28.5 42.5t-32.5 13.5q-33 0 -75 -32t-77.5 -81t-49.5 -96q10 -33 42 -49
t76.5 -20.5t116.5 -4.5q65 0 205 9q49 2 72 4l-27 -122q-69 -5 -141 -8.5t-134 -3.5q-294 0 -294 183zM294 -422l67 82l87 -69l-67 -82z" />
    <glyph glyph-name="behdotless-yeh2-ar.fina" horiz-adv-x="603" 
d="M71 -50q0 59 44.5 139.5t113.5 138t139 57.5q44 0 65.5 -19.5t41.5 -58.5q15 -28 28.5 -45t37.5 -29t62 -12q3 0 5 -9t2 -21v-60q0 -13 -2 -22t-5 -9q-57 0 -93 17t-54.5 40t-37.5 58q-16 29 -28.5 42.5t-32.5 13.5q-33 0 -75 -32t-77.5 -81t-49.5 -96q10 -33 42 -49
t76.5 -20.5t116.5 -4.5q65 0 205 9q49 2 72 4l-27 -122q-69 -5 -141 -8.5t-134 -3.5q-294 0 -294 183z" />
    <glyph glyph-name="behdotless_alefMaksura-ar.fina" horiz-adv-x="939" 
d="M129.5 -202.5q-58.5 48.5 -58.5 146.5q0 19 7 67t17 112l21 132l75 -16q-37 -222 -37 -280q0 -47 46 -67.5t117 -20.5q92 0 154.5 13t100.5 46q8 21 8 39q0 45 -43 51l-20 2q-64 7 -93.5 13t-47 21.5t-17.5 47.5q0 67 39 134t97.5 110t112.5 43q49 0 80 -18.5t48.5 -45
t39.5 -72.5q21 -45 38 -71.5t47.5 -44.5t77.5 -18q3 0 5 -9t2 -21v-60q0 -13 -2 -22t-5 -9q-67 0 -109.5 24.5t-65 59t-46.5 88.5q-18 39 -30.5 60.5t-31.5 36t-47 14.5q-32 0 -68 -20t-63 -51.5t-34 -65.5q80 -7 123 -19t67.5 -46t24.5 -103q0 -118 -97 -173.5t-245 -55.5
q-129 0 -187.5 48.5z" />
    </font>
</defs>
</svg>
