<?xml version="1.0" standalone="no"?>
<!DOCTYPE svg PUBLIC "-//W3C//DTD SVG 1.1//EN" "http://www.w3.org/Graphics/SVG/1.1/DTD/svg11.dtd" >
<svg xmlns="http://www.w3.org/2000/svg" xmlns:xlink="http://www.w3.org/1999/xlink" version="1.1">
<metadata>
Created by FontForge 20201107 at Wed Aug 31 14:42:32 2022
 By 
Copyright (c) 2022 by www.fontiran.com All rights reserved.
</metadata>
<defs>
<font id="AnjomanMax-Regular" horiz-adv-x="600" >
  <font-face 
    font-family="Anjoman Max"
    font-weight="400"
    font-stretch="normal"
    units-per-em="1000"
    panose-1="0 0 0 0 0 0 0 0 0 0"
    ascent="800"
    descent="-200"
    x-height="526"
    cap-height="710"
    bbox="-217 -556 1453 1070"
    underline-thickness="54"
    underline-position="-388"
    unicode-range="U+0020-FEFC"
  />
<missing-glyph horiz-adv-x="785" 
d="M644 -500h-498v1570h498v-1570zM523 -392v52h-160l110 74h50v52h-261v-52h110l-110 -74v-52h261zM523 -178v177h-261v-177h261zM523 93v178h-157v-88h53v36h52v-74h-157v126h-52v-178h261zM523 305v157h-52v-103h-209v-54h261zM419 395v110h104v52h-261v-52h104v-58h-104
v-52h157zM523 599v53h-104v110h-157v-163h261zM523 803v52h-104v58h104v52h-259v-52h102v-58h-104v-52h261zM314 -53h157v-73h-157v73zM314 709h52v-57h-52v57z" />
    <glyph glyph-name="uniFDF2" unicode="&#x627;&#xfedf;&#xfee0;&#xfeea;" horiz-adv-x="1373" arabic-form="isolated" 
d="M553 494q-22 19 -22 52q0 21 7 69l3 24l44 -9l-9 -63q-3 -17 7 -26.5t28 -9.5q22 0 46 13v71h42v-52q0 -18 10.5 -25t32.5 -7q25 0 41 13q0 34 -10 94l45 13q10 -53 10 -103q0 -35 -24 -54t-65 -19q-35 0 -58 26q-11 -12 -29.5 -19t-40.5 -7q-36 0 -58 19zM283 394l-8 65
l72 21l24 -248q4 -46 10.5 -72.5t25 -43.5t53.5 -17h30q70 0 109.5 6t62.5 24l-9 257l71 13l4 -219q1 -41 31 -61t83 -20h20q117 0 174 33l-21 479l78 13l10 -494q0 -26 -13.5 -50t-39.5 -40q-36 -21 -86 -30.5t-102 -9.5q-74 0 -113 17t-51 52q-22 -37 -73.5 -53
t-134.5 -16h-28q-50 0 -84 21.5t-46 75.5q-16 -41 -134 -41q-50 0 -87 23.5t-37 71.5q0 185 209 243zM207 146q30 0 53 5t51 14l-17 155q-78 -15 -116.5 -61t-42.5 -95q28 -18 72 -18zM701 837l-2 -160h-40l-6 151zM1294 681l6 -681l-66 -9l-19 677z" />
    <glyph glyph-name="uniFDFC" unicode="&#x631;&#xfef3;&#xfe8e;&#x644;&#x621;" horiz-adv-x="1526" arabic-form="isolated" 
d="M142.5 -175q-56.5 46 -56.5 140q0 18 7 67.5t18 117.5q4 24 19 116l61 -12q-37 -222 -37 -278q0 -52 46.5 -75.5t123.5 -23.5q151 0 220 53l-27 738l79 13l15 -764q0 -43 -43 -74.5t-109.5 -47.5t-134.5 -16q-125 0 -181.5 46zM774 681l4 -484q1 -98 115 -98h23
q96 0 153 6.5t92 26.5l-19 228l76 14q10 -170 10 -244q0 -26 -13.5 -50t-39.5 -40q-39 -21 -98.5 -30.5t-155.5 -9.5h-20q-98 0 -143 45.5t-49 150.5l-14 472zM775 -109h283v-86h-283v86zM1306 -90q62 55 79 108l-31 278l77 15q10 -98 16 -167.5t6 -106.5q0 -85 -69 -165.5
t-202 -141.5l-48 76q110 49 172 104z" />
    <glyph glyph-name="uni06440622" unicode="&#xfedf;&#xfe82;" horiz-adv-x="473" arabic-form="isolated" 
d="M225.5 93q79.5 30 103.5 58l-23 545l78 14l12 -553q2 -86 -101.5 -138t-245.5 -71l-12 97q109 18 188.5 48zM155 494q26 -86 37 -178.5t11 -176.5l-64 -15q0 69 -11.5 161.5t-37.5 177.5zM99.5 601.5q-31.5 3.5 -37.5 4.5q-34 4 -41 4q-21 0 -29.5 -8t-16.5 -36l-54 13
q15 57 35.5 78t62.5 21q20 0 55 -5q68 -7 102 -7h47l-14 -68h-40q-38 0 -69.5 3.5z" />
    <glyph glyph-name="uni06440622.fina" unicode="&#xfee0;&#xfe82;" horiz-adv-x="564" arabic-form="final" 
d="M418 16q-39 16 -55 55q-43 -48 -128.5 -78.5t-185.5 -44.5l-12 97q109 18 188.5 48t103.5 58l-23 545l78 14l13 -534q0 -33 15.5 -49.5t44.5 -22t79 -5.5h28q3 0 5 -8t2 -19v-46q0 -11 -2 -18.5t-5 -7.5h-31q-76 0 -115 16zM155 494q26 -86 37 -178.5t11 -176.5l-64 -15
q0 69 -11.5 161.5t-37.5 177.5zM99.5 590.5q-31.5 3.5 -37.5 4.5q-34 4 -41 4q-21 0 -29.5 -8t-16.5 -36l-54 13q15 57 35.5 78t62.5 21q20 0 55 -5q68 -7 102 -7h47l-14 -68h-40q-38 0 -69.5 3.5z" />
    <glyph glyph-name="uni06440623" unicode="&#xfedf;&#xfe84;" horiz-adv-x="473" arabic-form="isolated" 
d="M225.5 93q79.5 30 103.5 58l-23 545l78 14l12 -553q2 -86 -101.5 -138t-245.5 -71l-12 97q109 18 188.5 48zM155 494q26 -86 37 -178.5t11 -176.5l-64 -15q0 69 -11.5 161.5t-37.5 177.5zM6 690q0 30 25 46.5t65 16.5q14 0 44 -5v-44q-33 5 -53 5q-27 0 -43 -10
q0 -32 29 -77l113 33v-47l-231 -66v46l77 22q-26 46 -26 80z" />
    <glyph glyph-name="uni06440623.fina" unicode="&#xfee0;&#xfe84;" horiz-adv-x="564" arabic-form="final" 
d="M418 16q-39 16 -55 55q-43 -48 -128.5 -78.5t-185.5 -44.5l-12 97q109 18 188.5 48t103.5 58l-23 545l78 14l13 -534q0 -33 15.5 -49.5t44.5 -22t79 -5.5h28q3 0 5 -8t2 -19v-46q0 -11 -2 -18.5t-5 -7.5h-31q-76 0 -115 16zM155 494q26 -86 37 -178.5t11 -176.5l-64 -15
q0 69 -11.5 161.5t-37.5 177.5zM6 691q0 30 25 46.5t65 16.5q14 0 44 -5v-44q-33 5 -53 5q-27 0 -43 -10q0 -32 29 -77l113 33v-47l-231 -66v46l77 22q-26 46 -26 80z" />
    <glyph glyph-name="uni06440625" unicode="&#xfedf;&#xfe88;" horiz-adv-x="473" arabic-form="isolated" 
d="M225.5 93q79.5 30 103.5 58l-23 545l78 14l12 -553q2 -86 -101.5 -138t-245.5 -71l-12 97q109 18 188.5 48zM79 660q70 -116 97 -253.5t27 -267.5l-64 -15q0 108 -27 246t-91 240zM128 -135q0 30 25 46.5t65 16.5q14 0 44 -5v-44q-33 5 -53 5q-27 0 -43 -10q0 -32 29 -77
l113 33v-47l-231 -66v46l77 22q-26 46 -26 80z" />
    <glyph glyph-name="uni06440625.fina" unicode="&#xfee0;&#xfe88;" horiz-adv-x="564" arabic-form="final" 
d="M418 16q-39 16 -55 55q-43 -48 -128.5 -78.5t-185.5 -44.5l-12 97q109 18 188.5 48t103.5 58l-23 545l78 14l13 -534q0 -33 15.5 -49.5t44.5 -22t79 -5.5h28q3 0 5 -8t2 -19v-46q0 -11 -2 -18.5t-5 -7.5h-31q-76 0 -115 16zM79 660q70 -116 97 -253.5t27 -267.5l-64 -15
q0 108 -27 246t-91 240zM128 -140q0 30 25 46.5t65 16.5q14 0 44 -5v-44q-33 5 -53 5q-27 0 -43 -10q0 -32 29 -77l113 33v-47l-231 -66v46l77 22q-26 46 -26 80z" />
    <glyph glyph-name="uni06440627" unicode="&#xfedf;&#xfe8e;" horiz-adv-x="473" arabic-form="isolated" 
d="M225.5 93q79.5 30 103.5 58l-23 545l78 14l12 -553q2 -86 -101.5 -138t-245.5 -71l-12 97q109 18 188.5 48zM79 660q70 -116 97 -253.5t27 -267.5l-64 -15q0 108 -27 246t-91 240z" />
    <glyph glyph-name="uni06440627.fina" unicode="&#xfee0;&#xfe8e;" horiz-adv-x="564" arabic-form="final" 
d="M418 16q-39 16 -55 55q-43 -48 -128.5 -78.5t-185.5 -44.5l-12 97q109 18 188.5 48t103.5 58l-23 545l78 14l13 -534q0 -33 15.5 -49.5t44.5 -22t79 -5.5h28q3 0 5 -8t2 -19v-46q0 -11 -2 -18.5t-5 -7.5h-31q-76 0 -115 16zM79 660q70 -116 97 -253.5t27 -267.5l-64 -15
q0 108 -27 246t-91 240z" />
    <glyph glyph-name="uni06440671" unicode="&#xfedf;&#xfb51;" horiz-adv-x="473" 
d="M225.5 93q79.5 30 103.5 58l-23 545l78 14l12 -553q2 -86 -101.5 -138t-245.5 -71l-12 97q109 18 188.5 48zM155 494q26 -86 37 -178.5t11 -176.5l-64 -15q0 69 -11.5 161.5t-37.5 177.5zM3 566.5q-24 9.5 -24 36.5v31q-24 -7 -57 -64l-33 20q15 35 46 66.5t73 28.5v-57
q0 -8 6 -12t11 -4q31 43 60 72t63 29q35 0 50.5 -20t15.5 -62q0 -27 -8 -36q-16 -17 -52.5 -27.5t-79.5 -10.5q-47 0 -71 9.5zM125.5 605.5q26.5 3.5 54.5 13.5q0 26 -7.5 38t-27.5 12q-18 0 -38 -16.5t-49 -50.5q41 0 67.5 3.5z" />
    <glyph glyph-name="uni06440671.fina" unicode="&#xfee0;&#xfb51;" horiz-adv-x="564" 
d="M418 16q-39 16 -55 55q-43 -48 -128.5 -78.5t-185.5 -44.5l-12 97q109 18 188.5 48t103.5 58l-23 545l78 14l13 -534q0 -33 15.5 -49.5t44.5 -22t79 -5.5h28q3 0 5 -8t2 -19v-46q0 -11 -2 -18.5t-5 -7.5h-31q-76 0 -115 16zM155 494q26 -86 37 -178.5t11 -176.5l-64 -15
q0 69 -11.5 161.5t-37.5 177.5zM3 556.5q-24 9.5 -24 36.5v31q-24 -7 -57 -64l-33 20q15 35 46 66.5t73 28.5v-57q0 -8 6 -12t11 -4q31 43 60 72t63 29q35 0 50.5 -20t15.5 -62q0 -27 -8 -36q-16 -17 -52.5 -27.5t-79.5 -10.5q-47 0 -71 9.5zM125.5 595.5
q26.5 3.5 54.5 13.5q0 26 -7.5 38t-27.5 12q-18 0 -38 -16.5t-49 -50.5q41 0 67.5 3.5z" />
    <glyph glyph-name="uni066E.init" unicode="&#x66e;" horiz-adv-x="331" 
d="M-5 7.5q-2 7.5 -2 18.5v46q0 11 2 19t5 8q61 0 109 7t81 27l-19 227l76 14q10 -170 10 -244q0 -27 -13 -50.5t-39 -39.5q-38 -20 -91 -30t-114 -10q-3 0 -5 7.5z" />
    <glyph glyph-name="uni066E.medi" unicode="&#x66e;" horiz-adv-x="348" 
d="M-5 7.5q-2 7.5 -2 18.5v46q0 11 2 19t5 8q49 0 83 6.5t63 23.5l-19 197l75 8l13 -208q41 -27 133 -27q2 0 4.5 -8t2.5 -19v-46q0 -11 -2.5 -18.5t-4.5 -7.5q-76 0 -116 15.5t-52 46.5q-18 -32 -62.5 -47t-117.5 -15q-3 0 -5 7.5z" />
    <glyph glyph-name="uni066E.fina" unicode="&#x66e;" horiz-adv-x="895" 
d="M224 9.5q-70 14.5 -110 53.5t-40 111q0 20 7 67t21 133l62 -13q-23 -140 -23 -171q0 -37 24 -57.5t78.5 -29.5t151.5 -9q204 0 302 35l-16 181l74 8l10 -192q18 -16 49 -21.5t81 -5.5q3 0 5 -8t2 -19v-46q0 -11 -2 -18.5t-5 -7.5q-77 0 -121 16.5t-55 44.5
q-21 -25 -75 -39q-47 -12 -112.5 -19.5t-132.5 -7.5q-105 0 -175 14.5z" />
    <glyph glyph-name="uni066F.fina" unicode="&#x66f;" horiz-adv-x="767" 
d="M771.5 91q2.5 -8 2.5 -19v-46q0 -11 -2.5 -18.5t-4.5 -7.5h-102q-3 -75 -14.5 -108.5t-39.5 -55.5q-40 -35 -121 -52.5t-178 -17.5q-125 0 -181.5 46t-56.5 140q0 20 9 79t22 143q3 20 6 39.5t6 39.5l62 -12q-38 -228 -38 -278q0 -52 46.5 -75.5t124.5 -23.5
q91 0 157.5 12.5t120.5 38.5q7 41 7 96q-44 -11 -115 -11q-45 0 -72.5 7.5t-45.5 31.5q-12 15 -16.5 27.5t-4.5 35.5q0 54 17 110t54.5 95t95.5 39q79 0 115.5 -73.5t40.5 -173.5h101q2 0 4.5 -8zM493 83q63 0 105 10q0 85 -25 127.5t-71 42.5q-41 0 -67.5 -46.5
t-26.5 -119.5q34 -14 85 -14z" />
    <glyph glyph-name="uni0695.fina" unicode="&#x695;" horiz-adv-x="379" 
d="M275 12.5q-28 12.5 -45 35.5v-11q0 -85 -69 -165.5t-201 -141.5l-49 76q110 49 172 104t80 108l-32 278l77 15l15 -140q7 -72 114 -72h42q3 0 5 -8t2 -19v-46q0 -11 -2 -18.5t-5 -7.5h-42q-34 0 -62 12.5zM-13 -445.5q-20 39.5 -47 82.5l39 19q45 -78 64 -132
q22 63 66 132l37 -25q-48 -73 -80 -160l-42 -6q-17 50 -37 89.5z" />
    <glyph glyph-name="uni06A1.init" unicode="&#x6a1;" horiz-adv-x="452" 
d="M-5 7.5q-2 7.5 -2 18.5v46q0 11 2 19t5 8q140 0 206.5 4.5t98.5 16.5q4 23 4 66q-50 -11 -115 -11q-45 0 -72.5 7.5t-45.5 31.5q-12 16 -16.5 28.5t-4.5 34.5q0 54 17 110t54.5 95t95.5 39q83 0 119.5 -80.5t36.5 -184.5q0 -80 -5.5 -123.5t-20 -67t-42.5 -36.5
q-39 -17 -99 -23t-211 -6q-3 0 -5 7.5zM205 259q69 0 105 10q0 86 -24.5 128t-71.5 42q-41 0 -67 -46.5t-26 -120.5q32 -13 84 -13z" />
    <glyph glyph-name="uni06A1.medi" unicode="&#x6a1;" horiz-adv-x="449" 
d="M-5 7.5q-2 7.5 -2 18.5v46q0 11 2 19t5 8h67q42 0 76 9q-31 19 -55 48.5t-24 57.5q0 27 27.5 75.5t68.5 85t81 36.5t74.5 -29t55.5 -78.5t21 -108.5q0 -25 -15 -44t-56 -43q39 -9 84 -9h44q3 0 5 -8t2 -19v-46q0 -11 -2 -18.5t-5 -7.5h-59q-51 0 -87.5 9.5t-74.5 37.5
q-58 -47 -170 -47h-58q-3 0 -5 7.5zM164 169.5q30 -26.5 72 -47.5l85 62q0 53 -23 98t-62 45q-21 0 -45 -20.5t-40.5 -47t-16.5 -41.5q0 -22 30 -48.5z" />
    <glyph glyph-name="uni06A1.fina" unicode="&#x6a1;" horiz-adv-x="950" 
d="M224 9.5q-70 14.5 -110 53.5t-40 111q0 20 7 67t21 133l62 -13q-23 -140 -23 -171q0 -37 24 -57.5t78.5 -29.5t151.5 -9q117 0 164.5 2t83.5 10q-31 21 -54.5 50t-23.5 58q0 28 26.5 76t67 84.5t82.5 36.5q41 0 76 -29t55 -78.5t20 -108.5q0 -26 -15 -44t-57 -43
q39 -9 86 -9h44q2 0 4.5 -8t2.5 -19v-46q0 -11 -2.5 -18.5t-4.5 -7.5h-60q-51 0 -87.5 9.5t-73.5 36.5q-18 -15 -41 -22q-87 -29 -289 -29q-105 0 -175 14.5zM664 169.5q30 -26.5 72 -47.5l85 62q0 53 -23 98t-62 45q-21 0 -45 -20.5t-40.5 -47t-16.5 -41.5q0 -22 30 -48.5z
" />
    <glyph glyph-name="uni06AA.init" unicode="&#x6aa;" horiz-adv-x="846" 
d="M-5 7.5q-2 7.5 -2 18.5v46q0 11 2 19t5 8h397q127 0 206 17.5t101 46.5q-7 52 -62.5 72.5t-163.5 20.5q-194 0 -262.5 3t-92 15t-23.5 45q0 59 44.5 118.5t115 99.5t142.5 44l11 -87q-54 -3 -104.5 -24t-86.5 -52t-49 -63q22 -8 74 -10t175 -2q117 0 192.5 -15t117 -56.5
t41.5 -118.5q0 -41 -47 -76t-137 -56t-212 -21h-377q-3 0 -5 7.5z" />
    <glyph glyph-name="uni06AA.medi" unicode="&#x6aa;" horiz-adv-x="912" 
d="M778.5 20.5q-33.5 20.5 -47.5 60.5q-46 -37 -137.5 -59t-216.5 -22h-377q-3 0 -5 7.5t-2 18.5v46q0 11 2 19t5 8h397q127 0 206 17.5t101 46.5q-7 52 -62.5 72.5t-163.5 20.5q-194 0 -262.5 3t-92 15t-23.5 45q0 59 44.5 118.5t115 99.5t142.5 44l11 -87
q-54 -3 -104.5 -24t-86.5 -52t-49 -63q22 -8 74 -10t175 -2q117 0 192.5 -15t117 -56.5t41.5 -118.5q0 -6 -2 -14q12 -23 35 -31.5t65 -8.5h41q3 0 5 -8t2 -19v-46q0 -11 -2 -18.5t-5 -7.5h-34q-66 0 -99.5 20.5z" />
    <glyph glyph-name="uni06AA.fina" unicode="&#x6aa;" horiz-adv-x="1036" 
d="M903 20q-34 20 -48 60q-47 -39 -138 -62t-216 -23q-140 0 -371 12l-56 99q130 -8 214.5 -10t232.5 -2q126 0 205.5 19.5t101.5 48.5q-6 53 -62 73.5t-164 20.5q-194 0 -262.5 3t-92 15t-23.5 45q0 59 44.5 118.5t115 99.5t142.5 44l11 -87q-54 -3 -105 -24t-87 -52
t-48 -63q21 -8 73.5 -10t175.5 -2q117 0 192.5 -15t117 -56.5t41.5 -118.5q0 -5 -2 -15q12 -22 34.5 -30.5t64.5 -8.5h42q3 0 5 -8t2 -19v-46q0 -11 -2 -18.5t-5 -7.5h-34q-65 0 -99 20z" />
    <glyph glyph-name="uni06B5.init" unicode="&#x6b5;" horiz-adv-x="333" 
d="M-5 7.5q-2 7.5 -2 18.5v46q0 11 2 19t5 8q63 0 110.5 6.5t80.5 27.5l-21 563l79 14l9 -580q1 -70 -75 -100t-183 -30q-3 0 -5 7.5zM155 884.5q-20 39.5 -47 82.5l39 19q45 -78 64 -132q22 63 66 132l37 -25q-48 -73 -80 -160l-42 -6q-17 50 -37 89.5z" />
    <glyph glyph-name="uni06B5.medi" unicode="&#x6b5;" horiz-adv-x="365" 
d="M-5 7.5q-2 7.5 -2 18.5v46q0 11 2 19t5 8q61 0 96 6t55 26l-21 565l78 14l10 -530q1 -81 120 -81h27q3 0 5 -8t2 -19v-46q0 -11 -2 -18.5t-5 -7.5q-84 0 -125.5 17.5t-51.5 52.5q-40 -70 -188 -70q-3 0 -5 7.5zM136 884.5q-20 39.5 -47 82.5l39 19q45 -78 64 -132
q22 63 66 132l37 -25q-48 -73 -80 -160l-42 -6q-17 50 -37 89.5z" />
    <glyph glyph-name="uni06B5.fina" unicode="&#x6b5;" horiz-adv-x="716" 
d="M573 43l2 -126q0 -43 -42.5 -74.5t-106.5 -47.5t-126 -16q-117 0 -171.5 46t-54.5 140q0 20 9 79t22 143q3 20 6 39.5t6 39.5l62 -12q-38 -228 -38 -278q0 -51 44.5 -75t114.5 -24q62 0 117 12.5t91 40.5l-27 766l79 14l10 -548q6 -29 18 -42.5t30 -17t49 -3.5h49
q3 0 5 -8t2 -19v-46q0 -11 -2 -18.5t-5 -7.5h-41q-69 0 -102 43zM147 457.5q-20 39.5 -47 82.5l39 19q45 -78 64 -132q22 63 66 132l37 -25q-48 -73 -80 -160l-42 -6q-17 50 -37 89.5z" />
    <glyph glyph-name="uni06C2.fina" unicode="&#x6c2;" horiz-adv-x="490" 
d="M334 78l-8 -11q-15 -20 -46.5 -27t-81.5 -7t-87 23.5t-37 71.5q0 185 209 243l-8 65l72 22l24 -248q4 -43 10.5 -65t24.5 -34t54 -12h30q3 0 5.5 -8t2.5 -19v-46q0 -11 -2.5 -18.5t-5.5 -7.5h-28q-104 0 -128 78zM207 123q30 0 53 5t51 14l-17 155q-78 -15 -116.5 -61
t-41.5 -94q25 -19 71 -19zM241 691q0 30 25 46.5t65 16.5q14 0 44 -5v-44q-33 5 -53 5q-27 0 -43 -10q0 -32 29 -77l113 33v-47l-231 -66v46l77 22q-26 46 -26 80z" />
    <glyph glyph-name="uni06C3.fina" unicode="&#x6c3;" horiz-adv-x="490" 
d="M334 78l-8 -11q-15 -20 -46.5 -27t-81.5 -7t-87 23.5t-37 71.5q0 185 209 243l-8 65l72 22l24 -248q4 -43 10.5 -65t24.5 -34t54 -12h30q3 0 5.5 -8t2.5 -19v-46q0 -11 -2.5 -18.5t-5.5 -7.5h-28q-104 0 -128 78zM207 123q30 0 53 5t51 14l-17 155q-78 -15 -116.5 -61
t-41.5 -94q25 -19 71 -19zM178 615l56 68l71 -57l-55 -68zM362 683l72 -57l-56 -68l-71 57z" />
    <glyph glyph-name="uni06CE.init" unicode="&#x6ce;" horiz-adv-x="331" 
d="M-5 7.5q-2 7.5 -2 18.5v46q0 11 2 19t5 8q61 0 109 7t81 27l-19 227l76 14q10 -170 10 -244q0 -27 -13 -50.5t-39 -39.5q-38 -20 -91 -30t-114 -10q-3 0 -5 7.5zM-29 -175l56 68l71 -57l-55 -68zM155 -107l72 -57l-56 -68l-71 57zM142 558.5q-20 39.5 -47 82.5l39 19
q45 -78 64 -132q22 63 66 132l37 -25q-48 -73 -80 -160l-42 -6q-17 50 -37 89.5z" />
    <glyph glyph-name="uni06CE.medi" unicode="&#x6ce;" horiz-adv-x="348" 
d="M-5 7.5q-2 7.5 -2 18.5v46q0 11 2 19t5 8q49 0 83 6.5t63 23.5l-19 197l75 8l13 -208q41 -27 133 -27q2 0 4.5 -8t2.5 -19v-46q0 -11 -2.5 -18.5t-4.5 -7.5q-76 0 -116 15.5t-52 46.5q-18 -32 -62.5 -47t-117.5 -15q-3 0 -5 7.5zM25 -175l56 68l71 -57l-55 -68zM209 -107
l72 -57l-56 -68l-71 57zM100 523.5q-20 39.5 -47 82.5l39 19q45 -78 64 -132q22 63 66 132l37 -25q-48 -73 -80 -160l-42 -6q-17 50 -37 89.5z" />
    <glyph glyph-name="uni06CE.fina" unicode="&#x6ce;" horiz-adv-x="680" 
d="M130.5 -199q-56.5 46 -56.5 140q0 20 8.5 78.5t21.5 140.5l13 83l62 -13q-38 -228 -38 -278q0 -52 46.5 -75t124.5 -23q92 0 155.5 13t102.5 50q3 16 3 28q0 25 -16 36.5t-51 15t-109 3.5l22 99h261q3 0 5 -8t2 -19v-46q0 -11 -2 -18.5t-5 -7.5h-42q5 -20 5 -39
q0 -107 -94.5 -156.5t-236.5 -49.5q-125 0 -181.5 46zM183 432.5q-20 39.5 -47 82.5l39 19q45 -78 64 -132q22 63 66 132l37 -25q-48 -73 -80 -160l-42 -6q-17 50 -37 89.5z" />
    <glyph glyph-name="uni06D5.fina" unicode="&#x6d5;" horiz-adv-x="490" 
d="M334 78l-8 -11q-15 -20 -46.5 -27t-81.5 -7t-87 23.5t-37 71.5q0 185 209 243l-8 65l72 22l24 -248q4 -43 10.5 -65t24.5 -34t54 -12h30q3 0 5.5 -8t2.5 -19v-46q0 -11 -2.5 -18.5t-5.5 -7.5h-28q-104 0 -128 78zM207 123q30 0 53 5t51 14l-17 155q-78 -15 -116.5 -61
t-41.5 -94q25 -19 71 -19z" />
    <glyph glyph-name="uni0671.fina" unicode="&#x671;" horiz-adv-x="290" arabic-form="final" 
d="M128 45q-45 45 -52 151l-12 325l78 14l5 -338q1 -51 32 -74.5t83 -23.5h28q3 0 5 -8t2 -19v-46q0 -11 -2 -18.5t-5 -7.5h-20q-97 0 -142 45zM34 598.5q-24 9.5 -24 36.5v31q-24 -7 -57 -64l-33 20q15 35 46 66.5t73 28.5v-57q0 -8 6 -12t11 -4q31 43 60 72t63 29
q35 0 50.5 -20t15.5 -62q0 -27 -8 -36q-16 -17 -52.5 -27.5t-79.5 -10.5q-47 0 -71 9.5zM156.5 637.5q26.5 3.5 54.5 13.5q0 26 -7.5 38t-27.5 12q-18 0 -38 -16.5t-49 -50.5q41 0 67.5 3.5z" />
    <glyph glyph-name="uni067E.fina" unicode="&#x67e;" horiz-adv-x="895" arabic-form="final" 
d="M224 9.5q-70 14.5 -110 53.5t-40 111q0 20 7 67t21 133l62 -13q-23 -140 -23 -171q0 -37 24 -57.5t78.5 -29.5t151.5 -9q204 0 302 35l-16 181l74 8l10 -192q18 -16 49 -21.5t81 -5.5q3 0 5 -8t2 -19v-46q0 -11 -2 -18.5t-5 -7.5q-77 0 -121 16.5t-55 44.5
q-21 -25 -75 -39q-47 -12 -112.5 -19.5t-132.5 -7.5q-105 0 -175 14.5zM280 -173l51 64l66 -52l-51 -64zM395 -221l67 -53l-51 -63l-66 52zM452 -109l66 -52l-51 -64l-66 52z" />
    <glyph glyph-name="uni067E.init" unicode="&#x67e;" horiz-adv-x="331" arabic-form="initial" 
d="M-5 7.5q-2 7.5 -2 18.5v46q0 11 2 19t5 8q61 0 109 7t81 27l-19 227l76 14q10 -170 10 -244q0 -27 -13 -50.5t-39 -39.5q-38 -20 -91 -30t-114 -10q-3 0 -5 7.5zM-20 -171l51 64l66 -52l-51 -64zM95 -219l67 -53l-51 -63l-66 52zM152 -107l66 -52l-51 -64l-66 52z" />
    <glyph glyph-name="uni067E.medi" unicode="&#x67e;" horiz-adv-x="348" arabic-form="medial" 
d="M-5 7.5q-2 7.5 -2 18.5v46q0 11 2 19t5 8q49 0 83 6.5t63 23.5l-19 197l75 8l13 -208q41 -27 133 -27q2 0 4.5 -8t2.5 -19v-46q0 -11 -2.5 -18.5t-4.5 -7.5q-76 0 -116 15.5t-52 46.5q-18 -32 -62.5 -47t-117.5 -15q-3 0 -5 7.5zM34 -171l51 64l66 -52l-51 -64zM149 -219
l67 -53l-51 -63l-66 52zM206 -107l66 -52l-51 -64l-66 52z" />
    <glyph glyph-name="uni0679.fina" unicode="&#x679;" horiz-adv-x="895" arabic-form="final" 
d="M224 9.5q-70 14.5 -110 53.5t-40 111q0 20 7 67t21 133l62 -13q-23 -140 -23 -171q0 -37 24 -57.5t78.5 -29.5t151.5 -9q204 0 302 35l-16 181l74 8l10 -192q18 -16 49 -21.5t81 -5.5q3 0 5 -8t2 -19v-46q0 -11 -2 -18.5t-5 -7.5q-77 0 -121 16.5t-55 44.5
q-21 -25 -75 -39q-47 -12 -112.5 -19.5t-132.5 -7.5q-105 0 -175 14.5zM310 417h31l9 14q6 10 8 24.5t2 46.5q0 36 -3 117l39 9v-114q0 -19 -3 -31q22 25 41.5 39.5t39.5 14.5q36 0 55 -23t19 -68q0 -35 -35 -54.5t-96 -19.5h-98zM428 418q53 0 84 24q-1 25 -12.5 37.5
t-29.5 12.5q-29 0 -85 -74h43z" />
    <glyph glyph-name="uni0679.init" unicode="&#x679;" horiz-adv-x="331" arabic-form="initial" 
d="M-5 7.5q-2 7.5 -2 18.5v46q0 11 2 19t5 8q61 0 109 7t81 27l-19 227l76 14q10 -170 10 -244q0 -27 -13 -50.5t-39 -39.5q-38 -20 -91 -30t-114 -10q-3 0 -5 7.5zM79 514h31l9 14q6 10 8 24.5t2 46.5q0 36 -3 117l39 9v-114q0 -19 -3 -31q22 25 41.5 39.5t39.5 14.5
q36 0 55 -23t19 -68q0 -35 -35 -54.5t-96 -19.5h-98zM197 515q53 0 84 24q-1 25 -12.5 37.5t-29.5 12.5q-29 0 -85 -74h43z" />
    <glyph glyph-name="uni0679.medi" unicode="&#x679;" horiz-adv-x="348" arabic-form="medial" 
d="M-5 7.5q-2 7.5 -2 18.5v46q0 11 2 19t5 8q49 0 83 6.5t63 23.5l-19 197l75 8l13 -208q41 -27 133 -27q2 0 4.5 -8t2.5 -19v-46q0 -11 -2.5 -18.5t-4.5 -7.5q-76 0 -116 15.5t-52 46.5q-18 -32 -62.5 -47t-117.5 -15q-3 0 -5 7.5zM37 479h31l9 14q6 10 8 24.5t2 46.5
q0 36 -3 117l39 9v-114q0 -19 -3 -31q22 25 41.5 39.5t39.5 14.5q36 0 55 -23t19 -68q0 -35 -35 -54.5t-96 -19.5h-98zM155 480q53 0 84 24q-1 25 -12.5 37.5t-29.5 12.5q-29 0 -85 -74h43z" />
    <glyph glyph-name="uni06A4.fina" unicode="&#x6a4;" horiz-adv-x="950" arabic-form="final" 
d="M224 9.5q-70 14.5 -110 53.5t-40 111q0 20 7 67t21 133l62 -13q-23 -140 -23 -171q0 -37 24 -57.5t78.5 -29.5t151.5 -9q117 0 164.5 2t83.5 10q-31 21 -54.5 50t-23.5 58q0 28 26.5 76t67 84.5t82.5 36.5q41 0 76 -29t55 -78.5t20 -108.5q0 -26 -15 -44t-57 -43
q39 -9 86 -9h44q2 0 4.5 -8t2.5 -19v-46q0 -11 -2.5 -18.5t-4.5 -7.5h-60q-51 0 -87.5 9.5t-73.5 36.5q-18 -15 -41 -22q-87 -29 -289 -29q-105 0 -175 14.5zM664 169.5q30 -26.5 72 -47.5l85 62q0 53 -23 98t-62 45q-21 0 -45 -20.5t-40.5 -47t-16.5 -41.5q0 -22 30 -48.5z
M618 554l51 64l66 -53l-51 -64zM722 741l67 -53l-51 -64l-67 53zM790 618l66 -53l-51 -64l-66 53z" />
    <glyph glyph-name="uni06A4.init" unicode="&#x6a4;" horiz-adv-x="452" arabic-form="initial" 
d="M-5 7.5q-2 7.5 -2 18.5v46q0 11 2 19t5 8q140 0 206.5 4.5t98.5 16.5q4 23 4 66q-50 -11 -115 -11q-45 0 -72.5 7.5t-45.5 31.5q-12 16 -16.5 28.5t-4.5 34.5q0 54 17 110t54.5 95t95.5 39q83 0 119.5 -80.5t36.5 -184.5q0 -80 -5.5 -123.5t-20 -67t-42.5 -36.5
q-39 -17 -99 -23t-211 -6q-3 0 -5 7.5zM205 259q69 0 105 10q0 86 -24.5 128t-71.5 42q-41 0 -67 -46.5t-26 -120.5q32 -13 84 -13zM95 668l51 64l66 -53l-51 -64zM199 855l67 -53l-51 -64l-67 53zM267 732l66 -53l-51 -64l-66 53z" />
    <glyph glyph-name="uni06A4.medi" unicode="&#x6a4;" horiz-adv-x="449" arabic-form="medial" 
d="M-5 7.5q-2 7.5 -2 18.5v46q0 11 2 19t5 8h67q42 0 76 9q-31 19 -55 48.5t-24 57.5q0 27 27.5 75.5t68.5 85t81 36.5t74.5 -29t55.5 -78.5t21 -108.5q0 -25 -15 -44t-56 -43q39 -9 84 -9h44q3 0 5 -8t2 -19v-46q0 -11 -2 -18.5t-5 -7.5h-59q-51 0 -87.5 9.5t-74.5 37.5
q-58 -47 -170 -47h-58q-3 0 -5 7.5zM164 169.5q30 -26.5 72 -47.5l85 62q0 53 -23 98t-62 45q-21 0 -45 -20.5t-40.5 -47t-16.5 -41.5q0 -22 30 -48.5zM118 554l51 64l66 -53l-51 -64zM222 741l67 -53l-51 -64l-67 53zM290 618l66 -53l-51 -64l-66 53z" />
    <glyph glyph-name="uni0686.fina" unicode="&#x686;" horiz-adv-x="703" arabic-form="final" 
d="M533 18.5q-43 18.5 -66.5 59t-38.5 112.5q-121 -40 -198.5 -107.5t-86.5 -159.5q0 -92 65 -139t172 -47q97 0 206 30l-5 -98q-101 -29 -203 -29q-141 0 -225 63t-84 189q0 119 80 220t257 161q-30 8 -115 43q-43 18 -67.5 27t-35.5 9q-26 0 -39 -16.5t-19 -51.5l-60 10
q13 72 39.5 110.5t78.5 38.5q26 0 60.5 -12.5t92.5 -38.5q78 -35 131.5 -53.5t105.5 -19.5l-9 -95q-55 -9 -85 -17q11 -45 28.5 -68t45.5 -31.5t75 -8.5h70q2 0 4.5 -8t2.5 -19v-46q0 -11 -2.5 -18.5t-4.5 -7.5h-53q-74 0 -117 18.5zM307 14l54 -41l-41 -52l-53 42zM361 -77
l53 -41l-41 -51l-53 41zM408 14l53 -41l-41 -52l-52 42z" />
    <glyph glyph-name="uni0686.init" unicode="&#x686;" horiz-adv-x="681" arabic-form="initial" 
d="M-5 7.5q-2 7.5 -2 18.5v46q0 11 2 19t5 8h36q63 0 126 16.5t137 50.5q16 8 24 11q78 40 118 52q-26 7 -63 21t-72 29q-36 15 -69 27t-45 12q-26 0 -39 -16.5t-19 -52.5l-60 11q13 71 39.5 109.5t77.5 38.5q26 0 60 -12t89 -36q84 -36 146 -56t124 -20l-17 -95
q-64 -3 -116 -25t-134 -71q-77 -45 -149 -69t-164 -24h-30q-3 0 -5 7.5zM200 -171l51 64l66 -52l-51 -64zM315 -219l67 -53l-51 -63l-66 52zM372 -107l66 -52l-51 -64l-66 52z" />
    <glyph glyph-name="uni0686.medi" unicode="&#x686;" horiz-adv-x="678" arabic-form="medial" 
d="M-5 7.5q-2 7.5 -2 18.5v46q0 11 2 19t5 8h36q63 0 126 16.5t137 50.5l41 20q7 4 42.5 20.5t61.5 24.5q-26 7 -64.5 21t-73.5 28q-37 15 -69.5 26.5t-44.5 11.5q-26 0 -39 -16.5t-19 -52.5l-60 11q13 71 39.5 109.5t77.5 38.5q26 0 60.5 -11.5t88.5 -34.5
q83 -35 145.5 -54t124.5 -19l-17 -91q-40 -2 -76.5 -14.5t-76.5 -33.5q15 -30 59 -40.5t124 -10.5h55q2 0 4.5 -8t2.5 -19v-46q0 -11 -2.5 -18.5t-4.5 -7.5h-102q-75 0 -125 29.5t-60 92.5l-27 -16l-21 -13q-77 -45 -149 -69t-164 -24h-30q-3 0 -5 7.5zM200 -171l51 64
l66 -52l-51 -64zM315 -219l67 -53l-51 -63l-66 52zM372 -107l66 -52l-51 -64l-66 52z" />
    <glyph glyph-name="uni0688.fina" unicode="&#x688;" horiz-adv-x="584" arabic-form="final" 
d="M92 13.5q-28 28.5 -28 102.5q0 36 2 56l60 -5v-19q0 -31 5 -44t20 -16.5t51 -3.5q55 0 109 14t83 37l-74 305l73 40l57 -277q11 -53 22.5 -73.5t33.5 -25.5t78 -5q2 0 4.5 -8t2.5 -19v-46q0 -11 -2.5 -18.5t-4.5 -7.5h-25q-53 0 -86 18.5t-45 58.5q-6 -17 -14 -26
t-20 -16q-32 -20 -92 -35t-111 -15q-71 0 -99 28.5zM208 617h31l9 14q6 10 8 24.5t2 46.5q0 36 -3 117l39 9v-114q0 -19 -3 -31q22 25 41.5 39.5t39.5 14.5q36 0 55 -23t19 -68q0 -35 -35 -54.5t-96 -19.5h-98zM326 618q53 0 84 24q-1 25 -12.5 37.5t-29.5 12.5
q-29 0 -85 -74h43z" />
    <glyph glyph-name="uni0698.fina" unicode="&#x698;" horiz-adv-x="379" arabic-form="final" 
d="M275 12.5q-28 12.5 -45 35.5v-11q0 -85 -69 -165.5t-201 -141.5l-49 76q110 49 172 104t80 108l-32 278l77 15l15 -140q7 -72 114 -72h42q3 0 5 -8t2 -19v-46q0 -11 -2 -18.5t-5 -7.5h-42q-34 0 -62 12.5zM37 473l51 64l66 -53l-51 -64zM141 660l67 -53l-51 -64l-67 53z
M209 537l66 -53l-51 -64l-66 53z" />
    <glyph glyph-name="uni0691.fina" unicode="&#x691;" horiz-adv-x="379" arabic-form="final" 
d="M275 12.5q-28 12.5 -45 35.5v-11q0 -85 -69 -165.5t-201 -141.5l-49 76q110 49 172 104t80 108l-32 278l77 15l15 -140q7 -72 114 -72h42q3 0 5 -8t2 -19v-46q0 -11 -2 -18.5t-5 -7.5h-42q-34 0 -62 12.5zM37 461h31l9 14q6 10 8 24.5t2 46.5q0 36 -3 117l39 9v-114
q0 -19 -3 -31q22 25 41.5 39.5t39.5 14.5q36 0 55 -23t19 -68q0 -35 -35 -54.5t-96 -19.5h-98zM155 462q53 0 84 24q-1 25 -12.5 37.5t-29.5 12.5q-29 0 -85 -74h43z" />
    <glyph glyph-name="uni06A9.fina" unicode="&#x6a9;" horiz-adv-x="892" arabic-form="final" 
d="M729 56q-36 -32 -118.5 -46.5t-211.5 -14.5q-105 0 -175 14.5t-110 53.5t-40 111q0 20 7 67t21 133l62 -13q-23 -140 -23 -171q0 -37 24 -57.5t78.5 -29.5t151.5 -9q209 0 287 35q-10 123 -61.5 209t-170.5 163l10 73q163 81 336 136l11 -82q-131 -40 -250 -98
q103 -82 148.5 -177.5t50.5 -205.5q9 -28 28.5 -38t55.5 -10h52q3 0 5 -8t2 -19v-46q0 -11 -2 -18.5t-5 -7.5h-46q-91 0 -117 56z" />
    <glyph glyph-name="uni06A9.init" unicode="&#x6a9;" horiz-adv-x="413" arabic-form="initial" 
d="M-5 7.5q-2 7.5 -2 18.5v46q0 11 2 19t5 8q83 0 146.5 8t98.5 22q-10 123 -61 209t-170 163l10 73q159 79 336 136l11 -82q-133 -41 -251 -98q110 -88 155 -191t45 -224q0 -62 -83.5 -88.5t-236.5 -26.5q-3 0 -5 7.5z" />
    <glyph glyph-name="uni06A9.medi" unicode="&#x6a9;" horiz-adv-x="455" arabic-form="medial" 
d="M293 56q-64 -56 -293 -56q-3 0 -5 7.5t-2 18.5v46q0 11 2 19t5 8q83 0 146.5 8t98.5 22q-10 123 -61 209t-170 163l10 73q159 79 336 136l11 -82q-133 -41 -251 -98q103 -81 148.5 -176t50.5 -205q8 -29 27.5 -39.5t56.5 -10.5h52q3 0 5 -8t2 -19v-46q0 -11 -2 -18.5
t-5 -7.5h-45q-91 0 -117 56z" />
    <glyph glyph-name="uni06AF.fina" unicode="&#x6af;" horiz-adv-x="892" arabic-form="final" 
d="M729 56q-36 -32 -118.5 -46.5t-211.5 -14.5q-105 0 -175 14.5t-110 53.5t-40 111q0 20 7 67t21 133l62 -13q-23 -140 -23 -171q0 -37 24 -57.5t78.5 -29.5t151.5 -9q209 0 287 35q-10 123 -61.5 209t-170.5 163l10 73q163 81 336 136l11 -82q-131 -40 -250 -98
q103 -82 148.5 -177.5t50.5 -205.5q9 -28 28.5 -38t55.5 -10h52q3 0 5 -8t2 -19v-46q0 -11 -2 -18.5t-5 -7.5h-46q-91 0 -117 56zM469 669l163 79l5 -40l-172 -82z" />
    <glyph glyph-name="uni06AF.init" unicode="&#x6af;" horiz-adv-x="413" arabic-form="initial" 
d="M-5 7.5q-2 7.5 -2 18.5v46q0 11 2 19t5 8q83 0 146.5 8t98.5 22q-10 123 -61 209t-170 163l10 73q159 79 336 136l11 -82q-133 -41 -251 -98q110 -88 155 -191t45 -224q0 -62 -83.5 -88.5t-236.5 -26.5q-3 0 -5 7.5zM33 669l163 79l5 -40l-172 -82z" />
    <glyph glyph-name="uni06AF.medi" unicode="&#x6af;" horiz-adv-x="455" arabic-form="medial" 
d="M293 56q-64 -56 -293 -56q-3 0 -5 7.5t-2 18.5v46q0 11 2 19t5 8q83 0 146.5 8t98.5 22q-10 123 -61 209t-170 163l10 73q159 79 336 136l11 -82q-133 -41 -251 -98q103 -81 148.5 -176t50.5 -205q8 -29 27.5 -39.5t56.5 -10.5h52q3 0 5 -8t2 -19v-46q0 -11 -2 -18.5
t-5 -7.5h-45q-91 0 -117 56zM33 669l163 79l5 -40l-172 -82z" />
    <glyph glyph-name="uni06BA.fina" unicode="&#x6ba;" horiz-adv-x="777" arabic-form="final" 
d="M611 54q5 -93 5 -137q0 -43 -44 -74.5t-114 -47.5t-146 -16q-124 0 -181 45t-57 135q0 30 10 99.5t33 207.5l62 -12q-38 -228 -38 -278q0 -52 46 -75.5t125 -23.5q170 0 237 53l-35 380l76 16l14 -150q4 -35 22 -51.5t46.5 -21t79.5 -4.5h25q3 0 5 -8t2 -19v-46
q0 -11 -2 -18.5t-5 -7.5h-22q-109 0 -144 54z" />
    <glyph glyph-name="uni06C0.fina" unicode="&#x6c0;" horiz-adv-x="490" arabic-form="final" 
d="M334 78l-8 -11q-15 -20 -46.5 -27t-81.5 -7t-87 23.5t-37 71.5q0 185 209 243l-8 65l72 22l24 -248q4 -43 10.5 -65t24.5 -34t54 -12h30q3 0 5.5 -8t2.5 -19v-46q0 -11 -2.5 -18.5t-5.5 -7.5h-28q-104 0 -128 78zM207 123q30 0 53 5t51 14l-17 155q-78 -15 -116.5 -61
t-41.5 -94q25 -19 71 -19zM299.5 623q42.5 11 56.5 32q0 22 -18.5 30.5t-53.5 13.5q-32 5 -47.5 11.5t-15.5 23.5q0 25 14.5 65.5t40 71.5t58.5 31q24 0 42.5 -14t34.5 -40l-29 -26q-23 27 -48 27q-26 0 -45 -29.5t-25 -65.5q50 -4 78 -12t42 -27t14 -53q0 -49 -55 -78
t-148 -29l4 57q58 0 100.5 11z" />
    <glyph glyph-name="uni06C1.fina" unicode="&#x6c1;" horiz-adv-x="504" arabic-form="final" 
d="M109 181q34 60 100 98t158 47l12 -116q5 -48 13 -70.5t26 -31.5t54 -9h32q3 0 5 -8t2 -19v-46q0 -11 -2 -18.5t-5 -7.5h-32q-77 0 -113 36.5t-41 107.5l-9 77q-66 -15 -111.5 -66.5t-51.5 -131.5l-72 24q1 74 35 134z" />
    <glyph glyph-name="uni06C1.init" unicode="&#x6c1;" horiz-adv-x="332" arabic-form="initial" 
d="M69.5 -285q-18.5 21 -18.5 59q0 43 22 95.5t52 91.5l37 -39q-48 -59 -59 -110q9 3 16 3q26 0 43.5 -17t17.5 -43t-17.5 -43.5t-43.5 -17.5q-31 0 -49.5 21zM-7 72q0 11 2 19t5 8q61 0 109 7t81 27l-19 227l76 14q10 -170 10 -244q0 -27 -13 -50.5t-39 -39.5
q-38 -20 -91 -30t-114 -10q-3 0 -5 7.5t-2 18.5v46z" />
    <glyph glyph-name="uni06C1.medi" unicode="&#x6c1;" horiz-adv-x="465" arabic-form="medial" 
d="M177.5 -151.5q-54.5 64.5 -52.5 187.5q-22 -21 -57 -28.5t-68 -7.5q-3 0 -5 7.5t-2 18.5v46q0 11 2 19t5 8q52 1 78 12t36.5 39.5t14.5 87.5l72 9q-14 -113 -14 -195q0 -65 19 -99.5t63 -47.5q-15 10 -15 46q3 68 49 108t121 40h41q3 0 5 -8t2 -19v-46q0 -11 -2 -18.5
t-5 -7.5q-57 0 -88.5 -7t-45.5 -23t-14 -44q0 -23 13 -35.5t35 -12.5v-94q-133 0 -187.5 64.5z" />
    <glyph glyph-name="uni06BE.fina" unicode="&#x6be;" horiz-adv-x="571" arabic-form="final" 
d="M232 -155.5q-44 60.5 -61 155.5h-96l30 99h77q10 65 37.5 125t67 97.5t80.5 37.5h58l7 -260h139q2 0 4.5 -8t2.5 -19v-46q0 -11 -2.5 -18.5t-4.5 -7.5q-106 0 -136 5q21 -9 31 -33t10 -53v-47q0 -38 -24 -61q-16 -16 -30.5 -21.5t-40.5 -5.5q-105 0 -149 60.5zM382 -136
q18 0 27 1v55q0 39 -22 64.5t-73 25.5h-75q7 -146 143 -146zM306 87q43 0 62 -8l-6 207q-30 -2 -56 -37.5t-43 -82t-21 -79.5h64z" />
    <glyph glyph-name="uni06BE.init" unicode="&#x6be;" horiz-adv-x="609" arabic-form="initial" 
d="M191 10.5q-67 -10.5 -191 -10.5q-3 0 -5 7.5t-2 18.5v46q0 11 2 19t5 8h89q29 0 67 -4q-34 16 -54 40.5t-20 54.5q0 34 21.5 79t58.5 89l-49 23l34 74l258 -115q71 -32 105 -75t34 -105q0 -49 -27 -109q-14 -28 -35 -43q-20 -16 -36 -16q-7 0 -16 3l-149 56
q-23 -30 -90 -40.5zM184.5 173.5q25.5 -14.5 72.5 -25.5l59 140l-94 42q-63 -74 -63 -119q0 -23 25.5 -37.5zM451 75q24 37 24 79q0 35 -21.5 61t-76.5 49l-58 -139z" />
    <glyph glyph-name="uni06BE.medi" unicode="&#x6be;" horiz-adv-x="630" arabic-form="medial" 
d="M559.5 9q-28.5 9 -48.5 30q-11 -17 -29 -31q-20 -16 -36 -16q-7 0 -16 3l-149 56q-23 -30 -90 -40.5t-191 -10.5q-3 0 -5 7.5t-2 18.5v46q0 11 2 19t5 8h89q29 0 67 -4q-34 16 -54 40.5t-20 54.5q0 34 21.5 79t58.5 89l-49 23l34 74l258 -115q71 -32 105 -75t34 -105
q0 -21 -4 -38q13 -12 35 -17.5t55 -5.5q3 0 5 -8t2 -19v-46q0 -11 -2 -18.5t-5 -7.5q-42 0 -70.5 9zM184.5 173.5q25.5 -14.5 72.5 -25.5l59 140l-94 42q-63 -74 -63 -119q0 -23 25.5 -37.5zM451 75q24 37 24 79q0 35 -21.5 61t-76.5 49l-58 -139z" />
    <glyph glyph-name="uni06D2.fina" unicode="&#x6d2;" horiz-adv-x="657" arabic-form="final" 
d="M74 -142q0 59 43.5 115t124 91t185.5 35h230q3 0 5 -8t2 -19v-46q0 -11 -2 -18.5t-5 -7.5h-230q-133 0 -207 -33t-79 -91q28 -34 74 -44.5t137 -10.5q63 0 132 4t84 5l49 3l-22 -99l-25 -2q-61 -4 -124.5 -7t-118.5 -3q-253 0 -253 136z" />
    <glyph glyph-name="uni06D3.fina" unicode="&#x6d3;" horiz-adv-x="657" arabic-form="final" 
d="M74 -142q0 59 43.5 115t124 91t185.5 35h230q3 0 5 -8t2 -19v-46q0 -11 -2 -18.5t-5 -7.5h-230q-133 0 -207 -33t-79 -91q28 -34 74 -44.5t137 -10.5q63 0 132 4t84 5l49 3l-22 -99l-25 -2q-61 -4 -124.5 -7t-118.5 -3q-253 0 -253 136zM262 314q0 30 25 46.5t65 16.5
q14 0 44 -5v-44q-33 5 -53 5q-27 0 -43 -10q0 -32 29 -77l113 33v-47l-231 -66v46l77 22q-26 46 -26 80z" />
    <glyph glyph-name="uni06C7.fina" unicode="&#x6c7;" horiz-adv-x="461" arabic-form="final" 
d="M304 9q-45 -9 -105 -9q-44 0 -72 8t-45 31q-12 15 -16.5 27.5t-4.5 35.5q0 54 17 110t54 95t95 39q79 0 116 -73.5t41 -173.5h77q3 0 5 -8t2 -19v-46q0 -11 -2 -18.5t-5 -7.5h-88q-25 -88 -99 -157t-181 -113l-48 76q215 81 259 203zM210 84q69 0 105 10q0 86 -24.5 128
t-71.5 42q-41 0 -67 -46.5t-26 -120.5q32 -13 84 -13zM115 478l96 27q-12 2 -16.5 10t-4.5 21q0 15 8 40t26 45t46 20q34 0 55 -31t21 -71q0 -28 -12.5 -38.5t-48.5 -20.5l-170 -48v46zM266 525q24 0 42 6q0 68 -40 68q-18 0 -28.5 -19t-11.5 -50q13 -5 38 -5z" />
    <glyph glyph-name="uni06C6.fina" unicode="&#x6c6;" horiz-adv-x="461" arabic-form="final" 
d="M304 9q-45 -9 -105 -9q-44 0 -72 8t-45 31q-12 15 -16.5 27.5t-4.5 35.5q0 54 17 110t54 95t95 39q79 0 116 -73.5t41 -173.5h77q3 0 5 -8t2 -19v-46q0 -11 -2 -18.5t-5 -7.5h-88q-25 -88 -99 -157t-181 -113l-48 76q215 81 259 203zM210 84q69 0 105 10q0 86 -24.5 128
t-71.5 42q-41 0 -67 -46.5t-26 -120.5q32 -13 84 -13zM171 538.5q-20 39.5 -47 82.5l39 19q45 -78 64 -132q22 63 66 132l37 -25q-48 -73 -80 -160l-42 -6q-17 50 -37 89.5z" />
    <glyph glyph-name="uni06CC.fina" unicode="&#x6cc;" horiz-adv-x="680" arabic-form="final" 
d="M130.5 -199q-56.5 46 -56.5 140q0 20 8.5 78.5t21.5 140.5l13 83l62 -13q-38 -228 -38 -278q0 -52 46.5 -75t124.5 -23q92 0 155.5 13t102.5 50q3 16 3 28q0 25 -16 36.5t-51 15t-109 3.5l22 99h261q3 0 5 -8t2 -19v-46q0 -11 -2 -18.5t-5 -7.5h-42q5 -20 5 -39
q0 -107 -94.5 -156.5t-236.5 -49.5q-125 0 -181.5 46z" />
    <glyph glyph-name="uni06CC.init" unicode="&#x6cc;" horiz-adv-x="331" arabic-form="initial" 
d="M-5 7.5q-2 7.5 -2 18.5v46q0 11 2 19t5 8q61 0 109 7t81 27l-19 227l76 14q10 -170 10 -244q0 -27 -13 -50.5t-39 -39.5q-38 -20 -91 -30t-114 -10q-3 0 -5 7.5zM-29 -175l56 68l71 -57l-55 -68zM155 -107l72 -57l-56 -68l-71 57z" />
    <glyph glyph-name="uni06CC.medi" unicode="&#x6cc;" horiz-adv-x="348" arabic-form="medial" 
d="M-5 7.5q-2 7.5 -2 18.5v46q0 11 2 19t5 8q49 0 83 6.5t63 23.5l-19 197l75 8l13 -208q41 -27 133 -27q2 0 4.5 -8t2.5 -19v-46q0 -11 -2.5 -18.5t-4.5 -7.5q-76 0 -116 15.5t-52 46.5q-18 -32 -62.5 -47t-117.5 -15q-3 0 -5 7.5zM25 -175l56 68l71 -57l-55 -68zM209 -107
l72 -57l-56 -68l-71 57z" />
    <glyph glyph-name="uni06260631.fina" unicode="&#xfc64;" horiz-adv-x="690" arabic-form="final" 
d="M218 147q6 -72 6 -110q0 -85 -69 -165.5t-201 -141.5l-49 76q110 49 172 104t80 108l-32 278l77 15l5 -45q4 -34 36.5 -44.5t99.5 -10.5q81 0 133 26l-3 88l72 9l2 -124q1 -45 14.5 -68.5t43.5 -33t85 -9.5q3 0 5 -8t2 -19v-46q0 -11 -2 -18.5t-5 -7.5q-68 0 -109.5 14.5
t-64.5 47.5t-31 92q-28 -20 -64.5 -31t-77.5 -11q-90 0 -125 35zM440 571q0 30 25 46.5t65 16.5q14 0 44 -5v-44q-33 5 -53 5q-27 0 -43 -10q0 -32 29 -77l113 33v-47l-231 -66v46l77 22q-26 46 -26 80z" />
    <glyph glyph-name="uni06260649.fina" unicode="&#xfc68;" horiz-adv-x="916" arabic-form="final" 
d="M130.5 -198q-56.5 46 -56.5 139q0 20 8.5 80.5t22.5 144.5l12 77l62 -12q-38 -228 -38 -278q0 -52 46.5 -75.5t124.5 -23.5q91 0 153 13.5t102 49.5q10 28 10 48q0 54 -51 61l-33 3q-53 5 -79 10t-41 19t-15 41q0 63 37.5 127.5t95 106t110.5 41.5q46 0 75.5 -19
t46.5 -46.5t37 -73.5q21 -46 37.5 -72.5t45.5 -45t73 -18.5q3 0 5.5 -8t2.5 -19v-46q0 -11 -2.5 -18.5t-5.5 -7.5q-61 0 -100 24t-60 57.5t-45 88.5q-18 41 -30.5 63t-32 37t-47.5 15q-34 0 -73 -23t-67.5 -59.5t-33.5 -73.5q82 -7 124.5 -17.5t67 -42t24.5 -94.5
q0 -117 -93.5 -168t-237.5 -51q-125 0 -181.5 46zM536 619q0 30 25 46.5t65 16.5q14 0 44 -5v-44q-33 5 -53 5q-27 0 -43 -10q0 -32 29 -77l113 33v-47l-231 -66v46l77 22q-26 46 -26 80z" />
    <glyph glyph-name="uni06280631.fina" unicode="&#xfc6a;" horiz-adv-x="690" arabic-form="final" 
d="M218 147q6 -72 6 -110q0 -85 -69 -165.5t-201 -141.5l-49 76q110 49 172 104t80 108l-32 278l77 15l5 -45q4 -34 36.5 -44.5t99.5 -10.5q81 0 133 26l-3 88l72 9l2 -124q1 -45 14.5 -68.5t43.5 -33t85 -9.5q3 0 5 -8t2 -19v-46q0 -11 -2 -18.5t-5 -7.5q-68 0 -109.5 14.5
t-64.5 47.5t-31 92q-28 -20 -64.5 -31t-77.5 -11q-90 0 -125 35zM327 -146l57 71l75 -59l-57 -71z" />
    <glyph glyph-name="uni06280632.fina" unicode="&#xfc6b;" horiz-adv-x="696" arabic-form="final" 
d="M90 479l58 71l74 -59l-57 -71zM83 -90q62 55 80 108l-32 278l77 15l5 -45q4 -34 36.5 -44.5t99.5 -10.5q81 0 133 26l-3 88l72 9l2 -124q1 -45 14.5 -68.5t43.5 -33t85 -9.5q3 0 5 -8t2 -19v-46q0 -11 -2 -18.5t-5 -7.5q-68 0 -109.5 14.5t-64.5 47.5t-31 92
q-28 -20 -64.5 -31t-77.5 -11q-90 0 -125 35q6 -72 6 -110q0 -85 -69 -165.5t-201 -141.5l-49 76q110 49 172 104zM390 -67l75 -59l-57 -71l-75 59z" />
    <glyph glyph-name="uni06280646.fina" unicode="&#xfc6d;" horiz-adv-x="1078" arabic-form="final" 
d="M968.5 14.5q-41.5 14.5 -64.5 47.5t-31 92q-28 -20 -64.5 -31t-77.5 -11q-92 0 -127 36q12 -170 12 -231q0 -43 -44 -74.5t-114 -47.5t-146 -16q-124 0 -181 45t-57 135q0 30 10 99.5t33 207.5l62 -12q-38 -228 -38 -278q0 -52 46 -75.5t125 -23.5q170 0 237 53l-35 380
l76 16l5 -59v-1q4 -34 36.5 -44.5t99.5 -10.5q81 0 133 26l-3 88l72 9l2 -124q1 -45 14.5 -68.5t43.5 -33t85 -9.5q3 0 5 -8t2 -19v-46q0 -11 -2 -18.5t-5 -7.5q-68 0 -109.5 14.5zM331 498l74 -59l-57 -71l-75 59zM774 -62l75 -59l-57 -71l-75 59z" />
    <glyph glyph-name="uni06280649.fina" unicode="&#xfc6e;" horiz-adv-x="916" arabic-form="final" 
d="M130.5 -198q-56.5 46 -56.5 139q0 20 8.5 80.5t22.5 144.5l12 77l62 -12q-38 -228 -38 -278q0 -52 46.5 -75.5t124.5 -23.5q91 0 153 13.5t102 49.5q10 28 10 48q0 54 -51 61l-33 3q-53 5 -79 10t-41 19t-15 41q0 63 37.5 127.5t95 106t110.5 41.5q46 0 75.5 -19
t46.5 -46.5t37 -73.5q21 -46 37.5 -72.5t45.5 -45t73 -18.5q3 0 5.5 -8t2.5 -19v-46q0 -11 -2.5 -18.5t-5.5 -7.5q-61 0 -100 24t-60 57.5t-45 88.5q-18 41 -30.5 63t-32 37t-47.5 15q-34 0 -73 -23t-67.5 -59.5t-33.5 -73.5q82 -7 124.5 -17.5t67 -42t24.5 -94.5
q0 -117 -93.5 -168t-237.5 -51q-125 0 -181.5 46zM762 -171l57 71l75 -59l-57 -71z" />
    <glyph glyph-name="uni062A0631.fina" unicode="&#xfc70;" horiz-adv-x="690" arabic-form="final" 
d="M218 147q6 -72 6 -110q0 -85 -69 -165.5t-201 -141.5l-49 76q110 49 172 104t80 108l-32 278l77 15l5 -45q4 -34 36.5 -44.5t99.5 -10.5q81 0 133 26l-3 88l72 9l2 -124q1 -45 14.5 -68.5t43.5 -33t85 -9.5q3 0 5 -8t2 -19v-46q0 -11 -2 -18.5t-5 -7.5q-68 0 -109.5 14.5
t-64.5 47.5t-31 92q-28 -20 -64.5 -31t-77.5 -11q-90 0 -125 35zM377 495l56 68l71 -57l-55 -68zM561 563l72 -57l-56 -68l-71 57z" />
    <glyph glyph-name="uni062B0631.fina" unicode="&#xfc76;" horiz-adv-x="690" arabic-form="final" 
d="M218 147q6 -72 6 -110q0 -85 -69 -165.5t-201 -141.5l-49 76q110 49 172 104t80 108l-32 278l77 15l5 -45q4 -34 36.5 -44.5t99.5 -10.5q81 0 133 26l-3 88l72 9l2 -124q1 -45 14.5 -68.5t43.5 -33t85 -9.5q3 0 5 -8t2 -19v-46q0 -11 -2 -18.5t-5 -7.5q-68 0 -109.5 14.5
t-64.5 47.5t-31 92q-28 -20 -64.5 -31t-77.5 -11q-90 0 -125 35zM386 491l51 64l66 -53l-51 -64zM490 678l67 -53l-51 -64l-67 53zM558 555l66 -53l-51 -64l-66 53z" />
    <glyph glyph-name="uni062B0649.fina" unicode="&#xfc7a;" horiz-adv-x="916" arabic-form="final" 
d="M130.5 -198q-56.5 46 -56.5 139q0 20 8.5 80.5t22.5 144.5l12 77l62 -12q-38 -228 -38 -278q0 -52 46.5 -75.5t124.5 -23.5q91 0 153 13.5t102 49.5q10 28 10 48q0 54 -51 61l-33 3q-53 5 -79 10t-41 19t-15 41q0 63 37.5 127.5t95 106t110.5 41.5q46 0 75.5 -19
t46.5 -46.5t37 -73.5q21 -46 37.5 -72.5t45.5 -45t73 -18.5q3 0 5.5 -8t2.5 -19v-46q0 -11 -2.5 -18.5t-5.5 -7.5q-61 0 -100 24t-60 57.5t-45 88.5q-18 41 -30.5 63t-32 37t-47.5 15q-34 0 -73 -23t-67.5 -59.5t-33.5 -73.5q82 -7 124.5 -17.5t67 -42t24.5 -94.5
q0 -117 -93.5 -168t-237.5 -51q-125 0 -181.5 46zM482 539l51 64l66 -53l-51 -64zM586 726l67 -53l-51 -64l-67 53zM654 603l66 -53l-51 -64l-66 53z" />
    <glyph glyph-name="uni06460631.fina" unicode="&#xfc8a;" horiz-adv-x="690" arabic-form="final" 
d="M218 147q6 -72 6 -110q0 -85 -69 -165.5t-201 -141.5l-49 76q110 49 172 104t80 108l-32 278l77 15l5 -45q4 -34 36.5 -44.5t99.5 -10.5q81 0 133 26l-3 88l72 9l2 -124q1 -45 14.5 -68.5t43.5 -33t85 -9.5q3 0 5 -8t2 -19v-46q0 -11 -2 -18.5t-5 -7.5q-68 0 -109.5 14.5
t-64.5 47.5t-31 92q-28 -20 -64.5 -31t-77.5 -11q-90 0 -125 35zM439 497l57 71l75 -59l-57 -71z" />
    <glyph glyph-name="uni064A0631.fina" unicode="&#xfc91;" horiz-adv-x="690" arabic-form="final" 
d="M218 147q6 -72 6 -110q0 -85 -69 -165.5t-201 -141.5l-49 76q110 49 172 104t80 108l-32 278l77 15l5 -45q4 -34 36.5 -44.5t99.5 -10.5q81 0 133 26l-3 88l72 9l2 -124q1 -45 14.5 -68.5t43.5 -33t85 -9.5q3 0 5 -8t2 -19v-46q0 -11 -2 -18.5t-5 -7.5q-68 0 -109.5 14.5
t-64.5 47.5t-31 92q-28 -20 -64.5 -31t-77.5 -11q-90 0 -125 35zM265 -150l56 68l71 -57l-55 -68zM449 -82l72 -57l-56 -68l-71 57z" />
    <glyph glyph-name="uni064A0649.fina" unicode="&#xfc95;" horiz-adv-x="916" arabic-form="final" 
d="M130.5 -198q-56.5 46 -56.5 139q0 20 8.5 80.5t22.5 144.5l12 77l62 -12q-38 -228 -38 -278q0 -52 46.5 -75.5t124.5 -23.5q91 0 153 13.5t102 49.5q10 28 10 48q0 54 -51 61l-33 3q-53 5 -79 10t-41 19t-15 41q0 63 37.5 127.5t95 106t110.5 41.5q46 0 75.5 -19
t46.5 -46.5t37 -73.5q21 -46 37.5 -72.5t45.5 -45t73 -18.5q3 0 5.5 -8t2.5 -19v-46q0 -11 -2.5 -18.5t-5.5 -7.5q-61 0 -100 24t-60 57.5t-45 88.5q-18 41 -30.5 63t-32 37t-47.5 15q-34 0 -73 -23t-67.5 -59.5t-33.5 -73.5q82 -7 124.5 -17.5t67 -42t24.5 -94.5
q0 -117 -93.5 -168t-237.5 -51q-125 0 -181.5 46zM700 -175l56 68l71 -57l-55 -68zM884 -107l72 -57l-56 -68l-71 57z" />
    <glyph glyph-name="uni06330649" unicode="&#xfcfb;" horiz-adv-x="1347" arabic-form="isolated" 
d="M130.5 -198q-56.5 46 -56.5 139q0 20 8.5 80.5t22.5 144.5l12 77l62 -12q-38 -228 -38 -278q0 -52 46.5 -75.5t124.5 -23.5q91 0 153 13.5t102 49.5q10 28 10 48q0 54 -51 61l-33 3q-53 5 -79 10t-41 19t-15 41q0 63 37.5 127.5t95 106t110.5 41.5q47 0 76.5 -19.5
t46.5 -48.5t36 -76q18 -44 32.5 -70t39.5 -43.5t63 -17.5q60 0 90 17l-6 202l70 2l4 -205q17 -16 58 -16q65 0 96 18l-19 243l76 14l3 -73q7 -147 7 -180q0 -62 -45 -91.5t-105 -29.5q-39 0 -67.5 12.5t-39.5 38.5q-15 -28 -50 -39.5t-72 -11.5q-54 0 -89 23t-54 56t-41 86
q-17 42 -29.5 65.5t-32 39t-48.5 15.5q-34 0 -73 -23t-67.5 -59.5t-33.5 -73.5q82 -7 124.5 -17.5t67 -42t24.5 -94.5q0 -117 -93.5 -168t-237.5 -51q-125 0 -181.5 46z" />
    <glyph glyph-name="uni06340649" unicode="&#xfcfd;" horiz-adv-x="1347" arabic-form="isolated" 
d="M130.5 -198q-56.5 46 -56.5 139q0 20 8.5 80.5t22.5 144.5l12 77l62 -12q-38 -228 -38 -278q0 -52 46.5 -75.5t124.5 -23.5q91 0 153 13.5t102 49.5q10 28 10 48q0 54 -51 61l-33 3q-53 5 -79 10t-41 19t-15 41q0 63 37.5 127.5t95 106t110.5 41.5q47 0 76.5 -19.5
t46.5 -48.5t36 -76q18 -44 32.5 -70t39.5 -43.5t63 -17.5q60 0 90 17l-6 202l70 2l4 -205q17 -16 58 -16q65 0 96 18l-19 243l76 14l3 -73q7 -147 7 -180q0 -62 -45 -91.5t-105 -29.5q-39 0 -67.5 12.5t-39.5 38.5q-15 -28 -50 -39.5t-72 -11.5q-54 0 -89 23t-54 56t-41 86
q-17 42 -29.5 65.5t-32 39t-48.5 15.5q-34 0 -73 -23t-67.5 -59.5t-33.5 -73.5q82 -7 124.5 -17.5t67 -42t24.5 -94.5q0 -117 -93.5 -168t-237.5 -51q-125 0 -181.5 46zM877 480l51 64l66 -53l-51 -64zM981 667l67 -53l-51 -64l-67 53zM1049 544l66 -53l-51 -64l-66 53z" />
    <glyph glyph-name="uni06350649" unicode="&#xfd05;" horiz-adv-x="1340" arabic-form="isolated" 
d="M130.5 -199q-56.5 46 -56.5 139q0 20 8.5 80.5t22.5 144.5l12 77l62 -12q-38 -228 -38 -279t46.5 -74.5t124.5 -23.5q91 0 153 13.5t102 49.5q10 28 10 48q0 53 -51 60l-35 4q-52 5 -77.5 10t-40.5 19t-15 41q0 63 37.5 127.5t95 106.5t110.5 42q47 0 76.5 -19.5
t45.5 -47.5t35 -75q12 -31 22 -51q72 90 152.5 156.5t152.5 66.5q181 0 181 -228q0 -66 -26 -92q-38 -38 -126.5 -61t-216.5 -23q-55 0 -90 23.5t-54.5 56.5t-41.5 86q-17 42 -29.5 65t-32 38.5t-48.5 15.5q-34 0 -73 -23t-67.5 -60t-33.5 -74q82 -7 124.5 -17.5t67 -42
t24.5 -95.5q0 -116 -93.5 -167t-237.5 -51q-125 0 -181.5 46zM893 99q91 0 164 10t138 36q3 76 -21.5 125.5t-86.5 49.5q-53 0 -124.5 -52t-146.5 -139q32 -30 77 -30z" />
    <glyph glyph-name="uni06360649" unicode="&#xfd07;" horiz-adv-x="1340" arabic-form="isolated" 
d="M130.5 -199q-56.5 46 -56.5 139q0 20 8.5 80.5t22.5 144.5l12 77l62 -12q-38 -228 -38 -279t46.5 -74.5t124.5 -23.5q91 0 153 13.5t102 49.5q10 28 10 48q0 53 -51 60l-35 4q-52 5 -77.5 10t-40.5 19t-15 41q0 63 37.5 127.5t95 106.5t110.5 42q47 0 76.5 -19.5
t45.5 -47.5t35 -75q12 -31 22 -51q72 90 152.5 156.5t152.5 66.5q181 0 181 -228q0 -66 -26 -92q-38 -38 -126.5 -61t-216.5 -23q-55 0 -90 23.5t-54.5 56.5t-41.5 86q-17 42 -29.5 65t-32 38.5t-48.5 15.5q-34 0 -73 -23t-67.5 -60t-33.5 -74q82 -7 124.5 -17.5t67 -42
t24.5 -95.5q0 -116 -93.5 -167t-237.5 -51q-125 0 -181.5 46zM893 99q91 0 164 10t138 36q3 76 -21.5 125.5t-86.5 49.5q-53 0 -124.5 -52t-146.5 -139q32 -30 77 -30zM883 554l57 71l75 -59l-57 -71z" />
    <glyph glyph-name="uni06330649.fina" unicode="&#xfd17;" horiz-adv-x="1416" arabic-form="final" 
d="M1297.5 15q-27.5 15 -40.5 44q-19 -30 -55.5 -44.5t-77.5 -14.5q-39 0 -67.5 12.5t-39.5 38.5q-15 -28 -50 -39.5t-72 -11.5q-54 0 -89 23t-54 56t-41 86q-17 42 -29.5 65.5t-32 39t-48.5 15.5q-34 0 -73 -23t-67.5 -59.5t-33.5 -73.5q82 -7 124.5 -17.5t67 -42
t24.5 -94.5q0 -117 -93.5 -168t-237.5 -51q-125 0 -181.5 46t-56.5 139q0 20 8.5 80.5t22.5 144.5l12 77l62 -12q-38 -228 -38 -278q0 -52 46.5 -75.5t124.5 -23.5q91 0 153 13.5t102 49.5q10 28 10 48q0 54 -51 61l-33 3q-53 5 -79 10t-41 19t-15 41q0 63 37.5 127.5
t95 106t110.5 41.5q47 0 76.5 -19.5t46.5 -48.5t36 -76q18 -44 32.5 -70t39.5 -43.5t63 -17.5q60 0 90 17l-6 202l70 2l4 -205q17 -16 58 -16q65 0 96 18l-19 243l76 14l11 -197q2 -43 21 -60.5t69 -17.5h51q3 0 5 -8t2 -19v-46q0 -11 -2 -18.5t-5 -7.5h-51q-40 0 -67.5 15z
" />
    <glyph glyph-name="uni06340649.fina" unicode="&#xfd19;" horiz-adv-x="1416" arabic-form="final" 
d="M1297.5 15q-27.5 15 -40.5 44q-19 -30 -55.5 -44.5t-77.5 -14.5q-39 0 -67.5 12.5t-39.5 38.5q-15 -28 -50 -39.5t-72 -11.5q-54 0 -89 23t-54 56t-41 86q-17 42 -29.5 65.5t-32 39t-48.5 15.5q-34 0 -73 -23t-67.5 -59.5t-33.5 -73.5q82 -7 124.5 -17.5t67 -42
t24.5 -94.5q0 -117 -93.5 -168t-237.5 -51q-125 0 -181.5 46t-56.5 139q0 20 8.5 80.5t22.5 144.5l12 77l62 -12q-38 -228 -38 -278q0 -52 46.5 -75.5t124.5 -23.5q91 0 153 13.5t102 49.5q10 28 10 48q0 54 -51 61l-33 3q-53 5 -79 10t-41 19t-15 41q0 63 37.5 127.5
t95 106t110.5 41.5q47 0 76.5 -19.5t46.5 -48.5t36 -76q18 -44 32.5 -70t39.5 -43.5t63 -17.5q60 0 90 17l-6 202l70 2l4 -205q17 -16 58 -16q65 0 96 18l-19 243l76 14l11 -197q2 -43 21 -60.5t69 -17.5h51q3 0 5 -8t2 -19v-46q0 -11 -2 -18.5t-5 -7.5h-51q-40 0 -67.5 15z
M877 480l51 64l66 -53l-51 -64zM981 667l67 -53l-51 -64l-67 53zM1049 544l66 -53l-51 -64l-66 53z" />
    <glyph glyph-name="uni06350649.fina" unicode="&#xfd21;" horiz-adv-x="1364" arabic-form="final" 
d="M1276.5 15.5q-33.5 15.5 -54.5 53.5q-44 -32 -127 -50.5t-198 -18.5q-55 0 -90 23.5t-54.5 56.5t-41.5 86q-17 42 -29.5 65t-32 38.5t-48.5 15.5q-34 0 -73 -23t-67.5 -60t-33.5 -74q82 -7 124.5 -17.5t67 -42t24.5 -95.5q0 -116 -93.5 -167t-237.5 -51q-125 0 -181.5 46
t-56.5 139q0 20 8.5 80.5t22.5 144.5l12 77l62 -12q-38 -228 -38 -279t46.5 -74.5t124.5 -23.5q91 0 153 13.5t102 49.5q10 28 10 48q0 53 -51 60l-35 4q-52 5 -77.5 10t-40.5 19t-15 41q0 63 37.5 127.5t95 106.5t110.5 42q47 0 76.5 -19.5t45.5 -47.5t35 -75
q12 -31 22 -51q72 90 152.5 156.5t152.5 66.5q181 0 181 -228q0 -20 -3 -41q12 -20 36 -28t65 -8q3 0 5 -8t2 -19v-46q0 -11 -2 -18.5t-5 -7.5q-54 0 -87.5 15.5zM893 99q91 0 164 10t138 36q3 76 -21.5 125.5t-86.5 49.5q-53 0 -124.5 -52t-146.5 -139q32 -30 77 -30z" />
    <glyph glyph-name="uni06360649.fina" unicode="&#xfd23;" horiz-adv-x="1364" arabic-form="final" 
d="M1276.5 15.5q-33.5 15.5 -54.5 53.5q-44 -32 -127 -50.5t-198 -18.5q-55 0 -90 23.5t-54.5 56.5t-41.5 86q-17 42 -29.5 65t-32 38.5t-48.5 15.5q-34 0 -73 -23t-67.5 -60t-33.5 -74q82 -7 124.5 -17.5t67 -42t24.5 -95.5q0 -116 -93.5 -167t-237.5 -51q-125 0 -181.5 46
t-56.5 139q0 20 8.5 80.5t22.5 144.5l12 77l62 -12q-38 -228 -38 -279t46.5 -74.5t124.5 -23.5q91 0 153 13.5t102 49.5q10 28 10 48q0 53 -51 60l-35 4q-52 5 -77.5 10t-40.5 19t-15 41q0 63 37.5 127.5t95 106.5t110.5 42q47 0 76.5 -19.5t45.5 -47.5t35 -75
q12 -31 22 -51q72 90 152.5 156.5t152.5 66.5q181 0 181 -228q0 -20 -3 -41q12 -20 36 -28t65 -8q3 0 5 -8t2 -19v-46q0 -11 -2 -18.5t-5 -7.5q-54 0 -87.5 15.5zM893 99q91 0 164 10t138 36q3 76 -21.5 125.5t-86.5 49.5q-53 0 -124.5 -52t-146.5 -139q32 -30 77 -30z
M884 554l57 71l75 -59l-57 -71z" />
    <glyph glyph-name="uni0622.fina" unicode="&#x622;" horiz-adv-x="290" arabic-form="final" 
d="M128 45q-45 45 -52 151l-12 325l78 14l5 -338q1 -51 32 -74.5t83 -23.5h28q3 0 5 -8t2 -19v-46q0 -11 -2 -18.5t-5 -7.5h-20q-97 0 -142 45zM129.5 633.5q-31.5 3.5 -37.5 4.5q-34 4 -41 4q-21 0 -29.5 -8t-16.5 -36l-54 13q15 57 35.5 78t62.5 21q20 0 55 -5
q68 -7 102 -7h47l-14 -68h-40q-38 0 -69.5 3.5z" />
    <glyph glyph-name="uni0623.fina" unicode="&#x623;" horiz-adv-x="290" arabic-form="final" 
d="M128 45q-45 45 -52 151l-12 325l78 14l5 -338q1 -51 32 -74.5t83 -23.5h28q3 0 5 -8t2 -19v-46q0 -11 -2 -18.5t-5 -7.5h-20q-97 0 -142 45zM36 722q0 30 25 46.5t65 16.5q14 0 44 -5v-44q-33 5 -53 5q-27 0 -43 -10q0 -32 29 -77l113 33v-47l-231 -66v46l77 22
q-26 46 -26 80z" />
    <glyph glyph-name="uni0624.fina" unicode="&#x624;" horiz-adv-x="461" arabic-form="final" 
d="M304 9q-45 -9 -105 -9q-44 0 -72 8t-45 31q-12 15 -16.5 27.5t-4.5 35.5q0 54 17 110t54 95t95 39q79 0 116 -73.5t41 -173.5h77q3 0 5 -8t2 -19v-46q0 -11 -2 -18.5t-5 -7.5h-88q-25 -88 -99 -157t-181 -113l-48 76q215 81 259 203zM210 84q69 0 105 10q0 86 -24.5 128
t-71.5 42q-41 0 -67 -46.5t-26 -120.5q32 -13 84 -13zM162 586q0 30 25 46.5t65 16.5q14 0 44 -5v-44q-33 5 -53 5q-27 0 -43 -10q0 -32 29 -77l113 33v-47l-231 -66v46l77 22q-26 46 -26 80z" />
    <glyph glyph-name="uni0625.fina" unicode="&#x625;" horiz-adv-x="290" arabic-form="final" 
d="M127 44.5q-46 44.5 -50 151.5l-14 500l79 14l5 -513q1 -51 31.5 -74.5t82.5 -23.5h29q3 0 5 -8t2 -19v-46q0 -11 -2 -18.5t-5 -7.5h-20q-97 0 -143 44.5zM55 -149q0 30 25 46.5t65 16.5q14 0 44 -5v-44q-33 5 -53 5q-27 0 -43 -10q0 -32 29 -77l113 33v-47l-231 -66v46
l77 22q-26 46 -26 80z" />
    <glyph glyph-name="uni0626.fina" unicode="&#x626;" horiz-adv-x="680" arabic-form="final" 
d="M130.5 -199q-56.5 46 -56.5 140q0 20 8.5 78.5t21.5 140.5l13 83l62 -13q-38 -228 -38 -278q0 -52 46.5 -75t124.5 -23q92 0 155.5 13t102.5 50q3 16 3 28q0 25 -16 36.5t-51 15t-109 3.5l22 99h261q3 0 5 -8t2 -19v-46q0 -11 -2 -18.5t-5 -7.5h-42q5 -20 5 -39
q0 -107 -94.5 -156.5t-236.5 -49.5q-125 0 -181.5 46zM174 480q0 30 25 46.5t65 16.5q14 0 44 -5v-44q-33 5 -53 5q-27 0 -43 -10q0 -32 29 -77l113 33v-47l-231 -66v46l77 22q-26 46 -26 80z" />
    <glyph glyph-name="uni0626.init" unicode="&#x626;" horiz-adv-x="331" arabic-form="initial" 
d="M-5 7.5q-2 7.5 -2 18.5v46q0 11 2 19t5 8q61 0 109 7t81 27l-19 227l76 14q10 -170 10 -244q0 -27 -13 -50.5t-39 -39.5q-38 -20 -91 -30t-114 -10q-3 0 -5 7.5zM133 606q0 30 25 46.5t65 16.5q14 0 44 -5v-44q-33 5 -53 5q-27 0 -43 -10q0 -32 29 -77l113 33v-47
l-231 -66v46l77 22q-26 46 -26 80z" />
    <glyph glyph-name="uni0626.medi" unicode="&#x626;" horiz-adv-x="348" arabic-form="medial" 
d="M-5 7.5q-2 7.5 -2 18.5v46q0 11 2 19t5 8q49 0 83 6.5t63 23.5l-19 197l75 8l13 -208q41 -27 133 -27q2 0 4.5 -8t2.5 -19v-46q0 -11 -2.5 -18.5t-4.5 -7.5q-76 0 -116 15.5t-52 46.5q-18 -32 -62.5 -47t-117.5 -15q-3 0 -5 7.5zM91 571q0 30 25 46.5t65 16.5q14 0 44 -5
v-44q-33 5 -53 5q-27 0 -43 -10q0 -32 29 -77l113 33v-47l-231 -66v46l77 22q-26 46 -26 80z" />
    <glyph glyph-name="uni0627.fina" unicode="&#x627;" horiz-adv-x="290" arabic-form="final" 
d="M127 44.5q-46 44.5 -50 151.5l-14 500l79 14l5 -513q1 -51 31.5 -74.5t82.5 -23.5h29q3 0 5 -8t2 -19v-46q0 -11 -2 -18.5t-5 -7.5h-20q-97 0 -143 44.5z" />
    <glyph glyph-name="uni0628.fina" unicode="&#x628;" horiz-adv-x="895" arabic-form="final" 
d="M224 9.5q-70 14.5 -110 53.5t-40 111q0 20 7 67t21 133l62 -13q-23 -140 -23 -171q0 -37 24 -57.5t78.5 -29.5t151.5 -9q204 0 302 35l-16 181l74 8l10 -192q18 -16 49 -21.5t81 -5.5q3 0 5 -8t2 -19v-46q0 -11 -2 -18.5t-5 -7.5q-77 0 -121 16.5t-55 44.5
q-21 -25 -75 -39q-47 -12 -112.5 -19.5t-132.5 -7.5q-105 0 -175 14.5zM333 -173l57 71l75 -59l-57 -71z" />
    <glyph glyph-name="uni0628.init" unicode="&#x628;" horiz-adv-x="331" arabic-form="initial" 
d="M-5 7.5q-2 7.5 -2 18.5v46q0 11 2 19t5 8q61 0 109 7t81 27l-19 227l76 14q10 -170 10 -244q0 -27 -13 -50.5t-39 -39.5q-38 -20 -91 -30t-114 -10q-3 0 -5 7.5zM33 -171l57 71l75 -59l-57 -71z" />
    <glyph glyph-name="uni0628.medi" unicode="&#x628;" horiz-adv-x="348" arabic-form="medial" 
d="M-5 7.5q-2 7.5 -2 18.5v46q0 11 2 19t5 8q49 0 83 6.5t63 23.5l-19 197l75 8l13 -208q41 -27 133 -27q2 0 4.5 -8t2.5 -19v-46q0 -11 -2.5 -18.5t-4.5 -7.5q-76 0 -116 15.5t-52 46.5q-18 -32 -62.5 -47t-117.5 -15q-3 0 -5 7.5zM87 -171l57 71l75 -59l-57 -71z" />
    <glyph glyph-name="uni0629.fina" unicode="&#x629;" horiz-adv-x="490" arabic-form="final" 
d="M334 78l-8 -11q-15 -20 -46.5 -27t-81.5 -7t-87 23.5t-37 71.5q0 185 209 243l-8 65l72 22l24 -248q4 -43 10.5 -65t24.5 -34t54 -12h30q3 0 5.5 -8t2.5 -19v-46q0 -11 -2.5 -18.5t-5.5 -7.5h-28q-104 0 -128 78zM207 123q30 0 53 5t51 14l-17 155q-78 -15 -116.5 -61
t-41.5 -94q25 -19 71 -19zM178 615l56 68l71 -57l-55 -68zM362 683l72 -57l-56 -68l-71 57z" />
    <glyph glyph-name="uni062A.fina" unicode="&#x62a;" horiz-adv-x="895" arabic-form="final" 
d="M224 9.5q-70 14.5 -110 53.5t-40 111q0 20 7 67t21 133l62 -13q-23 -140 -23 -171q0 -37 24 -57.5t78.5 -29.5t151.5 -9q204 0 302 35l-16 181l74 8l10 -192q18 -16 49 -21.5t81 -5.5q3 0 5 -8t2 -19v-46q0 -11 -2 -18.5t-5 -7.5q-77 0 -121 16.5t-55 44.5
q-21 -25 -75 -39q-47 -12 -112.5 -19.5t-132.5 -7.5q-105 0 -175 14.5zM301 433l56 68l71 -57l-55 -68zM485 501l72 -57l-56 -68l-71 57z" />
    <glyph glyph-name="uni062A.init" unicode="&#x62a;" horiz-adv-x="331" arabic-form="initial" 
d="M-5 7.5q-2 7.5 -2 18.5v46q0 11 2 19t5 8q61 0 109 7t81 27l-19 227l76 14q10 -170 10 -244q0 -27 -13 -50.5t-39 -39.5q-38 -20 -91 -30t-114 -10q-3 0 -5 7.5zM70 530l56 68l71 -57l-55 -68zM254 598l72 -57l-56 -68l-71 57z" />
    <glyph glyph-name="uni062A.medi" unicode="&#x62a;" horiz-adv-x="348" arabic-form="medial" 
d="M-5 7.5q-2 7.5 -2 18.5v46q0 11 2 19t5 8q49 0 83 6.5t63 23.5l-19 197l75 8l13 -208q41 -27 133 -27q2 0 4.5 -8t2.5 -19v-46q0 -11 -2.5 -18.5t-4.5 -7.5q-76 0 -116 15.5t-52 46.5q-18 -32 -62.5 -47t-117.5 -15q-3 0 -5 7.5zM28 495l56 68l71 -57l-55 -68zM212 563
l72 -57l-56 -68l-71 57z" />
    <glyph glyph-name="uni062B.fina" unicode="&#x62b;" horiz-adv-x="895" arabic-form="final" 
d="M224 9.5q-70 14.5 -110 53.5t-40 111q0 20 7 67t21 133l62 -13q-23 -140 -23 -171q0 -37 24 -57.5t78.5 -29.5t151.5 -9q204 0 302 35l-16 181l74 8l10 -192q18 -16 49 -21.5t81 -5.5q3 0 5 -8t2 -19v-46q0 -11 -2 -18.5t-5 -7.5q-77 0 -121 16.5t-55 44.5
q-21 -25 -75 -39q-47 -12 -112.5 -19.5t-132.5 -7.5q-105 0 -175 14.5zM310 429l51 64l66 -53l-51 -64zM414 616l67 -53l-51 -64l-67 53zM482 493l66 -53l-51 -64l-66 53z" />
    <glyph glyph-name="uni062B.init" unicode="&#x62b;" horiz-adv-x="331" arabic-form="initial" 
d="M-5 7.5q-2 7.5 -2 18.5v46q0 11 2 19t5 8q61 0 109 7t81 27l-19 227l76 14q10 -170 10 -244q0 -27 -13 -50.5t-39 -39.5q-38 -20 -91 -30t-114 -10q-3 0 -5 7.5zM79 526l51 64l66 -53l-51 -64zM183 713l67 -53l-51 -64l-67 53zM251 590l66 -53l-51 -64l-66 53z" />
    <glyph glyph-name="uni062B.medi" unicode="&#x62b;" horiz-adv-x="348" arabic-form="medial" 
d="M-5 7.5q-2 7.5 -2 18.5v46q0 11 2 19t5 8q49 0 83 6.5t63 23.5l-19 197l75 8l13 -208q41 -27 133 -27q2 0 4.5 -8t2.5 -19v-46q0 -11 -2.5 -18.5t-4.5 -7.5q-76 0 -116 15.5t-52 46.5q-18 -32 -62.5 -47t-117.5 -15q-3 0 -5 7.5zM37 491l51 64l66 -53l-51 -64zM141 678
l67 -53l-51 -64l-67 53zM209 555l66 -53l-51 -64l-66 53z" />
    <glyph glyph-name="uni062C.fina" unicode="&#x62c;" horiz-adv-x="703" arabic-form="final" 
d="M533 18.5q-43 18.5 -66.5 59t-38.5 112.5q-121 -40 -198.5 -107.5t-86.5 -159.5q0 -92 65 -139t172 -47q97 0 206 30l-5 -98q-101 -29 -203 -29q-141 0 -225 63t-84 189q0 119 80 220t257 161q-30 8 -115 43q-43 18 -67.5 27t-35.5 9q-26 0 -39 -16.5t-19 -51.5l-60 10
q13 72 39.5 110.5t78.5 38.5q26 0 60.5 -12.5t92.5 -38.5q78 -35 131.5 -53.5t105.5 -19.5l-9 -95q-55 -9 -85 -17q11 -45 28.5 -68t45.5 -31.5t75 -8.5h70q2 0 4.5 -8t2.5 -19v-46q0 -11 -2.5 -18.5t-4.5 -7.5h-53q-74 0 -117 18.5zM343 8l75 -59l-57 -71l-75 59z" />
    <glyph glyph-name="uni062C.init" unicode="&#x62c;" horiz-adv-x="681" arabic-form="initial" 
d="M-5 7.5q-2 7.5 -2 18.5v46q0 11 2 19t5 8h36q63 0 126 16.5t137 50.5q16 8 24 11q78 40 118 52q-26 7 -63 21t-72 29q-36 15 -69 27t-45 12q-26 0 -39 -16.5t-19 -52.5l-60 11q13 71 39.5 109.5t77.5 38.5q26 0 60 -12t89 -36q84 -36 146 -56t124 -20l-17 -95
q-64 -3 -116 -25t-134 -71q-77 -45 -149 -69t-164 -24h-30q-3 0 -5 7.5zM253 -171l57 71l75 -59l-57 -71z" />
    <glyph glyph-name="uni062C.medi" unicode="&#x62c;" horiz-adv-x="678" arabic-form="medial" 
d="M-5 7.5q-2 7.5 -2 18.5v46q0 11 2 19t5 8h36q63 0 126 16.5t137 50.5l41 20q7 4 42.5 20.5t61.5 24.5q-26 7 -64.5 21t-73.5 28q-37 15 -69.5 26.5t-44.5 11.5q-26 0 -39 -16.5t-19 -52.5l-60 11q13 71 39.5 109.5t77.5 38.5q26 0 60.5 -11.5t88.5 -34.5
q83 -35 145.5 -54t124.5 -19l-17 -91q-40 -2 -76.5 -14.5t-76.5 -33.5q15 -30 59 -40.5t124 -10.5h55q2 0 4.5 -8t2.5 -19v-46q0 -11 -2.5 -18.5t-4.5 -7.5h-102q-75 0 -125 29.5t-60 92.5l-27 -16l-21 -13q-77 -45 -149 -69t-164 -24h-30q-3 0 -5 7.5zM253 -171l57 71
l75 -59l-57 -71z" />
    <glyph glyph-name="uni062D.fina" unicode="&#x62d;" horiz-adv-x="703" arabic-form="final" 
d="M533 18.5q-43 18.5 -66.5 59t-38.5 112.5q-121 -40 -198.5 -107.5t-86.5 -159.5q0 -92 65 -139t172 -47q97 0 206 30l-5 -98q-101 -29 -203 -29q-141 0 -225 63t-84 189q0 119 80 220t257 161q-30 8 -115 43q-43 18 -67.5 27t-35.5 9q-26 0 -39 -16.5t-19 -51.5l-60 10
q13 72 39.5 110.5t78.5 38.5q26 0 60.5 -12.5t92.5 -38.5q78 -35 131.5 -53.5t105.5 -19.5l-9 -95q-55 -9 -85 -17q11 -45 28.5 -68t45.5 -31.5t75 -8.5h70q2 0 4.5 -8t2.5 -19v-46q0 -11 -2.5 -18.5t-4.5 -7.5h-53q-74 0 -117 18.5z" />
    <glyph glyph-name="uni062D.init" unicode="&#x62d;" horiz-adv-x="681" arabic-form="initial" 
d="M-5 7.5q-2 7.5 -2 18.5v46q0 11 2 19t5 8h36q63 0 126 16.5t137 50.5q16 8 24 11q78 40 118 52q-26 7 -63 21t-72 29q-36 15 -69 27t-45 12q-26 0 -39 -16.5t-19 -52.5l-60 11q13 71 39.5 109.5t77.5 38.5q26 0 60 -12t89 -36q84 -36 146 -56t124 -20l-17 -95
q-64 -3 -116 -25t-134 -71q-77 -45 -149 -69t-164 -24h-30q-3 0 -5 7.5z" />
    <glyph glyph-name="uni062D.medi" unicode="&#x62d;" horiz-adv-x="678" arabic-form="medial" 
d="M-5 7.5q-2 7.5 -2 18.5v46q0 11 2 19t5 8h36q63 0 126 16.5t137 50.5l41 20q7 4 42.5 20.5t61.5 24.5q-26 7 -64.5 21t-73.5 28q-37 15 -69.5 26.5t-44.5 11.5q-26 0 -39 -16.5t-19 -52.5l-60 11q13 71 39.5 109.5t77.5 38.5q26 0 60.5 -11.5t88.5 -34.5
q83 -35 145.5 -54t124.5 -19l-17 -91q-40 -2 -76.5 -14.5t-76.5 -33.5q15 -30 59 -40.5t124 -10.5h55q2 0 4.5 -8t2.5 -19v-46q0 -11 -2.5 -18.5t-4.5 -7.5h-102q-75 0 -125 29.5t-60 92.5l-27 -16l-21 -13q-77 -45 -149 -69t-164 -24h-30q-3 0 -5 7.5z" />
    <glyph glyph-name="uni062E.fina" unicode="&#x62e;" horiz-adv-x="703" arabic-form="final" 
d="M533 18.5q-43 18.5 -66.5 59t-38.5 112.5q-121 -40 -198.5 -107.5t-86.5 -159.5q0 -92 65 -139t172 -47q97 0 206 30l-5 -98q-101 -29 -203 -29q-141 0 -225 63t-84 189q0 119 80 220t257 161q-30 8 -115 43q-43 18 -67.5 27t-35.5 9q-26 0 -39 -16.5t-19 -51.5l-60 10
q13 72 39.5 110.5t78.5 38.5q26 0 60.5 -12.5t92.5 -38.5q78 -35 131.5 -53.5t105.5 -19.5l-9 -95q-55 -9 -85 -17q11 -45 28.5 -68t45.5 -31.5t75 -8.5h70q2 0 4.5 -8t2.5 -19v-46q0 -11 -2.5 -18.5t-4.5 -7.5h-53q-74 0 -117 18.5zM199 568l57 71l75 -59l-57 -71z" />
    <glyph glyph-name="uni062E.init" unicode="&#x62e;" horiz-adv-x="681" arabic-form="initial" 
d="M-5 7.5q-2 7.5 -2 18.5v46q0 11 2 19t5 8h36q63 0 126 16.5t137 50.5q16 8 24 11q78 40 118 52q-26 7 -63 21t-72 29q-36 15 -69 27t-45 12q-26 0 -39 -16.5t-19 -52.5l-60 11q13 71 39.5 109.5t77.5 38.5q26 0 60 -12t89 -36q84 -36 146 -56t124 -20l-17 -95
q-64 -3 -116 -25t-134 -71q-77 -45 -149 -69t-164 -24h-30q-3 0 -5 7.5zM203 533l57 71l75 -59l-57 -71z" />
    <glyph glyph-name="uni062E.medi" unicode="&#x62e;" horiz-adv-x="678" arabic-form="medial" 
d="M-5 7.5q-2 7.5 -2 18.5v46q0 11 2 19t5 8h36q63 0 126 16.5t137 50.5l41 20q7 4 42.5 20.5t61.5 24.5q-26 7 -64.5 21t-73.5 28q-37 15 -69.5 26.5t-44.5 11.5q-26 0 -39 -16.5t-19 -52.5l-60 11q13 71 39.5 109.5t77.5 38.5q26 0 60.5 -11.5t88.5 -34.5
q83 -35 145.5 -54t124.5 -19l-17 -91q-40 -2 -76.5 -14.5t-76.5 -33.5q15 -30 59 -40.5t124 -10.5h55q2 0 4.5 -8t2.5 -19v-46q0 -11 -2.5 -18.5t-4.5 -7.5h-102q-75 0 -125 29.5t-60 92.5l-27 -16l-21 -13q-77 -45 -149 -69t-164 -24h-30q-3 0 -5 7.5zM203 533l57 71
l75 -59l-57 -71z" />
    <glyph glyph-name="uni062F.fina" unicode="&#x62f;" horiz-adv-x="584" arabic-form="final" 
d="M92 13.5q-28 28.5 -28 102.5q0 36 2 56l60 -5v-19q0 -31 5 -44t20 -16.5t51 -3.5q55 0 109 14t83 37l-74 305l73 40l57 -277q11 -53 22.5 -73.5t33.5 -25.5t78 -5q2 0 4.5 -8t2.5 -19v-46q0 -11 -2.5 -18.5t-4.5 -7.5h-25q-53 0 -86 18.5t-45 58.5q-6 -17 -14 -26
t-20 -16q-32 -20 -92 -35t-111 -15q-71 0 -99 28.5z" />
    <glyph glyph-name="uni0630.fina" unicode="&#x630;" horiz-adv-x="584" arabic-form="final" 
d="M92 13.5q-28 28.5 -28 102.5q0 36 2 56l60 -5v-19q0 -31 5 -44t20 -16.5t51 -3.5q55 0 109 14t83 37l-74 305l73 40l57 -277q11 -53 22.5 -73.5t33.5 -25.5t78 -5q2 0 4.5 -8t2.5 -19v-46q0 -11 -2.5 -18.5t-4.5 -7.5h-25q-53 0 -86 18.5t-45 58.5q-6 -17 -14 -26
t-20 -16q-32 -20 -92 -35t-111 -15q-71 0 -99 28.5zM261 635l57 71l75 -59l-57 -71z" />
    <glyph glyph-name="uni0631.fina" unicode="&#x631;" horiz-adv-x="379" arabic-form="final" 
d="M275 12.5q-28 12.5 -45 35.5v-11q0 -85 -69 -165.5t-201 -141.5l-49 76q110 49 172 104t80 108l-32 278l77 15l15 -140q7 -72 114 -72h42q3 0 5 -8t2 -19v-46q0 -11 -2 -18.5t-5 -7.5h-42q-34 0 -62 12.5z" />
    <glyph glyph-name="uni0632.fina" unicode="&#x632;" horiz-adv-x="379" arabic-form="final" 
d="M275 12.5q-28 12.5 -45 35.5v-11q0 -85 -69 -165.5t-201 -141.5l-49 76q110 49 172 104t80 108l-32 278l77 15l15 -140q7 -72 114 -72h42q3 0 5 -8t2 -19v-46q0 -11 -2 -18.5t-5 -7.5h-42q-34 0 -62 12.5zM90 479l57 71l75 -59l-57 -71z" />
    <glyph glyph-name="uni0633.fina" unicode="&#x633;" horiz-adv-x="1224" arabic-form="final" 
d="M1105.5 15q-27.5 15 -40.5 44q-19 -30 -55.5 -44.5t-76.5 -14.5q-35 0 -61.5 12.5t-37.5 38.5q-12 -28 -47.5 -39.5t-75.5 -11.5q-36 0 -60.5 9.5t-38.5 31.5q4 -71 4 -124q0 -43 -44 -74.5t-114 -47.5t-146 -16q-125 0 -181.5 46t-56.5 140q0 20 9 79t22 143
q3 20 6 39.5t6 39.5l62 -12q-38 -228 -38 -278q0 -52 46.5 -75.5t124.5 -23.5q169 0 237 53l-35 380l76 16l13 -159q3 -38 25 -53t69 -15q64 0 96 16l-6 203l69 2l4 -203q18 -18 59 -18q30 0 53.5 3.5t42.5 16.5l-18 241l75 14l11 -197q2 -43 21 -60.5t69 -17.5h51q3 0 5 -8
t2 -19v-46q0 -11 -2 -18.5t-5 -7.5h-51q-40 0 -67.5 15z" />
    <glyph glyph-name="uni0633.init" unicode="&#x633;" horiz-adv-x="705" arabic-form="initial" 
d="M-5 7.5q-2 7.5 -2 18.5v46q0 11 2 19t5 8q78 0 124 23l2 158h70l-3 -125q-1 -56 67 -56q51 0 82 16l-2 203l69 2v-203q18 -18 60 -18q30 0 53.5 3.5t41.5 16.5l-18 241l75 14q10 -170 10 -253q0 -62 -44.5 -91.5t-104.5 -29.5q-40 0 -68 12.5t-39 38.5
q-12 -28 -45.5 -39.5t-61.5 -11.5q-39 0 -67 13.5t-41 38.5q-19 -26 -63.5 -39t-96.5 -13q-3 0 -5 7.5z" />
    <glyph glyph-name="uni0633.medi" unicode="&#x633;" horiz-adv-x="774" arabic-form="medial" 
d="M654.5 15.5q-27.5 15.5 -39.5 44.5q-19 -31 -55.5 -45.5t-77.5 -14.5q-40 0 -68 12.5t-39 38.5q-12 -28 -45.5 -39.5t-61.5 -11.5q-39 0 -67 13.5t-41 38.5q-19 -26 -63.5 -39t-96.5 -13q-3 0 -5 7.5t-2 18.5v46q0 11 2 19t5 8q78 0 124 23l2 158h70l-3 -125
q-1 -56 67 -56q51 0 82 16l-2 203l69 2v-203q18 -18 60 -18q30 0 53.5 3.5t41.5 16.5l-18 241l75 14l12 -197q2 -43 21 -60.5t69 -17.5h51q2 0 4.5 -8t2.5 -19v-46q0 -11 -2.5 -18.5t-4.5 -7.5h-51q-41 0 -68.5 15.5z" />
    <glyph glyph-name="uni0634.fina" unicode="&#x634;" horiz-adv-x="1224" arabic-form="final" 
d="M1105.5 15q-27.5 15 -40.5 44q-19 -30 -55.5 -44.5t-76.5 -14.5q-35 0 -61.5 12.5t-37.5 38.5q-12 -28 -47.5 -39.5t-75.5 -11.5q-36 0 -60.5 9.5t-38.5 31.5q4 -71 4 -124q0 -43 -44 -74.5t-114 -47.5t-146 -16q-125 0 -181.5 46t-56.5 140q0 20 9 79t22 143
q3 20 6 39.5t6 39.5l62 -12q-38 -228 -38 -278q0 -52 46.5 -75.5t124.5 -23.5q169 0 237 53l-35 380l76 16l13 -159q3 -38 25 -53t69 -15q64 0 96 16l-6 203l69 2l4 -203q18 -18 59 -18q30 0 53.5 3.5t42.5 16.5l-18 241l75 14l11 -197q2 -43 21 -60.5t69 -17.5h51q3 0 5 -8
t2 -19v-46q0 -11 -2 -18.5t-5 -7.5h-51q-40 0 -67.5 15zM685 480l51 64l66 -53l-51 -64zM789 667l67 -53l-51 -64l-67 53zM857 544l66 -53l-51 -64l-66 53z" />
    <glyph glyph-name="uni0634.init" unicode="&#x634;" horiz-adv-x="705" arabic-form="initial" 
d="M-5 7.5q-2 7.5 -2 18.5v46q0 11 2 19t5 8q78 0 124 23l2 158h70l-3 -125q-1 -56 67 -56q51 0 82 16l-2 203l69 2v-203q18 -18 60 -18q30 0 53.5 3.5t41.5 16.5l-18 241l75 14q10 -170 10 -253q0 -62 -44.5 -91.5t-104.5 -29.5q-40 0 -68 12.5t-39 38.5
q-12 -28 -45.5 -39.5t-61.5 -11.5q-39 0 -67 13.5t-41 38.5q-19 -26 -63.5 -39t-96.5 -13q-3 0 -5 7.5zM234 476l51 64l66 -53l-51 -64zM338 663l67 -53l-51 -64l-67 53zM406 540l66 -53l-51 -64l-66 53z" />
    <glyph glyph-name="uni0634.medi" unicode="&#x634;" horiz-adv-x="774" arabic-form="medial" 
d="M654.5 15.5q-27.5 15.5 -39.5 44.5q-19 -31 -55.5 -45.5t-77.5 -14.5q-40 0 -68 12.5t-39 38.5q-12 -28 -45.5 -39.5t-61.5 -11.5q-39 0 -67 13.5t-41 38.5q-19 -26 -63.5 -39t-96.5 -13q-3 0 -5 7.5t-2 18.5v46q0 11 2 19t5 8q78 0 124 23l2 158h70l-3 -125
q-1 -56 67 -56q51 0 82 16l-2 203l69 2v-203q18 -18 60 -18q30 0 53.5 3.5t41.5 16.5l-18 241l75 14l12 -197q2 -43 21 -60.5t69 -17.5h51q2 0 4.5 -8t2.5 -19v-46q0 -11 -2.5 -18.5t-4.5 -7.5h-51q-41 0 -68.5 15.5zM234 476l51 64l66 -53l-51 -64zM338 663l67 -53l-51 -64
l-67 53zM406 540l66 -53l-51 -64l-66 53z" />
    <glyph glyph-name="uni0635.fina" unicode="&#x635;" horiz-adv-x="1281" arabic-form="final" 
d="M1193.5 15.5q-33.5 15.5 -54.5 52.5q-45 -31 -125.5 -49.5t-185.5 -18.5q-56 0 -115 7t-101 25l1 -22q3 -56 3 -93q0 -43 -44 -74.5t-114 -47.5t-146 -16q-124 0 -181 45t-57 135q0 30 10 99.5t33 207.5l62 -12q-38 -228 -38 -278q0 -52 46 -75.5t125 -23.5q170 0 237 53
l-35 380l76 16l4 -45q3 -39 6 -78.5t6 -78.5q15 -8 35 -10q33 48 92.5 115.5t133 121t137.5 53.5q90 0 135 -57.5t45 -170.5q0 -21 -3 -41q11 -20 35.5 -28t64.5 -8q3 0 5 -8t2 -19v-46q0 -11 -2 -18.5t-5 -7.5q-54 0 -87.5 15.5zM826 99q81 0 152.5 10t135.5 36
q4 80 -21 127.5t-88 47.5q-56 0 -134 -59t-158 -156q37 -6 113 -6z" />
    <glyph glyph-name="uni0635.init" unicode="&#x635;" horiz-adv-x="853" arabic-form="initial" 
d="M-5 7.5q-2 7.5 -2 18.5v46q0 11 2 19t5 8q44 0 70.5 3.5t56.5 17.5l-2 162h70l-4 -151q7 -6 21 -11t25 -6q33 49 92.5 116t132.5 120.5t137 53.5q181 0 181 -228q0 -28 -6 -53t-19 -39q-39 -38 -125.5 -61t-206.5 -23q-73 0 -145.5 12.5t-107.5 43.5q-24 -28 -72.5 -42
t-97.5 -14q-3 0 -5 7.5zM422 99q81 0 152 10t136 36q4 80 -21 127.5t-88 47.5q-56 0 -134 -59t-158 -156q40 -6 113 -6z" />
    <glyph glyph-name="uni0635.medi" unicode="&#x635;" horiz-adv-x="877" arabic-form="medial" 
d="M789.5 15.5q-33.5 15.5 -54.5 52.5q-45 -31 -125.5 -49.5t-186.5 -18.5q-73 0 -145.5 12.5t-107.5 43.5q-24 -28 -72.5 -42t-97.5 -14q-3 0 -5 7.5t-2 18.5v46q0 11 2 19t5 8q44 0 70.5 3.5t56.5 17.5l-2 162h70l-4 -151q7 -6 21 -11t25 -6q33 49 92.5 116t132.5 120.5
t137 53.5q181 0 181 -228q0 -23 -4 -42q12 -19 36.5 -27t64.5 -8q3 0 5 -8t2 -19v-46q0 -11 -2 -18.5t-5 -7.5q-54 0 -87.5 15.5zM422 99q81 0 152 10t136 36q4 80 -21 127.5t-88 47.5q-56 0 -134 -59t-158 -156q40 -6 113 -6z" />
    <glyph glyph-name="uni0636.fina" unicode="&#x636;" horiz-adv-x="1281" arabic-form="final" 
d="M1193.5 15.5q-33.5 15.5 -54.5 52.5q-45 -31 -125.5 -49.5t-185.5 -18.5q-56 0 -115 7t-101 25l1 -22q3 -56 3 -93q0 -43 -44 -74.5t-114 -47.5t-146 -16q-124 0 -181 45t-57 135q0 30 10 99.5t33 207.5l62 -12q-38 -228 -38 -278q0 -52 46 -75.5t125 -23.5q170 0 237 53
l-35 380l76 16l4 -45q3 -39 6 -78.5t6 -78.5q15 -8 35 -10q33 48 92.5 115.5t133 121t137.5 53.5q90 0 135 -57.5t45 -170.5q0 -21 -3 -41q11 -20 35.5 -28t64.5 -8q3 0 5 -8t2 -19v-46q0 -11 -2 -18.5t-5 -7.5q-54 0 -87.5 15.5zM826 99q81 0 152.5 10t135.5 36
q4 80 -21 127.5t-88 47.5q-56 0 -134 -59t-158 -156q37 -6 113 -6zM802 554l57 71l75 -59l-57 -71z" />
    <glyph glyph-name="uni0636.init" unicode="&#x636;" horiz-adv-x="853" arabic-form="initial" 
d="M-5 7.5q-2 7.5 -2 18.5v46q0 11 2 19t5 8q44 0 70.5 3.5t56.5 17.5l-2 162h70l-4 -151q7 -6 21 -11t25 -6q33 49 92.5 116t132.5 120.5t137 53.5q181 0 181 -228q0 -28 -6 -53t-19 -39q-39 -38 -125.5 -61t-206.5 -23q-73 0 -145.5 12.5t-107.5 43.5q-24 -28 -72.5 -42
t-97.5 -14q-3 0 -5 7.5zM422 99q81 0 152 10t136 36q4 80 -21 127.5t-88 47.5q-56 0 -134 -59t-158 -156q40 -6 113 -6zM397 554l57 71l75 -59l-57 -71z" />
    <glyph glyph-name="uni0636.medi" unicode="&#x636;" horiz-adv-x="877" arabic-form="medial" 
d="M789.5 15.5q-33.5 15.5 -54.5 52.5q-45 -31 -125.5 -49.5t-186.5 -18.5q-73 0 -145.5 12.5t-107.5 43.5q-24 -28 -72.5 -42t-97.5 -14q-3 0 -5 7.5t-2 18.5v46q0 11 2 19t5 8q44 0 70.5 3.5t56.5 17.5l-2 162h70l-4 -151q7 -6 21 -11t25 -6q33 49 92.5 116t132.5 120.5
t137 53.5q181 0 181 -228q0 -23 -4 -42q12 -19 36.5 -27t64.5 -8q3 0 5 -8t2 -19v-46q0 -11 -2 -18.5t-5 -7.5q-54 0 -87.5 15.5zM422 99q81 0 152 10t136 36q4 80 -21 127.5t-88 47.5q-56 0 -134 -59t-158 -156q40 -6 113 -6zM397 554l57 71l75 -59l-57 -71z" />
    <glyph glyph-name="uni0637.fina" unicode="&#x637;" horiz-adv-x="805" arabic-form="final" 
d="M717.5 15.5q-33.5 15.5 -54.5 53.5q-45 -31 -126 -50t-187 -19h-262l-21 99h90q23 25 38 49q9 14 13 38.5t4 82.5q0 37 -1 59l-9 368l79 14l4 -358q0 -41 -1.5 -64.5t-6.5 -38.5q147 155 249 155q181 0 181 -228q0 -22 -4 -41q12 -20 36.5 -28t65.5 -8q3 0 5 -8t2 -19
v-46q0 -11 -2 -18.5t-5 -7.5q-54 0 -87.5 15.5zM348 99q81 0 152.5 10t135.5 36q4 80 -21 127.5t-88 47.5q-55 0 -132 -60t-161 -161h114z" />
    <glyph glyph-name="uni0637.init" unicode="&#x637;" horiz-adv-x="713" arabic-form="initial" 
d="M90 99q23 25 38 49q9 14 13 38.5t4 82.5q0 37 -1 59l-9 368l79 14l4 -358q0 -41 -1.5 -64.5t-6.5 -38.5q147 155 249 155q181 0 181 -228q0 -28 -6.5 -53t-19.5 -39q-38 -38 -125 -61t-206 -23h-283q-3 0 -5 7.5t-2 18.5v46q0 11 2 19t5 8h90zM281 99q81 0 152.5 10
t135.5 36q4 80 -21 127.5t-88 47.5q-55 0 -132 -60t-161 -161h114z" />
    <glyph glyph-name="uni0637.medi" unicode="&#x637;" horiz-adv-x="738" arabic-form="medial" 
d="M650.5 15.5q-33.5 15.5 -54.5 53.5q-45 -31 -126 -50t-187 -19h-283q-3 0 -5 7.5t-2 18.5v46q0 11 2 19t5 8h90q23 25 38 49q9 14 13 38.5t4 82.5q0 37 -1 59l-9 368l79 14l4 -358q0 -41 -1.5 -64.5t-6.5 -38.5q147 155 249 155q181 0 181 -228q0 -22 -4 -41
q12 -20 36.5 -28t65.5 -8q3 0 5 -8t2 -19v-46q0 -11 -2 -18.5t-5 -7.5q-54 0 -87.5 15.5zM281 99q81 0 152.5 10t135.5 36q4 80 -21 127.5t-88 47.5q-55 0 -132 -60t-161 -161h114z" />
    <glyph glyph-name="uni0638.fina" unicode="&#x638;" horiz-adv-x="805" arabic-form="final" 
d="M717.5 15.5q-33.5 15.5 -54.5 53.5q-45 -31 -126 -50t-187 -19h-262l-21 99h90q23 25 38 49q9 14 13 38.5t4 82.5q0 37 -1 59l-9 368l79 14l4 -358q0 -41 -1.5 -64.5t-6.5 -38.5q147 155 249 155q181 0 181 -228q0 -22 -4 -41q12 -20 36.5 -28t65.5 -8q3 0 5 -8t2 -19
v-46q0 -11 -2 -18.5t-5 -7.5q-54 0 -87.5 15.5zM348 99q81 0 152.5 10t135.5 36q4 80 -21 127.5t-88 47.5q-55 0 -132 -60t-161 -161h114zM468 574l57 71l75 -59l-57 -71z" />
    <glyph glyph-name="uni0638.init" unicode="&#x638;" horiz-adv-x="713" arabic-form="initial" 
d="M90 99q23 25 38 49q9 14 13 38.5t4 82.5q0 37 -1 59l-9 368l79 14l4 -358q0 -41 -1.5 -64.5t-6.5 -38.5q147 155 249 155q181 0 181 -228q0 -28 -6.5 -53t-19.5 -39q-38 -38 -125 -61t-206 -23h-283q-3 0 -5 7.5t-2 18.5v46q0 11 2 19t5 8h90zM281 99q81 0 152.5 10
t135.5 36q4 80 -21 127.5t-88 47.5q-55 0 -132 -60t-161 -161h114zM401 574l57 71l75 -59l-57 -71z" />
    <glyph glyph-name="uni0638.medi" unicode="&#x638;" horiz-adv-x="738" arabic-form="medial" 
d="M650.5 15.5q-33.5 15.5 -54.5 53.5q-45 -31 -126 -50t-187 -19h-283q-3 0 -5 7.5t-2 18.5v46q0 11 2 19t5 8h90q23 25 38 49q9 14 13 38.5t4 82.5q0 37 -1 59l-9 368l79 14l4 -358q0 -41 -1.5 -64.5t-6.5 -38.5q147 155 249 155q181 0 181 -228q0 -22 -4 -41
q12 -20 36.5 -28t65.5 -8q3 0 5 -8t2 -19v-46q0 -11 -2 -18.5t-5 -7.5q-54 0 -87.5 15.5zM281 99q81 0 152.5 10t135.5 36q4 80 -21 127.5t-88 47.5q-55 0 -132 -60t-161 -161h114zM401 574l57 71l75 -59l-57 -71z" />
    <glyph glyph-name="uni0639.fina" unicode="&#x639;" horiz-adv-x="602" arabic-form="final" 
d="M155 -299q-81 61 -81 190q0 74 45 148.5t133 117.5q-44 68 -72 108.5t-37.5 49t-18.5 6.5l-25 -4l5 80q113 22 258 22q163 0 163 -76v-24q0 -30 -41.5 -90t-78.5 -87q19 -20 39.5 -31.5t59.5 -11.5h98q3 0 5 -8t2 -19v-46q0 -11 -2 -18.5t-5 -7.5h-106q-71 0 -109 28
t-61 70q-152 -61 -179 -181q0 -93 62 -136.5t160 -43.5q82 0 187 29l-5 -97q-98 -29 -187 -29q-128 0 -209 61zM244.5 289q20.5 -28 83.5 -120q36 20 77.5 66t48.5 80q-12 17 -104 17q-39 0 -78 -2.5t-60 -5.5q12 -7 32.5 -35z" />
    <glyph glyph-name="uni0639.init" unicode="&#x639;" horiz-adv-x="522" arabic-form="initial" 
d="M-5 7.5q-2 7.5 -2 18.5v46q0 11 2 19t5 8h139q-36 67 -36 129t46 99t120 37q53 0 112 -16l-20 -78q-50 10 -98 10q-59 0 -91 -31q0 -72 41 -147q97 13 234 44v-89q-95 -26 -146 -37t-106.5 -15.5t-149.5 -4.5h-45q-3 0 -5 7.5z" />
    <glyph glyph-name="uni0639.medi" unicode="&#x639;" horiz-adv-x="530" arabic-form="medial" 
d="M-5 7.5q-2 7.5 -2 18.5v46q0 11 2 19t5 8h124q52 0 79 10q-53 82 -78.5 117.5t-35 44t-18.5 7.5l-26 -4l5 80q114 22 259 22q163 0 163 -76v-24q0 -28 -37.5 -82.5t-73.5 -84.5q22 -10 70 -10h99q3 0 5 -8t2 -19v-46q0 -11 -2 -18.5t-5 -7.5h-107q-59 0 -93.5 14
t-54.5 39q-47 -53 -150 -53h-125q-3 0 -5 7.5zM183.5 256q15.5 -20 56.5 -79l35 -50q35 19 76.5 65.5t49.5 80.5q-6 8 -35 12t-69 4q-82 0 -138 -7q9 -6 24.5 -26z" />
    <glyph glyph-name="uni063A.fina" unicode="&#x63a;" horiz-adv-x="602" arabic-form="final" 
d="M155 -299q-81 61 -81 190q0 74 45 148.5t133 117.5q-44 68 -72 108.5t-37.5 49t-18.5 6.5l-25 -4l5 80q113 22 258 22q163 0 163 -76v-24q0 -30 -41.5 -90t-78.5 -87q19 -20 39.5 -31.5t59.5 -11.5h98q3 0 5 -8t2 -19v-46q0 -11 -2 -18.5t-5 -7.5h-106q-71 0 -109 28
t-61 70q-152 -61 -179 -181q0 -93 62 -136.5t160 -43.5q82 0 187 29l-5 -97q-98 -29 -187 -29q-128 0 -209 61zM244.5 289q20.5 -28 83.5 -120q36 20 77.5 66t48.5 80q-12 17 -104 17q-39 0 -78 -2.5t-60 -5.5q12 -7 32.5 -35zM246 574l57 71l75 -59l-57 -71z" />
    <glyph glyph-name="uni063A.init" unicode="&#x63a;" horiz-adv-x="522" arabic-form="initial" 
d="M-5 7.5q-2 7.5 -2 18.5v46q0 11 2 19t5 8h139q-36 67 -36 129t46 99t120 37q53 0 112 -16l-20 -78q-50 10 -98 10q-59 0 -91 -31q0 -72 41 -147q97 13 234 44v-89q-95 -26 -146 -37t-106.5 -15.5t-149.5 -4.5h-45q-3 0 -5 7.5zM160 517l57 71l75 -59l-57 -71z" />
    <glyph glyph-name="uni063A.medi" unicode="&#x63a;" horiz-adv-x="530" arabic-form="medial" 
d="M-5 7.5q-2 7.5 -2 18.5v46q0 11 2 19t5 8h124q52 0 79 10q-53 82 -78.5 117.5t-35 44t-18.5 7.5l-26 -4l5 80q114 22 259 22q163 0 163 -76v-24q0 -28 -37.5 -82.5t-73.5 -84.5q22 -10 70 -10h99q3 0 5 -8t2 -19v-46q0 -11 -2 -18.5t-5 -7.5h-107q-59 0 -93.5 14
t-54.5 39q-47 -53 -150 -53h-125q-3 0 -5 7.5zM183.5 256q15.5 -20 56.5 -79l35 -50q35 19 76.5 65.5t49.5 80.5q-6 8 -35 12t-69 4q-82 0 -138 -7q9 -6 24.5 -26zM193 531l57 71l75 -59l-57 -71z" />
    <glyph glyph-name="uni0641.fina" unicode="&#x641;" horiz-adv-x="950" arabic-form="final" 
d="M224 9.5q-70 14.5 -110 53.5t-40 111q0 20 7 67t21 133l62 -13q-23 -140 -23 -171q0 -37 24 -57.5t78.5 -29.5t151.5 -9q117 0 164.5 2t83.5 10q-31 21 -54.5 50t-23.5 58q0 28 26.5 76t67 84.5t82.5 36.5q41 0 76 -29t55 -78.5t20 -108.5q0 -26 -15 -44t-57 -43
q39 -9 86 -9h44q2 0 4.5 -8t2.5 -19v-46q0 -11 -2.5 -18.5t-4.5 -7.5h-60q-51 0 -87.5 9.5t-73.5 36.5q-18 -15 -41 -22q-87 -29 -289 -29q-105 0 -175 14.5zM664 169.5q30 -26.5 72 -47.5l85 62q0 53 -23 98t-62 45q-21 0 -45 -20.5t-40.5 -47t-16.5 -41.5q0 -22 30 -48.5z
M671 560l57 71l75 -59l-57 -71z" />
    <glyph glyph-name="uni0641.init" unicode="&#x641;" horiz-adv-x="452" arabic-form="initial" 
d="M-5 7.5q-2 7.5 -2 18.5v46q0 11 2 19t5 8q140 0 206.5 4.5t98.5 16.5q4 23 4 66q-50 -11 -115 -11q-45 0 -72.5 7.5t-45.5 31.5q-12 16 -16.5 28.5t-4.5 34.5q0 54 17 110t54.5 95t95.5 39q83 0 119.5 -80.5t36.5 -184.5q0 -80 -5.5 -123.5t-20 -67t-42.5 -36.5
q-39 -17 -99 -23t-211 -6q-3 0 -5 7.5zM205 259q69 0 105 10q0 86 -24.5 128t-71.5 42q-41 0 -67 -46.5t-26 -120.5q32 -13 84 -13zM148 674l57 71l75 -59l-57 -71z" />
    <glyph glyph-name="uni0641.medi" unicode="&#x641;" horiz-adv-x="449" arabic-form="medial" 
d="M-5 7.5q-2 7.5 -2 18.5v46q0 11 2 19t5 8h67q42 0 76 9q-31 19 -55 48.5t-24 57.5q0 27 27.5 75.5t68.5 85t81 36.5t74.5 -29t55.5 -78.5t21 -108.5q0 -25 -15 -44t-56 -43q39 -9 84 -9h44q3 0 5 -8t2 -19v-46q0 -11 -2 -18.5t-5 -7.5h-59q-51 0 -87.5 9.5t-74.5 37.5
q-58 -47 -170 -47h-58q-3 0 -5 7.5zM164 169.5q30 -26.5 72 -47.5l85 62q0 53 -23 98t-62 45q-21 0 -45 -20.5t-40.5 -47t-16.5 -41.5q0 -22 30 -48.5zM171 560l57 71l75 -59l-57 -71z" />
    <glyph glyph-name="uni0642.fina" unicode="&#x642;" horiz-adv-x="767" arabic-form="final" 
d="M771.5 91q2.5 -8 2.5 -19v-46q0 -11 -2.5 -18.5t-4.5 -7.5h-102q-3 -75 -14.5 -108.5t-39.5 -55.5q-40 -35 -121 -52.5t-178 -17.5q-125 0 -181.5 46t-56.5 140q0 20 9 79t22 143q3 20 6 39.5t6 39.5l62 -12q-38 -228 -38 -278q0 -52 46.5 -75.5t124.5 -23.5
q91 0 157.5 12.5t120.5 38.5q7 41 7 96q-44 -11 -115 -11q-45 0 -72.5 7.5t-45.5 31.5q-12 15 -16.5 27.5t-4.5 35.5q0 54 17 110t54.5 95t95.5 39q79 0 115.5 -73.5t40.5 -173.5h101q2 0 4.5 -8zM493 83q63 0 105 10q0 85 -25 127.5t-71 42.5q-41 0 -67.5 -46.5
t-26.5 -119.5q34 -14 85 -14zM373 497l56 68l71 -57l-55 -68zM557 565l72 -57l-56 -68l-71 57z" />
    <glyph glyph-name="uni0642.init" unicode="&#x642;" horiz-adv-x="452" arabic-form="initial" 
d="M-5 7.5q-2 7.5 -2 18.5v46q0 11 2 19t5 8q140 0 206.5 4.5t98.5 16.5q4 23 4 66q-50 -11 -115 -11q-45 0 -72.5 7.5t-45.5 31.5q-12 16 -16.5 28.5t-4.5 34.5q0 54 17 110t54.5 95t95.5 39q83 0 119.5 -80.5t36.5 -184.5q0 -80 -5.5 -123.5t-20 -67t-42.5 -36.5
q-39 -17 -99 -23t-211 -6q-3 0 -5 7.5zM205 259q69 0 105 10q0 86 -24.5 128t-71.5 42q-41 0 -67 -46.5t-26 -120.5q32 -13 84 -13zM86 672l56 68l71 -57l-55 -68zM270 740l72 -57l-56 -68l-71 57z" />
    <glyph glyph-name="uni0642.medi" unicode="&#x642;" horiz-adv-x="449" arabic-form="medial" 
d="M-5 7.5q-2 7.5 -2 18.5v46q0 11 2 19t5 8h67q42 0 76 9q-31 19 -55 48.5t-24 57.5q0 27 27.5 75.5t68.5 85t81 36.5t74.5 -29t55.5 -78.5t21 -108.5q0 -25 -15 -44t-56 -43q39 -9 84 -9h44q3 0 5 -8t2 -19v-46q0 -11 -2 -18.5t-5 -7.5h-59q-51 0 -87.5 9.5t-74.5 37.5
q-58 -47 -170 -47h-58q-3 0 -5 7.5zM164 169.5q30 -26.5 72 -47.5l85 62q0 53 -23 98t-62 45q-21 0 -45 -20.5t-40.5 -47t-16.5 -41.5q0 -22 30 -48.5zM109 558l56 68l71 -57l-55 -68zM293 626l72 -57l-56 -68l-71 57z" />
    <glyph glyph-name="uni0643.fina" unicode="&#x643;" horiz-adv-x="871" arabic-form="final" 
d="M224 9.5q-70 14.5 -110 53.5t-40 111q0 20 7 67t21 133l62 -13q-23 -140 -23 -171q0 -37 24 -57.5t78.5 -29.5t151.5 -9q174 0 262 34l-25 567l78 15l15 -513q1 -52 30.5 -75t90.5 -23h25q3 0 5 -8t2 -19v-46q0 -11 -2 -18.5t-5 -7.5h-16q-62 0 -104.5 18.5t-55.5 58.5
q-7 -42 -101.5 -62t-194.5 -20q-105 0 -175 14.5zM305 361q58 0 100.5 11t56.5 32q0 22 -18.5 30.5t-53.5 13.5q-32 5 -47.5 11.5t-15.5 23.5q0 25 14.5 65.5t40 71.5t58.5 31q24 0 42.5 -14t34.5 -40l-29 -26q-23 27 -48 27q-26 0 -45 -29.5t-25 -65.5q50 -4 78 -12t42 -27
t14 -53q0 -49 -55 -78t-148 -29z" />
    <glyph glyph-name="uni0643.init" unicode="&#x643;" horiz-adv-x="413" arabic-form="initial" 
d="M-5 7.5q-2 7.5 -2 18.5v46q0 11 2 19t5 8q83 0 146.5 8t98.5 22q-10 123 -61 209t-170 163l10 73q159 79 336 136l11 -82q-133 -41 -251 -98q110 -88 155 -191t45 -224q0 -62 -83.5 -88.5t-236.5 -26.5q-3 0 -5 7.5z" />
    <glyph glyph-name="uni0643.medi" unicode="&#x643;" horiz-adv-x="455" arabic-form="medial" 
d="M293 56q-64 -56 -293 -56q-3 0 -5 7.5t-2 18.5v46q0 11 2 19t5 8q83 0 146.5 8t98.5 22q-10 123 -61 209t-170 163l10 73q159 79 336 136l11 -82q-133 -41 -251 -98q103 -81 148.5 -176t50.5 -205q8 -29 27.5 -39.5t56.5 -10.5h52q3 0 5 -8t2 -19v-46q0 -11 -2 -18.5
t-5 -7.5h-45q-91 0 -117 56z" />
    <glyph glyph-name="uni0644.fina" unicode="&#x644;" horiz-adv-x="716" arabic-form="final" 
d="M573 43l2 -126q0 -43 -42.5 -74.5t-106.5 -47.5t-126 -16q-117 0 -171.5 46t-54.5 140q0 20 9 79t22 143q3 20 6 39.5t6 39.5l62 -12q-38 -228 -38 -278q0 -51 44.5 -75t114.5 -24q62 0 117 12.5t91 40.5l-27 766l79 14l10 -548q6 -29 18 -42.5t30 -17t49 -3.5h49
q3 0 5 -8t2 -19v-46q0 -11 -2 -18.5t-5 -7.5h-41q-69 0 -102 43z" />
    <glyph glyph-name="uni0644.init" unicode="&#x644;" horiz-adv-x="333" arabic-form="initial" 
d="M-5 7.5q-2 7.5 -2 18.5v46q0 11 2 19t5 8q63 0 110.5 6.5t80.5 27.5l-21 563l79 14l9 -580q1 -70 -75 -100t-183 -30q-3 0 -5 7.5z" />
    <glyph glyph-name="uni0644.medi" unicode="&#x644;" horiz-adv-x="365" arabic-form="medial" 
d="M-5 7.5q-2 7.5 -2 18.5v46q0 11 2 19t5 8q61 0 96 6t55 26l-21 565l78 14l10 -530q1 -81 120 -81h27q3 0 5 -8t2 -19v-46q0 -11 -2 -18.5t-5 -7.5q-84 0 -125.5 17.5t-51.5 52.5q-40 -70 -188 -70q-3 0 -5 7.5z" />
    <glyph glyph-name="uni0645.fina" unicode="&#x645;" horiz-adv-x="580" arabic-form="final" 
d="M488.5 13.5q-34.5 13.5 -53.5 43.5q-6 -30 -10 -44q-7 -23 -36 -46q-20 -15 -41 -15q-13 0 -27 6l-178 81q-4 -27 -4 -72q0 -108 23 -281l-81 -13q-16 192 -16 268q0 106 26 163q49 101 100 159.5t110 58.5q53 0 88.5 -41t46.5 -109q13 -40 43 -56.5t101 -16.5q3 0 5 -8
t2 -19v-46q0 -11 -2 -18.5t-5 -7.5q-57 0 -91.5 13.5zM354 40q7 14 11.5 36.5t4.5 44.5q0 53 -20.5 86t-55.5 33q-31 0 -55.5 -28t-58.5 -95z" />
    <glyph glyph-name="uni0645.init" unicode="&#x645;" horiz-adv-x="490" arabic-form="initial" 
d="M23 0h-23q-3 0 -5 7.5t-2 18.5v46q0 11 2 19t5 8h35q26 0 39 4t22 15.5t21 37.5q28 65 53 100.5t52.5 50.5t65.5 15q63 0 100.5 -57t37.5 -147q0 -57 -15 -105q-7 -23 -36 -46q-22 -15 -40 -15q-13 0 -27 6l-178 79q-34 -37 -107 -37zM340 38q8 14 12 36t4 45
q0 53 -20.5 86t-55.5 33q-22 0 -38 -11t-33 -36.5t-42 -76.5z" />
    <glyph glyph-name="uni0645.medi" unicode="&#x645;" horiz-adv-x="566" arabic-form="medial" 
d="M23 0h-23q-3 0 -5 7.5t-2 18.5v46q0 11 2 19t5 8h35q26 0 39 4t22 15.5t21 37.5q28 65 53 100.5t52.5 50.5t65.5 15q52 0 87 -40t46 -106q9 -29 24 -45t43.5 -24t77.5 -8q3 0 5 -8t2 -19v-46q0 -11 -2 -18.5t-5 -7.5q-56 0 -91 13.5t-54 43.5q-2 -17 -10 -44
q-7 -23 -36 -46q-22 -15 -40 -15q-13 0 -27 6l-178 79q-34 -37 -107 -37zM340 38q8 14 12 36t4 45q0 53 -20.5 86t-55.5 33q-22 0 -38 -11t-33 -36.5t-42 -76.5z" />
    <glyph glyph-name="uni0646.fina" unicode="&#x646;" horiz-adv-x="777" arabic-form="final" 
d="M611 54q5 -93 5 -137q0 -43 -44 -74.5t-114 -47.5t-146 -16q-124 0 -181 45t-57 135q0 30 10 99.5t33 207.5l62 -12q-38 -228 -38 -278q0 -52 46 -75.5t125 -23.5q170 0 237 53l-35 380l76 16l14 -150q4 -35 22 -51.5t46.5 -21t79.5 -4.5h25q3 0 5 -8t2 -19v-46
q0 -11 -2 -18.5t-5 -7.5h-22q-109 0 -144 54zM273 427l57 71l75 -59l-57 -71z" />
    <glyph glyph-name="uni0646.init" unicode="&#x646;" horiz-adv-x="331" arabic-form="initial" 
d="M-5 7.5q-2 7.5 -2 18.5v46q0 11 2 19t5 8q61 0 109 7t81 27l-19 227l76 14q10 -170 10 -244q0 -27 -13 -50.5t-39 -39.5q-38 -20 -91 -30t-114 -10q-3 0 -5 7.5zM132 532l57 71l75 -59l-57 -71z" />
    <glyph glyph-name="uni0646.medi" unicode="&#x646;" horiz-adv-x="348" arabic-form="medial" 
d="M-5 7.5q-2 7.5 -2 18.5v46q0 11 2 19t5 8q49 0 83 6.5t63 23.5l-19 197l75 8l13 -208q41 -27 133 -27q2 0 4.5 -8t2.5 -19v-46q0 -11 -2.5 -18.5t-4.5 -7.5q-76 0 -116 15.5t-52 46.5q-18 -32 -62.5 -47t-117.5 -15q-3 0 -5 7.5zM90 497l57 71l75 -59l-57 -71z" />
    <glyph glyph-name="uni0647.fina" unicode="&#x647;" horiz-adv-x="490" arabic-form="final" 
d="M334 78l-8 -11q-15 -20 -46.5 -27t-81.5 -7t-87 23.5t-37 71.5q0 185 209 243l-8 65l72 22l24 -248q4 -43 10.5 -65t24.5 -34t54 -12h30q3 0 5.5 -8t2.5 -19v-46q0 -11 -2.5 -18.5t-5.5 -7.5h-28q-104 0 -128 78zM207 123q30 0 53 5t51 14l-17 155q-78 -15 -116.5 -61
t-41.5 -94q25 -19 71 -19z" />
    <glyph glyph-name="uni0647.init" unicode="&#x647;" horiz-adv-x="609" arabic-form="initial" 
d="M191 10.5q-67 -10.5 -191 -10.5q-3 0 -5 7.5t-2 18.5v46q0 11 2 19t5 8h89q29 0 67 -4q-34 16 -54 40.5t-20 54.5q0 34 21.5 79t58.5 89l-49 23l34 74l258 -115q71 -32 105 -75t34 -105q0 -49 -27 -109q-14 -28 -35 -43q-20 -16 -36 -16q-7 0 -16 3l-149 56
q-23 -30 -90 -40.5zM184.5 173.5q25.5 -14.5 72.5 -25.5l59 140l-94 42q-63 -74 -63 -119q0 -23 25.5 -37.5zM451 75q24 37 24 79q0 35 -21.5 61t-76.5 49l-58 -139z" />
    <glyph glyph-name="uni0647.medi" unicode="&#x647;" horiz-adv-x="482" arabic-form="medial" 
d="M143.5 -155.5q-44.5 60.5 -61.5 155.5h-82q-3 0 -5 7.5t-2 18.5v46q0 11 2 19t5 8h89q10 67 39.5 128t72.5 98.5t91 37.5h45l7 -264h138q3 0 5 -8t2 -19v-46q0 -11 -2 -18.5t-5 -7.5q-106 0 -135 5q20 -9 30 -33t10 -53v-47q0 -19 -5 -33.5t-18 -27.5
q-16 -16 -30.5 -21.5t-40.5 -5.5q-105 0 -149.5 60.5zM294 -132q18 0 27 1v55q0 36 -22.5 61.5t-72.5 25.5h-76q9 -143 144 -143zM218 90q44 0 62 -7l-7 194q-30 0 -56 -33.5t-43 -78t-20 -75.5h64z" />
    <glyph glyph-name="uni0648.fina" unicode="&#x648;" horiz-adv-x="461" arabic-form="final" 
d="M304 9q-45 -9 -105 -9q-44 0 -72 8t-45 31q-12 15 -16.5 27.5t-4.5 35.5q0 54 17 110t54 95t95 39q79 0 116 -73.5t41 -173.5h77q3 0 5 -8t2 -19v-46q0 -11 -2 -18.5t-5 -7.5h-88q-25 -88 -99 -157t-181 -113l-48 76q215 81 259 203zM210 84q69 0 105 10q0 86 -24.5 128
t-71.5 42q-41 0 -67 -46.5t-26 -120.5q32 -13 84 -13z" />
    <glyph glyph-name="uni0649.fina" unicode="&#x649;" horiz-adv-x="680" arabic-form="final" 
d="M130.5 -199q-56.5 46 -56.5 140q0 20 8.5 78.5t21.5 140.5l13 83l62 -13q-38 -228 -38 -278q0 -52 46.5 -75t124.5 -23q92 0 155.5 13t102.5 50q3 16 3 28q0 25 -16 36.5t-51 15t-109 3.5l22 99h261q3 0 5 -8t2 -19v-46q0 -11 -2 -18.5t-5 -7.5h-42q5 -20 5 -39
q0 -107 -94.5 -156.5t-236.5 -49.5q-125 0 -181.5 46z" />
    <glyph glyph-name="uni064A.fina" unicode="&#x64a;" horiz-adv-x="680" arabic-form="final" 
d="M130.5 -199q-56.5 46 -56.5 140q0 20 8.5 78.5t21.5 140.5l13 83l62 -13q-38 -228 -38 -278q0 -52 46.5 -75t124.5 -23q92 0 155.5 13t102.5 50q3 16 3 28q0 25 -16 36.5t-51 15t-109 3.5l22 99h261q3 0 5 -8t2 -19v-46q0 -11 -2 -18.5t-5 -7.5h-42q5 -20 5 -39
q0 -107 -94.5 -156.5t-236.5 -49.5q-125 0 -181.5 46zM184 -420l56 68l71 -57l-55 -68zM368 -352l72 -57l-56 -68l-71 57z" />
    <glyph glyph-name="uni064A.init" unicode="&#x64a;" horiz-adv-x="331" arabic-form="initial" 
d="M-5 7.5q-2 7.5 -2 18.5v46q0 11 2 19t5 8q61 0 109 7t81 27l-19 227l76 14q10 -170 10 -244q0 -27 -13 -50.5t-39 -39.5q-38 -20 -91 -30t-114 -10q-3 0 -5 7.5zM-29 -175l56 68l71 -57l-55 -68zM155 -107l72 -57l-56 -68l-71 57z" />
    <glyph glyph-name="uni064A.medi" unicode="&#x64a;" horiz-adv-x="348" arabic-form="medial" 
d="M-5 7.5q-2 7.5 -2 18.5v46q0 11 2 19t5 8q49 0 83 6.5t63 23.5l-19 197l75 8l13 -208q41 -27 133 -27q2 0 4.5 -8t2.5 -19v-46q0 -11 -2.5 -18.5t-4.5 -7.5q-76 0 -116 15.5t-52 46.5q-18 -32 -62.5 -47t-117.5 -15q-3 0 -5 7.5zM25 -175l56 68l71 -57l-55 -68zM209 -107
l72 -57l-56 -68l-71 57z" />
    <glyph glyph-name=".notdef" horiz-adv-x="785" 
d="M644 -500h-498v1570h498v-1570zM523 -392v52h-160l110 74h50v52h-261v-52h110l-110 -74v-52h261zM523 -178v177h-261v-177h261zM523 93v178h-157v-88h53v36h52v-74h-157v126h-52v-178h261zM523 305v157h-52v-103h-209v-54h261zM419 395v110h104v52h-261v-52h104v-58h-104
v-52h157zM523 599v53h-104v110h-157v-163h261zM523 803v52h-104v58h104v52h-259v-52h102v-58h-104v-52h261zM314 -53h157v-73h-157v73zM314 709h52v-57h-52v57z" />
    <glyph glyph-name=".null" horiz-adv-x="0" 
 />
    <glyph glyph-name="nonmarkingreturn" horiz-adv-x="333" 
 />
    <glyph glyph-name="space" unicode=" " horiz-adv-x="240" 
 />
    <glyph glyph-name="exclam" unicode="!" horiz-adv-x="271" 
d="M169 200l-68 -11l-19 504l80 21zM91.5 102q18.5 18 44.5 18q27 0 45 -18t18 -45q0 -26 -18 -44.5t-45 -18.5q-26 0 -44.5 18t-18.5 45t18.5 45z" />
    <glyph glyph-name="quotedbl" unicode="&#x22;" horiz-adv-x="469" 
d="M114 464l-19 177l-3 98h89l-3 -98l-19 -177h-45zM376 739l-3 -98l-19 -177h-45l-18 177l-4 98h89z" />
    <glyph glyph-name="numbersign" unicode="#" horiz-adv-x="540" 
d="M128 223h-88v61h94l21 161h-93v64h100l25 196h57l-26 -196h147l26 196h56l-25 -196h88v-64h-95l-19 -161h93v-61h-101l-26 -220h-57l26 220h-146l-27 -220h-57zM338 284l20 161h-146l-20 -161h146z" />
    <glyph glyph-name="dollar" unicode="$" horiz-adv-x="544" 
d="M243 -115v107q-49 5 -97.5 26.5t-87.5 55.5l43 63q82 -70 166 -70q58 0 88.5 28.5t30.5 82.5q0 71 -78 120q-23 14 -73 39q-44 22 -75.5 45.5t-52.5 55.5q-22 32 -22 85q0 73 42.5 121.5t115.5 58.5v111h66v-108q47 -5 84 -25.5t70 -56.5l-48 -54q-33 31 -61.5 45.5
t-69.5 14.5q-50 0 -79 -27.5t-29 -75.5q0 -33 19.5 -58.5t59.5 -47.5q43 -25 74 -37q77 -36 113 -83.5t36 -116.5q0 -77 -45 -127.5t-124 -60.5v-111h-66z" />
    <glyph glyph-name="percent" unicode="%" horiz-adv-x="889" 
d="M82 371.5q-42 59.5 -42 161.5q0 101 41.5 159.5t117.5 58.5q75 0 116.5 -59.5t41.5 -158.5q0 -100 -42 -160.5t-116 -60.5q-75 0 -117 59.5zM129 410q24 -45 70 -45q45 0 68 46t23 122t-23 120.5t-68 44.5q-47 0 -70.5 -44t-23.5 -121q0 -78 24 -123zM610 724h62
l-390 -734h-62zM576 370.5q42 58.5 117 58.5t117 -59.5t42 -158.5q0 -101 -42 -161t-117 -60t-117 59.5t-42 161.5q0 101 42 159.5zM623.5 88q23.5 -45 69.5 -45t69 46t23 122t-23 120.5t-69 44.5t-69.5 -44.5t-23.5 -120.5q0 -78 23.5 -123z" />
    <glyph glyph-name="ampersand" unicode="&#x26;" horiz-adv-x="671" 
d="M142.5 16q-49.5 25 -77 69.5t-27.5 101.5q0 62 35 107.5t107 98.5q-25 49 -37.5 89t-12.5 75q0 47 21.5 85t59 59.5t84.5 21.5q65 0 103.5 -37.5t38.5 -101.5q0 -41 -20.5 -75.5t-52.5 -62.5t-88 -70q34 -52 81.5 -105t99.5 -96q73 101 101 209h83q-47 -152 -122 -251
q74 -49 131 -67l-23 -74q-68 19 -163 81q-96 -82 -210 -82q-62 0 -111.5 25zM165 99q40 -37 101 -37q70 0 134 58q-109 95 -183 209q-92 -64 -92 -137q0 -56 40 -93zM241 431q62 43 93 76t31 75q0 38 -17.5 59t-50.5 21q-40 0 -65 -28.5t-25 -75.5q0 -57 34 -127z" />
    <glyph glyph-name="quotesingle" unicode="'" horiz-adv-x="274" 
d="M114 464l-19 177l-3 98h89l-3 -98l-19 -177h-45z" />
    <glyph glyph-name="parenleft" unicode="(" horiz-adv-x="335" 
d="M123.5 45q-36.5 121 -36.5 260t36.5 259.5t107.5 236.5l61 -29q-63 -106 -96 -225t-33 -242t33 -241.5t96 -224.5l-61 -29q-71 114 -107.5 235z" />
    <glyph glyph-name="parenright" unicode=")" horiz-adv-x="334" 
d="M138.5 63.5q33.5 118.5 33.5 241.5q0 124 -33.5 242.5t-96.5 224.5l62 29q71 -116 107.5 -236.5t36.5 -259.5q0 -138 -37 -259.5t-107 -235.5l-62 29q63 106 96.5 224.5z" />
    <glyph glyph-name="asterisk" unicode="*" horiz-adv-x="463" 
d="M100 418l62 98l-105 42l21 66l110 -28l8 114h70l7 -114l111 27l22 -66l-106 -42l60 -97l-56 -42l-73 89l-74 -89z" />
    <glyph glyph-name="plus" unicode="+" horiz-adv-x="509" 
d="M228 204h-178v66h178v178h66v-178h178v-66h-179v-178l-65 1v177z" />
    <glyph glyph-name="comma" unicode="," horiz-adv-x="277" 
d="M126.5 -49q23.5 30 22.5 66q-2 -1 -8 -1q-27 0 -45 16t-18 44q0 27 18.5 43.5t45.5 16.5q34 0 53 -26.5t19 -74.5q0 -64 -34.5 -111.5t-98.5 -72.5l-21 52q43 18 66.5 48z" />
    <glyph glyph-name="hyphen" unicode="-" horiz-adv-x="340" 
d="M45 233v68h252v-68h-252z" />
    <glyph glyph-name="period" unicode="." horiz-adv-x="296" 
d="M101.5 11.5q-18.5 18.5 -18.5 45.5q0 28 18.5 46t44.5 18q28 0 46 -18t18 -46q0 -27 -18.5 -45.5t-45.5 -18.5q-26 0 -44.5 18.5z" />
    <glyph glyph-name="slash" unicode="/" horiz-adv-x="378" 
d="M15 -169l280 943h65l-280 -943h-65z" />
    <glyph glyph-name="zero" unicode="0" horiz-adv-x="548" 
d="M109 81.5q-58 94.5 -58 268.5q0 171 58 263.5t166 92.5q107 0 164.5 -92.5t57.5 -263.5q0 -174 -58 -268.5t-164 -94.5q-108 0 -166 94.5zM174.5 132q34.5 -76 100.5 -76q65 0 99 75.5t34 218.5q0 141 -33.5 214t-99.5 73t-100.5 -73.5t-34.5 -213.5q0 -142 34.5 -218z
" />
    <glyph glyph-name="one" unicode="1" horiz-adv-x="547" 
d="M88 71h159v516h-128v55q90 18 148 51h72v-622h141v-71h-392v71z" />
    <glyph glyph-name="two" unicode="2" horiz-adv-x="548" 
d="M285 313q44 57 64.5 101t20.5 85q0 65 -34.5 101t-95.5 36q-75 0 -145 -81l-51 51q49 53 98 76.5t110 23.5q95 0 151 -54.5t56 -146.5q0 -87 -77 -196q-69 -95 -201 -237l28 1q60 2 95 2h190v-75h-447v50q157 159 238 263z" />
    <glyph glyph-name="three" unicode="3" horiz-adv-x="547" 
d="M157 81q41 -21 95 -21q65 0 104 35t39 95q0 77 -56.5 108.5t-161.5 33.5v64q92 1 143 30.5t51 98.5q0 52 -32 81.5t-87 29.5q-39 0 -74.5 -16.5t-71.5 -51.5l-47 52q44 42 91.5 64t104.5 22q94 0 151.5 -45.5t57.5 -128.5q0 -56 -32.5 -97.5t-93.5 -65.5v-4
q67 -16 108.5 -64t41.5 -115q0 -61 -30 -106t-82.5 -69t-117.5 -24q-68 0 -126 24.5t-98 68.5l43 60q39 -38 80 -59z" />
    <glyph glyph-name="four" unicode="4" horiz-adv-x="548" 
d="M334 193h-311v58l290 442h108v-431h92v-69h-92v-193h-87v193zM334 262v199q0 65 2 141h-2q-14 -28 -39 -69l-20 -33l-159 -238h218z" />
    <glyph glyph-name="five" unicode="5" horiz-adv-x="548" 
d="M132 11q-59 24 -100 66l44 58q36 -36 76.5 -56t94.5 -20q68 0 110 44.5t42 117.5q0 71 -39.5 112t-107.5 41q-33 0 -58 -9.5t-58 -30.5l-47 31l21 328h347v-75h-266l-20 -208q30 15 54 22t53 7q101 0 157 -57t56 -159q0 -69 -31 -123t-84 -83.5t-118 -29.5q-67 0 -126 24
z" />
    <glyph glyph-name="six" unicode="6" horiz-adv-x="548" 
d="M87.5 528.5q31.5 85.5 91 131.5t141.5 46q100 0 167 -70l-49 -56q-24 26 -53.5 40t-60.5 14q-88 0 -135 -79t-45 -217q31 39 74.5 62.5t85.5 23.5q95 0 146 -54t51 -155q0 -66 -27 -118t-74 -81t-105 -29q-73 0 -127 41t-83 117.5t-29 180.5q0 117 31.5 202.5zM191 108.5
q38 -54.5 103 -54.5q53 0 87 44.5t34 116.5q0 70 -32.5 107t-94.5 37q-39 0 -76.5 -23.5t-66.5 -66.5q8 -106 46 -160.5z" />
    <glyph glyph-name="seven" unicode="7" horiz-adv-x="548" 
d="M248 334.5q45 138.5 149 283.5h-344v75h445v-54q-79 -101 -122.5 -192.5t-62.5 -194.5t-24 -252h-94q8 196 53 334.5z" />
    <glyph glyph-name="eight" unicode="8" horiz-adv-x="547" 
d="M160 11q-52 24 -81.5 67t-29.5 98q0 60 34.5 109.5t95.5 78.5v6q-97 68 -97 161q0 50 25.5 90t70.5 62.5t101 22.5q89 0 142 -49t53 -132q0 -44 -26.5 -89.5t-70.5 -76.5v-6q64 -34 93.5 -77.5t29.5 -104.5q0 -53 -29 -95t-80.5 -65.5t-114.5 -23.5q-64 0 -116 24z
M173 88.5q42 -38.5 105 -38.5q61 0 97.5 33.5t36.5 91.5q0 42 -20.5 69.5t-52.5 45t-91 42.5l-22 9q-48 -32 -71.5 -70t-23.5 -86q0 -58 42 -96.5zM204.5 444.5q38.5 -32.5 118.5 -64.5q73 65 73 140q0 56 -32.5 90t-86.5 34q-49 0 -80 -31.5t-31 -81.5q0 -54 38.5 -86.5z
" />
    <glyph glyph-name="nine" unicode="9" horiz-adv-x="548" 
d="M74 597.5q27 50.5 74 79.5t104 29q113 0 176.5 -87.5t63.5 -245.5q0 -120 -31.5 -207t-91 -133t-141.5 -46q-51 0 -93.5 18t-73.5 51l50 56q24 -25 53.5 -39.5t59.5 -14.5q87 0 135 80.5t46 222.5q-22 -37 -69.5 -62t-92.5 -25q-94 0 -145 54.5t-51 155.5q0 63 27 113.5z
M165.5 376q32.5 -37 94.5 -37q41 0 80 24t63 68q-8 102 -46.5 154.5t-103.5 52.5q-53 0 -86.5 -43t-33.5 -111q0 -71 32.5 -108z" />
    <glyph glyph-name="colon" unicode=":" horiz-adv-x="276" 
d="M92 12q-19 19 -19 46q0 28 18.5 46.5t45.5 18.5t45.5 -19t18.5 -46t-18.5 -46t-45.5 -19q-26 0 -45 19zM91.5 326q18.5 18 45.5 18q28 0 46 -18t18 -46q0 -27 -18.5 -45.5t-45.5 -18.5q-26 0 -45 18.5t-19 45.5q0 28 18.5 46z" />
    <glyph glyph-name="semicolon" unicode=";" horiz-adv-x="283" 
d="M126 -54.5q23 28.5 22 63.5h-8q-26 0 -43.5 15.5t-17.5 42.5t18 43.5t45 16.5q33 0 51.5 -26.5t18.5 -72.5q0 -62 -34 -108.5t-96 -70.5l-21 51q42 17 65 45.5zM98.5 326q18.5 18 45.5 18q28 0 46 -18t18 -46q0 -27 -18.5 -45.5t-45.5 -18.5t-45.5 18.5t-18.5 45.5
q0 28 18.5 46z" />
    <glyph glyph-name="less" unicode="&#x3c;" horiz-adv-x="545" 
d="M506 141l-466 183v73l466 182v-79l-371 -135v-9l371 -136v-79z" />
    <glyph glyph-name="equal" unicode="=" horiz-adv-x="494" 
d="M50 288v66h381v-66h-381zM50 179h381v-66h-381v66z" />
    <glyph glyph-name="greater" unicode="&#x3e;" horiz-adv-x="545" 
d="M40 141v79l371 136v9l-371 135v79l466 -182v-73z" />
    <glyph glyph-name="question" unicode="?" horiz-adv-x="467" 
d="M174 248q0 83 68 162q46 56 64 86t18 65q0 48 -29 76t-76 28q-67 0 -122 -60l-51 47q80 89 186 89q83 0 132.5 -46t49.5 -128q0 -40 -20 -78.5t-64 -89.5q-42 -50 -60.5 -90.5t-13.5 -90.5h-80q-2 20 -2 30zM175 103q17 18 42 18q27 0 44.5 -18t17.5 -45t-17.5 -44.5
t-44.5 -17.5q-25 0 -42 18t-17 44q0 27 17 45z" />
    <glyph glyph-name="at" unicode="@" horiz-adv-x="929" 
d="M292 -139q-69 25 -120 74q-54 51 -83.5 124t-29.5 165q0 105 35.5 195t101.5 155q62 64 144.5 98.5t173.5 34.5q81 0 147.5 -26t114.5 -74q46 -48 70.5 -114.5t24.5 -146.5q0 -67 -18.5 -121.5t-53.5 -93.5q-30 -35 -69 -53.5t-77 -18.5q-46 0 -75 21.5t-34 61.5h-8
q-30 -36 -64.5 -55t-66.5 -19q-59 0 -94 40.5t-35 110.5q0 43 15.5 89t41.5 81q29 38 67.5 59t82.5 21q55 0 84 -53h8l12 44h58l-43 -215q-8 -29 -8 -57q0 -71 69 -71q28 0 54.5 15.5t47.5 44.5q46 65 46 165q0 67 -19.5 123.5t-56.5 95.5q-83 89 -229 89
q-73 0 -142.5 -30.5t-122.5 -85.5q-58 -58 -89 -136t-31 -170q0 -78 24.5 -141t70.5 -108q43 -42 103.5 -64.5t130.5 -22.5q89 0 173 46l22 -50q-91 -52 -203 -52q-81 0 -150 25zM366 151.5q20 -25.5 58 -25.5q47 0 101 65l30 172q-14 25 -30.5 36t-40.5 11q-58 0 -102 -63
q-16 -25 -26 -58.5t-10 -64.5q0 -47 20 -72.5z" />
    <glyph glyph-name="A" unicode="A" horiz-adv-x="604" 
d="M246 710h110l235 -710h-96l-66 216h-259l-66 -216h-95zM410 287l-73 231l-37 120h-4q-19 -73 -34 -120l-73 -231h221z" />
    <glyph glyph-name="B" unicode="B" horiz-adv-x="645" 
d="M100 710h214q114 0 179 -40.5t65 -131.5q0 -57 -29.5 -99.5t-79.5 -56.5v-5q73 -13 111.5 -57.5t38.5 -112.5q0 -103 -74 -155t-195 -52h-230v710zM317 70q93 0 141 35.5t48 105.5q0 65 -47 96.5t-142 31.5h-124v-269h124zM298 406q168 0 168 118q0 62 -39 89t-124 27
h-110v-234h105z" />
    <glyph glyph-name="C" unicode="C" horiz-adv-x="625" 
d="M206 34q-70 47 -107.5 129.5t-37.5 186.5q0 108 38.5 193t110 132.5t167.5 47.5q56 0 105.5 -22t86.5 -60l-47 -61q-64 66 -144 66q-71 0 -120.5 -38t-75 -104t-25.5 -151q0 -128 57 -208.5t161 -80.5q47 0 86 18.5t77 59.5l48 -56q-87 -99 -214 -99q-96 0 -166 47z" />
    <glyph glyph-name="D" unicode="D" horiz-adv-x="674" 
d="M100 0v710h179q164 0 250.5 -90t86.5 -260q0 -172 -86 -266t-247 -94h-183zM272 71q121 0 184 73.5t63 215.5q0 137 -62.5 207t-184.5 70h-79v-566h79z" />
    <glyph glyph-name="E" unicode="E" horiz-adv-x="578" 
d="M100 710h410v-75h-317v-226h268v-75h-268v-259h327v-75h-420v710z" />
    <glyph glyph-name="F" unicode="F" horiz-adv-x="544" 
d="M100 710h410v-75h-317v-246h269v-75h-269v-309h-93v705z" />
    <glyph glyph-name="G" unicode="G" horiz-adv-x="676" 
d="M210.5 34q-72.5 47 -111 130.5t-38.5 192.5q0 106 40 189.5t114 130t173 46.5q121 0 202 -84l-49 -59q-34 34 -69.5 50t-80.5 16q-75 0 -128 -37.5t-79.5 -102.5t-26.5 -146q0 -136 60 -216t176 -80q36 0 69.5 11.5t54.5 30.5v191h-146v73h231v-302q-37 -38 -95 -59.5
t-124 -21.5q-100 0 -172.5 47z" />
    <glyph glyph-name="H" unicode="H" horiz-adv-x="714" 
d="M100 710h93v-297h328v297h94v-710h-94v335h-328v-335h-93v710z" />
    <glyph glyph-name="I" unicode="I" horiz-adv-x="293" 
d="M100 0v710h93v-710h-93z" />
    <glyph glyph-name="J" unicode="J" horiz-adv-x="528" 
d="M38 96l66 46q44 -78 121 -78q58 0 86 37t28 117v492h94v-501q0 -99 -46 -158q-25 -31 -64 -47.5t-89 -16.5q-132 0 -196 109z" />
    <glyph glyph-name="K" unicode="K" horiz-adv-x="637" 
d="M100 0v710h93v-357h2l297 357h102l-222 -269l258 -441h-104l-211 368l-122 -144v-224h-93z" />
    <glyph glyph-name="L" unicode="L" horiz-adv-x="536" 
d="M100 0v710h93v-635h310v-75h-403z" />
    <glyph glyph-name="M" unicode="M" horiz-adv-x="798" 
d="M100 710h114l160 -448q18 -50 25 -73h3q12 32 26 74l156 447h115v-710h-87v382q0 69 10 219h-5l-187 -526h-62l-189 526h-5q9 -148 9 -219v-382h-83v710z" />
    <glyph glyph-name="N" unicode="N" horiz-adv-x="708" 
d="M100 0v714h98l226 -404l105 -192h1q-10 120 -10 237v359h89v-714h-100l-207 375l-123 220h-1q11 -105 11 -232v-363h-89z" />
    <glyph glyph-name="O" unicode="O" horiz-adv-x="728" 
d="M200.5 35q-68.5 48 -104 133t-35.5 192q0 106 35.5 188t103.5 128.5t164 46.5q95 0 164.5 -46t105.5 -128.5t36 -188.5q0 -109 -36.5 -193.5t-105.5 -132t-164 -47.5t-163.5 48zM181 208.5q24 -67.5 70.5 -106t112.5 -38.5q67 0 114 39t71 106.5t24 150.5q0 82 -24.5 147
t-71.5 102t-113 37t-112.5 -37.5t-70.5 -102.5t-24 -146q0 -84 24 -151.5z" />
    <glyph glyph-name="P" unicode="P" horiz-adv-x="623" 
d="M100 710h206q131 0 199 -50t68 -157t-71.5 -162t-191.5 -55h-117v-286h-93v710zM300 358q91 0 135.5 36t44.5 109q0 71 -43.5 103t-141.5 32h-102v-280h107z" />
    <glyph glyph-name="Q" unicode="Q" horiz-adv-x="728" 
d="M425 -131.5q-69 43.5 -102 120.5q-82 10 -141 60.5t-90 130.5t-31 180q0 106 35.5 188t103.5 128.5t164 46.5q95 0 164.5 -46t105.5 -128.5t36 -188.5q0 -148 -65 -247.5t-182 -120.5q24 -45 68 -69t105 -24q39 0 74 10l16 -68q-18 -7 -45 -11.5t-56 -4.5
q-91 0 -160 43.5zM181 208.5q24 -67.5 70.5 -106t112.5 -38.5q67 0 114 39t71 106.5t24 150.5q0 82 -24.5 147t-71.5 102t-113 37t-112.5 -37.5t-70.5 -102.5t-24 -146q0 -84 24 -151.5z" />
    <glyph glyph-name="R" unicode="R" horiz-adv-x="627" 
d="M100 710h224q251 0 251 -201q0 -78 -40.5 -127t-120.5 -68l180 -314h-105l-167 301h-129v-301h-93v710zM312 372q83 0 126.5 35t43.5 102q0 68 -41 98.5t-129 30.5h-119v-266h119z" />
    <glyph glyph-name="S" unicode="S" horiz-adv-x="586" 
d="M162.5 13q-64.5 26 -111.5 74l54 64q42 -42 93 -65t102 -23q68 0 107 31t39 85q0 36 -13.5 59t-36.5 37t-65 32l-105 46q-143 59 -143 184q0 55 30 97t81.5 65.5t113.5 23.5q59 0 113 -22t95 -62l-47 -57q-37 33 -76.5 49t-84.5 16q-60 0 -95 -27.5t-35 -76.5
q0 -44 28 -71t86 -51l19 -8q67 -29 86 -36q72 -30 108 -74.5t36 -115.5q0 -60 -32 -105.5t-87.5 -70t-123.5 -24.5q-71 0 -135.5 26z" />
    <glyph glyph-name="T" unicode="T" horiz-adv-x="589" 
d="M248 0v635h-214v75h521v-75h-213v-635h-94z" />
    <glyph glyph-name="U" unicode="U" horiz-adv-x="706" 
d="M160 67.5q-63 80.5 -63 227.5v415h93v-419q0 -109 41 -168t124 -59q86 0 126 59.5t40 167.5v419h89v-415q0 -308 -255 -308q-132 0 -195 80.5z" />
    <glyph glyph-name="V" unicode="V" horiz-adv-x="570" 
d="M105 710l102 -346q23 -74 48 -163l33 -111h1l21 71q41 144 57 194l104 355h93l-221 -710h-112l-225 710h99z" />
    <glyph glyph-name="W" unicode="W" horiz-adv-x="863" 
d="M30 710h95l69 -356l24 -131q17 -102 23 -131h1q6 26 11.5 50t10.5 45q24 107 39 163l89 360h85l89 -356q10 -39 30 -129q22 -94 32 -133h2l21 115q15 87 27 148l67 355h89l-144 -710h-117l-78 326q-12 47 -42 178l-20 86h-1l-23 -99l-39 -166l-78 -325h-115z" />
    <glyph glyph-name="X" unicode="X" horiz-adv-x="569" 
d="M228 367l-190 343h102l95 -177q12 -21 35 -67l20 -40h2q14 28 24.5 48.5t18.5 36.5l9 20l90 179h99l-190 -348l203 -362h-104l-99 187q-50 92 -62 118h-1q-16 -39 -60 -118l-97 -187h-99z" />
    <glyph glyph-name="Y" unicode="Y" horiz-adv-x="529" 
d="M218 274l-213 436h99l90 -194q4 -9 39 -89l31 -70h4q18 37 42 94q13 31 29 65l89 194h97l-213 -436v-274h-94v274z" />
    <glyph glyph-name="Z" unicode="Z" horiz-adv-x="590" 
d="M53 54l371 581h-338v75h453v-53l-373 -582h375v-75h-488v54z" />
    <glyph glyph-name="bracketleft" unicode="[" horiz-adv-x="334" 
d="M103 -160v932h194v-51h-125v-831h125v-50h-194z" />
    <glyph glyph-name="backslash" unicode="\" horiz-adv-x="382" 
d="M5 763h65l306 -933h-65z" />
    <glyph glyph-name="bracketright" unicode="]" horiz-adv-x="334" 
d="M38 -160v50h125v831h-125v51h193v-932h-193z" />
    <glyph glyph-name="asciicircum" unicode="^" horiz-adv-x="544" 
d="M68 307l163 416h83l164 -416h-80l-121 330h-8l-55 -147l-67 -183h-79z" />
    <glyph glyph-name="underscore" unicode="_" horiz-adv-x="544" 
d="M13 -131v58h519v-58h-519z" />
    <glyph glyph-name="grave" unicode="`" 
 />
    <glyph glyph-name="a" unicode="a" horiz-adv-x="554" 
d="M102 27q-42 40 -42 107q0 88 75.5 134.5t246.5 64.5q0 68 -27 101.5t-83 33.5q-72 0 -155 -55l-34 60q102 66 207 66q185 0 185 -216v-323h-75l-8 62h-2q-88 -75 -178 -75q-68 0 -110 40zM174 78q24 -22 68 -22q36 0 68.5 16.5t71.5 52.5v153q-110 -15 -171 -44t-61 -93
q0 -41 24 -63z" />
    <glyph glyph-name="b" unicode="b" horiz-adv-x="610" 
d="M91 769h93v-203l-3 -102q36 35 78.5 55t87.5 20q103 0 155 -73.5t52 -196.5q0 -79 -28 -143.5t-79 -101.5t-119 -37q-37 0 -78 18t-76 49h-1l-9 -54h-73v769zM247 74.5q33 -14.5 64 -14.5q69 0 108.5 58.5t39.5 149.5q0 198 -137 198q-64 0 -138 -71v-279
q30 -27 63 -41.5z" />
    <glyph glyph-name="c" unicode="c" horiz-adv-x="500" 
d="M170 22q-56 35 -86 97t-30 141q0 82 32 145t90 98.5t133 35.5q85 0 149 -58l-44 -58q-27 24 -51 34.5t-50 10.5q-75 0 -119.5 -59t-44.5 -149q0 -57 20 -103t56.5 -72.5t84.5 -26.5q58 0 121 51l37 -59q-74 -63 -167 -63q-75 0 -131 35z" />
    <glyph glyph-name="d" unicode="d" horiz-adv-x="609" 
d="M112 60q-57 73 -57 205q0 77 29.5 139.5t81 98.5t115.5 36q44 0 78 -15t72 -47l-5 116v176h93v-769h-75l-8 61h-3q-37 -35 -80 -54.5t-82 -19.5q-102 0 -159 73zM187.5 113q37.5 -54 105.5 -54q36 0 68 17.5t65 55.5v280q-31 28 -62 41.5t-65 13.5q-42 0 -76 -26
t-53.5 -72t-19.5 -103q0 -99 37.5 -153z" />
    <glyph glyph-name="e" unicode="e" horiz-adv-x="545" 
d="M174.5 22q-57.5 35 -89 98.5t-31.5 144.5q0 75 30.5 138t84.5 99.5t121 36.5q103 0 156.5 -67t53.5 -178q0 -35 -2 -49h-354q4 -88 51 -138t124 -50q34 0 65 9t65 29l30 -55q-84 -53 -172 -53q-75 0 -132.5 35zM420 307q2 79 -31 121t-96 42t-103.5 -46t-46.5 -117h277z
" />
    <glyph glyph-name="f" unicode="f" horiz-adv-x="328" 
d="M109 456h-72v65l72 5v81q0 86 40 130.5t117 44.5q47 0 86 -17l-18 -65q-28 12 -57 12q-76 0 -76 -104v-82h110v-70h-110v-457h-92v457z" />
    <glyph glyph-name="g" unicode="g" horiz-adv-x="555" 
d="M113 -199q-61 35 -61 102q0 32 20.5 63.5t57.5 55.5v4q-23 12 -35.5 35t-12.5 49q0 29 17.5 56t40.5 43v5q-30 25 -49.5 60.5t-19.5 80.5q0 54 25.5 96t71 65t102.5 23q45 0 76 -13h183v-65h-113q22 -19 34.5 -48t12.5 -61q0 -54 -25.5 -94.5t-69.5 -62.5t-98 -22
q-39 0 -77 18q-17 -14 -26.5 -29.5t-9.5 -36.5q0 -57 96 -57h100q95 0 140 -29.5t45 -93.5q0 -56 -38 -96.5t-99.5 -61.5t-131.5 -21q-95 0 -156 35zM171 -151q40 -24 112 -24q66 0 115.5 29.5t49.5 76.5q0 35 -25 50.5t-81 15.5h-87q-41 0 -71 9q-24 -20 -38.5 -43
t-14.5 -46q0 -44 40 -68zM191 265q32 -35 79 -35q49 0 79.5 34.5t30.5 90.5q0 55 -30.5 88.5t-79.5 33.5q-50 0 -80.5 -33.5t-30.5 -88.5t32 -90z" />
    <glyph glyph-name="h" unicode="h" horiz-adv-x="598" 
d="M91 769h93v-203l-5 -113q44 42 87 64t92 22q81 0 119.5 -49.5t38.5 -153.5v-336h-91v323q0 73 -23.5 107t-70.5 34q-38 0 -70.5 -19t-76.5 -62v-383h-93v769z" />
    <glyph glyph-name="i" unicode="i" horiz-adv-x="273" 
d="M91 526h93v-526h-93v526zM92.5 740q17.5 16 45.5 16t46 -16t18 -42q0 -25 -18 -41t-46 -16q-27 0 -45 16t-18 41q0 26 17.5 42z" />
    <glyph glyph-name="j" unicode="j" horiz-adv-x="276" 
d="M-38 -213l17 64q29 -6 48 -6q35 0 50.5 25t15.5 81v575h93v-575q0 -90 -36.5 -133.5t-110.5 -43.5q-40 0 -77 13zM95 740q17 16 46 16q27 0 44.5 -16t17.5 -42q0 -25 -17.5 -41t-44.5 -16q-28 0 -45.5 16t-17.5 41q0 26 17 42z" />
    <glyph glyph-name="k" unicode="k" horiz-adv-x="549" 
d="M91 770h91v-514l2 -1l224 271h98l-174 -208l199 -318h-99l-152 255l-98 -114v-141h-91v770z" />
    <glyph glyph-name="l" unicode="l" horiz-adv-x="284" 
d="M115 21.5q-24 29.5 -24 93.5v654h93v-661q0 -22 7 -33.5t21 -11.5q3 0 17 2l12 -65q-18 -8 -51 -8q-51 0 -75 29.5z" />
    <glyph glyph-name="m" unicode="m" horiz-adv-x="909" 
d="M90 526h75l10 -76q43 43 85.5 66t92.5 23q52 0 85.5 -23t50.5 -72q47 47 89.5 71t92.5 24q152 0 152 -203v-336h-93v323q0 73 -21.5 107t-63.5 34q-36 0 -68.5 -19.5t-72.5 -60.5v-384h-92v323q0 141 -86 141q-35 0 -68.5 -19.5t-75.5 -61.5v-383h-92v526z" />
    <glyph glyph-name="n" unicode="n" horiz-adv-x="601" 
d="M90 526h76l9 -74h3q44 42 87 64.5t93 22.5q80 0 119 -50t39 -153v-336h-92v323q0 73 -23 107t-70 34q-39 0 -70.5 -18.5t-77.5 -62.5v-383h-93v526z" />
    <glyph glyph-name="o" unicode="o" horiz-adv-x="594" 
d="M172.5 22q-55.5 35 -87 98t-31.5 142q0 80 31 143.5t86.5 98.5t126.5 35q70 0 125.5 -35.5t87 -98.5t31.5 -143q0 -79 -31.5 -142t-87 -98t-125.5 -35t-125.5 35zM166 155.5q19 -45.5 53.5 -70.5t78.5 -25q67 0 109 55t42 146q0 93 -42 149t-109 56q-44 0 -78.5 -25.5
t-53.5 -72t-19 -107.5q0 -60 19 -105.5z" />
    <glyph glyph-name="p" unicode="p" horiz-adv-x="609" 
d="M91 526h76l9 -59l1 -1q41 35 85.5 54t85.5 19q99 0 152.5 -69t53.5 -198q0 -82 -29 -147t-80 -101.5t-117 -36.5q-73 0 -148 62l4 -93v-172h-93v742zM311 60q43 0 76.5 25.5t52.5 72.5t19 110q0 98 -34.5 148t-102.5 50q-32 0 -65 -17t-73 -54v-279q64 -56 127 -56z" />
    <glyph glyph-name="q" unicode="q" horiz-adv-x="609" 
d="M426 -35l4 95q-34 -35 -75.5 -54t-83.5 -19q-102 0 -159 72.5t-57 200.5q0 79 29.5 143t81 100t115.5 36q44 0 80.5 -15t71.5 -49h3l9 51h74v-742h-93v181zM187.5 113q37.5 -53 105.5 -53q36 0 68 17.5t65 55.5v278q-31 28 -62 41.5t-65 13.5q-42 0 -76 -26.5t-53.5 -73
t-19.5 -105.5q0 -95 37.5 -148z" />
    <glyph glyph-name="r" unicode="r" horiz-adv-x="387" 
d="M91 526h75l8 -95h2q27 50 69.5 79t86.5 29q36 0 53 -9l-16 -78q-21 8 -50 8q-41 0 -77 -32t-58 -90v-338h-93v526z" />
    <glyph glyph-name="s" unicode="s" horiz-adv-x="462" 
d="M127.5 5.5q-51.5 18.5 -91.5 51.5l43 57q39 -30 75 -45.5t79 -15.5q47 0 75 22.5t28 60.5t-23 57t-75 36q-42 14 -64 24q-56 24 -84.5 57.5t-28.5 78.5q0 68 50 109t131 41q44 0 86.5 -15.5t75.5 -41.5l-41 -55q-32 24 -60 35t-59 11q-44 0 -70 -21t-26 -57
q0 -31 21 -49.5t59 -32.5q8 -4 28 -12q34 -12 58 -26q57 -24 83.5 -54t26.5 -79q0 -70 -53.5 -112.5t-140.5 -42.5q-51 0 -102.5 18.5z" />
    <glyph glyph-name="t" unicode="t" horiz-adv-x="377" 
d="M108 162v294h-78v65l83 6l12 147h76v-148h142v-70h-142v-294q0 -54 20.5 -79.5t63.5 -25.5q23 0 57 12l15 -63q-49 -19 -97 -19q-152 0 -152 175z" />
    <glyph glyph-name="u" unicode="u" horiz-adv-x="597" 
d="M123.5 36.5q-38.5 49.5 -38.5 153.5v336h92v-323q0 -72 23.5 -106t70.5 -34q39 0 72 19.5t74 63.5v380h92v-526h-76l-9 79q-44 -46 -86.5 -69t-94.5 -23q-81 0 -119.5 49.5z" />
    <glyph glyph-name="v" unicode="v" horiz-adv-x="519" 
d="M21 526h94l96 -296l22 -69q30 -94 29 -92h1q1 5 35 111l16 49l97 297h89l-183 -526h-110z" />
    <glyph glyph-name="w" unicode="w" horiz-adv-x="793" 
d="M33 526h92l76 -300q4 -15 8.5 -37t6.5 -32q2 -11 7.5 -37.5t11.5 -46.5h2l15 61q4 16 9.5 39.5t13.5 52.5l79 300h89l82 -300l39 -153h1q12 41 30 125l7 28l73 300h85l-136 -526h-115l-73 276q-6 23 -22 91q-11 50 -16 67h-2l-15 -65q-14 -64 -22 -94l-73 -275h-110z" />
    <glyph glyph-name="x" unicode="x" horiz-adv-x="497" 
d="M193 277l-156 249h98l67 -110l55 -92v0q38 69 50 92l61 110h95l-157 -259l168 -267h-98l-74 122l-59 96h-1q-10 -15 -28 -51l-26 -46l-69 -121h-95z" />
    <glyph glyph-name="y" unicode="y" horiz-adv-x="519" 
d="M44 -209l18 69q30 -6 38 -6q82 0 119 111l11 41l-209 523h93l104 -282l21 -59q25 -66 33 -94h3l24 82q17 49 22 71l91 282h88l-196 -563q-35 -95 -82.5 -139.5t-117.5 -44.5q-34 0 -60 9z" />
    <glyph glyph-name="z" unicode="z" horiz-adv-x="470" 
d="M40 46l276 410h-247v70h360v-46l-276 -410h286v-70h-399v46z" />
    <glyph glyph-name="braceleft" unicode="{" horiz-adv-x="334" 
d="M152.5 -128q-28.5 32 -28.5 111q0 34 4 100q5 57 5 107q0 41 -24 64t-70 24v56q46 1 70 23t24 63q0 54 -5 107q-4 62 -4 101q0 79 29 111.5t97 32.5h48v-51h-25q-43 0 -59.5 -21.5t-16.5 -77.5q0 -24 1 -48t2 -45q4 -74 4 -102q0 -55 -15.5 -81.5t-51.5 -35.5v-9
q36 -9 51.5 -36t15.5 -82q0 -25 -4 -99q-1 -21 -2 -46t-1 -49q0 -57 16.5 -78t59.5 -21h25v-50h-48q-69 0 -97.5 32z" />
    <glyph glyph-name="bar" unicode="|" horiz-adv-x="263" 
d="M101 -265v1083h63v-1083h-63z" />
    <glyph glyph-name="braceright" unicode="}" horiz-adv-x="334" 
d="M41 -110h25q44 0 60 21t16 78q0 24 -1 49t-2 46q-4 74 -4 99q0 55 16 82t51 36v9q-36 9 -51.5 36t-15.5 81q0 28 4 102q1 21 2 45t1 48q0 56 -16.5 77.5t-59.5 21.5h-25v51h49q67 0 96.5 -32.5t29.5 -111.5q0 -48 -5 -100q-5 -80 -5 -108q0 -40 24.5 -62.5t69.5 -23.5
v-56q-45 -2 -69.5 -24.5t-24.5 -63.5q0 -29 2 -62t3 -45q5 -55 5 -100q0 -79 -29 -111t-97 -32h-49v50z" />
    <glyph glyph-name="asciitilde" unicode="~" horiz-adv-x="545" 
d="M315.5 288.5q-23.5 11.5 -51.5 32.5q-33 25 -50.5 35.5t-37.5 10.5q-49 0 -85 -65l-49 37q29 48 63.5 72t72.5 24q28 0 51.5 -11.5t54.5 -33.5l22.5 -18t33 -21t30.5 -7q49 0 85 65l50 -37q-58 -95 -137 -95q-29 0 -52.5 11.5z" />
    <glyph glyph-name="uni00A0" unicode="&#xa0;" horiz-adv-x="473" 
 />
    <glyph glyph-name="exclamdown" unicode="&#xa1;" horiz-adv-x="277" 
d="M114 405l68 11l19 -504l-80 -22zM102 592.5q18 18.5 45 18.5q26 0 44.5 -18.5t18.5 -44.5q0 -27 -18.5 -45.5t-44.5 -18.5q-27 0 -45 18.5t-18 45.5q0 26 18 44.5z" />
    <glyph glyph-name="cent" unicode="&#xa2;" horiz-adv-x="544" 
d="M191.5 219.5q36.5 -47.5 98.5 -61.5v360q-61 -14 -98 -62.5t-37 -117.5q0 -71 36.5 -118.5zM132 516q28 32 69 52.5t89 27.5v113h55v-110q79 -3 141 -61l-44 -57q-48 41 -97 42v-370q58 3 111 48l38 -58q-34 -29 -72.5 -46t-76.5 -20v-111h-55v113q-105 11 -160 78
q-62 68 -62 181q0 108 64 178z" />
    <glyph glyph-name="sterling" unicode="&#xa3;" horiz-adv-x="545" 
d="M61 3v55q53 29 84 80t31 115q0 15 -3 34t-4 25h-109v55l71 4h21l-6 21q-12 36 -17.5 61t-5.5 51q0 90 57 147q56 54 147 54q102 0 168 -80l-53 -52q-45 56 -108 56q-54 0 -87 -34t-33 -93q0 -26 4.5 -49.5t14.5 -59.5l6 -22h171v-59h-157q6 -31 6 -60q0 -52 -15 -89
t-50 -72v-10h302v-78h-435z" />
    <glyph glyph-name="currency" unicode="&#xa4;" horiz-adv-x="546" 
d="M32 161l69 71q-40 53 -40 125q0 76 40 127l-69 71l47 49l74 -76q53 40 121 40q32 0 63 -10.5t55 -29.5l75 76l48 -49l-70 -71q40 -52 40 -127q0 -71 -40 -125l70 -71l-48 -48l-75 74q-51 -40 -118 -40q-68 0 -120 40l-75 -74zM182 254.5q37 -40.5 92 -40.5q38 0 66.5 20
t44 53t15.5 70q0 62 -36 103t-90 41q-38 0 -67.5 -20t-45.5 -53t-16 -71q0 -62 37 -102.5z" />
    <glyph glyph-name="yen" unicode="&#xa5;" horiz-adv-x="545" 
d="M227 3v171h-176v49h176v75h-176v49h153l-176 345h97l81 -179q20 -48 31 -72q18 -45 34 -77h7l9 19q18 38 26 58l10 24q14 32 20 48l81 179h94l-176 -345h153v-49h-176v-75h176v-49h-176v-171h-92z" />
    <glyph glyph-name="brokenbar" unicode="&#xa6;" horiz-adv-x="263" 
d="M101 327v491h63v-491h-63zM101 233h63v-498h-63v498z" />
    <glyph glyph-name="section" unicode="&#xa7;" horiz-adv-x="545" 
d="M154.5 -48q-48.5 19 -82.5 56l53 48q28 -28 60.5 -42t72.5 -14q42 0 67.5 22t25.5 55q0 37 -37 62.5t-116 58.5q-147 59 -147 175q0 42 23 76t69 65q-33 36 -33 89q0 62 46 101.5t120 39.5q87 0 166 -60l-43 -56q-60 47 -119 47q-41 0 -64 -18t-23 -50q0 -36 36.5 -61
t117.5 -60q75 -32 110.5 -73t35.5 -102q0 -46 -22.5 -79t-72.5 -61q19 -22 27.5 -43t8.5 -47q0 -66 -50.5 -107t-125.5 -41q-55 0 -103.5 19zM148.5 323.5q19.5 -24.5 58.5 -45.5q32 -16 114 -52l31 -14q34 16 49.5 37.5t15.5 53.5t-19.5 57t-58.5 47q-25 14 -74 36
q-52 22 -70 32q-34 -19 -50 -42t-16 -54t19.5 -55.5z" />
    <glyph glyph-name="dieresis" unicode="&#xa8;" 
 />
    <glyph glyph-name="copyright" unicode="&#xa9;" horiz-adv-x="811" 
d="M271.5 18q-63.5 26 -110.5 73q-51 48 -77.5 114.5t-26.5 147.5q0 79 27 145.5t77 113.5q47 46 110.5 71t133.5 25t133.5 -24.5t112.5 -71.5q49 -48 76 -114.5t27 -144.5q0 -161 -103 -262q-49 -48 -112.5 -73.5t-133.5 -25.5t-133.5 26zM126 224q23 -59 66 -103
q41 -43 96 -65.5t117 -22.5t118 22.5t97 65.5q43 44 65.5 103t22.5 129q0 68 -22.5 126.5t-65.5 102.5q-41 42 -96.5 64.5t-118.5 22.5q-62 0 -117 -22.5t-96 -64.5q-43 -45 -66 -103t-23 -126q0 -70 23 -129zM235 434q16 38 45 66q27 27 62.5 40.5t75.5 13.5q41 0 72 -15
t59 -43l-35 -39q-24 22 -45.5 32t-47.5 10q-60 0 -96.5 -41.5t-36.5 -105.5q0 -71 35.5 -113t94.5 -42q31 0 56 11.5t51 33.5l31 -43q-34 -29 -66.5 -44t-74.5 -15q-41 0 -76.5 15t-62.5 42q-57 59 -57 155q0 44 16 82z" />
    <glyph glyph-name="ordfeminine" unicode="&#xaa;" horiz-adv-x="554" 
d="M102 32q-42 40 -42 107q0 84 76 130t246 64q0 68 -27 101.5t-83 33.5q-72 0 -155 -55l-34 60q102 66 207 66q185 0 185 -216v-318h-75l-8 62h-2q-88 -75 -178 -75q-68 0 -110 40zM174 83q24 -22 68 -22q36 0 68.5 16.5t71.5 52.5v148q-110 -15 -171 -43t-61 -89
q0 -41 24 -63z" />
    <glyph glyph-name="guillemotleft" unicode="&#xab;" horiz-adv-x="505" 
d="M102 85.5q-13 60.5 -13 122.5t13 123t44 139l65 -28q-49 -133 -49 -234q0 -104 50 -236l-67 -25q-30 78 -43 138.5zM290.5 331q12.5 61 43.5 139l65 -28q-50 -136 -50 -234q0 -100 50 -236l-66 -25q-30 77 -42.5 137.5t-12.5 123.5q0 62 12.5 123z" />
    <glyph glyph-name="logicalnot" unicode="&#xac;" horiz-adv-x="545" 
d="M434 113v211h-394v68h466v-279h-72z" />
    <glyph glyph-name="uni00AD" unicode="&#xad;" horiz-adv-x="340" 
d="M45 233v68h252v-68h-252z" />
    <glyph glyph-name="registered" unicode="&#xae;" horiz-adv-x="465" 
d="M129 373q-46 28 -72.5 76.5t-26.5 107.5t27 107.5t73 76t102 27.5q58 0 104 -27.5t72.5 -75.5t26.5 -108t-26.5 -108.5t-73 -76t-103.5 -27.5t-103 28zM89.5 466q21.5 -40 59 -63t83.5 -23q48 0 85.5 22.5t59 63t21.5 91.5t-21.5 91.5t-59.5 63.5t-85 23t-84.5 -23
t-58.5 -64t-21 -91q0 -51 21.5 -91zM157 666h80q39 0 60.5 -17.5t21.5 -50.5q0 -20 -11.5 -36t-30.5 -21l48 -88h-42l-38 75h-49v-75h-39v213zM227 556q50 0 50 41q0 39 -48 39h-33v-80h31z" />
    <glyph glyph-name="macron" unicode="&#xaf;" 
 />
    <glyph glyph-name="degree" unicode="&#xb0;" horiz-adv-x="364" 
d="M88 498q-41 38 -41 100t41 101q38 38 95 38t97 -38q39 -41 39 -101q0 -63 -39 -100q-43 -38 -97 -38t-95 38zM123 532.5q24 -25.5 60 -25.5q37 0 60.5 26t23.5 65q0 41 -23.5 66.5t-60.5 25.5t-60.5 -26t-23.5 -66t24 -65.5z" />
    <glyph glyph-name="plusminus" unicode="&#xb1;" horiz-adv-x="546" 
d="M50 74v66h422v-66h-422zM50 435h178v178h66v-178h178v-66h-179v-178l-65 1v177h-178v66z" />
    <glyph glyph-name="uni00B2" unicode="&#xb2;" horiz-adv-x="548" 
d="M190.5 201q56.5 59 94.5 108q44 58 64.5 102t20.5 85q0 65 -34.5 101t-95.5 36q-75 0 -145 -81l-51 51q49 52 98 76t110 24q95 0 151 -55t56 -147q0 -87 -77 -195q-34 -48 -80 -99t-121 -130l28 1q60 2 95 2h190v-75h-447v50q87 87 143.5 146z" />
    <glyph glyph-name="uni00B3" unicode="&#xb3;" horiz-adv-x="548" 
d="M157.5 84q40.5 -21 94.5 -21q65 0 104.5 35t39.5 92q0 75 -57 106t-162 33v64q193 0 193 129q0 52 -31.5 81.5t-86.5 29.5q-39 0 -74.5 -16.5t-71.5 -51.5l-47 55q44 40 91.5 61.5t104.5 21.5q94 0 151.5 -45.5t57.5 -128.5q0 -56 -32.5 -97.5t-93.5 -65.5v-4
q67 -16 108.5 -63.5t41.5 -112.5q0 -58 -30.5 -102t-82.5 -68t-117 -24q-68 0 -126 24.5t-98 68.5l43 58q40 -38 80.5 -59z" />
    <glyph glyph-name="acute" unicode="&#xb4;" 
 />
    <glyph glyph-name="paragraph" unicode="&#xb6;" horiz-adv-x="619" 
d="M420 -82v793h92v-793h-92zM123 660q64 51 186 51h43v-463h-32q-125 0 -194 57q-78 58 -78 177q0 122 75 178z" />
    <glyph glyph-name="periodcentered" unicode="&#xb7;" horiz-adv-x="277" 
d="M88 301q-20 20 -20 48q0 29 19.5 48.5t48.5 19.5t48.5 -19.5t19.5 -48.5q0 -28 -19.5 -48t-48.5 -20q-28 0 -48 20z" />
    <glyph glyph-name="cedilla" unicode="&#xb8;" 
 />
    <glyph glyph-name="uni00B9" unicode="&#xb9;" horiz-adv-x="547" 
d="M88 76h159v508h-128v54q91 18 148 52h72v-614h141v-71h-392v71z" />
    <glyph glyph-name="ordmasculine" unicode="&#xba;" horiz-adv-x="594" 
d="M172.5 27q-55.5 35 -87 97.5t-31.5 140.5q0 79 31 141.5t86.5 97.5t126.5 35q70 0 125.5 -35.5t87 -97.5t31.5 -141q0 -78 -31.5 -140.5t-87 -97.5t-125.5 -35t-125.5 35zM166 160q19 -46 53.5 -71.5t78.5 -25.5t78.5 25t53.5 71t19 105q0 60 -19 106.5t-53.5 72
t-78.5 25.5t-78.5 -25.5t-53.5 -72t-19 -106.5q0 -58 19 -104z" />
    <glyph glyph-name="guillemotright" unicode="&#xbb;" horiz-adv-x="505" 
d="M342 208q0 99 -48 234l64 28q31 -79 44.5 -140t13.5 -122t-13 -121.5t-43 -139.5l-67 25q49 129 49 236zM155 208q0 96 -49 234l64 28q31 -78 44 -139t13 -123q0 -63 -12.5 -123.5t-42.5 -137.5l-66 25q49 133 49 236z" />
    <glyph glyph-name="onequarter" unicode="&#xbc;" horiz-adv-x="547" 
 />
    <glyph glyph-name="onehalf" unicode="&#xbd;" horiz-adv-x="547" 
 />
    <glyph glyph-name="threequarters" unicode="&#xbe;" horiz-adv-x="548" 
 />
    <glyph glyph-name="questiondown" unicode="&#xbf;" horiz-adv-x="465" 
d="M286 283q0 -83 -68 -162q-46 -56 -64 -86t-18 -65q0 -48 29 -76t76 -28q67 0 122 60l51 -47q-80 -89 -186 -89q-83 0 -132 46t-49 128q0 40 20 79t63 89q42 50 60.5 90.5t13.5 90.5h80q2 -20 2 -30zM198.5 517q17.5 18 44.5 18q25 0 42 -18t17 -44q0 -27 -17 -45t-42 -18
q-27 0 -44.5 18t-17.5 45q0 26 17.5 44z" />
    <glyph glyph-name="Agrave" unicode="&#xc0;" 
 />
    <glyph glyph-name="Aacute" unicode="&#xc1;" 
 />
    <glyph glyph-name="Acircumflex" unicode="&#xc2;" 
 />
    <glyph glyph-name="Atilde" unicode="&#xc3;" 
 />
    <glyph glyph-name="Adieresis" unicode="&#xc4;" 
 />
    <glyph glyph-name="Aring" unicode="&#xc5;" 
 />
    <glyph glyph-name="AE" unicode="&#xc6;" 
 />
    <glyph glyph-name="Ccedilla" unicode="&#xc7;" 
 />
    <glyph glyph-name="Egrave" unicode="&#xc8;" 
 />
    <glyph glyph-name="Eacute" unicode="&#xc9;" 
 />
    <glyph glyph-name="Ecircumflex" unicode="&#xca;" 
 />
    <glyph glyph-name="Edieresis" unicode="&#xcb;" 
 />
    <glyph glyph-name="Igrave" unicode="&#xcc;" 
 />
    <glyph glyph-name="Iacute" unicode="&#xcd;" 
 />
    <glyph glyph-name="Icircumflex" unicode="&#xce;" 
 />
    <glyph glyph-name="Idieresis" unicode="&#xcf;" 
 />
    <glyph glyph-name="Eth" unicode="&#xd0;" 
 />
    <glyph glyph-name="Ntilde" unicode="&#xd1;" 
 />
    <glyph glyph-name="Ograve" unicode="&#xd2;" 
 />
    <glyph glyph-name="Oacute" unicode="&#xd3;" 
 />
    <glyph glyph-name="Ocircumflex" unicode="&#xd4;" 
 />
    <glyph glyph-name="Otilde" unicode="&#xd5;" 
 />
    <glyph glyph-name="Odieresis" unicode="&#xd6;" 
 />
    <glyph glyph-name="multiply" unicode="&#xd7;" horiz-adv-x="444" 
d="M50 111l125 127l-125 125l46 46l126 -125l126 125l46 -46l-126 -126l126 -126l-46 -46l-126 126l-126 -126z" />
    <glyph glyph-name="Oslash" unicode="&#xd8;" 
 />
    <glyph glyph-name="Ugrave" unicode="&#xd9;" 
 />
    <glyph glyph-name="Uacute" unicode="&#xda;" 
 />
    <glyph glyph-name="Ucircumflex" unicode="&#xdb;" 
 />
    <glyph glyph-name="Udieresis" unicode="&#xdc;" 
 />
    <glyph glyph-name="Yacute" unicode="&#xdd;" 
 />
    <glyph glyph-name="Thorn" unicode="&#xde;" 
 />
    <glyph glyph-name="germandbls" unicode="&#xdf;" 
 />
    <glyph glyph-name="agrave" unicode="&#xe0;" 
 />
    <glyph glyph-name="aacute" unicode="&#xe1;" 
 />
    <glyph glyph-name="acircumflex" unicode="&#xe2;" 
 />
    <glyph glyph-name="atilde" unicode="&#xe3;" 
 />
    <glyph glyph-name="adieresis" unicode="&#xe4;" 
 />
    <glyph glyph-name="aring" unicode="&#xe5;" 
 />
    <glyph glyph-name="ae" unicode="&#xe6;" 
 />
    <glyph glyph-name="ccedilla" unicode="&#xe7;" 
 />
    <glyph glyph-name="egrave" unicode="&#xe8;" 
 />
    <glyph glyph-name="eacute" unicode="&#xe9;" 
 />
    <glyph glyph-name="ecircumflex" unicode="&#xea;" 
 />
    <glyph glyph-name="edieresis" unicode="&#xeb;" 
 />
    <glyph glyph-name="igrave" unicode="&#xec;" 
 />
    <glyph glyph-name="iacute" unicode="&#xed;" 
 />
    <glyph glyph-name="icircumflex" unicode="&#xee;" 
 />
    <glyph glyph-name="idieresis" unicode="&#xef;" 
 />
    <glyph glyph-name="eth" unicode="&#xf0;" 
 />
    <glyph glyph-name="ntilde" unicode="&#xf1;" 
 />
    <glyph glyph-name="ograve" unicode="&#xf2;" 
 />
    <glyph glyph-name="oacute" unicode="&#xf3;" 
 />
    <glyph glyph-name="ocircumflex" unicode="&#xf4;" 
 />
    <glyph glyph-name="otilde" unicode="&#xf5;" 
 />
    <glyph glyph-name="odieresis" unicode="&#xf6;" 
 />
    <glyph glyph-name="divide" unicode="&#xf7;" horiz-adv-x="522" 
d="M50 204v66h422v-66h-422zM227.5 104.5q14.5 14.5 36.5 14.5q21 0 35.5 -14.5t14.5 -36.5t-14.5 -36.5t-35.5 -14.5q-22 0 -36.5 14.5t-14.5 36.5t14.5 36.5zM227.5 440.5q14.5 14.5 36.5 14.5q21 0 35.5 -14.5t14.5 -36.5q0 -21 -14.5 -35.5t-35.5 -14.5q-22 0 -36.5 14
t-14.5 36t14.5 36.5z" />
    <glyph glyph-name="oslash" unicode="&#xf8;" 
 />
    <glyph glyph-name="ugrave" unicode="&#xf9;" 
 />
    <glyph glyph-name="uacute" unicode="&#xfa;" 
 />
    <glyph glyph-name="ucircumflex" unicode="&#xfb;" 
 />
    <glyph glyph-name="udieresis" unicode="&#xfc;" 
 />
    <glyph glyph-name="yacute" unicode="&#xfd;" 
 />
    <glyph glyph-name="thorn" unicode="&#xfe;" 
 />
    <glyph glyph-name="ydieresis" unicode="&#xff;" 
 />
    <glyph glyph-name="OE" unicode="&#x152;" 
 />
    <glyph glyph-name="oe" unicode="&#x153;" 
 />
    <glyph glyph-name="Scaron" unicode="&#x160;" 
 />
    <glyph glyph-name="scaron" unicode="&#x161;" 
 />
    <glyph glyph-name="Ydieresis" unicode="&#x178;" 
 />
    <glyph glyph-name="Zcaron" unicode="&#x17d;" 
 />
    <glyph glyph-name="zcaron" unicode="&#x17e;" 
 />
    <glyph glyph-name="florin" unicode="&#x192;" 
 />
    <glyph glyph-name="circumflex" unicode="&#x2c6;" 
 />
    <glyph glyph-name="tilde" unicode="&#x2dc;" 
 />
    <glyph glyph-name="uni03BC" unicode="&#x3bc;" 
 />
    <glyph glyph-name="uni060C" unicode="&#x60c;" horiz-adv-x="269" 
d="M84 16.5q-20 22.5 -20 62.5q0 45 23 100t55 97l40 -43q-51 -65 -61 -112q9 3 16 3q27 0 46.5 -19t19.5 -46t-19 -46t-47 -19q-33 0 -53 22.5z" />
    <glyph glyph-name="uni0615" unicode="&#x615;" horiz-adv-x="0" 
d="M-119 45h31l9 14q6 10 8 24.5t2 46.5q0 36 -3 117l39 9v-114q0 -19 -3 -31q22 25 41.5 39.5t39.5 14.5q36 0 55 -23t19 -68q0 -35 -35 -54.5t-96 -19.5h-98zM-1 46q53 0 84 24q-1 25 -12.5 37.5t-29.5 12.5q-29 0 -85 -74h43z" />
    <glyph glyph-name="uni061B" unicode="&#x61b;" horiz-adv-x="256" 
d="M77 230.5q-20 22.5 -20 62.5q0 44 23 99t55 98l40 -43q-51 -65 -61 -113q8 3 16 3q27 0 46 -18.5t19 -45.5t-18.5 -46t-46.5 -19q-33 0 -53 22.5zM86.5 103q18.5 18 44.5 18q28 0 46 -18t18 -46q0 -27 -18.5 -45.5t-45.5 -18.5q-26 0 -44.5 18.5t-18.5 45.5q0 28 18.5 46
z" />
    <glyph glyph-name="uni061F" unicode="&#x61f;" horiz-adv-x="522" 
d="M390 525q0 54 -32.5 83t-93.5 29q-56 0 -90 -30.5t-34 -79.5q0 -27 9.5 -47.5t26.5 -38.5t53 -50q11 -9 35 -31q30 -27 44 -50.5t18.5 -48t4.5 -64.5l-61 -10q-1 35 -3.5 52.5t-15 36.5t-41.5 48q-21 19 -40 34q-34 29 -53 49t-32 49.5t-13 70.5q0 56 24 99t67.5 67
t100.5 24q88 0 137.5 -46.5t49.5 -127.5q0 -26 -4 -47l-59 -1q2 20 2 30zM254 105.5q19 18.5 46 18.5q28 0 47 -19t19 -46q0 -28 -19 -47t-47 -19q-26 0 -45.5 19.5t-19.5 46.5q0 28 19 46.5z" />
    <glyph glyph-name="uni0621" unicode="&#x621;" horiz-adv-x="529" 
d="M60 65l119 44q-30 50 -39.5 81t-9.5 69q0 52 45.5 82.5t110.5 30.5q38 0 69 -7l-13 -73q-34 6 -61 6q-58 0 -90 -25q0 -39 13 -71t41 -68l214 72l10 -75l-397 -139z" />
    <glyph glyph-name="uni0622" unicode="&#x622;" horiz-adv-x="220" 
d="M142 535l7 -535l-66 -9l-19 530zM129.5 633.5q-31.5 3.5 -37.5 4.5q-34 4 -41 4q-21 0 -29.5 -8t-16.5 -36l-54 13q15 57 35.5 78t62.5 21q20 0 55 -5q68 -7 102 -7h47l-14 -68h-40q-38 0 -69.5 3.5z" />
    <glyph glyph-name="uni0623" unicode="&#x623;" horiz-adv-x="220" 
d="M142 535l7 -535l-66 -9l-19 530zM36 722q0 30 25 46.5t65 16.5q14 0 44 -5v-44q-33 5 -53 5q-27 0 -43 -10q0 -32 29 -77l113 33v-47l-231 -66v46l77 22q-26 46 -26 80z" />
    <glyph glyph-name="uni0624" unicode="&#x624;" horiz-adv-x="447" 
d="M304 9q-45 -9 -105 -9q-44 0 -72 8t-45 31q-12 15 -16.5 27.5t-4.5 35.5q0 54 17 110t54 95t95 39q57 0 92 -40.5t50 -101t15 -123.5q0 -116 -79.5 -207t-211.5 -144l-48 76q215 81 259 203zM210 84q69 0 105 10q0 86 -24.5 128t-71.5 42q-41 0 -67 -46.5t-26 -120.5
q32 -13 84 -13zM162 586q0 30 25 46.5t65 16.5q14 0 44 -5v-44q-33 5 -53 5q-27 0 -43 -10q0 -32 29 -77l113 33v-47l-231 -66v46l77 22q-26 46 -26 80z" />
    <glyph glyph-name="uni0625" unicode="&#x625;" horiz-adv-x="211" 
d="M142 710l7 -710l-66 -9l-19 705zM55 -149q0 30 25 46.5t65 16.5q14 0 44 -5v-44q-33 5 -53 5q-27 0 -43 -10q0 -32 29 -77l113 33v-47l-231 -66v46l77 22q-26 46 -26 80z" />
    <glyph glyph-name="uni0626" unicode="&#x626;" horiz-adv-x="722" 
d="M130.5 -175q-56.5 46 -56.5 140q0 20 9 79t22 143q3 20 6 39.5t6 39.5l62 -12q-38 -228 -38 -278q0 -52 46.5 -75.5t124.5 -23.5q91 0 153 13.5t102 49.5q10 30 10 48q0 54 -51 61l-33 3q-53 5 -79 10t-41 19t-15 41q0 76 27.5 151t73 123t98.5 48q37 0 69 -22.5
t57 -62.5l-42 -48q-46 46 -85 46q-33 0 -61 -28.5t-45.5 -75.5t-22.5 -101q81 -6 124 -17t67.5 -42.5t24.5 -94.5q0 -117 -93.5 -168t-237.5 -51q-125 0 -181.5 46zM174 514q0 30 25 46.5t65 16.5q14 0 44 -5v-44q-33 5 -53 5q-27 0 -43 -10q0 -32 29 -77l113 33v-47
l-231 -66v46l77 22q-26 46 -26 80z" />
    <glyph glyph-name="uni0627" unicode="&#x627;" horiz-adv-x="211" 
d="M142 710l7 -710l-66 -9l-19 705z" />
    <glyph glyph-name="uni0628" unicode="&#x628;" horiz-adv-x="845" 
d="M224 9.5q-70 14.5 -110 53.5t-40 111q0 20 7 67t21 133l62 -13q-23 -140 -23 -171q0 -37 24 -57.5t78.5 -29.5t151.5 -9q221 0 308 36l-18 230l77 14q10 -185 10 -247q0 -30 -14.5 -53.5t-50.5 -38.5q-47 -19 -126 -29.5t-182 -10.5q-105 0 -175 14.5zM333 -173l57 71
l75 -59l-57 -71z" />
    <glyph glyph-name="uni0629" unicode="&#x629;" horiz-adv-x="458" 
d="M116.5 26q-42.5 31 -42.5 96q0 87 110 212l-42 30l44 67q104 -65 161.5 -148t57.5 -178q0 -34 -16 -61q-11 -17 -17.5 -24t-14.5 -10q-37 -15 -135 -15q-63 0 -105.5 31zM160.5 107q18.5 -13 64.5 -13t70 1t44 6q-1 50 -21 98.5t-83 95.5q-36 -31 -64.5 -78.5
t-28.5 -72.5q0 -24 18.5 -37zM102 573l56 68l71 -57l-55 -68zM286 641l72 -57l-56 -68l-71 57z" />
    <glyph glyph-name="uni062A" unicode="&#x62a;" horiz-adv-x="845" 
d="M224 9.5q-70 14.5 -110 53.5t-40 111q0 20 7 67t21 133l62 -13q-23 -140 -23 -171q0 -37 24 -57.5t78.5 -29.5t151.5 -9q221 0 308 36l-18 230l77 14q10 -185 10 -247q0 -30 -14.5 -53.5t-50.5 -38.5q-47 -19 -126 -29.5t-182 -10.5q-105 0 -175 14.5zM301 433l56 68
l71 -57l-55 -68zM485 501l72 -57l-56 -68l-71 57z" />
    <glyph glyph-name="uni062B" unicode="&#x62b;" horiz-adv-x="845" 
d="M224 9.5q-70 14.5 -110 53.5t-40 111q0 20 7 67t21 133l62 -13q-23 -140 -23 -171q0 -37 24 -57.5t78.5 -29.5t151.5 -9q221 0 308 36l-18 230l77 14q10 -185 10 -247q0 -30 -14.5 -53.5t-50.5 -38.5q-47 -19 -126 -29.5t-182 -10.5q-105 0 -175 14.5zM310 429l51 64
l66 -53l-51 -64zM414 616l67 -53l-51 -64l-67 53zM482 493l66 -53l-51 -64l-66 53z" />
    <glyph glyph-name="uni062C" unicode="&#x62c;" horiz-adv-x="641" 
d="M153 -297q-84 63 -84 189q0 119 80 220t257 161q-30 8 -115 43q-43 18 -67.5 27t-35.5 9q-26 0 -39 -16.5t-19 -51.5l-60 10q13 72 39.5 110.5t78.5 38.5q26 0 60.5 -12.5t92.5 -38.5q78 -35 131.5 -53.5t105.5 -19.5l-9 -95q-109 -17 -202.5 -56.5t-154.5 -101.5
t-69 -143q0 -92 65 -139t172 -47q97 0 206 30l-5 -98q-101 -29 -203 -29q-141 0 -225 63zM357 19l75 -59l-57 -71l-75 59z" />
    <glyph glyph-name="uni062D" unicode="&#x62d;" horiz-adv-x="641" 
d="M153 -297q-84 63 -84 189q0 119 80 220t257 161q-30 8 -115 43q-43 18 -67.5 27t-35.5 9q-26 0 -39 -16.5t-19 -51.5l-60 10q13 72 39.5 110.5t78.5 38.5q26 0 60.5 -12.5t92.5 -38.5q78 -35 131.5 -53.5t105.5 -19.5l-9 -95q-109 -17 -202.5 -56.5t-154.5 -101.5
t-69 -143q0 -92 65 -139t172 -47q97 0 206 30l-5 -98q-101 -29 -203 -29q-141 0 -225 63z" />
    <glyph glyph-name="uni062E" unicode="&#x62e;" horiz-adv-x="641" 
d="M153 -297q-84 63 -84 189q0 119 80 220t257 161q-30 8 -115 43q-43 18 -67.5 27t-35.5 9q-26 0 -39 -16.5t-19 -51.5l-60 10q13 72 39.5 110.5t78.5 38.5q26 0 60.5 -12.5t92.5 -38.5q78 -35 131.5 -53.5t105.5 -19.5l-9 -95q-109 -17 -202.5 -56.5t-154.5 -101.5
t-69 -143q0 -92 65 -139t172 -47q97 0 206 30l-5 -98q-101 -29 -203 -29q-141 0 -225 63zM199 568l57 71l75 -59l-57 -71z" />
    <glyph glyph-name="uni062F" unicode="&#x62f;" horiz-adv-x="527" 
d="M121 158q0 -32 6.5 -44.5t27.5 -16t76 -3.5q49 0 100 8.5t75 21.5q-7 74 -50.5 146t-123.5 147l50 65q105 -101 148 -193.5t43 -171.5q0 -62 -71.5 -92t-172.5 -30q-70 0 -106.5 12.5t-50.5 41.5t-14 83q0 10 2 50l61 -5v-19z" />
    <glyph glyph-name="uni0630" unicode="&#x630;" horiz-adv-x="527" 
d="M121 158q0 -32 6.5 -44.5t27.5 -16t76 -3.5q49 0 100 8.5t75 21.5q-7 74 -50.5 146t-123.5 147l50 65q105 -101 148 -193.5t43 -171.5q0 -62 -71.5 -92t-172.5 -30q-70 0 -106.5 12.5t-50.5 41.5t-14 83q0 10 2 50l61 -5v-19zM185 641l57 71l75 -59l-57 -71z" />
    <glyph glyph-name="uni0631" unicode="&#x631;" horiz-adv-x="303" 
d="M83 -90q62 55 80 108l-32 278l77 15q10 -98 16 -167.5t6 -106.5q0 -85 -69 -165.5t-201 -141.5l-49 76q110 49 172 104z" />
    <glyph glyph-name="uni0632" unicode="&#x632;" horiz-adv-x="303" 
d="M83 -90q62 55 80 108l-32 278l77 15q10 -98 16 -167.5t6 -106.5q0 -85 -69 -165.5t-201 -141.5l-49 76q110 49 172 104zM90 479l57 71l75 -59l-57 -71z" />
    <glyph glyph-name="uni0633" unicode="&#x633;" horiz-adv-x="1155" 
d="M130.5 -175q-56.5 46 -56.5 140q0 20 9 79t22 143q3 20 6 39.5t6 39.5l62 -12q-38 -228 -38 -278q0 -52 46.5 -75.5t124.5 -23.5q169 0 237 53l-35 380l76 16l13 -159q3 -38 25 -53t69 -15q64 0 96 16l-6 203l69 2l4 -203q18 -18 59 -18q30 0 53.5 3.5t42.5 16.5l-18 241
l75 14q7 -151 10 -253q0 -62 -45 -91.5t-104 -29.5q-35 0 -61.5 12.5t-37.5 38.5q-12 -28 -47.5 -39.5t-75.5 -11.5q-36 0 -60.5 9.5t-38.5 31.5q4 -71 4 -124q0 -43 -44 -74.5t-114 -47.5t-146 -16q-125 0 -181.5 46z" />
    <glyph glyph-name="uni0634" unicode="&#x634;" horiz-adv-x="1155" 
d="M130.5 -175q-56.5 46 -56.5 140q0 20 9 79t22 143q3 20 6 39.5t6 39.5l62 -12q-38 -228 -38 -278q0 -52 46.5 -75.5t124.5 -23.5q169 0 237 53l-35 380l76 16l13 -159q3 -38 25 -53t69 -15q64 0 96 16l-6 203l69 2l4 -203q18 -18 59 -18q30 0 53.5 3.5t42.5 16.5l-18 241
l75 14q7 -151 10 -253q0 -62 -45 -91.5t-104 -29.5q-35 0 -61.5 12.5t-37.5 38.5q-12 -28 -47.5 -39.5t-75.5 -11.5q-36 0 -60.5 9.5t-38.5 31.5q4 -71 4 -124q0 -43 -44 -74.5t-114 -47.5t-146 -16q-125 0 -181.5 46zM685 480l51 64l66 -53l-51 -64zM789 667l67 -53
l-51 -64l-67 53zM857 544l66 -53l-51 -64l-66 53z" />
    <glyph glyph-name="uni0635" unicode="&#x635;" horiz-adv-x="1258" 
d="M713 7q-59 7 -101 25l1 -22q3 -56 3 -93q0 -43 -44 -74.5t-114 -47.5t-146 -16q-124 0 -181 45t-57 135q0 30 10 99.5t33 207.5l62 -12q-38 -228 -38 -278q0 -52 46 -75.5t125 -23.5q170 0 237 53l-35 380l76 16l4 -45q3 -39 6 -78.5t6 -78.5q15 -8 35 -10
q33 48 92.5 115.5t133 121t137.5 53.5q90 0 135 -57.5t45 -170.5q0 -28 -6 -53t-19 -39q-39 -37 -125.5 -60.5t-205.5 -23.5q-56 0 -115 7zM826 99q81 0 152.5 10t135.5 36q4 80 -21 127.5t-88 47.5q-56 0 -134 -59t-158 -156q37 -6 113 -6z" />
    <glyph glyph-name="uni0636" unicode="&#x636;" horiz-adv-x="1258" 
d="M713 7q-59 7 -101 25l1 -22q3 -56 3 -93q0 -43 -44 -74.5t-114 -47.5t-146 -16q-124 0 -181 45t-57 135q0 30 10 99.5t33 207.5l62 -12q-38 -228 -38 -278q0 -52 46 -75.5t125 -23.5q170 0 237 53l-35 380l76 16l4 -45q3 -39 6 -78.5t6 -78.5q15 -8 35 -10
q33 48 92.5 115.5t133 121t137.5 53.5q90 0 135 -57.5t45 -170.5q0 -28 -6 -53t-19 -39q-39 -37 -125.5 -60.5t-205.5 -23.5q-56 0 -115 7zM826 99q81 0 152.5 10t135.5 36q4 80 -21 127.5t-88 47.5q-56 0 -134 -59t-158 -156q37 -6 113 -6zM802 554l57 71l75 -59l-57 -71z
" />
    <glyph glyph-name="uni0637" unicode="&#x637;" horiz-adv-x="780" 
d="M67 99h90q23 25 38 49q9 14 13 38.5t4 82.5q0 37 -1 59l-9 368l79 14l4 -358q0 -41 -1.5 -64.5t-6.5 -38.5q147 155 249 155q181 0 181 -228q0 -28 -6.5 -53t-19.5 -39q-38 -38 -125 -61t-206 -23h-262zM348 99q81 0 152.5 10t135.5 36q4 80 -21 127.5t-88 47.5
q-55 0 -132 -60t-161 -161h114z" />
    <glyph glyph-name="uni0638" unicode="&#x638;" horiz-adv-x="780" 
d="M67 99h90q23 25 38 49q9 14 13 38.5t4 82.5q0 37 -1 59l-9 368l79 14l4 -358q0 -41 -1.5 -64.5t-6.5 -38.5q147 155 249 155q181 0 181 -228q0 -28 -6.5 -53t-19.5 -39q-38 -38 -125 -61t-206 -23h-262zM348 99q81 0 152.5 10t135.5 36q4 80 -21 127.5t-88 47.5
q-55 0 -132 -60t-161 -161h114zM468 574l57 71l75 -59l-57 -71z" />
    <glyph glyph-name="uni0639" unicode="&#x639;" horiz-adv-x="517" 
d="M137.5 -299q-81.5 61 -81.5 190q0 65 27 124t84 108q-30 36 -50.5 87.5t-20.5 95.5q0 63 46 100t120 37q48 0 113 -17l-20 -77q-50 10 -98 10q-27 0 -51 -8t-40 -23q0 -39 17 -82.5t48 -80.5l212 70v-92l-137 -46q-83 -29 -122.5 -74t-53.5 -106q0 -93 62 -136.5
t160 -43.5q80 0 187 29l-5 -97q-100 -29 -187 -29q-128 0 -209.5 61z" />
    <glyph glyph-name="uni063A" unicode="&#x63a;" horiz-adv-x="517" 
d="M137.5 -299q-81.5 61 -81.5 190q0 65 27 124t84 108q-30 36 -50.5 87.5t-20.5 95.5q0 63 46 100t120 37q48 0 113 -17l-20 -77q-50 10 -98 10q-27 0 -51 -8t-40 -23q0 -39 17 -82.5t48 -80.5l212 70v-92l-137 -46q-83 -29 -122.5 -74t-53.5 -106q0 -93 62 -136.5
t160 -43.5q80 0 187 29l-5 -97q-100 -29 -187 -29q-128 0 -209.5 61zM154 596l57 71l75 -59l-57 -71z" />
    <glyph glyph-name="uni0640" unicode="&#x640;" horiz-adv-x="204" 
d="M-5 7.5q-2 7.5 -2 18.5v46q0 11 2 19t5 8h204q3 0 5 -8t2 -19v-46q0 -11 -2 -18.5t-5 -7.5h-204q-3 0 -5 7.5z" />
    <glyph glyph-name="uni0641" unicode="&#x641;" horiz-adv-x="885" 
d="M224 9.5q-70 14.5 -110 53.5t-40 111q0 20 7 67t21 133l62 -13q-23 -140 -23 -171q0 -37 24 -57.5t78.5 -29.5t151.5 -9q276 0 343 26q2 19 4 66q-49 -11 -115 -11q-44 0 -72 8t-45 31q-12 15 -16.5 27.5t-4.5 35.5q0 54 17 110t54 95t95 39q57 0 92 -40.5t50 -101
t15 -123.5q-1 -80 -6.5 -123.5t-20 -67t-42.5 -36.5q-41 -18 -114 -26t-230 -8q-105 0 -175 14.5zM638 259q69 0 105 10q0 86 -24.5 128t-71.5 42q-41 0 -67 -46.5t-26 -120.5q32 -13 84 -13zM580 674l57 71l75 -59l-57 -71z" />
    <glyph glyph-name="uni0642" unicode="&#x642;" horiz-adv-x="740" 
d="M130.5 -175q-56.5 46 -56.5 140q0 20 9 79t22 143q3 20 6 39.5t6 39.5l62 -12q-38 -228 -38 -278q0 -52 46.5 -75.5t124.5 -23.5q91 0 157.5 12.5t120.5 38.5q7 41 7 96q-44 -11 -115 -11q-45 0 -72.5 7.5t-45.5 31.5q-12 15 -16.5 27.5t-4.5 35.5q0 54 17 110t54.5 95
t95.5 39q83 0 119.5 -80.5t36.5 -184.5q0 -86 -4.5 -132t-16 -70.5t-34.5 -42.5q-40 -35 -121 -52.5t-178 -17.5q-125 0 -181.5 46zM493 96q63 0 105 10q0 85 -25 127.5t-71 42.5q-41 0 -67.5 -46.5t-26.5 -119.5q34 -14 85 -14zM373 511l56 68l71 -57l-55 -68zM557 579
l72 -57l-56 -68l-71 57z" />
    <glyph glyph-name="uni0643" unicode="&#x643;" horiz-adv-x="802" 
d="M81 241q7 47 21 133l62 -13q-23 -140 -23 -171q0 -37 24 -57.5t78.5 -29.5t151.5 -9q83 0 152.5 9t113.5 28l-32 564l78 15q5 -114 12.5 -325.5t7.5 -257.5q0 -31 -14.5 -54t-49.5 -38q-49 -18 -116.5 -29t-147.5 -11q-105 0 -175 14.5t-110 53.5t-40 111q0 20 7 67z
M305 361q58 0 100.5 11t56.5 32q0 22 -18.5 30.5t-53.5 13.5q-32 5 -47.5 11.5t-15.5 23.5q0 25 14.5 65.5t40 71.5t58.5 31q24 0 42.5 -14t34.5 -40l-29 -26q-23 27 -48 27q-26 0 -45 -29.5t-25 -65.5q50 -4 78 -12t42 -27t14 -53q0 -49 -55 -78t-148 -29z" />
    <glyph glyph-name="uni0644" unicode="&#x644;" horiz-adv-x="651" 
d="M128.5 -175q-54.5 46 -54.5 140q0 20 9 79t22 143q3 20 6 39.5t6 39.5l62 -12q-38 -228 -38 -278q0 -51 44.5 -75t114.5 -24q62 0 117 12.5t91 40.5l-27 766l79 14l15 -793q0 -43 -42.5 -74.5t-106.5 -47.5t-126 -16q-117 0 -171.5 46z" />
    <glyph glyph-name="uni0645" unicode="&#x645;" horiz-adv-x="504" 
d="M65 -29q0 106 26 163q49 101 100 159.5t110 58.5q64 0 101.5 -57t37.5 -147q0 -52 -15 -105q-7 -23 -36 -46q-20 -15 -41 -15q-13 0 -27 6l-178 81q-4 -27 -4 -72q0 -108 23 -281l-81 -13q-16 192 -16 268zM354 70q7 14 11.5 36.5t4.5 44.5q0 53 -20.5 86t-55.5 33
q-31 0 -55.5 -28t-58.5 -95z" />
    <glyph glyph-name="uni0646" unicode="&#x646;" horiz-adv-x="688" 
d="M131 -176q-57 45 -57 135q0 30 10 99.5t33 207.5l62 -12q-38 -228 -38 -278q0 -52 46 -75.5t125 -23.5q170 0 237 53l-35 380l76 16q26 -310 26 -409q0 -43 -44 -74.5t-114 -47.5t-146 -16q-124 0 -181 45zM273 427l57 71l75 -59l-57 -71z" />
    <glyph glyph-name="uni0647" unicode="&#x647;" horiz-adv-x="458" 
d="M116.5 26q-42.5 31 -42.5 96q0 87 110 212l-42 30l44 67q104 -65 161.5 -148t57.5 -178q0 -34 -16 -61q-11 -17 -17.5 -24t-14.5 -10q-37 -15 -135 -15q-63 0 -105.5 31zM160.5 107q18.5 -13 64.5 -13t70 1t44 6q-1 50 -21 98.5t-83 95.5q-36 -31 -64.5 -78.5
t-28.5 -72.5q0 -24 18.5 -37z" />
    <glyph glyph-name="uni0648" unicode="&#x648;" horiz-adv-x="447" 
d="M304 9q-45 -9 -105 -9q-44 0 -72 8t-45 31q-12 15 -16.5 27.5t-4.5 35.5q0 54 17 110t54 95t95 39q57 0 92 -40.5t50 -101t15 -123.5q0 -116 -79.5 -207t-211.5 -144l-48 76q215 81 259 203zM210 84q69 0 105 10q0 86 -24.5 128t-71.5 42q-41 0 -67 -46.5t-26 -120.5
q32 -13 84 -13z" />
    <glyph glyph-name="uni0649" unicode="&#x649;" horiz-adv-x="722" 
d="M130.5 -175q-56.5 46 -56.5 140q0 20 9 79t22 143q3 20 6 39.5t6 39.5l62 -12q-38 -228 -38 -278q0 -52 46.5 -75.5t124.5 -23.5q91 0 153 13.5t102 49.5q10 30 10 48q0 54 -51 61l-33 3q-53 5 -79 10t-41 19t-15 41q0 76 27.5 151t73 123t98.5 48q37 0 69 -22.5
t57 -62.5l-42 -48q-46 46 -85 46q-33 0 -61 -28.5t-45.5 -75.5t-22.5 -101q81 -6 124 -17t67.5 -42.5t24.5 -94.5q0 -117 -93.5 -168t-237.5 -51q-125 0 -181.5 46z" />
    <glyph glyph-name="uni064A" unicode="&#x64a;" horiz-adv-x="722" 
d="M130.5 -175q-56.5 46 -56.5 140q0 20 9 79t22 143q3 20 6 39.5t6 39.5l62 -12q-38 -228 -38 -278q0 -52 46.5 -75.5t124.5 -23.5q91 0 153 13.5t102 49.5q10 30 10 48q0 54 -51 61l-33 3q-53 5 -79 10t-41 19t-15 41q0 76 27.5 151t73 123t98.5 48q37 0 69 -22.5
t57 -62.5l-42 -48q-46 46 -85 46q-33 0 -61 -28.5t-45.5 -75.5t-22.5 -101q81 -6 124 -17t67.5 -42.5t24.5 -94.5q0 -117 -93.5 -168t-237.5 -51q-125 0 -181.5 46zM184 -396l56 68l71 -57l-55 -68zM368 -328l72 -57l-56 -68l-71 57z" />
    <glyph glyph-name="uni064B" unicode="&#x64b;" horiz-adv-x="0" 
d="M-112 46l231 67v-47l-231 -66v46zM-112 145l231 67v-47l-231 -66v46z" />
    <glyph glyph-name="uni064C" unicode="&#x64c;" horiz-adv-x="0" 
d="M-112 46l2 1q-15 30 -15 56q0 14 4.5 34t10.5 43l6 21l39 -12q-19 -58 -19 -86q0 -21 17 -44l51 14q-12 2 -16.5 10t-4.5 21q0 15 8 40t26 45t46 20q34 0 55 -31t21 -71q0 -28 -12.5 -38.5t-48.5 -20.5l-170 -48v46zM39 93q24 0 42 6q0 68 -40 68q-18 0 -28.5 -19
t-11.5 -50q13 -5 38 -5z" />
    <glyph glyph-name="uni064D" unicode="&#x64d;" horiz-adv-x="0" 
d="M-112 -46l231 67v-47l-231 -66v46zM-112 -145l231 67v-47l-231 -66v46z" />
    <glyph glyph-name="uni064E" unicode="&#x64e;" horiz-adv-x="0" 
d="M-112 46l231 67v-47l-231 -66v46z" />
    <glyph glyph-name="uni064F" unicode="&#x64f;" horiz-adv-x="0" 
d="M-112 46l96 27q-12 2 -16.5 10t-4.5 21q0 15 8 40t26 45t46 20q34 0 55 -31t21 -71q0 -28 -12.5 -38.5t-48.5 -20.5l-170 -48v46zM39 93q24 0 42 6q0 68 -40 68q-18 0 -28.5 -19t-11.5 -50q13 -5 38 -5z" />
    <glyph glyph-name="uni0650" unicode="&#x650;" horiz-adv-x="0" 
d="M-112 -46l231 67v-47l-231 -66v46z" />
    <glyph glyph-name="uni0651" unicode="&#x651;" horiz-adv-x="0" 
d="M-84 53q0 -19 22 -19q12 0 25 5.5t20 15.5v54l34 6v-42q0 -12 5.5 -17t16.5 -5t24 6t19 12q0 36 -7 75l36 16q7 -39 7 -81q0 -32 -25 -52t-56 -20q-22 0 -35 16q-12 -15 -31.5 -24.5t-39.5 -9.5q-23 0 -36.5 12t-13.5 34q0 21 5 57l35 6q-5 -30 -5 -45z" />
    <glyph glyph-name="uni0652" unicode="&#x652;" horiz-adv-x="0" 
d="M-77 93q0 24 14 42.5t37 26.5q15 5 27 5q23 0 42 -13t28 -38q5 -15 5 -28q0 -23 -13 -42t-38 -28l-33 -11q-12 -4 -23 -4q-27 0 -37 29l78 26q25 10 25 29q0 7 -3 16q-7 20 -29 20q-17 0 -27.5 -8t-10.5 -21q0 -7 3 -15l-40 -14q-5 15 -5 28z" />
    <glyph glyph-name="uni0653" unicode="&#x653;" horiz-adv-x="0" 
d="M28.5 44.5q-31.5 3.5 -37.5 4.5q-34 4 -41 4q-21 0 -29.5 -8t-16.5 -36l-54 13q15 57 35.5 78t62.5 21q20 0 55 -5q68 -7 102 -7h47l-14 -68h-40q-38 0 -69.5 3.5z" />
    <glyph glyph-name="uni0654" unicode="&#x654;" horiz-adv-x="0" 
d="M-65 147q0 30 25 46.5t65 16.5q14 0 44 -5v-44q-33 5 -53 5q-27 0 -43 -10q0 -32 29 -77l113 33v-47l-231 -66v46l77 22q-26 46 -26 80z" />
    <glyph glyph-name="uni0655" unicode="&#x655;" horiz-adv-x="0" 
d="M-61 -25q0 30 25 46.5t65 16.5q14 0 44 -5v-44q-33 5 -53 5q-27 0 -43 -10q0 -32 29 -77l113 33v-47l-231 -66v46l77 22q-26 46 -26 80z" />
    <glyph glyph-name="uni0656" unicode="&#x656;" horiz-adv-x="0" 
d="M-19 -7l41 7l-4 -132h-33z" />
    <glyph glyph-name="uni0658" unicode="&#x658;" horiz-adv-x="0" 
d="M-80.5 18q-25.5 18 -25.5 50q0 11 11 70l7 40h40q-17 -90 -17 -102q0 -15 13.5 -22.5t43.5 -7.5q22 0 37.5 3.5t30.5 11.5l-11 132l44 8l7 -133q1 -32 -29.5 -50t-81.5 -18q-44 0 -69.5 18z" />
    <glyph glyph-name="uni065A" unicode="&#x65a;" horiz-adv-x="0" 
d="M-56 89.5q-20 39.5 -47 82.5l39 19q45 -78 64 -132q22 63 66 132l37 -25q-48 -73 -80 -160l-42 -6q-17 50 -37 89.5z" />
    <glyph glyph-name="uni0660" unicode="&#x660;" horiz-adv-x="294" 
d="M61 194l74 92l98 -77l-74 -92z" />
    <glyph glyph-name="uni0661" unicode="&#x661;" horiz-adv-x="244" 
d="M181 0l-67 -7q0 184 -15 360.5t-48 309.5l75 17q55 -251 55 -680z" />
    <glyph glyph-name="uni0662" unicode="&#x662;" horiz-adv-x="495" 
d="M213 362q-26 7 -46 20q14 -174 14 -382l-67 -7q0 184 -15 360.5t-48 309.5l75 17q12 -49 35 -178q4 -27 26.5 -38t70.5 -11q83 0 115 28l-19 185l74 14l10 -197q3 -66 -48 -97t-124 -31q-27 0 -53 7z" />
    <glyph glyph-name="uni0663" unicode="&#x663;" horiz-adv-x="650" 
d="M168 378q13 -176 13 -378l-67 -7q0 184 -15 360.5t-48 309.5l75 17q8 -30 25 -122l10 -56q8 -49 83 -49q40 0 75 17l-6 190l70 7l4 -202q22 -12 54 -12q62 0 87 28l-19 185l74 14l10 -196q2 -43 -20 -72t-56.5 -43t-67.5 -14q-69 0 -94 32q-18 -18 -46.5 -25t-58.5 -7
q-49 0 -82 23z" />
    <glyph glyph-name="uni0664" unicode="&#x664;" horiz-adv-x="468" 
d="M102.5 45.5q-53.5 45.5 -53.5 123.5q0 65 34 117t105 85q-61 19 -95 61t-34 106q0 76 58 109t143 33q46 0 91 -8v-84q-9 1 -37.5 4t-52.5 3q-89 0 -131 -42q0 -71 41.5 -107t140.5 -38v-74q-145 -31 -195 -139q8 -50 40.5 -73t99.5 -23q68 0 148 15l-4 -97
q-79 -17 -148 -17q-97 0 -150.5 45.5z" />
    <glyph glyph-name="uni0665" unicode="&#x665;" horiz-adv-x="605" 
d="M128 38.5q-57 40.5 -57 122.5q0 71 37 160t91 152t101 63q58 0 112 -63t88 -157t34 -178q0 -65 -62 -102.5t-173 -37.5q-114 0 -171 40.5zM180 115.5q39 -18.5 121 -18.5q60 0 101 8t71 27q-1 63 -30.5 137.5t-70 126t-71.5 51.5q-24 0 -63 -46.5t-68 -110t-29 -112.5
q0 -44 39 -62.5z" />
    <glyph glyph-name="uni0666" unicode="&#x666;" horiz-adv-x="494" 
d="M333 179q-6 90 -6 208v152q-30 -5 -117 -5q-80 0 -154 15l-6 96q84 -15 178 -15q113 0 169 5v-123q0 -157 7 -276t29 -231l-74 -22q-20 106 -26 196z" />
    <glyph glyph-name="uni0667" unicode="&#x667;" horiz-adv-x="560" 
d="M224 216.5q-22 105.5 -67.5 216.5t-111.5 199l61 48q68 -97 114.5 -214t59.5 -236q39 267 179 450l56 -55q-68 -88 -114 -200t-67.5 -216.5t-21.5 -173.5v-35l-66 -7v40q0 78 -22 183.5z" />
    <glyph glyph-name="uni0668" unicode="&#x668;" horiz-adv-x="560" 
d="M336 456.5q22 -105.5 67.5 -216.5t111.5 -199l-61 -48q-68 97 -114.5 214t-59.5 236q-39 -267 -179 -450l-56 55q68 88 114 200t67.5 216.5t21.5 173.5v35l66 7v-40q0 -78 22 -183.5z" />
    <glyph glyph-name="uni0669" unicode="&#x669;" horiz-adv-x="519" 
d="M360.5 153q-5.5 86 -5.5 140v7q-74 -17 -126 -17q-62 0 -97.5 9.5t-52.5 34.5q-18 25 -18 66q0 61 15.5 126.5t55.5 113t107 47.5q96 0 140 -80.5t44 -211.5q0 -92 6.5 -195t19.5 -188l-74 -22q-9 84 -14.5 170zM230 381q80 0 125 14q0 103 -27.5 151t-88.5 48
q-57 0 -85 -52.5t-28 -146.5q31 -14 104 -14z" />
    <glyph glyph-name="uni066A" unicode="&#x66a;" horiz-adv-x="710" 
d="M110 0l409 710h84l-409 -710h-84zM110 684.5q39 38.5 98 38.5q58 0 96.5 -38.5t38.5 -96.5q0 -59 -38.5 -98t-96.5 -39t-97.5 39.5t-39.5 97.5t39 96.5zM152 535q22 -21 56 -21q33 0 55 21t22 53q0 30 -23 52t-54 22q-32 0 -55 -21.5t-23 -52.5q0 -32 22 -53zM405 217.5
q39 38.5 98 38.5t97 -38t38 -97q0 -58 -38.5 -97.5t-96.5 -39.5t-97.5 39.5t-39.5 97.5t39 96.5zM447 68q22 -21 56 -21q33 0 55 21t22 53q0 30 -23 52t-54 22q-32 0 -55 -21.5t-23 -52.5q0 -32 22 -53z" />
    <glyph glyph-name="uni066B" unicode="&#x66b;" horiz-adv-x="286" 
d="M0 -210l222 375l64 -37l-221 -375z" />
    <glyph glyph-name="uni066C" unicode="&#x66c;" horiz-adv-x="281" 
d="M183 126.5q20 -22.5 20 -62.5q0 -45 -23 -100t-55 -97l-40 43q51 65 61 112q-9 -3 -16 -3q-27 0 -46.5 19t-19.5 46t19 46t47 19q33 0 53 -22.5z" />
    <glyph glyph-name="uni066D" unicode="&#x66d;" horiz-adv-x="577" 
d="M122 390l128 -43l-2 136h80l-2 -136l129 43l25 -74l-130 -42l80 -108l-63 -46l-79 112l-78 -112l-64 46l79 108l-128 42z" />
    <glyph glyph-name="uni066E" unicode="&#x66e;" horiz-adv-x="845" 
d="M224 9.5q-70 14.5 -110 53.5t-40 111q0 20 7 67t21 133l62 -13q-23 -140 -23 -171q0 -37 24 -57.5t78.5 -29.5t151.5 -9q221 0 308 36l-18 230l77 14q10 -185 10 -247q0 -30 -14.5 -53.5t-50.5 -38.5q-47 -19 -126 -29.5t-182 -10.5q-105 0 -175 14.5z" />
    <glyph glyph-name="uni066F" unicode="&#x66f;" horiz-adv-x="740" 
d="M130.5 -175q-56.5 46 -56.5 140q0 20 9 79t22 143q3 20 6 39.5t6 39.5l62 -12q-38 -228 -38 -278q0 -52 46.5 -75.5t124.5 -23.5q91 0 157.5 12.5t120.5 38.5q7 41 7 96q-44 -11 -115 -11q-45 0 -72.5 7.5t-45.5 31.5q-12 15 -16.5 27.5t-4.5 35.5q0 54 17 110t54.5 95
t95.5 39q83 0 119.5 -80.5t36.5 -184.5q0 -86 -4.5 -132t-16 -70.5t-34.5 -42.5q-40 -35 -121 -52.5t-178 -17.5q-125 0 -181.5 46zM493 96q63 0 105 10q0 85 -25 127.5t-71 42.5q-41 0 -67.5 -46.5t-26.5 -119.5q34 -14 85 -14z" />
    <glyph glyph-name="uni0670" unicode="&#x670;" horiz-adv-x="0" 
d="M-19 125l41 7l-4 -132h-33z" />
    <glyph glyph-name="uni0671" unicode="&#x671;" horiz-adv-x="220" 
d="M142 535l7 -535l-66 -9l-19 530zM34 598.5q-24 9.5 -24 36.5v31q-24 -7 -57 -64l-33 20q15 35 46 66.5t73 28.5v-57q0 -8 6 -12t11 -4q31 43 60 72t63 29q35 0 50.5 -20t15.5 -62q0 -27 -8 -36q-16 -17 -52.5 -27.5t-79.5 -10.5q-47 0 -71 9.5zM156.5 637.5
q26.5 3.5 54.5 13.5q0 26 -7.5 38t-27.5 12q-18 0 -38 -16.5t-49 -50.5q41 0 67.5 3.5z" />
    <glyph glyph-name="uni0679" unicode="&#x679;" horiz-adv-x="845" 
d="M224 9.5q-70 14.5 -110 53.5t-40 111q0 20 7 67t21 133l62 -13q-23 -140 -23 -171q0 -37 24 -57.5t78.5 -29.5t151.5 -9q221 0 308 36l-18 230l77 14q10 -185 10 -247q0 -30 -14.5 -53.5t-50.5 -38.5q-47 -19 -126 -29.5t-182 -10.5q-105 0 -175 14.5zM310 417h31l9 14
q6 10 8 24.5t2 46.5q0 36 -3 117l39 9v-114q0 -19 -3 -31q22 25 41.5 39.5t39.5 14.5q36 0 55 -23t19 -68q0 -35 -35 -54.5t-96 -19.5h-98zM428 418q53 0 84 24q-1 25 -12.5 37.5t-29.5 12.5q-29 0 -85 -74h43z" />
    <glyph glyph-name="uni067E" unicode="&#x67e;" horiz-adv-x="845" 
d="M224 9.5q-70 14.5 -110 53.5t-40 111q0 20 7 67t21 133l62 -13q-23 -140 -23 -171q0 -37 24 -57.5t78.5 -29.5t151.5 -9q221 0 308 36l-18 230l77 14q10 -185 10 -247q0 -30 -14.5 -53.5t-50.5 -38.5q-47 -19 -126 -29.5t-182 -10.5q-105 0 -175 14.5zM280 -173l51 64
l66 -52l-51 -64zM395 -221l67 -53l-51 -63l-66 52zM452 -109l66 -52l-51 -64l-66 52z" />
    <glyph glyph-name="uni0686" unicode="&#x686;" horiz-adv-x="641" 
d="M153 -297q-84 63 -84 189q0 119 80 220t257 161q-30 8 -115 43q-43 18 -67.5 27t-35.5 9q-26 0 -39 -16.5t-19 -51.5l-60 10q13 72 39.5 110.5t78.5 38.5q26 0 60.5 -12.5t92.5 -38.5q78 -35 131.5 -53.5t105.5 -19.5l-9 -95q-109 -17 -202.5 -56.5t-154.5 -101.5
t-69 -143q0 -92 65 -139t172 -47q97 0 206 30l-5 -98q-101 -29 -203 -29q-141 0 -225 63zM321 35l57 -45l-44 -55l-58 45zM378 -63l57 -45l-44 -55l-57 45zM428 35l58 -45l-45 -55l-57 45z" />
    <glyph glyph-name="uni0688" unicode="&#x688;" horiz-adv-x="527" 
d="M121 158q0 -32 6.5 -44.5t27.5 -16t76 -3.5q49 0 100 8.5t75 21.5q-7 74 -50.5 146t-123.5 147l50 65q105 -101 148 -193.5t43 -171.5q0 -62 -71.5 -92t-172.5 -30q-70 0 -106.5 12.5t-50.5 41.5t-14 83q0 10 2 50l61 -5v-19zM132 623h31l9 14q6 10 8 24.5t2 46.5
q0 36 -3 117l39 9v-114q0 -19 -3 -31q22 25 41.5 39.5t39.5 14.5q36 0 55 -23t19 -68q0 -35 -35 -54.5t-96 -19.5h-98zM250 624q53 0 84 24q-1 25 -12.5 37.5t-29.5 12.5q-29 0 -85 -74h43z" />
    <glyph glyph-name="uni0691" unicode="&#x691;" horiz-adv-x="303" 
d="M83 -90q62 55 80 108l-32 278l77 15q10 -98 16 -167.5t6 -106.5q0 -85 -69 -165.5t-201 -141.5l-49 76q110 49 172 104zM37 461h31l9 14q6 10 8 24.5t2 46.5q0 36 -3 117l39 9v-114q0 -19 -3 -31q22 25 41.5 39.5t39.5 14.5q36 0 55 -23t19 -68q0 -35 -35 -54.5
t-96 -19.5h-98zM155 462q53 0 84 24q-1 25 -12.5 37.5t-29.5 12.5q-29 0 -85 -74h43z" />
    <glyph glyph-name="uni0695" unicode="&#x695;" horiz-adv-x="303" 
d="M83 -90q62 55 80 108l-32 278l77 15q10 -98 16 -167.5t6 -106.5q0 -85 -69 -165.5t-201 -141.5l-49 76q110 49 172 104zM-13 -445.5q-20 39.5 -47 82.5l39 19q45 -78 64 -132q22 63 66 132l37 -25q-48 -73 -80 -160l-42 -6q-17 50 -37 89.5z" />
    <glyph glyph-name="uni0698" unicode="&#x698;" horiz-adv-x="303" 
d="M83 -90q62 55 80 108l-32 278l77 15q10 -98 16 -167.5t6 -106.5q0 -85 -69 -165.5t-201 -141.5l-49 76q110 49 172 104zM37 473l51 64l66 -53l-51 -64zM141 660l67 -53l-51 -64l-67 53zM209 537l66 -53l-51 -64l-66 53z" />
    <glyph glyph-name="uni06A1" unicode="&#x6a1;" horiz-adv-x="885" 
d="M224 9.5q-70 14.5 -110 53.5t-40 111q0 20 7 67t21 133l62 -13q-23 -140 -23 -171q0 -37 24 -57.5t78.5 -29.5t151.5 -9q276 0 343 26q2 19 4 66q-49 -11 -115 -11q-44 0 -72 8t-45 31q-12 15 -16.5 27.5t-4.5 35.5q0 54 17 110t54 95t95 39q57 0 92 -40.5t50 -101
t15 -123.5q-1 -80 -6.5 -123.5t-20 -67t-42.5 -36.5q-41 -18 -114 -26t-230 -8q-105 0 -175 14.5zM638 259q69 0 105 10q0 86 -24.5 128t-71.5 42q-41 0 -67 -46.5t-26 -120.5q32 -13 84 -13z" />
    <glyph glyph-name="uni06A4" unicode="&#x6a4;" horiz-adv-x="885" 
d="M224 9.5q-70 14.5 -110 53.5t-40 111q0 20 7 67t21 133l62 -13q-23 -140 -23 -171q0 -37 24 -57.5t78.5 -29.5t151.5 -9q276 0 343 26q2 19 4 66q-49 -11 -115 -11q-44 0 -72 8t-45 31q-12 15 -16.5 27.5t-4.5 35.5q0 54 17 110t54 95t95 39q57 0 92 -40.5t50 -101
t15 -123.5q-1 -80 -6.5 -123.5t-20 -67t-42.5 -36.5q-41 -18 -114 -26t-230 -8q-105 0 -175 14.5zM638 259q69 0 105 10q0 86 -24.5 128t-71.5 42q-41 0 -67 -46.5t-26 -120.5q32 -13 84 -13zM527 668l51 64l66 -53l-51 -64zM631 855l67 -53l-51 -64l-67 53zM699 732l66 -53
l-51 -64l-66 53z" />
    <glyph glyph-name="uni06A9" unicode="&#x6a9;" horiz-adv-x="853" 
d="M224 9.5q-70 14.5 -110 53.5t-40 111q0 20 7 67t21 133l62 -13q-23 -140 -23 -171q0 -37 24 -57.5t78.5 -29.5t151.5 -9q209 0 287 35q-10 123 -61.5 209t-170.5 163l10 73q163 81 336 136l11 -82q-131 -40 -250 -98q110 -88 155 -191t45 -224q0 -64 -90.5 -92
t-267.5 -28q-105 0 -175 14.5z" />
    <glyph glyph-name="uni06AA" unicode="&#x6aa;" horiz-adv-x="970" 
d="M130 7l-56 99q130 -8 214.5 -10t232.5 -2q126 0 205.5 19.5t101.5 48.5q-6 53 -62 73.5t-164 20.5q-194 0 -262.5 3t-92 15t-23.5 45q0 59 44.5 118.5t115 99.5t142.5 44l11 -87q-54 -3 -105 -24t-87 -52t-48 -63q21 -8 73.5 -10t175.5 -2q117 0 192.5 -15t117 -56.5
t41.5 -118.5q0 -41 -47.5 -77.5t-137 -58.5t-211.5 -22q-140 0 -371 12z" />
    <glyph glyph-name="uni06AF" unicode="&#x6af;" horiz-adv-x="853" 
d="M224 9.5q-70 14.5 -110 53.5t-40 111q0 20 7 67t21 133l62 -13q-23 -140 -23 -171q0 -37 24 -57.5t78.5 -29.5t151.5 -9q209 0 287 35q-10 123 -61.5 209t-170.5 163l10 73q163 81 336 136l11 -82q-131 -40 -250 -98q110 -88 155 -191t45 -224q0 -64 -90.5 -92
t-267.5 -28q-105 0 -175 14.5zM469 669l163 79l5 -40l-172 -82z" />
    <glyph glyph-name="uni06B5" unicode="&#x6b5;" horiz-adv-x="651" 
d="M128.5 -175q-54.5 46 -54.5 140q0 20 9 79t22 143q3 20 6 39.5t6 39.5l62 -12q-38 -228 -38 -278q0 -51 44.5 -75t114.5 -24q62 0 117 12.5t91 40.5l-27 766l79 14l15 -793q0 -43 -42.5 -74.5t-106.5 -47.5t-126 -16q-117 0 -171.5 46zM147 457.5q-20 39.5 -47 82.5
l39 19q45 -78 64 -132q22 63 66 132l37 -25q-48 -73 -80 -160l-42 -6q-17 50 -37 89.5z" />
    <glyph glyph-name="uni06BA" unicode="&#x6ba;" horiz-adv-x="688" 
d="M131 -176q-57 45 -57 135q0 30 10 99.5t33 207.5l62 -12q-38 -228 -38 -278q0 -52 46 -75.5t125 -23.5q170 0 237 53l-35 380l76 16q26 -310 26 -409q0 -43 -44 -74.5t-114 -47.5t-146 -16q-124 0 -181 45z" />
    <glyph glyph-name="uni06BE" unicode="&#x6be;" horiz-adv-x="675" 
d="M176 76q49 16 79 33q-45 8 -74 32t-29 60q0 69 75 157l-49 24l33 73l259 -115q70 -31 102.5 -74t32.5 -104q0 -62 -24 -114q-9 -19 -37 -40q-21 -15 -35 -15q-7 0 -15 3l-152 57q-41 -38 -113 -65.5t-142 -34.5l-12 99q52 8 101 24zM247 166.5q29 -14.5 81 -19.5l57 141
l-100 43q-67 -73 -67 -120q0 -30 29 -44.5zM518 75q10 17 16.5 38t6.5 39q0 35 -22.5 63t-79.5 50l-58 -139z" />
    <glyph glyph-name="uni06C0" unicode="&#x6c0;" horiz-adv-x="458" 
d="M116.5 26q-42.5 31 -42.5 96q0 87 110 212l-42 30l44 67q104 -65 161.5 -148t57.5 -178q0 -34 -16 -61q-11 -17 -17.5 -24t-14.5 -10q-37 -15 -135 -15q-63 0 -105.5 31zM160.5 107q18.5 -13 64.5 -13t70 1t44 6q-1 50 -21 98.5t-83 95.5q-36 -31 -64.5 -78.5
t-28.5 -72.5q0 -24 18.5 -37zM223.5 581q42.5 11 56.5 32q0 22 -18.5 30.5t-53.5 13.5q-32 5 -47.5 11.5t-15.5 23.5q0 25 14.5 65.5t40 71.5t58.5 31q24 0 42.5 -14t34.5 -40l-29 -26q-23 27 -48 27q-26 0 -45 -29.5t-25 -65.5q50 -4 78 -12t42 -27t14 -53q0 -49 -55 -78
t-148 -29l4 57q58 0 100.5 11z" />
    <glyph glyph-name="uni06C1" unicode="&#x6c1;" horiz-adv-x="458" 
d="M116.5 26q-42.5 31 -42.5 96q0 87 110 212l-42 30l44 67q104 -65 161.5 -148t57.5 -178q0 -34 -16 -61q-11 -17 -17.5 -24t-14.5 -10q-37 -15 -135 -15q-63 0 -105.5 31zM160.5 107q18.5 -13 64.5 -13t70 1t44 6q-1 50 -21 98.5t-83 95.5q-36 -31 -64.5 -78.5
t-28.5 -72.5q0 -24 18.5 -37z" />
    <glyph glyph-name="uni06C2" unicode="&#x6c2;" horiz-adv-x="458" 
d="M116.5 26q-42.5 31 -42.5 96q0 87 110 212l-42 30l44 67q104 -65 161.5 -148t57.5 -178q0 -34 -16 -61q-11 -17 -17.5 -24t-14.5 -10q-37 -15 -135 -15q-63 0 -105.5 31zM160.5 107q18.5 -13 64.5 -13t70 1t44 6q-1 50 -21 98.5t-83 95.5q-36 -31 -64.5 -78.5
t-28.5 -72.5q0 -24 18.5 -37zM165 649q0 30 25 46.5t65 16.5q14 0 44 -5v-44q-33 5 -53 5q-27 0 -43 -10q0 -32 29 -77l113 33v-47l-231 -66v46l77 22q-26 46 -26 80z" />
    <glyph glyph-name="uni06C3" unicode="&#x6c3;" horiz-adv-x="458" 
d="M116.5 26q-42.5 31 -42.5 96q0 87 110 212l-42 30l44 67q104 -65 161.5 -148t57.5 -178q0 -34 -16 -61q-11 -17 -17.5 -24t-14.5 -10q-37 -15 -135 -15q-63 0 -105.5 31zM160.5 107q18.5 -13 64.5 -13t70 1t44 6q-1 50 -21 98.5t-83 95.5q-36 -31 -64.5 -78.5
t-28.5 -72.5q0 -24 18.5 -37zM102 573l56 68l71 -57l-55 -68zM286 641l72 -57l-56 -68l-71 57z" />
    <glyph glyph-name="uni06C6" unicode="&#x6c6;" horiz-adv-x="447" 
d="M304 9q-45 -9 -105 -9q-44 0 -72 8t-45 31q-12 15 -16.5 27.5t-4.5 35.5q0 54 17 110t54 95t95 39q57 0 92 -40.5t50 -101t15 -123.5q0 -116 -79.5 -207t-211.5 -144l-48 76q215 81 259 203zM210 84q69 0 105 10q0 86 -24.5 128t-71.5 42q-41 0 -67 -46.5t-26 -120.5
q32 -13 84 -13zM171 538.5q-20 39.5 -47 82.5l39 19q45 -78 64 -132q22 63 66 132l37 -25q-48 -73 -80 -160l-42 -6q-17 50 -37 89.5z" />
    <glyph glyph-name="uni06C7" unicode="&#x6c7;" horiz-adv-x="447" 
d="M304 9q-45 -9 -105 -9q-44 0 -72 8t-45 31q-12 15 -16.5 27.5t-4.5 35.5q0 54 17 110t54 95t95 39q57 0 92 -40.5t50 -101t15 -123.5q0 -116 -79.5 -207t-211.5 -144l-48 76q215 81 259 203zM210 84q69 0 105 10q0 86 -24.5 128t-71.5 42q-41 0 -67 -46.5t-26 -120.5
q32 -13 84 -13zM115 478l96 27q-12 2 -16.5 10t-4.5 21q0 15 8 40t26 45t46 20q34 0 55 -31t21 -71q0 -28 -12.5 -38.5t-48.5 -20.5l-170 -48v46zM266 525q24 0 42 6q0 68 -40 68q-18 0 -28.5 -19t-11.5 -50q13 -5 38 -5z" />
    <glyph glyph-name="uni06CC" unicode="&#x6cc;" horiz-adv-x="722" 
d="M130.5 -175q-56.5 46 -56.5 140q0 20 9 79t22 143q3 20 6 39.5t6 39.5l62 -12q-38 -228 -38 -278q0 -52 46.5 -75.5t124.5 -23.5q91 0 153 13.5t102 49.5q10 30 10 48q0 54 -51 61l-33 3q-53 5 -79 10t-41 19t-15 41q0 76 27.5 151t73 123t98.5 48q37 0 69 -22.5
t57 -62.5l-42 -48q-46 46 -85 46q-33 0 -61 -28.5t-45.5 -75.5t-22.5 -101q81 -6 124 -17t67.5 -42.5t24.5 -94.5q0 -117 -93.5 -168t-237.5 -51q-125 0 -181.5 46z" />
    <glyph glyph-name="uni06CE" unicode="&#x6ce;" horiz-adv-x="722" 
d="M130.5 -175q-56.5 46 -56.5 140q0 20 9 79t22 143q3 20 6 39.5t6 39.5l62 -12q-38 -228 -38 -278q0 -52 46.5 -75.5t124.5 -23.5q91 0 153 13.5t102 49.5q10 30 10 48q0 54 -51 61l-33 3q-53 5 -79 10t-41 19t-15 41q0 76 27.5 151t73 123t98.5 48q37 0 69 -22.5
t57 -62.5l-42 -48q-46 46 -85 46q-33 0 -61 -28.5t-45.5 -75.5t-22.5 -101q81 -6 124 -17t67.5 -42.5t24.5 -94.5q0 -117 -93.5 -168t-237.5 -51q-125 0 -181.5 46zM183 466.5q-20 39.5 -47 82.5l39 19q45 -78 64 -132q22 63 66 132l37 -25q-48 -73 -80 -160l-42 -6
q-17 50 -37 89.5z" />
    <glyph glyph-name="uni06D2" unicode="&#x6d2;" horiz-adv-x="680" 
d="M74 136q0 50 36 119t86 119t87 50q36 0 68 -23t58 -64l-42 -47q-45 45 -84 45q-18 0 -51 -30.5t-60 -73t-31 -77.5q28 -35 73.5 -45t136.5 -10q64 0 133 4t84 5l49 3l-23 -99l-25 -2q-61 -4 -124.5 -7t-118.5 -3q-252 0 -252 136z" />
    <glyph glyph-name="uni06D3" unicode="&#x6d3;" horiz-adv-x="680" 
d="M74 136q0 50 36 119t86 119t87 50q36 0 68 -23t58 -64l-42 -47q-45 45 -84 45q-18 0 -51 -30.5t-60 -73t-31 -77.5q28 -35 73.5 -45t136.5 -10q64 0 133 4t84 5l49 3l-23 -99l-25 -2q-61 -4 -124.5 -7t-118.5 -3q-252 0 -252 136zM218 640q0 30 25 46.5t65 16.5
q14 0 44 -5v-44q-33 5 -53 5q-27 0 -43 -10q0 -32 29 -77l113 33v-47l-231 -66v46l77 22q-26 46 -26 80z" />
    <glyph glyph-name="uni06D4" unicode="&#x6d4;" horiz-adv-x="383" 
d="M307 142l-18 -98h-213l18 98h213z" />
    <glyph glyph-name="uni06D5" unicode="&#x6d5;" horiz-adv-x="458" 
d="M116.5 26q-42.5 31 -42.5 96q0 87 110 212l-42 30l44 67q104 -65 161.5 -148t57.5 -178q0 -34 -16 -61q-11 -17 -17.5 -24t-14.5 -10q-37 -15 -135 -15q-63 0 -105.5 31zM160.5 107q18.5 -13 64.5 -13t70 1t44 6q-1 50 -21 98.5t-83 95.5q-36 -31 -64.5 -78.5
t-28.5 -72.5q0 -24 18.5 -37z" />
    <glyph glyph-name="uni06F0" unicode="&#x6f0;" horiz-adv-x="463" 
d="M145 83.5q-39 22.5 -61.5 61.5t-22.5 87t22.5 86.5t61.5 60.5t87 22t86.5 -22t60.5 -60.5t22 -86.5t-22 -87t-60.5 -61.5t-86.5 -22.5t-87 22.5zM162.5 165.5q27.5 -26.5 69.5 -26.5q41 0 68.5 26.5t27.5 66.5q0 38 -28.5 65t-67.5 27q-40 0 -68.5 -27t-28.5 -65
q0 -40 27.5 -66.5z" />
    <glyph glyph-name="uni06F1" unicode="&#x6f1;" horiz-adv-x="244" 
d="M181 0l-67 -7q0 184 -15 360.5t-48 309.5l75 17q55 -251 55 -680z" />
    <glyph glyph-name="uni06F2" unicode="&#x6f2;" horiz-adv-x="495" 
d="M213 362q-26 7 -46 20q14 -174 14 -382l-67 -7q0 184 -15 360.5t-48 309.5l75 17q12 -49 35 -178q4 -27 26.5 -38t70.5 -11q83 0 115 28l-19 185l74 14l10 -197q3 -66 -48 -97t-124 -31q-27 0 -53 7z" />
    <glyph glyph-name="uni06F3" unicode="&#x6f3;" horiz-adv-x="650" 
d="M168 378q13 -176 13 -378l-67 -7q0 184 -15 360.5t-48 309.5l75 17q8 -30 25 -122l10 -56q8 -49 83 -49q40 0 75 17l-6 190l70 7l4 -202q22 -12 54 -12q62 0 87 28l-19 185l74 14l10 -196q2 -43 -20 -72t-56.5 -43t-67.5 -14q-69 0 -94 32q-18 -18 -46.5 -25t-58.5 -7
q-49 0 -82 23z" />
    <glyph glyph-name="uni06F4" unicode="&#x6f4;" horiz-adv-x="597" 
d="M169 331q12 -140 12 -331l-67 -7q0 186 -16 342.5t-52 290.5l74 17q25 -99 39 -212q18 -17 41 -22.5t58 -4.5q-35 61 -35 147q0 63 45.5 96t110.5 33q43 0 106 -17l-19 -77q-58 10 -92 10q-19 0 -42 -5.5t-41 -15.5q0 -46 10 -89t28 -76q58 4 104.5 13t101.5 27l5 -90
q-101 -29 -158.5 -40t-112.5 -11q-58 0 -100 22z" />
    <glyph glyph-name="uni06F5" unicode="&#x6f5;" horiz-adv-x="591" 
d="M82.5 30q-37.5 35 -37.5 103q0 99 61 217t148 223l-34 30l-15 13l55 68q143 -122 214.5 -267t71.5 -301q0 -63 -44 -92t-98 -29q-39 0 -64.5 11t-41.5 41q-18 -25 -49.5 -38.5t-69.5 -13.5q-59 0 -96.5 35zM142 109q21 -15 54 -15q52 0 71 27l-3 70l63 5l3 -85
q23 -18 68 -18q58 0 80 27q-4 128 -46.5 225t-125.5 182q-90 -116 -137.5 -205.5t-47.5 -166.5q0 -31 21 -46z" />
    <glyph glyph-name="uni06F6" unicode="&#x6f6;" horiz-adv-x="540" 
d="M254 326q-74 17 -114 68t-40 127q0 70 47 114.5t121 44.5q47 0 104 -20l-16 -72q-51 10 -87 10q-34 0 -62 -12.5t-44 -37.5q1 -74 43.5 -111.5t142.5 -38.5l113 62l22 -82q-86 -40 -147.5 -89.5t-115.5 -120t-122 -185.5l-48 45q99 194 203 298z" />
    <glyph glyph-name="uni06F7" unicode="&#x6f7;" horiz-adv-x="560" 
d="M224 216.5q-22 105.5 -67.5 216.5t-111.5 199l61 48q68 -97 114.5 -214t59.5 -236q39 267 179 450l56 -55q-68 -88 -114 -200t-67.5 -216.5t-21.5 -173.5v-35l-66 -7v40q0 78 -22 183.5z" />
    <glyph glyph-name="uni06F8" unicode="&#x6f8;" horiz-adv-x="560" 
d="M336 456.5q22 -105.5 67.5 -216.5t111.5 -199l-61 -48q-68 97 -114.5 214t-59.5 236q-39 -267 -179 -450l-56 55q68 88 114 200t67.5 216.5t21.5 173.5v35l66 7v-40q0 -78 22 -183.5z" />
    <glyph glyph-name="uni06F9" unicode="&#x6f9;" horiz-adv-x="519" 
d="M360.5 153q-5.5 86 -5.5 140v7q-74 -17 -126 -17q-62 0 -97.5 9.5t-52.5 34.5q-18 25 -18 66q0 61 15.5 126.5t55.5 113t107 47.5q96 0 140 -80.5t44 -211.5q0 -92 6.5 -195t19.5 -188l-74 -22q-9 84 -14.5 170zM230 381q80 0 125 14q0 103 -27.5 151t-88.5 48
q-57 0 -85 -52.5t-28 -146.5q31 -14 104 -14z" />
    <glyph glyph-name="uni0756" unicode="&#x756;" horiz-adv-x="845" 
d="M224 9.5q-70 14.5 -110 53.5t-40 111q0 20 7 67t21 133l62 -13q-23 -140 -23 -171q0 -37 24 -57.5t78.5 -29.5t151.5 -9q221 0 308 36l-18 230l77 14q10 -185 10 -247q0 -30 -14.5 -53.5t-50.5 -38.5q-47 -19 -126 -29.5t-182 -10.5q-105 0 -175 14.5zM373 461.5
q-20 39.5 -47 82.5l39 19q45 -78 64 -132q22 63 66 132l37 -25q-48 -73 -80 -160l-42 -6q-17 50 -37 89.5z" />
    <glyph glyph-name="uni0769" unicode="&#x769;" horiz-adv-x="688" 
d="M131 -176q-57 45 -57 135q0 30 10 99.5t33 207.5l62 -12q-38 -228 -38 -278q0 -52 46 -75.5t125 -23.5q170 0 237 53l-35 380l76 16q26 -310 26 -409q0 -43 -44 -74.5t-114 -47.5t-146 -16q-124 0 -181 45zM273 427l57 71l75 -59l-57 -71zM283 664.5q-20 39.5 -47 82.5
l39 19q45 -78 64 -132q22 63 66 132l37 -25q-48 -73 -80 -160l-42 -6q-17 50 -37 89.5z" />
    <glyph glyph-name="uni08A0" unicode="&#x8a0;" horiz-adv-x="845" 
d="M224 9.5q-70 14.5 -110 53.5t-40 111q0 20 7 67t21 133l62 -13q-23 -140 -23 -171q0 -37 24 -57.5t78.5 -29.5t151.5 -9q221 0 308 36l-18 230l77 14q10 -185 10 -247q0 -30 -14.5 -53.5t-50.5 -38.5q-47 -19 -126 -29.5t-182 -10.5q-105 0 -175 14.5zM343 -206.5
q-20 39.5 -47 82.5l39 19q45 -78 64 -132q22 63 66 132l37 -25q-48 -73 -80 -160l-42 -6q-17 50 -37 89.5z" />
    <glyph glyph-name="uni200B" unicode="&#x200b;" horiz-adv-x="0" 
 />
    <glyph glyph-name="uni200C" unicode="&#x200c;" horiz-adv-x="0" 
d="M3 669h32v-684h-32v684z" />
    <glyph glyph-name="uni200D" unicode="&#x200d;" horiz-adv-x="0" 
d="M-15 606l-76 -76l-21 22l88 88l-77 78l23 22l77 -77l81 82l22 -23l-81 -81l93 -93l-22 -23l-75 75v-615h-32v621z" />
    <glyph glyph-name="uni200E" unicode="&#x200e;" horiz-adv-x="0" 
d="M-17 649h176l-72 69l20 21l108 -106l-108 -106l-20 21l72 69h-144v-632h-32v664z" />
    <glyph glyph-name="uni200F" unicode="&#x200f;" horiz-adv-x="0" 
d="M-17 617h-144l72 -69l-20 -21l-108 106l108 106l20 -21l-72 -69h176v-664h-32v632z" />
    <glyph glyph-name="endash" unicode="&#x2013;" horiz-adv-x="521" 
d="M45 237v63h433v-63h-433z" />
    <glyph glyph-name="emdash" unicode="&#x2014;" horiz-adv-x="870" 
d="M45 237v63h782v-63h-782z" />
    <glyph glyph-name="quoteleft" unicode="&#x2018;" horiz-adv-x="276" 
d="M84.5 497q-17.5 25 -17.5 72q0 121 112 183l25 -44q-40 -25 -59 -53.5t-19 -69.5q2 1 9 1q24 0 40.5 -15t16.5 -40q0 -27 -16 -43t-41 -16q-33 0 -50.5 25z" />
    <glyph glyph-name="quoteright" unicode="&#x2019;" horiz-adv-x="276" 
d="M132.5 573q18.5 28 18.5 70q-1 -1 -8 -1q-24 0 -40.5 14.5t-16.5 39.5q0 28 16 44t41 16q33 0 51 -25.5t18 -72.5q0 -119 -113 -182l-25 43q40 26 58.5 54z" />
    <glyph glyph-name="quotesinglbase" unicode="&#x201a;" horiz-adv-x="281" 
d="M126 -57.5q25 31.5 24 69.5h-9q-28 0 -46.5 16t-18.5 45q0 28 19 45.5t47 17.5q35 0 55 -28t20 -77q0 -67 -36.5 -116.5t-102.5 -76.5l-22 54q45 19 70 50.5z" />
    <glyph glyph-name="quotedblleft" unicode="&#x201c;" horiz-adv-x="469" 
d="M91.5 497q-17.5 25 -17.5 72q0 121 112 183l25 -44q-40 -25 -59 -53.5t-19 -69.5q2 1 10 1q23 0 39.5 -15t16.5 -40q0 -27 -15.5 -43t-40.5 -16q-34 0 -51.5 25zM368 752l25 -44q-41 -25 -60 -53.5t-19 -69.5q3 1 10 1q24 0 40.5 -15t16.5 -40q0 -27 -16 -43t-41 -16
q-33 0 -50.5 25t-17.5 72q0 121 112 183z" />
    <glyph glyph-name="quotedblright" unicode="&#x201d;" horiz-adv-x="471" 
d="M138.5 573q18.5 28 18.5 70q-2 -1 -8 -1q-24 0 -40.5 14.5t-16.5 39.5q0 28 15.5 44t41.5 16q33 0 50.5 -25t17.5 -73q0 -119 -113 -182l-24 43q40 26 58.5 54zM320.5 573q18.5 28 18.5 70q-2 -1 -9 -1q-23 0 -39.5 14.5t-16.5 39.5q0 28 15.5 44t40.5 16q33 0 51 -25.5
t18 -72.5q0 -119 -113 -182l-24 43q40 26 58.5 54z" />
    <glyph glyph-name="quotedblbase" unicode="&#x201e;" horiz-adv-x="277" 
d="M126 -57.5q25 31.5 24 69.5h-9q-28 0 -46.5 16t-18.5 45q0 28 19 45.5t47 17.5q35 0 55 -28t20 -77q0 -67 -36.5 -116.5t-102.5 -76.5l-22 54q45 19 70 50.5z" />
    <glyph glyph-name="dagger" unicode="&#x2020;" horiz-adv-x="501" 
d="M212 -83l6 615l-158 -6v78l158 -6l-6 176h78l-7 -176l159 6v-78l-159 6l7 -615h-78z" />
    <glyph glyph-name="daggerdbl" unicode="&#x2021;" horiz-adv-x="501" 
d="M212 -83l6 176l-158 -5v77l158 -8l-6 189l6 188l-158 -8v78l158 -6l-6 176h78l-7 -176l159 6v-78l-159 8l7 -188l-7 -189l159 8v-77l-159 5l7 -176h-78z" />
    <glyph glyph-name="bullet" unicode="&#x2022;" horiz-adv-x="336" 
d="M88 196q-35 37 -35 88q0 26 9.5 49.5t25.5 40.5q35 33 80 33q23 0 44 -9t37 -24q33 -35 33 -90q0 -53 -33 -88q-33 -33 -81 -33q-47 0 -80 33z" />
    <glyph glyph-name="ellipsis" unicode="&#x2026;" horiz-adv-x="586" 
d="M414 13q-19 19 -19 46q0 28 18.5 46.5t45.5 18.5q28 0 46.5 -19t18.5 -46t-18.5 -46t-46.5 -19q-26 0 -45 19zM81.5 105q18.5 18 45.5 18q28 0 46.5 -18.5t18.5 -45.5q0 -28 -18.5 -47t-46.5 -19q-27 0 -45.5 19t-18.5 47t18.5 46zM246 104.5q19 18.5 46 18.5
q28 0 46.5 -18.5t18.5 -45.5q0 -28 -19 -47t-46 -19t-46 19t-19 47q0 27 19 45.5z" />
    <glyph glyph-name="perthousand" unicode="&#x2030;" horiz-adv-x="1291" 
d="M610 724h62l-390 -734h-62zM81.5 655.5q41.5 58.5 117.5 58.5q75 0 116.5 -59.5t41.5 -158.5q0 -101 -41.5 -161t-116.5 -60t-117 59.5t-42 161.5q0 101 41.5 159.5zM129 373q24 -45 70 -45q45 0 68 46t23 122t-23 120.5t-68 44.5q-47 0 -70.5 -44.5t-23.5 -120.5
q0 -78 24 -123zM576 370.5q42 58.5 117 58.5t116.5 -59.5t41.5 -158.5q0 -101 -41.5 -161t-116.5 -60t-117 59.5t-42 161.5q0 101 42 159.5zM624 88.5q24 -45.5 69 -45.5q46 0 69 46t23 122t-23 120.5t-69 44.5t-69.5 -44.5t-23.5 -120.5q0 -77 24 -122.5zM978 370.5
q42 58.5 117 58.5t116.5 -59.5t41.5 -158.5q0 -101 -41.5 -161t-116.5 -60t-117 60t-42 161t42 159.5zM1025.5 88q23.5 -45 69.5 -45t69 45.5t23 122.5q0 76 -23 120.5t-69 44.5t-69.5 -44.5t-23.5 -120.5q0 -78 23.5 -123z" />
    <glyph glyph-name="guilsinglleft" unicode="&#x2039;" horiz-adv-x="297" 
d="M197 73l-145 165v72l145 163l38 -30l-127 -169l127 -171z" />
    <glyph glyph-name="guilsinglright" unicode="&#x203a;" horiz-adv-x="297" 
d="M99 73l-37 30l127 171l-127 169l37 30l147 -163v-72z" />
    <glyph glyph-name="fraction" unicode="&#x2044;" horiz-adv-x="93" 
d="M-185 -13l393 740h69l-394 -740h-68z" />
    <glyph glyph-name="Euro" unicode="&#x20ac;" horiz-adv-x="546" 
d="M181 63.5q-66 73.5 -84 192.5h-69v45l64 4q-2 11 -2 41q0 29 3 37h-65v46l70 5q18 127 88.5 199t178.5 72q44 0 86.5 -21.5t74.5 -59.5l-54 -52q-51 60 -111 60q-68 0 -112 -51t-58 -147h272v-51h-274q-3 -6 -3 -34q0 -37 -3 -42h236v-51h-226q14 -93 56.5 -143
t106.5 -50q37 0 66.5 17.5t59.5 56.5l53 -49q-74 -98 -185 -98q-103 0 -169 73.5z" />
    <glyph glyph-name="trademark" unicode="&#x2122;" horiz-adv-x="700" 
d="M114 396v275h-106v56h275v-56h-107v-275h-62zM343 727h78l48 -122l32 -86h9l32 86l47 122h77v-331h-56v140l8 120h-11l-78 -208h-48l-77 208h-12l8 -120v-140h-57v331z" />
    <glyph glyph-name="arrowleft" unicode="&#x2190;" horiz-adv-x="673" 
d="M29 271v4l294 286l45 -52l-215 -199h472v-75h-472l215 -199l-45 -51z" />
    <glyph glyph-name="arrowup" unicode="&#x2191;" horiz-adv-x="673" 
d="M299 -25v472l-199 -214l-51 44l286 295h2l288 -295l-52 -44l-199 214v-472h-75z" />
    <glyph glyph-name="arrowright" unicode="&#x2192;" horiz-adv-x="673" 
d="M42 304h473l-215 198l44 51l295 -286v-2l-295 -287l-44 51l215 200h-473v75z" />
    <glyph glyph-name="arrowdown" unicode="&#x2193;" horiz-adv-x="673" 
d="M374 91l199 215l52 -45l-288 -295h-2l-286 295l51 45l199 -215v472h75v-472z" />
    <glyph glyph-name="partialdiff" unicode="&#x2202;" horiz-adv-x="581" 
d="M145.5 20q-44.5 27 -70 73.5t-25.5 103.5q0 71 28.5 125t80.5 84t122 30q43 0 85.5 -21t74.5 -59q4 7 4.5 16t0.5 29q0 251 -154 251q-66 0 -120 -52l-37 53q70 68 168 68q112 0 170 -83t58 -234q0 -114 -33 -207.5t-98 -148.5t-155 -55q-55 0 -99.5 27zM166.5 102
q35.5 -39 88.5 -39q71 0 118.5 57.5t63.5 166.5q-66 83 -148 83q-72 0 -115 -44t-43 -123q0 -62 35.5 -101z" />
    <glyph glyph-name="product" unicode="&#x220f;" horiz-adv-x="736" 
d="M101 -123v814h536v-814h-90v738h-359v-738h-87z" />
    <glyph glyph-name="summation" unicode="&#x2211;" horiz-adv-x="553" 
d="M30 -123v54l256 353l-244 353v54h472v-73h-360v-12l223 -322l-234 -321v-13h401v-73h-514z" />
    <glyph glyph-name="minus" unicode="&#x2212;" horiz-adv-x="522" 
d="M50 204v66h422v-66h-422z" />
    <glyph glyph-name="radical" unicode="&#x221a;" horiz-adv-x="611" 
d="M310 -94l-165 466l-78 -35l-16 43l139 59l122 -363q6 -17 13 -50q3 -9 7 -27h14l14 78l191 812h59l-235 -983h-65z" />
    <glyph glyph-name="infinity" unicode="&#x221e;" horiz-adv-x="855" 
d="M506.5 188.5q-50.5 32.5 -103.5 100.5h-6q-45 -54 -90 -82.5t-96 -28.5q-45 0 -82.5 23.5t-60 63t-22.5 85.5q0 57 22.5 99.5t63 66t92.5 23.5q57 0 98 -28.5t85 -84.5h7q50 66 101 98t109 32q54 0 96.5 -24.5t66.5 -68.5t24 -98q0 -60 -24 -107.5t-67 -74.5t-98 -27
q-65 0 -115.5 32.5zM146 278.5q29 -31.5 74 -31.5q42 0 80.5 28t68.5 72q-82 109 -152 109q-47 0 -73.5 -28.5t-26.5 -73.5q0 -44 29 -75.5zM532.5 271.5q42.5 -32.5 90.5 -32.5q53 0 85 35t32 88q0 57 -34 90.5t-91 33.5q-45 0 -89 -29t-85 -87q49 -66 91.5 -98.5z" />
    <glyph glyph-name="integral" unicode="&#x222b;" horiz-adv-x="368" 
d="M62 -158l9 62q18 -2 33 -2q34 0 51 22t22 58.5t5 95.5q0 88 -23 266q-11 94 -16.5 153.5t-5.5 114.5q0 121 33 182.5t120 61.5q24 0 46 -4l-10 -63q-13 3 -34 3q-48 0 -62 -45t-14 -133q0 -68 17 -208l6 -57l3 -26q9 -84 13.5 -138t4.5 -103q0 -122 -32.5 -184
t-119.5 -62q-28 0 -46 6z" />
    <glyph glyph-name="approxequal" unicode="&#x2248;" horiz-adv-x="540" 
d="M314.5 404.5q-24.5 11.5 -50.5 32.5q-33 25 -50.5 35.5t-37.5 10.5q-49 0 -85 -65l-49 37q29 48 63.5 72t72.5 24q28 0 50.5 -11t55.5 -34l22.5 -18t33 -21t30.5 -7q49 0 85 65l50 -38q-56 -94 -137 -94q-29 0 -53.5 11.5zM105.5 296q34.5 24 72.5 24q28 0 51 -11t55 -33
q31 -25 48 -36t38 -11q48 0 85 66l50 -38q-29 -48 -64 -71.5t-73 -23.5q-29 0 -52.5 11.5t-51.5 32.5q-30 24 -48.5 35t-39.5 11q-48 0 -85 -64l-49 36q29 48 63.5 72z" />
    <glyph glyph-name="notequal" unicode="&#x2260;" horiz-adv-x="483" 
d="M367 354h64v-66h-115l-85 -109h200v-66h-252l-60 -77h-59l60 77h-70v66h121l85 109h-206v66h257l58 75h61z" />
    <glyph glyph-name="lessequal" unicode="&#x2264;" horiz-adv-x="545" 
d="M506 171l-466 162v84l466 164v-79l-222 -75l-149 -47v-8l149 -48l222 -75v-78zM40 70h466v-67h-466v67z" />
    <glyph glyph-name="greaterequal" unicode="&#x2265;" horiz-adv-x="545" 
d="M40 171v78l221 75l150 48v8l-150 47l-221 75v79l466 -164v-84zM40 70h466v-67h-466v67z" />
    <glyph glyph-name="uniFBB2" unicode="&#xfbb2;" horiz-adv-x="0" 
d="M-66 59l57 71l75 -59l-57 -71z" />
    <glyph glyph-name="uniFBB3" unicode="&#xfbb3;" horiz-adv-x="0" 
d="M-66 -55l57 71l75 -59l-57 -71z" />
    <glyph glyph-name="uniFBB4" unicode="&#xfbb4;" horiz-adv-x="0" 
d="M-128 57l56 68l71 -57l-55 -68zM56 125l72 -57l-56 -68l-71 57z" />
    <glyph glyph-name="uniFBB5" unicode="&#xfbb5;" horiz-adv-x="0" 
d="M-128 -68l56 68l71 -57l-55 -68zM56 0l72 -57l-56 -68l-71 57z" />
    <glyph glyph-name="uniFBB6" unicode="&#xfbb6;" horiz-adv-x="0" 
d="M-119 53l51 64l66 -53l-51 -64zM-15 240l67 -53l-51 -64l-67 53zM53 117l66 -53l-51 -64l-66 53z" />
    <glyph glyph-name="uniFBB9" unicode="&#xfbb9;" horiz-adv-x="0" 
d="M-119 -64l51 64l66 -52l-51 -64zM-4 -112l67 -53l-51 -63l-66 52zM53 0l66 -52l-51 -64l-66 52z" />
    <glyph glyph-name="uniFD3E" unicode="&#xfd3e;" horiz-adv-x="355" 
d="M119 -18q-26 104 -26 221q0 116 26 219.5t88 213.5l57 -44q-47 -73 -74 -179t-27 -210q0 -105 27 -211t74 -179l-57 -44q-62 109 -88 213z" />
    <glyph glyph-name="uniFD3F" unicode="&#xfd3f;" horiz-adv-x="355" 
d="M168.5 -8.5q27.5 106.5 27.5 211.5q0 104 -27.5 210t-74.5 179l58 44q62 -110 88 -213.5t26 -219.5q0 -117 -26 -221t-88 -213l-58 44q47 72 74.5 178.5z" />
    <glyph glyph-name="uni0627.short" horiz-adv-x="220" 
d="M142 535l7 -535l-66 -9l-19 530z" />
    <glyph glyph-name="uni0627.fina.short" horiz-adv-x="290" 
d="M128 45q-45 45 -52 151l-12 325l78 14l5 -338q1 -51 32 -74.5t83 -23.5h28q3 0 5 -8t2 -19v-46q0 -11 -2 -18.5t-5 -7.5h-20q-97 0 -142 45z" />
    <glyph glyph-name="uni0769.fina" horiz-adv-x="777" 
d="M611 54q5 -93 5 -137q0 -43 -44 -74.5t-114 -47.5t-146 -16q-124 0 -181 45t-57 135q0 30 10 99.5t33 207.5l62 -12q-38 -228 -38 -278q0 -52 46 -75.5t125 -23.5q170 0 237 53l-35 380l76 16l14 -150q4 -35 22 -51.5t46.5 -21t79.5 -4.5h25q3 0 5 -8t2 -19v-46
q0 -11 -2 -18.5t-5 -7.5h-22q-109 0 -144 54zM273 427l57 71l75 -59l-57 -71zM283 664.5q-20 39.5 -47 82.5l39 19q45 -78 64 -132q22 63 66 132l37 -25q-48 -73 -80 -160l-42 -6q-17 50 -37 89.5z" />
    <glyph glyph-name="uni06440627.fina.alt" horiz-adv-x="564" 
d="M418 16q-39 16 -55 55q-43 -48 -128.5 -78.5t-185.5 -44.5l-12 97q109 18 188.5 48t103.5 58l-23 545l78 14l13 -534q0 -33 15.5 -49.5t44.5 -22t79 -5.5h28q3 0 5 -8t2 -19v-46q0 -11 -2 -18.5t-5 -7.5h-31q-76 0 -115 16zM155 494q26 -86 37 -178.5t11 -176.5l-64 -15
q0 69 -11.5 161.5t-37.5 177.5z" />
    <glyph glyph-name="uni06440627.alt" horiz-adv-x="473" 
d="M225.5 93q79.5 30 103.5 58l-23 545l78 14l12 -553q2 -86 -101.5 -138t-245.5 -71l-12 97q109 18 188.5 48zM155 494q26 -86 37 -178.5t11 -176.5l-64 -15q0 69 -11.5 161.5t-37.5 177.5z" />
    <glyph glyph-name="uni06280698.fina" horiz-adv-x="696" 
d="M43 473l51 64l67 -53l-52 -64zM83 -90q62 55 80 108l-32 278l77 15l5 -45q4 -34 36.5 -44.5t99.5 -10.5q81 0 133 26l-3 88l72 9l2 -124q1 -45 14.5 -68.5t43.5 -33t85 -9.5q3 0 5 -8t2 -19v-46q0 -11 -2 -18.5t-5 -7.5q-68 0 -109.5 14.5t-64.5 47.5t-31 92
q-28 -20 -64.5 -31t-77.5 -11q-90 0 -125 35q6 -72 6 -110q0 -85 -69 -165.5t-201 -141.5l-49 76q110 49 172 104zM147 660l67 -53l-51 -64l-66 53zM215 537l67 -53l-52 -64l-66 53zM396 -67l75 -59l-58 -71l-74 59z" />
    <glyph glyph-name="uni067E0631.fina" horiz-adv-x="690" 
d="M218 147q6 -72 6 -110q0 -85 -69 -165.5t-201 -141.5l-49 76q110 49 172 104t80 108l-32 278l77 15l5 -45q4 -34 36.5 -44.5t99.5 -10.5q81 0 133 26l-3 88l72 9l2 -124q1 -45 14.5 -68.5t43.5 -33t85 -9.5q3 0 5 -8t2 -19v-46q0 -11 -2 -18.5t-5 -7.5q-68 0 -109.5 14.5
t-64.5 47.5t-31 92q-28 -20 -64.5 -31t-77.5 -11q-90 0 -125 35zM274 -146l51 64l66 -52l-51 -64zM389 -194l67 -53l-51 -63l-66 52zM446 -82l66 -52l-51 -64l-66 52z" />
    <glyph glyph-name="uni067E0632.fina" horiz-adv-x="690" 
d="M85 479l57 71l75 -59l-58 -71zM77 -90q62 55 80 108l-32 278l77 15l5 -45q4 -34 36.5 -44.5t99.5 -10.5q81 0 133 26l-3 88l72 9l2 -124q1 -45 14.5 -68.5t43.5 -33t85 -9.5q3 0 5 -8t2 -19v-46q0 -11 -2 -18.5t-5 -7.5q-68 0 -109.5 14.5t-64.5 47.5t-31 92
q-28 -20 -64.5 -31t-77.5 -11q-90 0 -125 35q6 -72 6 -110q0 -85 -69 -165.5t-201 -141.5l-49 76q110 49 172 104zM325 -82l67 -53l-52 -63l-66 52zM390 -194l67 -53l-52 -64l-66 53zM446 -82l67 -53l-52 -63l-66 52z" />
    <glyph glyph-name="uni067E0698.fina" horiz-adv-x="690" 
d="M274 -146l51 64l67 -53l-52 -63zM77 -90q62 55 80 108l-32 278l77 15l5 -45q4 -34 36.5 -44.5t99.5 -10.5q81 0 133 26l-3 88l72 9l2 -124q1 -45 14.5 -68.5t43.5 -33t85 -9.5q3 0 5 -8t2 -19v-46q0 -11 -2 -18.5t-5 -7.5q-68 0 -109.5 14.5t-64.5 47.5t-31 92
q-28 -20 -64.5 -31t-77.5 -11q-90 0 -125 35q6 -72 6 -110q0 -85 -69 -165.5t-201 -141.5l-49 76q110 49 172 104zM83 537l66 -53l-51 -64l-67 53zM136 660l67 -53l-51 -64l-67 53zM204 537l66 -53l-51 -64l-67 53zM390 -194l67 -53l-52 -64l-66 53zM446 -82l67 -53l-52 -63
l-66 52z" />
    <glyph glyph-name="uni067E0646.fina" horiz-adv-x="1078" 
d="M968.5 14.5q-41.5 14.5 -64.5 47.5t-31 92q-28 -20 -64.5 -31t-77.5 -11q-92 0 -127 36q12 -170 12 -231q0 -43 -44 -74.5t-114 -47.5t-146 -16q-124 0 -181 45t-57 135q0 30 10 99.5t33 207.5l62 -12q-38 -228 -38 -278q0 -52 46 -75.5t125 -23.5q170 0 237 53l-35 380
l76 16l5 -59v-1q4 -34 36.5 -44.5t99.5 -10.5q81 0 133 26l-3 88l72 9l2 -124q1 -45 14.5 -68.5t43.5 -33t85 -9.5q3 0 5 -8t2 -19v-46q0 -11 -2 -18.5t-5 -7.5q-68 0 -109.5 14.5zM331 498l74 -59l-57 -71l-75 59zM715 -78l66 -52l-51 -64l-67 52zM779 -190l67 -53l-51 -63
l-67 52zM836 -78l66 -52l-51 -64l-67 52z" />
    <glyph glyph-name="uni067E0649.fina" horiz-adv-x="916" 
d="M130.5 -198q-56.5 46 -56.5 139q0 20 8.5 80.5t22.5 144.5l12 77l62 -12q-38 -228 -38 -278q0 -52 46.5 -75.5t124.5 -23.5q91 0 153 13.5t102 49.5q10 28 10 48q0 54 -51 61l-33 3q-53 5 -79 10t-41 19t-15 41q0 63 37.5 127.5t95 106t110.5 41.5q46 0 75.5 -19
t46.5 -46.5t37 -73.5q21 -46 37.5 -72.5t45.5 -45t73 -18.5q3 0 5.5 -8t2.5 -19v-46q0 -11 -2.5 -18.5t-5.5 -7.5q-61 0 -100 24t-60 57.5t-45 88.5q-18 41 -30.5 63t-32 37t-47.5 15q-34 0 -73 -23t-67.5 -59.5t-33.5 -73.5q82 -7 124.5 -17.5t67 -42t24.5 -94.5
q0 -117 -93.5 -168t-237.5 -51q-125 0 -181.5 46zM709 -171l51 64l66 -52l-51 -64zM824 -219l67 -53l-51 -63l-66 52zM881 -107l66 -52l-51 -64l-66 52z" />
    <glyph glyph-name="uni062A0632.fina" horiz-adv-x="696" 
d="M90 479l58 71l74 -59l-57 -71zM83 -90q62 55 80 108l-32 278l77 15l5 -45q4 -34 36.5 -44.5t99.5 -10.5q81 0 133 26l-3 88l72 9l2 -124q1 -45 14.5 -68.5t43.5 -33t85 -9.5q3 0 5 -8t2 -19v-46q0 -11 -2 -18.5t-5 -7.5q-68 0 -109.5 14.5t-64.5 47.5t-31 92
q-28 -20 -64.5 -31t-77.5 -11q-90 0 -125 35q6 -72 6 -110q0 -85 -69 -165.5t-201 -141.5l-49 76q110 49 172 104zM433 563l71 -57l-55 -68l-71 57zM561 563l72 -57l-55 -68l-72 57z" />
    <glyph glyph-name="uni062A0698.fina" horiz-adv-x="696" 
d="M224 147q6 -72 6 -110q0 -85 -69 -165.5t-201 -141.5l-49 76q110 49 172 104t80 108l-32 278l77 15l5 -45q4 -34 36.5 -44.5t99.5 -10.5q81 0 133 26l-3 88l72 9l2 -124q1 -45 14.5 -68.5t43.5 -33t85 -9.5q3 0 5 -8t2 -19v-46q0 -11 -2 -18.5t-5 -7.5q-68 0 -109.5 14.5
t-64.5 47.5t-31 92q-28 -20 -64.5 -31t-77.5 -11q-90 0 -125 35zM88 537l67 -53l-51 -64l-67 53zM142 660l67 -53l-52 -64l-66 53zM209 537l67 -53l-51 -64l-67 53zM433 563l71 -57l-55 -68l-71 57zM561 563l72 -57l-55 -68l-72 57z" />
    <glyph glyph-name="uni062A0646.fina" horiz-adv-x="1078" 
d="M968.5 14.5q-41.5 14.5 -64.5 47.5t-31 92q-28 -20 -64.5 -31t-77.5 -11q-92 0 -127 36q12 -170 12 -231q0 -43 -44 -74.5t-114 -47.5t-146 -16q-124 0 -181 45t-57 135q0 30 10 99.5t33 207.5l62 -12q-38 -228 -38 -278q0 -52 46 -75.5t125 -23.5q170 0 237 53l-35 380
l76 16l5 -59v-1q4 -34 36.5 -44.5t99.5 -10.5q81 0 133 26l-3 88l72 9l2 -124q1 -45 14.5 -68.5t43.5 -33t85 -9.5q3 0 5 -8t2 -19v-46q0 -11 -2 -18.5t-5 -7.5q-68 0 -109.5 14.5zM331 498l74 -59l-57 -71l-75 59zM816 576l72 -57l-55 -68l-72 57zM945 576l71 -57l-55 -68
l-71 57z" />
    <glyph glyph-name="uni062A0649.fina" horiz-adv-x="916" 
d="M130.5 -198q-56.5 46 -56.5 139q0 20 8.5 80.5t22.5 144.5l12 77l62 -12q-38 -228 -38 -278q0 -52 46.5 -75.5t124.5 -23.5q91 0 153 13.5t102 49.5q10 28 10 48q0 54 -51 61l-33 3q-53 5 -79 10t-41 19t-15 41q0 63 37.5 127.5t95 106t110.5 41.5q46 0 75.5 -19
t46.5 -46.5t37 -73.5q21 -46 37.5 -72.5t45.5 -45t73 -18.5q3 0 5.5 -8t2.5 -19v-46q0 -11 -2.5 -18.5t-5.5 -7.5q-61 0 -100 24t-60 57.5t-45 88.5q-18 41 -30.5 63t-32 37t-47.5 15q-34 0 -73 -23t-67.5 -59.5t-33.5 -73.5q82 -7 124.5 -17.5t67 -42t24.5 -94.5
q0 -117 -93.5 -168t-237.5 -51q-125 0 -181.5 46zM473 543l56 68l71 -57l-55 -68zM657 611l72 -57l-56 -68l-71 57z" />
    <glyph glyph-name="uni062B0632.fina" horiz-adv-x="696" 
d="M90 479l58 71l74 -59l-57 -71zM83 -90q62 55 80 108l-32 278l77 15l5 -45q4 -34 36.5 -44.5t99.5 -10.5q81 0 133 26l-3 88l72 9l2 -124q1 -45 14.5 -68.5t43.5 -33t85 -9.5q3 0 5 -8t2 -19v-46q0 -11 -2 -18.5t-5 -7.5q-68 0 -109.5 14.5t-64.5 47.5t-31 92
q-28 -20 -64.5 -31t-77.5 -11q-90 0 -125 35q6 -72 6 -110q0 -85 -69 -165.5t-201 -141.5l-49 76q110 49 172 104zM437 555l67 -53l-52 -64l-66 53zM490 678l67 -53l-51 -64l-66 53zM558 555l67 -53l-52 -64l-66 53z" />
    <glyph glyph-name="uni062B0698.fina" horiz-adv-x="696" 
d="M224 147q6 -72 6 -110q0 -85 -69 -165.5t-201 -141.5l-49 76q110 49 172 104t80 108l-32 278l77 15l5 -45q4 -34 36.5 -44.5t99.5 -10.5q81 0 133 26l-3 88l72 9l2 -124q1 -45 14.5 -68.5t43.5 -33t85 -9.5q3 0 5 -8t2 -19v-46q0 -11 -2 -18.5t-5 -7.5q-68 0 -109.5 14.5
t-64.5 47.5t-31 92q-28 -20 -64.5 -31t-77.5 -11q-90 0 -125 35zM88 537l67 -53l-51 -64l-67 53zM142 660l67 -53l-52 -64l-66 53zM209 537l67 -53l-51 -64l-67 53zM437 555l67 -53l-52 -64l-66 53zM490 678l67 -53l-51 -64l-66 53zM558 555l67 -53l-52 -64l-66 53z" />
    <glyph glyph-name="uni062B0646.fina" horiz-adv-x="1078" 
d="M968.5 14.5q-41.5 14.5 -64.5 47.5t-31 92q-28 -20 -64.5 -31t-77.5 -11q-92 0 -127 36q12 -170 12 -231q0 -43 -44 -74.5t-114 -47.5t-146 -16q-124 0 -181 45t-57 135q0 30 10 99.5t33 207.5l62 -12q-38 -228 -38 -278q0 -52 46 -75.5t125 -23.5q170 0 237 53l-35 380
l76 16l5 -59v-1q4 -34 36.5 -44.5t99.5 -10.5q81 0 133 26l-3 88l72 9l2 -124q1 -45 14.5 -68.5t43.5 -33t85 -9.5q3 0 5 -8t2 -19v-46q0 -11 -2 -18.5t-5 -7.5q-68 0 -109.5 14.5zM331 498l74 -59l-57 -71l-75 59zM821 555l66 -53l-51 -64l-67 53zM874 678l67 -53l-51 -64
l-67 53zM942 555l66 -53l-51 -64l-67 53z" />
    <glyph glyph-name="uni06B50627.fina.alt" horiz-adv-x="564" 
d="M418 16q-39 16 -55 55q-43 -48 -128.5 -78.5t-185.5 -44.5l-12 97q109 18 188.5 48t103.5 58l-23 545l78 14l13 -534q0 -33 15.5 -49.5t44.5 -22t79 -5.5h28q3 0 5 -8t2 -19v-46q0 -11 -2 -18.5t-5 -7.5h-31q-76 0 -115 16zM79 660q70 -116 97 -253.5t27 -267.5l-64 -15
q0 108 -27 246t-91 240zM292 866.5q-20 39.5 -47 82.5l39 19q45 -78 64 -132q22 63 66 132l37 -25q-48 -73 -80 -160l-42 -6q-17 50 -37 89.5z" />
    <glyph glyph-name="uni06B50627.alt" horiz-adv-x="473" 
d="M225.5 93q79.5 30 103.5 58l-23 545l78 14l12 -553q2 -86 -101.5 -138t-245.5 -71l-12 97q109 18 188.5 48zM79 660q70 -116 97 -253.5t27 -267.5l-64 -15q0 108 -27 246t-91 240zM292 862.5q-20 39.5 -47 82.5l39 19q45 -78 64 -132q22 63 66 132l37 -25
q-48 -73 -80 -160l-42 -6q-17 50 -37 89.5z" />
    <glyph glyph-name="uni06460632.fina" horiz-adv-x="696" 
d="M90 479l58 71l74 -59l-57 -71zM83 -90q62 55 80 108l-32 278l77 15l5 -45q4 -34 36.5 -44.5t99.5 -10.5q81 0 133 26l-3 88l72 9l2 -124q1 -45 14.5 -68.5t43.5 -33t85 -9.5q3 0 5 -8t2 -19v-46q0 -11 -2 -18.5t-5 -7.5q-68 0 -109.5 14.5t-64.5 47.5t-31 92
q-28 -20 -64.5 -31t-77.5 -11q-90 0 -125 35q6 -72 6 -110q0 -85 -69 -165.5t-201 -141.5l-49 76q110 49 172 104zM496 568l75 -59l-57 -71l-75 59z" />
    <glyph glyph-name="uni06460698.fina" horiz-adv-x="696" 
d="M224 147q6 -72 6 -110q0 -85 -69 -165.5t-201 -141.5l-49 76q110 49 172 104t80 108l-32 278l77 15l5 -45q4 -34 36.5 -44.5t99.5 -10.5q81 0 133 26l-3 88l72 9l2 -124q1 -45 14.5 -68.5t43.5 -33t85 -9.5q3 0 5 -8t2 -19v-46q0 -11 -2 -18.5t-5 -7.5q-68 0 -109.5 14.5
t-64.5 47.5t-31 92q-28 -20 -64.5 -31t-77.5 -11q-90 0 -125 35zM88 537l67 -53l-51 -64l-67 53zM142 660l67 -53l-52 -64l-66 53zM209 537l67 -53l-51 -64l-67 53zM496 568l75 -59l-57 -71l-75 59z" />
    <glyph glyph-name="uni06460646.fina" horiz-adv-x="1078" 
d="M968.5 14.5q-41.5 14.5 -64.5 47.5t-31 92q-28 -20 -64.5 -31t-77.5 -11q-92 0 -127 36q12 -170 12 -231q0 -43 -44 -74.5t-114 -47.5t-146 -16q-124 0 -181 45t-57 135q0 30 10 99.5t33 207.5l62 -12q-38 -228 -38 -278q0 -52 46 -75.5t125 -23.5q170 0 237 53l-35 380
l76 16l5 -59v-1q4 -34 36.5 -44.5t99.5 -10.5q81 0 133 26l-3 88l72 9l2 -124q1 -45 14.5 -68.5t43.5 -33t85 -9.5q3 0 5 -8t2 -19v-46q0 -11 -2 -18.5t-5 -7.5q-68 0 -109.5 14.5zM331 498l74 -59l-57 -71l-75 59zM880 568l75 -59l-57 -71l-75 59z" />
    <glyph glyph-name="uni06460649.fina" horiz-adv-x="916" 
d="M130.5 -198q-56.5 46 -56.5 139q0 20 8.5 80.5t22.5 144.5l12 77l62 -12q-38 -228 -38 -278q0 -52 46.5 -75.5t124.5 -23.5q91 0 153 13.5t102 49.5q10 28 10 48q0 54 -51 61l-33 3q-53 5 -79 10t-41 19t-15 41q0 63 37.5 127.5t95 106t110.5 41.5q46 0 75.5 -19
t46.5 -46.5t37 -73.5q21 -46 37.5 -72.5t45.5 -45t73 -18.5q3 0 5.5 -8t2.5 -19v-46q0 -11 -2.5 -18.5t-5.5 -7.5q-61 0 -100 24t-60 57.5t-45 88.5q-18 41 -30.5 63t-32 37t-47.5 15q-34 0 -73 -23t-67.5 -59.5t-33.5 -73.5q82 -7 124.5 -17.5t67 -42t24.5 -94.5
q0 -117 -93.5 -168t-237.5 -51q-125 0 -181.5 46zM535 545l57 71l75 -59l-57 -71z" />
    <glyph glyph-name="uni064A0632.fina" horiz-adv-x="696" 
d="M90 479l58 71l74 -59l-57 -71zM83 -90q62 55 80 108l-32 278l77 15l5 -45q4 -34 36.5 -44.5t99.5 -10.5q81 0 133 26l-3 88l72 9l2 -124q1 -45 14.5 -68.5t43.5 -33t85 -9.5q3 0 5 -8t2 -19v-46q0 -11 -2 -18.5t-5 -7.5q-68 0 -109.5 14.5t-64.5 47.5t-31 92
q-28 -20 -64.5 -31t-77.5 -11q-90 0 -125 35q6 -72 6 -110q0 -85 -69 -165.5t-201 -141.5l-49 76q110 49 172 104zM321 -82l72 -57l-56 -68l-71 56zM449 -82l72 -57l-55 -68l-72 56z" />
    <glyph glyph-name="uni064A0646.fina" horiz-adv-x="1078" 
d="M968.5 14.5q-41.5 14.5 -64.5 47.5t-31 92q-28 -20 -64.5 -31t-77.5 -11q-92 0 -127 36q12 -170 12 -231q0 -43 -44 -74.5t-114 -47.5t-146 -16q-124 0 -181 45t-57 135q0 30 10 99.5t33 207.5l62 -12q-38 -228 -38 -278q0 -52 46 -75.5t125 -23.5q170 0 237 53l-35 380
l76 16l5 -59v-1q4 -34 36.5 -44.5t99.5 -10.5q81 0 133 26l-3 88l72 9l2 -124q1 -45 14.5 -68.5t43.5 -33t85 -9.5q3 0 5 -8t2 -19v-46q0 -11 -2 -18.5t-5 -7.5q-68 0 -109.5 14.5zM331 498l74 -59l-57 -71l-75 59zM710 -78l72 -57l-55 -68l-72 57zM839 -78l71 -57l-55 -68
l-71 57z" />
    <glyph glyph-name="uni064A0698.fina" horiz-adv-x="696" 
d="M224 147q6 -72 6 -110q0 -85 -69 -165.5t-201 -141.5l-49 76q110 49 172 104t80 108l-32 278l77 15l5 -45q4 -34 36.5 -44.5t99.5 -10.5q81 0 133 26l-3 88l72 9l2 -124q1 -45 14.5 -68.5t43.5 -33t85 -9.5q3 0 5 -8t2 -19v-46q0 -11 -2 -18.5t-5 -7.5q-68 0 -109.5 14.5
t-64.5 47.5t-31 92q-28 -20 -64.5 -31t-77.5 -11q-90 0 -125 35zM88 537l67 -53l-51 -64l-67 53zM142 660l67 -53l-52 -64l-66 53zM209 537l67 -53l-51 -64l-67 53zM321 -82l72 -57l-56 -68l-71 56zM449 -82l72 -57l-55 -68l-72 56z" />
    <glyph glyph-name="uni06260632.fina" horiz-adv-x="696" 
d="M90 479l58 71l74 -59l-57 -71zM83 -90q62 55 80 108l-32 278l77 15l5 -45q4 -34 36.5 -44.5t99.5 -10.5q81 0 133 26l-3 88l72 9l2 -124q1 -45 14.5 -68.5t43.5 -33t85 -9.5q3 0 5 -8t2 -19v-46q0 -11 -2 -18.5t-5 -7.5q-68 0 -109.5 14.5t-64.5 47.5t-31 92
q-28 -20 -64.5 -31t-77.5 -11q-90 0 -125 35q6 -72 6 -110q0 -85 -69 -165.5t-201 -141.5l-49 76q110 49 172 104zM389 469l77 22q-26 46 -26 80q0 30 25 46.5t65 16.5q14 0 44 -5v-44q-33 5 -53 5q-27 0 -43 -10q0 -32 29 -77l113 33v-47l-231 -66v46z" />
    <glyph glyph-name="uni06260646.fina" horiz-adv-x="1078" 
d="M968.5 14.5q-41.5 14.5 -64.5 47.5t-31 92q-28 -20 -64.5 -31t-77.5 -11q-92 0 -127 36q12 -170 12 -231q0 -43 -44 -74.5t-114 -47.5t-146 -16q-124 0 -181 45t-57 135q0 30 10 99.5t33 207.5l62 -12q-38 -228 -38 -278q0 -52 46 -75.5t125 -23.5q170 0 237 53l-35 380
l76 16l5 -59v-1q4 -34 36.5 -44.5t99.5 -10.5q81 0 133 26l-3 88l72 9l2 -124q1 -45 14.5 -68.5t43.5 -33t85 -9.5q3 0 5 -8t2 -19v-46q0 -11 -2 -18.5t-5 -7.5q-68 0 -109.5 14.5zM331 498l74 -59l-57 -71l-75 59zM773 469l77 22q-26 46 -26 80q0 30 25 46.5t65 16.5
q14 0 44 -5v-44q-33 5 -53 5q-27 0 -43 -10q0 -32 29 -77l113 33v-47l-231 -66v46z" />
    <glyph glyph-name="uni06F0.ss05" horiz-adv-x="652" 
d="M240 83.5q-39 22.5 -61.5 61.5t-22.5 87t22.5 86.5t61.5 60.5t87 22t86.5 -22t60.5 -60.5t22 -86.5t-22 -87t-60.5 -61.5t-86.5 -22.5t-87 22.5zM257.5 165.5q27.5 -26.5 69.5 -26.5q41 0 68.5 26.5t27.5 66.5q0 38 -28.5 65t-67.5 27q-40 0 -68.5 -27t-28.5 -65
q0 -40 27.5 -66.5z" />
    <glyph glyph-name="uni06F1.ss05" horiz-adv-x="652" 
d="M392 0l-67 -7q0 184 -15 360.5t-48 309.5l75 17q55 -251 55 -680z" />
    <glyph glyph-name="uni06F2.ss05" horiz-adv-x="652" 
d="M295 362q-26 7 -46 20q14 -174 14 -382l-67 -7q0 184 -15 360.5t-48 309.5l75 17q12 -49 35 -178q4 -27 26.5 -38t70.5 -11q83 0 115 28l-19 185l74 14l10 -197q3 -66 -48 -97t-124 -31q-27 0 -53 7z" />
    <glyph glyph-name="uni06F3.ss05" horiz-adv-x="652" 
d="M173 378q13 -176 13 -378l-67 -7q0 184 -15 360.5t-48 309.5l75 17q8 -30 25 -122l10 -56q8 -49 83 -49q40 0 75 17l-6 190l70 7l4 -202q22 -12 54 -12q62 0 87 28l-19 185l74 14l10 -196q2 -43 -20 -72t-56.5 -43t-67.5 -14q-69 0 -94 32q-18 -18 -46.5 -25t-58.5 -7
q-49 0 -82 23z" />
    <glyph glyph-name="uni06F4.ss05" horiz-adv-x="652" 
d="M202 331q12 -140 12 -331l-67 -7q0 186 -16 342.5t-52 290.5l74 17q25 -99 39 -212q18 -17 41 -22.5t58 -4.5q-35 61 -35 147q0 63 45.5 96t110.5 33q43 0 106 -17l-19 -77q-58 10 -92 10q-19 0 -42 -5.5t-41 -15.5q0 -46 10 -89t28 -76q58 4 104.5 13t101.5 27l5 -90
q-101 -29 -158.5 -40t-112.5 -11q-58 0 -100 22z" />
    <glyph glyph-name="uni06F5.ss05" horiz-adv-x="652" 
d="M113.5 30q-37.5 35 -37.5 103q0 99 61 217t148 223l-34 30l-15 13l55 68q143 -122 214.5 -267t71.5 -301q0 -63 -44 -92t-98 -29q-39 0 -64.5 11t-41.5 41q-18 -25 -49.5 -38.5t-69.5 -13.5q-59 0 -96.5 35zM173 109q21 -15 54 -15q52 0 71 27l-3 70l63 5l3 -85
q23 -18 68 -18q58 0 80 27q-4 128 -46.5 225t-125.5 182q-90 -116 -137.5 -205.5t-47.5 -166.5q0 -31 21 -46z" />
    <glyph glyph-name="uni06F6.ss05" horiz-adv-x="652" 
d="M313 326q-74 17 -114 68t-40 127q0 70 47 114.5t121 44.5q47 0 104 -20l-16 -72q-51 10 -87 10q-34 0 -62 -12.5t-44 -37.5q1 -74 43.5 -111.5t142.5 -38.5l113 62l22 -82q-86 -40 -147.5 -89.5t-115.5 -120t-122 -185.5l-48 45q99 194 203 298z" />
    <glyph glyph-name="uni06F7.ss05" horiz-adv-x="652" 
d="M271 216.5q-22 105.5 -67.5 216.5t-111.5 199l61 48q68 -97 114.5 -214t59.5 -236q39 267 179 450l56 -55q-68 -88 -114 -200t-67.5 -216.5t-21.5 -173.5v-35l-66 -7v40q0 78 -22 183.5z" />
    <glyph glyph-name="uni06F8.ss05" horiz-adv-x="652" 
d="M383 456.5q22 -105.5 67.5 -216.5t111.5 -199l-61 -48q-68 97 -114.5 214t-59.5 236q-39 -267 -179 -450l-56 55q68 88 114 200t67.5 216.5t21.5 173.5v35l66 7v-40q0 -78 22 -183.5z" />
    <glyph glyph-name="uni06F9.ss05" horiz-adv-x="652" 
d="M431.5 153q-5.5 86 -5.5 140v7q-74 -17 -126 -17q-62 0 -97.5 9.5t-52.5 34.5q-18 25 -18 66q0 61 15.5 126.5t55.5 113t107 47.5q96 0 140 -80.5t44 -211.5q0 -92 6.5 -195t19.5 -188l-74 -22q-9 84 -14.5 170zM301 381q80 0 125 14q0 103 -27.5 151t-88.5 48
q-57 0 -85 -52.5t-28 -146.5q31 -14 104 -14z" />
    <glyph glyph-name="uni06F4.urdu" horiz-adv-x="580" 
d="M238.5 97.5q-26.5 54.5 -73.5 140.5q-57 103 -85.5 168t-28.5 116q0 72 36 115t98 43q91 0 123 -57q34 57 121 57q51 0 79 -32l-51 -74q-8 4 -21 6t-24 2q-38 -1 -56 -21.5t-18 -68.5v-72l-61 5v125q-12 18 -31.5 24.5t-49.5 6.5q-35 0 -55.5 -17.5t-20.5 -53.5
q0 -30 20 -74t65 -124q44 -79 73.5 -139.5t48.5 -120.5l-49 -59q-13 50 -39.5 104.5z" />
    <glyph glyph-name="uni06F7.urdu" horiz-adv-x="594" 
d="M207.5 315.5q51.5 124.5 55.5 277.5l66 6q-6 -163 -44 -279t-104 -216q169 25 368 24l-43 -97q-237 -4 -405 -38l-56 63q111 135 162.5 259.5z" />
    <glyph glyph-name="zero.dnom" horiz-adv-x="395" 
d="M80.5 46q-43.5 59 -43.5 165q0 104 43.5 162.5t118.5 58.5q74 0 117.5 -59t43.5 -162q0 -105 -43.5 -164.5t-117.5 -59.5q-75 0 -118.5 59zM132 88.5q24 -42.5 67 -42.5q41 0 65 43.5t24 121.5t-24 120t-65 42q-43 0 -67 -42t-24 -120q0 -80 24 -122.5z" />
    <glyph glyph-name="dotmaster" horiz-adv-x="0" 
 />
    <glyph glyph-name="wasla-ar" horiz-adv-x="0" 
d="M-50 9.5q-24 9.5 -24 36.5v31q-24 -7 -57 -64l-33 20q15 35 46 66.5t73 28.5v-57q0 -8 6 -12t11 -4q31 43 60 72t63 29q35 0 50.5 -20t15.5 -62q0 -27 -8 -36q-16 -17 -52.5 -27.5t-79.5 -10.5q-47 0 -71 9.5zM72.5 48.5q26.5 3.5 54.5 13.5q0 26 -7.5 38t-27.5 12
q-18 0 -38 -16.5t-49 -50.5q41 0 67.5 3.5z" />
    <glyph glyph-name="gafsarkashabove-ar" horiz-adv-x="0" 
d="M-89 495l163 79l5 -40l-172 -82z" />
    <glyph glyph-name="hamzacenter-ar" horiz-adv-x="0" 
d="M-65 82q0 30 25 46.5t65 16.5q14 0 44 -5v-44q-33 5 -53 5q-27 0 -43 -10q0 -32 29 -77l113 33v-47l-231 -66v46l77 22q-26 46 -26 80z" />
    <glyph glyph-name="uni0654064F" horiz-adv-x="0" 
d="M-119 140l102 29q-20 3 -20 30q0 15 8 40t26 45t46 20q34 0 55 -31t21 -71q0 -28 -12.5 -38.5t-48.5 -20.5l-170 -48zM-116 -91l77 22q-26 46 -26 80q0 30 25 46.5t65 16.5q14 0 44 -5v-44q-33 5 -53 5q-27 0 -43 -10q0 -32 29 -77l113 33v-47l-231 -66v46zM39 188
q24 0 42 6q0 33 -11 51t-30 18q-16 0 -27 -19.5t-12 -49.5q16 -6 38 -6z" />
    <glyph glyph-name="uni0654064C" horiz-adv-x="0" 
d="M-119 124l7 2q-13 26 -13 51q0 13 4 31.5t10 39.5q5 22 7 29l39 -14q-19 -60 -19 -86q0 -18 13 -39l54 15q-20 3 -20 30q0 15 8 40t26 45t46 20q34 0 55 -31t21 -71q0 -28 -12.5 -38.5t-48.5 -20.5l-170 -48zM-116 -107l77 22q-26 46 -26 80q0 30 25 46.5t65 16.5
q14 0 44 -5v-44q-33 5 -53 5q-27 0 -43 -10q0 -32 29 -77l113 33v-47l-231 -66v46zM39 172q24 0 42 6q0 33 -11 51t-30 18q-16 0 -27 -19.5t-12 -49.5q16 -6 38 -6z" />
    <glyph glyph-name="uni0654064E" horiz-adv-x="0" 
d="M-65 147q0 30 25 46.5t65 16.5q14 0 44 -5v-44q-33 5 -53 5q-27 0 -43 -10q0 -32 29 -77l113 33v-47l-231 -66v46l77 22q-26 46 -26 80zM-112 271l231 67v-47l-231 -66v46z" />
    <glyph glyph-name="uni0654064B" horiz-adv-x="0" 
d="M-65 16q0 30 25 46.5t65 16.5q14 0 44 -5v-44q-33 5 -53 5q-27 0 -43 -10q0 -32 29 -77l113 33v-47l-231 -66v46l77 22q-26 46 -26 80zM-112 140l231 67v-47l-231 -66v46zM-112 239l231 67v-47l-231 -66v46z" />
    <glyph glyph-name="uni06540652" horiz-adv-x="0" 
d="M-65 -12q0 30 25 46.5t65 16.5q14 0 44 -5v-44q-33 5 -53 5q-27 0 -43 -10q0 -32 29 -77l113 33v-47l-231 -66v46l77 22q-26 46 -26 80zM-77 174q0 24 14 42.5t37 26.5q15 5 27 5q23 0 42 -13t28 -38q5 -15 5 -28q0 -23 -13 -42t-38 -28l-33 -11q-12 -4 -23 -4
q-27 0 -37 29l78 26q25 10 25 29q0 7 -3 16q-7 20 -29 20q-17 0 -27.5 -8t-10.5 -21q0 -7 3 -15l-40 -14q-5 15 -5 28z" />
    <glyph glyph-name="uni06550650" horiz-adv-x="0" 
d="M-61 134q0 30 25 46.5t65 16.5q14 0 44 -5v-44q-33 5 -53 5q-27 0 -43 -10q0 -32 29 -77l113 33v-47l-231 -66v46l77 22q-26 46 -26 80zM-112 -64l231 67v-47l-231 -66v46z" />
    <glyph glyph-name="uni0655064D" horiz-adv-x="0" 
d="M-61 151q0 30 25 46.5t65 16.5q14 0 44 -5v-44q-33 5 -53 5q-27 0 -43 -10q0 -32 29 -77l113 33v-47l-231 -66v46l77 22q-26 46 -26 80zM-112 -47l231 67v-47l-231 -66v46zM-112 -146l231 67v-47l-231 -66v46z" />
    <glyph glyph-name="uni0651064B" horiz-adv-x="0" 
d="M-84 67q0 -19 22 -19q12 0 25 5.5t20 15.5v54l34 6v-42q0 -12 5.5 -17t16.5 -5t24 6t19 12q0 36 -7 75l36 16q7 -39 7 -81q0 -32 -25 -52t-56 -20q-22 0 -35 16q-12 -15 -31.5 -24.5t-39.5 -9.5q-23 0 -36.5 12t-13.5 34q0 21 5 57l35 6q-5 -30 -5 -45zM-112 202l231 67
v-47l-231 -66v46zM-112 301l231 67v-47l-231 -66v46z" />
    <glyph glyph-name="uni0651064C" horiz-adv-x="0" 
d="M-99 -89q0 -19 22 -19q12 0 25 5.5t20 15.5v54l34 6v-42q0 -12 5.5 -17t16.5 -5t24 6t19 12q0 36 -7 75l36 16q7 -39 7 -81q0 -32 -25 -52t-56 -20q-22 0 -35 16q-12 -15 -31.5 -24.5t-39.5 -9.5q-23 0 -36.5 12t-13.5 34q0 21 5 57l35 6q-5 -30 -5 -45zM-127 45l2 1
q-15 30 -15 56q0 14 4.5 34t10.5 43l6 21l39 -12q-19 -58 -19 -86q0 -21 17 -44l51 14q-12 2 -16.5 10t-4.5 21q0 15 8 40t26 45t46 20q34 0 55 -31t21 -71q0 -28 -12.5 -38.5t-48.5 -20.5l-170 -48v46zM24 92q24 0 42 6q0 68 -40 68q-18 0 -28.5 -19t-11.5 -50q13 -5 38 -5
z" />
    <glyph glyph-name="uni0651064D" horiz-adv-x="0" 
d="M-84 53q0 -19 22 -19q12 0 25 5.5t20 15.5v54l34 6v-42q0 -12 5.5 -17t16.5 -5t24 6t19 12q0 36 -7 75l36 16q7 -39 7 -81q0 -32 -25 -52t-56 -20q-22 0 -35 16q-12 -15 -31.5 -24.5t-39.5 -9.5q-23 0 -36.5 12t-13.5 34q0 21 5 57l35 6q-5 -30 -5 -45zM-113 -83l231 67
v-47l-231 -66v46zM-113 -182l231 67v-47l-231 -66v46z" />
    <glyph glyph-name="uni0651064E" horiz-adv-x="0" 
d="M-84 53q0 -19 22 -19q12 0 25 5.5t20 15.5v54l34 6v-42q0 -12 5.5 -17t16.5 -5t24 6t19 12q0 36 -7 75l36 16q7 -39 7 -81q0 -32 -25 -52t-56 -20q-22 0 -35 16q-12 -15 -31.5 -24.5t-39.5 -9.5q-23 0 -36.5 12t-13.5 34q0 21 5 57l35 6q-5 -30 -5 -45zM-112 188l231 67
v-47l-231 -66v46z" />
    <glyph glyph-name="uni0651064F" horiz-adv-x="0" 
d="M-84 6q0 -19 22 -19q12 0 25 5.5t20 15.5v54l34 6v-42q0 -12 5.5 -17t16.5 -5t24 6t19 12q0 36 -7 75l36 16q7 -39 7 -81q0 -32 -25 -52t-56 -20q-22 0 -35 16q-12 -15 -31.5 -24.5t-39.5 -9.5q-23 0 -36.5 12t-13.5 34q0 21 5 57l35 6q-5 -30 -5 -45zM-112 140l96 27
q-12 2 -16.5 10t-4.5 21q0 15 8 40t26 45t46 20q34 0 55 -31t21 -71q0 -28 -12.5 -38.5t-48.5 -20.5l-170 -48v46zM39 187q24 0 42 6q0 68 -40 68q-18 0 -28.5 -19t-11.5 -50q13 -5 38 -5z" />
    <glyph glyph-name="uni06510650" horiz-adv-x="0" 
d="M-84 53q0 -19 22 -19q12 0 25 5.5t20 15.5v54l34 6v-42q0 -12 5.5 -17t16.5 -5t24 6t19 12q0 36 -7 75l36 16q7 -39 7 -81q0 -32 -25 -52t-56 -20q-22 0 -35 16q-12 -15 -31.5 -24.5t-39.5 -9.5q-23 0 -36.5 12t-13.5 34q0 21 5 57l35 6q-5 -30 -5 -45zM-112 -79l231 67
v-47l-231 -66v46z" />
    <glyph glyph-name="uni06510670" horiz-adv-x="0" 
d="M-84 53q0 -19 22 -19q12 0 25 5.5t20 15.5v54l34 6v-42q0 -12 5.5 -17t16.5 -5t24 6t19 12q0 36 -7 75l36 16q7 -39 7 -81q0 -32 -25 -52t-56 -20q-22 0 -35 16q-12 -15 -31.5 -24.5t-39.5 -9.5q-23 0 -36.5 12t-13.5 34q0 21 5 57l35 6q-5 -30 -5 -45zM-20 283l41 7
l-4 -132h-33z" />
    <glyph glyph-name="vbelow-ar" horiz-adv-x="0" 
d="M-56 89.5q-20 39.5 -47 82.5l39 19q45 -78 64 -132q22 63 66 132l37 -25q-48 -73 -80 -160l-42 -6q-17 50 -37 89.5z" />
    <glyph glyph-name="dad-yeh2-ar" horiz-adv-x="1033" 
d="M74 -54q0 55 42 132t107 132.5t130 55.5q40 0 60 -19t41 -57l10 -18q76 94 158 163t156 69q181 0 181 -228q0 -28 -6 -53t-19 -39q-39 -38 -127.5 -61t-218.5 -23q-56 0 -92 17t-54 40.5t-36 58.5q-15 29 -27.5 43t-32.5 14q-36 0 -80 -35.5t-79.5 -87.5t-45.5 -96
q15 -44 68.5 -56.5t159.5 -12.5q58 0 122.5 3t142.5 8l-22 -98q-159 -12 -268 -12q-270 0 -270 160zM591 99q88 0 161 10t137 36q0 86 -23 130.5t-86 44.5q-53 0 -125.5 -53.5t-149.5 -143.5q34 -24 86 -24zM577 554l57 71l75 -59l-57 -71z" />
    <glyph glyph-name="gafswash-ar" horiz-adv-x="972" 
d="M305.5 589.5q35.5 30.5 67.5 45.5l6 -45q-35 -17 -70.5 -50t-58.5 -69l-5 55q25 33 60.5 63.5zM288.5 96q84.5 -2 232.5 -2q126 0 205.5 19.5t101.5 48.5q-6 53 -62 73.5t-164 20.5q-194 0 -262.5 3t-92 15t-23.5 45q0 59 44.5 118.5t115 99.5t142.5 44l11 -87
q-54 -3 -105 -24t-87 -52t-48 -63q21 -8 73.5 -10t175.5 -2q117 0 192.5 -15t117 -56.5t41.5 -118.5q0 -41 -47.5 -77.5t-137 -58.5t-211.5 -22q-140 0 -371 12l-56 99q130 -8 214.5 -10z" />
    <glyph glyph-name="kafcheh" horiz-adv-x="0" 
d="M-6.5 65q42.5 11 56.5 32q0 22 -18.5 30.5t-53.5 13.5q-32 5 -47.5 11.5t-15.5 23.5q0 25 14.5 65.5t40 71.5t58.5 31q24 0 42.5 -14t34.5 -40l-29 -26q-23 27 -48 27q-26 0 -45 -29.5t-25 -65.5q50 -4 78 -12t42 -27t14 -53q0 -49 -55 -78t-148 -29l4 57q58 0 100.5 11z
" />
    <glyph glyph-name="sad-yeh2-ar" horiz-adv-x="1033" 
d="M74 -54q0 55 42 132t107 132.5t130 55.5q40 0 60 -19t41 -57l10 -18q76 94 158 163t156 69q181 0 181 -228q0 -28 -6 -53t-19 -39q-39 -38 -127.5 -61t-218.5 -23q-56 0 -92 17t-54 40.5t-36 58.5q-15 29 -27.5 43t-32.5 14q-36 0 -80 -35.5t-79.5 -87.5t-45.5 -96
q15 -44 68.5 -56.5t159.5 -12.5q58 0 122.5 3t142.5 8l-22 -98q-159 -12 -268 -12q-270 0 -270 160zM591 99q88 0 161 10t137 36q0 86 -23 130.5t-86 44.5q-53 0 -125.5 -53.5t-149.5 -143.5q34 -24 86 -24z" />
    <glyph glyph-name="seen-yeh2-ar" horiz-adv-x="1023" 
d="M74 -54q0 55 42 132t107 132.5t130 55.5q29 0 48 -11.5t29.5 -27.5t25.5 -44q20 -41 40.5 -62.5t61.5 -21.5q59 0 86 16l-3 203l70 2v-203q17 -18 59 -18q30 0 53.5 3.5t41.5 16.5l-18 241l75 14l3 -52q1 -18 4 -84t3 -117q0 -62 -44.5 -91.5t-104.5 -29.5
q-35 0 -61.5 12.5t-37.5 38.5q-12 -28 -46.5 -39.5t-67.5 -11.5q-50 0 -82 16.5t-48 38.5t-34 58q-15 32 -27 46t-33 14q-36 0 -80 -35.5t-79.5 -87.5t-45.5 -96q15 -44 68.5 -56.5t159.5 -12.5q58 0 122.5 3t142.5 8l-22 -98q-159 -12 -268 -12q-270 0 -270 160z" />
    <glyph glyph-name="sheen-yeh2-ar" horiz-adv-x="1023" 
d="M74 -54q0 55 42 132t107 132.5t130 55.5q29 0 48 -11.5t29.5 -27.5t25.5 -44q20 -41 40.5 -62.5t61.5 -21.5q59 0 86 16l-3 203l70 2v-203q17 -18 59 -18q30 0 53.5 3.5t41.5 16.5l-18 241l75 14l3 -52q1 -18 4 -84t3 -117q0 -62 -44.5 -91.5t-104.5 -29.5
q-35 0 -61.5 12.5t-37.5 38.5q-12 -28 -46.5 -39.5t-67.5 -11.5q-50 0 -82 16.5t-48 38.5t-34 58q-15 32 -27 46t-33 14q-36 0 -80 -35.5t-79.5 -87.5t-45.5 -96q15 -44 68.5 -56.5t159.5 -12.5q58 0 122.5 3t142.5 8l-22 -98q-159 -12 -268 -12q-270 0 -270 160zM535 476
l51 64l66 -53l-51 -64zM639 663l67 -53l-51 -64l-67 53zM707 540l66 -53l-51 -64l-66 53z" />
    <glyph glyph-name="ain-ar-k.fina" horiz-adv-x="641" 
d="M387 28q-38 28 -61 70q-152 -61 -179 -181q0 -93 62 -136.5t160 -43.5q82 0 187 29l-5 -97q-98 -29 -187 -29q-128 0 -209 61t-81 190q0 74 45 148.5t133 117.5q-44 68 -72 108.5t-37.5 49t-18.5 6.5l-25 -4l5 80q113 22 258 22q163 0 163 -76v-24q0 -30 -41.5 -90
t-78.5 -87q19 -20 39.5 -31.5t59.5 -11.5h137q3 0 5 -8t2 -19v-46q0 -11 -2 -18.5t-5 -7.5h-145q-71 0 -109 28zM244.5 289q20.5 -28 83.5 -120q36 20 77.5 66t48.5 80q-12 17 -104 17q-39 0 -78 -2.5t-60 -5.5q12 -7 32.5 -35z" />
    <glyph glyph-name="beh-yeh2-ar.fina" horiz-adv-x="578" 
d="M74 -54q0 55 42 132t107 132.5t130 55.5q29 0 47 -10.5t29 -25.5t25 -42q15 -29 27.5 -47t36 -30t60.5 -12q3 0 5.5 -8t2.5 -19v-46q0 -11 -2.5 -18.5t-5.5 -7.5q-53 0 -86.5 16.5t-51 40t-34.5 57.5q-16 31 -27.5 45t-32.5 14q-36 0 -80 -35.5t-79.5 -87.5t-45.5 -96
q15 -44 68.5 -56.5t159.5 -12.5q58 0 122.5 3t142.5 8l-22 -98q-159 -12 -268 -12q-270 0 -270 160zM281 -392l57 71l75 -59l-57 -71z" />
    <glyph glyph-name="behdotless-yeh2-ar.fina" horiz-adv-x="578" 
d="M74 -54q0 55 42 132t107 132.5t130 55.5q29 0 47 -10.5t29 -25.5t25 -42q15 -29 27.5 -47t36 -30t60.5 -12q3 0 5.5 -8t2.5 -19v-46q0 -11 -2.5 -18.5t-5.5 -7.5q-53 0 -86.5 16.5t-51 40t-34.5 57.5q-16 31 -27.5 45t-32.5 14q-36 0 -80 -35.5t-79.5 -87.5t-45.5 -96
q15 -44 68.5 -56.5t159.5 -12.5q58 0 122.5 3t142.5 8l-22 -98q-159 -12 -268 -12q-270 0 -270 160z" />
    <glyph glyph-name="behdotless_alefMaksura-ar.fina" horiz-adv-x="916" 
d="M130.5 -198q-56.5 46 -56.5 139q0 20 8.5 80.5t22.5 144.5l12 77l62 -12q-38 -228 -38 -278q0 -52 46.5 -75.5t124.5 -23.5q91 0 153 13.5t102 49.5q10 28 10 48q0 54 -51 61l-33 3q-53 5 -79 10t-41 19t-15 41q0 63 37.5 127.5t95 106t110.5 41.5q46 0 75.5 -19
t46.5 -46.5t37 -73.5q21 -46 37.5 -72.5t45.5 -45t73 -18.5q3 0 5.5 -8t2.5 -19v-46q0 -11 -2.5 -18.5t-5.5 -7.5q-61 0 -100 24t-60 57.5t-45 88.5q-18 41 -30.5 63t-32 37t-47.5 15q-34 0 -73 -23t-67.5 -59.5t-33.5 -73.5q82 -7 124.5 -17.5t67 -42t24.5 -94.5
q0 -117 -93.5 -168t-237.5 -51q-125 0 -181.5 46z" />
    </font>
</defs>
</svg>
